<svg width="100" height="100" viewBox="0 0 100 100" fill="none" xmlns="http://www.w3.org/2000/svg">
<g clip-path="url(#clip0_2109_34546)">
<ellipse opacity="0.6" cx="42.8972" cy="43.7504" rx="42.5" ry="43" transform="rotate(48.1925 42.8972 43.7504)" fill="url(#paint0_radial_2109_34546)"/>
<circle opacity="0.6" cx="51.5795" cy="72.2018" r="25.5" transform="rotate(48.1925 51.5795 72.2018)" fill="url(#paint1_radial_2109_34546)"/>
<circle opacity="0.6" cx="74.2143" cy="60.0143" r="25.5" transform="rotate(48.1925 74.2143 60.0143)" fill="url(#paint2_radial_2109_34546)"/>
<path fill-rule="evenodd" clip-rule="evenodd" d="M44.9778 10.3297C44.9392 10.5836 44.6553 10.7584 43.7412 11.0909C39.9387 12.4742 36.6409 14.9628 34.3612 18.1695C32.8759 20.2587 31.4169 23.737 31.0292 26.1127C30.9448 26.6294 30.8848 26.6855 30.3373 26.7589C29.0552 26.9309 27.8539 27.8059 27.2617 28.9995C27.0483 29.4295 26.9591 29.9355 26.9591 30.7155C26.9591 31.6719 27.0228 31.9255 27.4306 32.5905C27.7136 33.0517 28.2202 33.5692 28.6969 33.8839L29.4914 34.4084L28.9625 35.4464C28.085 37.1689 27.9825 39.2194 28.6894 40.9111C29.3516 42.4959 31.1831 44.1167 32.7667 44.5191C33.8706 44.7997 33.8819 44.8108 34.4311 46.1719C35.3369 48.4167 36.1773 49.4972 39.9061 53.2102C44.5755 57.8598 44.47 57.8125 50.1622 57.8125C55.6936 57.8125 55.8164 57.7625 59.7539 53.9078C63.9123 49.837 65.025 48.4416 65.8875 46.2155C66.4334 44.8064 66.4223 44.8186 67.3528 44.5805C68.4992 44.2872 69.468 43.7055 70.3517 42.7795C72.2506 40.7902 72.6409 37.9569 71.3619 35.4464L70.833 34.4084L71.6275 33.8839C72.1042 33.5692 72.6108 33.0517 72.8937 32.5905C73.3016 31.9255 73.3653 31.6719 73.3653 30.7155C73.3653 29.9355 73.2761 29.4295 73.0627 28.9995C72.4705 27.8059 71.2692 26.9309 69.987 26.7589C69.4395 26.6855 69.3795 26.6294 69.2952 26.1127C68.9117 23.7625 67.5611 20.498 66.0719 18.3214C65.0289 16.7972 62.9391 14.6836 61.4122 13.6088C60.0314 12.6366 58.2011 11.6839 56.5684 11.0875C55.668 10.7586 55.385 10.583 55.3466 10.3297C55.297 10.002 55.2659 10 50.1622 10C45.0584 10 45.0273 10.002 44.9778 10.3297ZM52.6622 18.4375V24.2188H53.9903H55.3184V18.8305V13.442L56.1028 13.7512C58.323 14.6264 59.9372 15.6794 61.6967 17.4003C64.0395 19.6917 65.6014 22.3223 66.3298 25.2041L66.693 26.6406L58.4277 26.6811C53.8816 26.7033 46.4428 26.7033 41.8967 26.6811L33.6314 26.6406L33.9945 25.2041C34.723 22.3223 36.2848 19.6917 38.6277 17.4003C40.3872 15.6794 42.0014 14.6264 44.2216 13.7512L45.0059 13.442V18.8305V24.2188H46.3341H47.6622V18.4375V12.6562H50.1622H52.6622V18.4375ZM39.8497 22.8906V24.2188H41.1778H42.5059V22.8906V21.5625H41.1778H39.8497V22.8906ZM57.8184 22.8906V24.2188H59.1466H60.4747V22.8906V21.5625H59.1466H57.8184V22.8906ZM70.0059 29.5772C70.8783 30.0184 70.9167 31.3109 70.0689 31.6972C69.5114 31.9513 30.813 31.9513 30.2555 31.6972C29.4077 31.3109 29.4461 30.0184 30.3184 29.5772C30.8909 29.2877 69.4334 29.2877 70.0059 29.5772ZM64.222 38.3984C64.2188 42.942 64.0859 43.7986 63.0622 45.8728C62.2419 47.5348 61.1116 48.8773 57.7761 52.1505C54.6689 55.1997 54.985 55.0781 50.1622 55.0781C45.3394 55.0781 45.6555 55.1997 42.5483 52.1505C38.3069 47.9883 37.083 46.2945 36.4072 43.6527C36.1411 42.6117 36.0997 41.9175 36.0997 38.4906V34.5312H50.1622H64.2247L64.222 38.3984ZM33.3242 39.1798C33.3517 40.9894 33.3113 41.8753 33.2008 41.8752C32.7831 41.8747 31.7173 40.8667 31.3455 40.1205C30.4402 38.3037 31.0278 36.2045 32.7403 35.137L33.2091 34.8448L33.2461 35.6645C33.2664 36.1155 33.3016 37.6973 33.3242 39.1798ZM68.3964 35.807C69.8903 37.3644 69.6609 40.13 67.9325 41.4011C67.2228 41.9231 66.7911 42.0219 66.9423 41.6278C66.9945 41.4919 67.0372 39.9081 67.0372 38.1083V34.8358L67.4669 35.0608C67.7031 35.1845 68.1216 35.5203 68.3964 35.807ZM38.4434 57.2527V58.0989L32.4669 60.0905C25.1098 62.5419 23.842 63.1742 21.6333 65.4938C20.0595 67.1463 18.7705 69.41 18.2216 71.4844C18.0852 72 17.3408 76.2188 16.5677 80.8594C15.7944 85.5 15.1253 89.455 15.0808 89.6484L15 90H50.1622H85.3244L85.2436 89.6484C85.1991 89.455 84.53 85.5 83.7567 80.8594C82.9836 76.2188 82.2392 72 82.1028 71.4844C81.1423 67.8541 78.4275 64.4978 74.9884 62.6889C74.3291 62.3422 71.2708 61.2278 67.8575 60.0905L61.8809 58.0989V57.2527V56.4062H60.4747H59.0684L59.0641 57.8516C59.0603 59.0845 58.927 59.8241 58.157 62.8858L57.2545 66.4748L54.6862 63.3936L52.118 60.3125H50.1622H48.2064L45.6381 63.3936L43.0698 66.4748L42.1673 62.8858C41.3973 59.8241 41.2641 59.0845 41.2603 57.8516L41.2559 56.4062H39.8497H38.4434V57.2527ZM40.2434 66.2891C40.9967 69.3183 41.6581 71.8844 41.7136 71.9912C41.7767 72.1133 42.3478 71.5425 43.2466 70.4589L44.6789 68.7319L45.4228 69.8506L46.1667 70.9694L45.0037 79.1566L43.8406 87.3438H36.7547H29.6686L29.7511 86.9141C29.9377 85.9428 30.8236 76.2577 30.7447 76.0522C30.6861 75.8994 30.2788 75.7973 29.4473 75.727C28.7808 75.6708 28.22 75.6423 28.2011 75.6639C28.1822 75.6855 28.0148 77.2852 27.8294 79.2188C27.6439 81.1523 27.4619 82.88 27.425 83.0578C27.3578 83.3811 27.3567 83.3811 23.2708 82.868C21.0228 82.5858 19.1555 82.3266 19.1209 82.2922C18.9786 82.1498 20.6756 72.6558 21.0375 71.5694C21.5291 70.0942 22.4222 68.5691 23.4589 67.4347C24.3689 66.4389 26.3909 65.0533 27.6622 64.5544C28.4792 64.2338 38.5697 60.8191 38.7759 60.7934C38.83 60.7867 39.4903 63.2598 40.2434 66.2891ZM67.0855 62.6484C70.1534 63.6753 73.0305 64.6997 73.4786 64.9248C76.2736 66.3288 78.3213 68.6712 79.2869 71.5694C79.6488 72.6558 81.3458 82.1498 81.2034 82.2922C81.1689 82.3266 79.3016 82.5858 77.0536 82.868C72.9677 83.3811 72.9666 83.3811 72.8994 83.0578C72.8625 82.88 72.6805 81.1523 72.495 79.2188C72.3095 77.2852 72.1422 75.6855 72.1233 75.6639C72.1044 75.6423 71.5436 75.6708 70.877 75.727C70.0456 75.7973 69.6383 75.8994 69.5797 76.0522C69.5008 76.2577 70.3867 85.9428 70.5733 86.9141L70.6558 87.3438H63.5697H56.4837L55.3206 79.1566L54.1577 70.9694L54.9016 69.8506L55.6455 68.7319L57.0778 70.4589C57.9766 71.5425 58.5477 72.1133 58.6108 71.9912C58.6663 71.8844 59.3277 69.3183 60.0809 66.2891C60.8341 63.2598 61.4631 60.7812 61.4787 60.7812C61.4944 60.7812 64.0173 61.6214 67.0855 62.6484ZM52.1369 64.5092C54.0331 66.7948 53.9875 66.3733 52.5692 68.5028L51.343 70.3441L52.4878 78.4142C53.1175 82.8528 53.6692 86.6778 53.7139 86.9141L53.795 87.3438H50.1622H46.5294L46.6105 86.9141C46.6552 86.6778 47.2069 82.8528 47.8366 78.4142L48.9814 70.3441L47.7552 68.5028C46.3369 66.3733 46.2912 66.7948 48.1875 64.5092C49.4519 62.9856 49.4631 62.9769 50.1622 62.9769C50.8612 62.9769 50.8725 62.9856 52.1369 64.5092ZM22.9747 85.5455C27.567 86.105 27.1344 85.9809 27.0639 86.7192L27.0044 87.3438H22.6256H18.2469L18.3539 86.5234C18.5534 84.9939 18.5684 84.9683 19.2052 85.0672C19.5167 85.1155 21.213 85.3308 22.9747 85.5455ZM81.7772 85.3516C81.8247 85.545 81.9116 86.0723 81.9705 86.5234L82.0775 87.3438H77.6987H73.32L73.2605 86.7188C73.2277 86.375 73.2027 86.0905 73.205 86.0866C73.2139 86.0708 81.1944 85.0344 81.4344 85.0178C81.5792 85.0077 81.7284 85.153 81.7772 85.3516Z" fill="#062549"/>
<path fill-rule="evenodd" clip-rule="evenodd" d="M39.8496 22.8906V24.2188H41.1777H42.5059V22.8906V21.5625H41.1777H39.8496V22.8906ZM57.8184 22.8906V24.2188H59.1465H60.4746V22.8906V21.5625H59.1465H57.8184V22.8906ZM70.0059 29.5772C70.8782 30.0184 70.9166 31.3109 70.0688 31.6972C69.5113 31.9513 30.8129 31.9513 30.2554 31.6972C29.4076 31.3109 29.446 30.0184 30.3184 29.5772C30.8909 29.2877 69.4334 29.2877 70.0059 29.5772Z" fill="#062549"/>
<path fill-rule="evenodd" clip-rule="evenodd" d="M52.6622 18.4375V24.2188H53.9903H55.3184V18.8305V13.442L56.1028 13.7512C58.323 14.6264 59.9372 15.6794 61.6967 17.4003C64.0395 19.6917 65.6014 22.3223 66.3298 25.2041L66.693 26.6406L58.4277 26.6811C53.8816 26.7033 46.4428 26.7033 41.8967 26.6811L33.6314 26.6406L33.9945 25.2041C34.723 22.3223 36.2848 19.6917 38.6277 17.4003C40.3872 15.6794 42.0014 14.6264 44.2216 13.7512L45.0059 13.442V18.8305V24.2188H46.3341H47.6622V18.4375V12.6562H50.1622H52.6622V18.4375ZM39.8497 22.8906V24.2188H41.1778H42.5059V22.8906V21.5625H41.1778H39.8497V22.8906ZM57.8184 22.8906V24.2188H59.1466H60.4747V22.8906V21.5625H59.1466H57.8184V22.8906ZM70.0059 29.5772C70.8783 30.0184 70.9167 31.3109 70.0689 31.6972C69.5114 31.9513 30.813 31.9513 30.2555 31.6972C29.4077 31.3109 29.4461 30.0184 30.3184 29.5772C30.8909 29.2877 69.4334 29.2877 70.0059 29.5772ZM64.222 38.3984C64.2188 42.942 64.0859 43.7986 63.0622 45.8728C62.2419 47.5348 61.1116 48.8773 57.7761 52.1505C54.6689 55.1997 54.985 55.0781 50.1622 55.0781C45.3394 55.0781 45.6555 55.1997 42.5483 52.1505C38.3069 47.9883 37.083 46.2945 36.4072 43.6527C36.1411 42.6117 36.0997 41.9175 36.0997 38.4906V34.5312H50.1622H64.2247L64.222 38.3984ZM33.3242 39.1798C33.3517 40.9894 33.3113 41.8753 33.2008 41.8752C32.7831 41.8747 31.7173 40.8667 31.3455 40.1205C30.4402 38.3037 31.0278 36.2045 32.7403 35.137L33.2091 34.8448L33.2461 35.6645C33.2664 36.1155 33.3016 37.6973 33.3242 39.1798ZM68.3964 35.807C69.8903 37.3644 69.6609 40.13 67.9325 41.4011C67.2228 41.9231 66.7911 42.0219 66.9423 41.6278C66.9945 41.4919 67.0372 39.9081 67.0372 38.1083V34.8358L67.4669 35.0608C67.7031 35.1845 68.1216 35.5203 68.3964 35.807ZM40.2434 66.2891C40.9967 69.3183 41.6581 71.8844 41.7136 71.9912C41.7767 72.1133 42.3478 71.5425 43.2466 70.4589L44.6789 68.7319L45.4228 69.8506L46.1667 70.9694L45.0037 79.1566L43.8406 87.3438H36.7547H29.6686L29.7511 86.9141C29.9377 85.9428 30.8236 76.2577 30.7447 76.0522C30.6861 75.8994 30.2788 75.7973 29.4473 75.727C28.7808 75.6708 28.22 75.6423 28.2011 75.6639C28.1822 75.6855 28.0148 77.2852 27.8294 79.2188C27.6439 81.1523 27.4619 82.88 27.425 83.0578C27.3578 83.3811 27.3567 83.3811 23.2708 82.868C21.0228 82.5858 19.1555 82.3266 19.1209 82.2922C18.9786 82.1498 20.6756 72.6558 21.0375 71.5694C21.5291 70.0942 22.4222 68.5691 23.4589 67.4347C24.3689 66.4389 26.3909 65.0533 27.6622 64.5544C28.4792 64.2337 38.5697 60.8191 38.7759 60.7934C38.83 60.7867 39.4903 63.2598 40.2434 66.2891ZM67.0855 62.6484C70.1534 63.6753 73.0305 64.6997 73.4786 64.9248C76.2736 66.3288 78.3212 68.6712 79.2869 71.5694C79.6488 72.6558 81.3458 82.1498 81.2034 82.2922C81.1689 82.3266 79.3016 82.5858 77.0536 82.868C72.9677 83.3811 72.9666 83.3811 72.8994 83.0578C72.8625 82.88 72.6805 81.1523 72.495 79.2188C72.3095 77.2852 72.1422 75.6855 72.1233 75.6639C72.1044 75.6423 71.5436 75.6708 70.877 75.727C70.0456 75.7973 69.6383 75.8994 69.5797 76.0522C69.5008 76.2577 70.3867 85.9428 70.5733 86.9141L70.6558 87.3438H63.5697H56.4837L55.3206 79.1566L54.1577 70.9694L54.9016 69.8506L55.6455 68.7319L57.0778 70.4589C57.9766 71.5425 58.5477 72.1133 58.6108 71.9912C58.6663 71.8844 59.3277 69.3183 60.0809 66.2891C60.8341 63.2598 61.4631 60.7812 61.4787 60.7812C61.4944 60.7812 64.0173 61.6214 67.0855 62.6484ZM52.1369 64.5092C54.0331 66.7948 53.9875 66.3733 52.5692 68.5028L51.343 70.3441L52.4878 78.4142C53.1175 82.8528 53.6692 86.6778 53.7139 86.9141L53.795 87.3438H50.1622H46.5294L46.6105 86.9141C46.6552 86.6778 47.2069 82.8528 47.8366 78.4142L48.9814 70.3441L47.7552 68.5028C46.3369 66.3733 46.2913 66.7948 48.1875 64.5092C49.4519 62.9856 49.4631 62.9769 50.1622 62.9769C50.8612 62.9769 50.8725 62.9856 52.1369 64.5092ZM22.9747 85.5455C27.567 86.105 27.1344 85.9809 27.0639 86.7192L27.0044 87.3438H22.6256H18.2469L18.3539 86.5234C18.5534 84.9939 18.5684 84.9683 19.2052 85.0672C19.5167 85.1155 21.213 85.3308 22.9747 85.5455ZM81.7772 85.3516C81.8247 85.545 81.9116 86.0723 81.9705 86.5234L82.0775 87.3438H77.6987H73.32L73.2605 86.7188C73.2277 86.375 73.2027 86.0905 73.205 86.0866C73.2139 86.0708 81.1944 85.0344 81.4344 85.0178C81.5792 85.0077 81.7284 85.153 81.7772 85.3516Z" fill="white"/>
</g>
<defs>
<radialGradient id="paint0_radial_2109_34546" cx="0" cy="0" r="1" gradientUnits="userSpaceOnUse" gradientTransform="translate(42.8972 43.7504) scale(42.5 43)">
<stop stop-color="#4E97ED"/>
<stop offset="1" stop-color="#2FC6E7" stop-opacity="0"/>
</radialGradient>
<radialGradient id="paint1_radial_2109_34546" cx="0" cy="0" r="1" gradientUnits="userSpaceOnUse" gradientTransform="translate(51.5795 72.2018) rotate(90) scale(25.5)">
<stop stop-color="#175CAB"/>
<stop offset="1" stop-color="#175CAB" stop-opacity="0"/>
</radialGradient>
<radialGradient id="paint2_radial_2109_34546" cx="0" cy="0" r="1" gradientUnits="userSpaceOnUse" gradientTransform="translate(74.2143 60.0143) rotate(90) scale(25.5)">
<stop stop-color="#74E6FF"/>
<stop offset="1" stop-color="#74E6FF" stop-opacity="0"/>
</radialGradient>
<clipPath id="clip0_2109_34546">
<rect width="100" height="100" fill="white"/>
</clipPath>
</defs>
</svg>
