<svg width="282" height="55" fill="none" xmlns="http://www.w3.org/2000/svg"><path d="M1.268 18.862c-.183 0-.325-.05-.425-.152a.646.646 0 01-.15-.43V1.732c0-.186.05-.33.15-.431a.524.524 0 01.425-.178h9.607c.183 0 .324.06.424.178.117.101.175.245.175.43v1.014a.591.591 0 01-.175.431c-.1.101-.241.152-.424.152H3.139V18.28a.591.591 0 01-.175.43c-.1.102-.24.152-.424.152H1.268zm17.478.254c-1.264 0-2.32-.245-3.169-.735a4.93 4.93 0 01-1.946-2.027c-.45-.879-.699-1.876-.749-2.99a19.41 19.41 0 01-.025-1.09c0-.456.009-.82.025-1.09.05-1.132.3-2.129.749-2.99a5.096 5.096 0 011.971-2.028c.849-.49 1.897-.735 3.144-.735 1.248 0 2.296.245 3.145.735a4.93 4.93 0 011.946 2.028c.466.861.724 1.858.774 2.99.016.27.025.634.025 1.09 0 .439-.009.802-.025 1.09-.05 1.114-.3 2.111-.749 2.99a4.93 4.93 0 01-1.946 2.027c-.849.49-1.905.735-3.17.735zm0-1.951c1.032 0 1.855-.33 2.47-.989.616-.676.95-1.655 1-2.94.016-.253.024-.574.024-.962 0-.389-.008-.71-.025-.963-.05-1.284-.383-2.256-.998-2.915-.616-.675-1.44-1.013-2.47-1.013-1.032 0-1.864.338-2.496 1.013-.616.66-.94 1.63-.973 2.915-.017.253-.025.574-.025.963 0 .388.008.71.025.963.033 1.284.357 2.263.973 2.94.632.658 1.464.988 2.495.988zm9.614 6.512a.573.573 0 01-.425-.177.553.553 0 01-.15-.406V6.268c0-.17.05-.304.15-.406a.573.573 0 01.424-.177h1.148c.167 0 .3.059.4.177a.51.51 0 01.174.406v1.115c.4-.558.932-1.022 1.597-1.394.666-.372 1.497-.558 2.496-.558.931 0 1.721.161 2.37.482.666.32 1.206.76 1.622 1.318.433.557.757 1.19.974 1.9.216.71.332 1.47.349 2.281a14.581 14.581 0 010 1.723 8.589 8.589 0 01-.35 2.281 5.853 5.853 0 01-.973 1.9c-.416.541-.956.98-1.622 1.318-.648.321-1.439.482-2.37.482-.965 0-1.78-.178-2.446-.532a5.32 5.32 0 01-1.597-1.369v5.88c0 .168-.05.303-.15.405a.525.525 0 01-.424.177H28.36zm5.29-6.614c.865 0 1.538-.186 2.02-.557.5-.389.858-.887 1.074-1.495a7.11 7.11 0 00.374-2.002c.017-.49.017-.98 0-1.47a6.824 6.824 0 00-.374-1.977 3.06 3.06 0 00-1.073-1.495c-.483-.389-1.156-.583-2.021-.583-.816 0-1.481.194-1.997.583a3.586 3.586 0 00-1.123 1.495 5.788 5.788 0 00-.399 1.825c-.017.27-.025.591-.025.963 0 .371.008.7.025.988a4.69 4.69 0 00.4 1.748 3.575 3.575 0 001.172 1.42c.516.371 1.165.557 1.947.557zm14.291 2.053c-1.264 0-2.32-.245-3.17-.735a4.93 4.93 0 01-1.946-2.027c-.449-.879-.698-1.876-.748-2.99a19.41 19.41 0 01-.025-1.09c0-.456.008-.82.025-1.09.05-1.132.3-2.129.748-2.99a5.096 5.096 0 011.972-2.028c.848-.49 1.896-.735 3.144-.735 1.248 0 2.296.245 3.144.735a4.93 4.93 0 011.947 2.028c.466.861.723 1.858.773 2.99.017.27.025.634.025 1.09 0 .439-.008.802-.025 1.09-.05 1.114-.3 2.111-.748 2.99a4.928 4.928 0 01-1.947 2.027c-.848.49-1.905.735-3.169.735zm0-1.951c1.031 0 1.855-.33 2.47-.989.616-.676.949-1.655.999-2.94.016-.253.025-.574.025-.962 0-.389-.009-.71-.025-.963-.05-1.284-.383-2.256-.998-2.915-.616-.675-1.44-1.013-2.471-1.013-1.031 0-1.863.338-2.495 1.013-.616.66-.94 1.63-.974 2.915a15.67 15.67 0 00-.025.963c0 .388.009.71.025.963.034 1.284.358 2.263.974 2.94.632.658 1.464.988 2.495.988zm8.265 4.485a.573.573 0 01-.424-.177.553.553 0 01-.15-.406v-3.65c0-.168.05-.303.15-.405a.573.573 0 01.424-.177h.125c.45-.017.832-.27 1.148-.76.316-.507.557-1.293.724-2.357.166-1.081.25-2.483.25-4.207V6.268c0-.17.05-.304.149-.406a.573.573 0 01.424-.177h7.96c.167 0 .3.059.4.177a.51.51 0 01.175.406v10.516h1.172c.183 0 .325.06.425.178.1.101.15.236.15.405v3.7c0 .17-.05.304-.15.406a.525.525 0 01-.425.177h-1.172a.573.573 0 01-.425-.177.553.553 0 01-.15-.406v-2.205h-9.033v2.205a.51.51 0 01-.175.406.496.496 0 01-.399.177h-1.173zm3.095-4.815l5.939-.05V7.711h-4.517V9.79c0 1.791-.125 3.26-.374 4.41-.25 1.132-.6 2.01-1.048 2.635zm17.857 2.281c-1.181 0-2.204-.228-3.07-.684a4.929 4.929 0 01-1.97-2.002c-.466-.879-.716-1.926-.75-3.143a16.269 16.269 0 01-.024-1.013c0-.423.008-.76.025-1.014.033-1.216.283-2.255.748-3.117a4.732 4.732 0 011.972-2.002c.865-.473 1.888-.71 3.07-.71.964 0 1.788.136 2.47.406.698.27 1.272.617 1.721 1.039.45.422.782.878.999 1.368.233.49.357.955.374 1.394a.447.447 0 01-.15.406.624.624 0 01-.424.152h-1.198c-.166 0-.29-.034-.374-.102a1.407 1.407 0 01-.25-.405c-.299-.828-.707-1.41-1.222-1.749-.516-.338-1.157-.507-1.922-.507-.998 0-1.813.313-2.445.938-.616.625-.949 1.63-.998 3.016-.017.608-.017 1.2 0 1.774.05 1.402.382 2.415.998 3.04.632.609 1.447.913 2.445.913.765 0 1.406-.17 1.922-.507.515-.338.923-.92 1.222-1.748.084-.186.167-.313.25-.38.083-.085.208-.127.374-.127h1.198a.62.62 0 01.424.152.447.447 0 01.15.405 3.745 3.745 0 01-.225 1.09 4.23 4.23 0 01-.648 1.14 4.79 4.79 0 01-1.073 1.014c-.433.287-.957.524-1.573.71-.598.168-1.28.253-2.046.253zm9.102-.254a.624.624 0 01-.424-.152.646.646 0 01-.15-.43V6.268c0-.17.05-.304.15-.406a.573.573 0 01.424-.177h1.173c.167 0 .3.059.4.177a.51.51 0 01.174.406v4.865h2.271l3.369-5.068a1.08 1.08 0 01.274-.279.701.701 0 01.4-.101h1.297a.66.66 0 01.375.101c.1.068.15.17.15.304a.393.393 0 01-.05.152.642.642 0 01-.075.152l-3.743 5.6 4.242 6.134a.51.51 0 01.124.329c0 .135-.05.236-.15.304a.54.54 0 01-.349.101H94.62a.653.653 0 01-.374-.101c-.1-.067-.191-.16-.275-.279l-3.668-5.296h-2.296v5.094a.591.591 0 01-.174.43.535.535 0 01-.4.152H86.26zm18.121.254c-1.265 0-2.321-.245-3.17-.735a4.931 4.931 0 01-1.946-2.027c-.45-.879-.699-1.876-.749-2.99a19.41 19.41 0 01-.025-1.09c0-.456.009-.82.025-1.09.05-1.132.3-2.129.749-2.99a5.099 5.099 0 011.971-2.028c.849-.49 1.897-.735 3.145-.735 1.247 0 2.295.245 3.144.735a4.93 4.93 0 011.946 2.028c.466.861.724 1.858.774 2.99.017.27.025.634.025 1.09 0 .439-.008.802-.025 1.09-.05 1.114-.3 2.111-.749 2.99a4.93 4.93 0 01-1.946 2.027c-.849.49-1.905.735-3.169.735zm0-1.951c1.031 0 1.855-.33 2.47-.989.616-.676.948-1.655.998-2.94.017-.253.025-.574.025-.962 0-.389-.008-.71-.025-.963-.05-1.284-.382-2.256-.998-2.915-.615-.675-1.439-1.013-2.47-1.013-1.032 0-1.864.338-2.496 1.013-.615.66-.94 1.63-.973 2.915-.017.253-.025.574-.025.963 0 .388.008.71.025.963.033 1.284.358 2.263.973 2.94.632.658 1.464.988 2.496.988zm9.563 1.697a.593.593 0 01-.4-.152.583.583 0 01-.149-.38V6.268a.556.556 0 01.574-.583h1.197c.167 0 .3.059.4.177a.556.556 0 01.149.406v10.744l-.648-.684 7.561-10.263c.083-.101.174-.186.274-.253a.561.561 0 01.375-.127h1.147c.133 0 .25.05.35.152a.46.46 0 01.174.355V18.28a.592.592 0 01-.174.43.536.536 0 01-.4.152h-1.172c-.183 0-.325-.05-.425-.152a.65.65 0 01-.149-.43V8.168l.698-.025-7.611 10.34a1.735 1.735 0 01-.249.253.598.598 0 01-.399.126h-1.123zm5.29-14.926c-.965 0-1.722-.152-2.271-.456-.549-.304-.932-.692-1.148-1.166a3.731 3.731 0 01-.324-1.52c0-.135.033-.245.1-.33.083-.1.208-.152.374-.152h.848c.15 0 .267.051.35.153a.45.45 0 01.124.329c0 .389.125.752.375 1.09.266.32.79.481 1.572.481.798 0 1.322-.16 1.572-.481.25-.338.374-.701.374-1.09a.45.45 0 01.125-.33.427.427 0 01.349-.152h.874c.15 0 .266.051.349.153a.45.45 0 01.125.329 3.5 3.5 0 01-.349 1.52c-.217.474-.599.862-1.148 1.166-.549.304-1.306.456-2.271.456zm29.234 18.474a.526.526 0 01-.425-.177.556.556 0 01-.149-.406v-2.965h-12.278a.524.524 0 01-.424-.177.645.645 0 01-.15-.43V1.705a.55.55 0 01.15-.405.524.524 0 01.424-.178h1.273c.183 0 .324.06.424.178a.51.51 0 01.175.405v14.876h8.584V1.706a.55.55 0 01.15-.405.572.572 0 01.424-.178h1.273c.183 0 .324.06.424.178a.512.512 0 01.175.405v14.876h1.222c.183 0 .325.059.425.177a.511.511 0 01.174.405v4.663a.512.512 0 01-.174.406.526.526 0 01-.425.177h-1.272zm9.741-3.294c-1.713 0-3.077-.532-4.092-1.597-1.015-1.08-1.572-2.55-1.672-4.41a11.212 11.212 0 01-.025-.835c0-.355.008-.642.025-.862.066-1.2.341-2.247.823-3.142.483-.913 1.14-1.614 1.972-2.104.848-.49 1.838-.735 2.969-.735 1.265 0 2.321.27 3.169.811.865.541 1.523 1.31 1.972 2.306.449.997.674 2.163.674 3.498v.43c0 .186-.059.33-.175.431a.535.535 0 01-.399.152h-8.635v.228c.034.693.183 1.343.45 1.952a3.613 3.613 0 001.147 1.444c.5.372 1.098.558 1.797.558.599 0 1.098-.093 1.497-.28.4-.185.724-.388.974-.607.249-.237.416-.414.499-.533.149-.22.266-.346.349-.38.083-.05.216-.076.399-.076h1.198c.167 0 .3.051.399.152.117.085.167.212.15.38-.016.254-.15.566-.399.938-.25.355-.607.71-1.073 1.064-.466.355-1.032.65-1.697.887-.665.22-1.431.33-2.296.33zm-3.394-7.805h6.838v-.076c0-.76-.142-1.436-.424-2.028a3.193 3.193 0 00-1.173-1.393c-.516-.355-1.131-.533-1.847-.533-.715 0-1.331.178-1.846.533-.5.337-.882.802-1.148 1.393-.266.592-.4 1.267-.4 2.028v.076zm12.766 7.551a.625.625 0 01-.424-.152.645.645 0 01-.15-.43V6.268c0-.17.05-.304.15-.406a.574.574 0 01.424-.177h1.198c.166 0 .3.059.399.177.1.102.15.237.15.406v4.865h6.813V6.268a.556.556 0 01.574-.583h1.172c.167 0 .3.059.4.177a.512.512 0 01.174.406V18.28a.592.592 0 01-.174.43.536.536 0 01-.4.152h-1.172a.626.626 0 01-.425-.152.65.65 0 01-.149-.43v-5.12h-6.813v5.12c0 .168-.05.312-.15.43a.534.534 0 01-.399.152h-1.198zm18.601 0a.626.626 0 01-.425-.152.65.65 0 01-.149-.43V7.712h-4.342a.626.626 0 01-.425-.152.65.65 0 01-.149-.43v-.862a.556.556 0 01.574-.583h10.979c.167 0 .3.059.4.177a.512.512 0 01.174.406v.861a.592.592 0 01-.174.431.536.536 0 01-.4.152h-4.342V18.28a.644.644 0 01-.149.43c-.1.102-.241.152-.424.152h-1.148zm9.4 4.815a.574.574 0 01-.424-.177.552.552 0 01-.15-.406V6.268c0-.17.05-.304.15-.406a.574.574 0 01.424-.177h1.148c.167 0 .3.059.4.177a.512.512 0 01.174.406v1.115c.399-.558.932-1.022 1.597-1.394.666-.372 1.498-.558 2.496-.558.931 0 1.722.161 2.37.482.666.32 1.207.76 1.622 1.318a5.86 5.86 0 01.974 1.9c.216.71.332 1.47.349 2.281.017.27.025.557.025.862 0 .304-.008.59-.025.861a8.613 8.613 0 01-.349 2.281 5.86 5.86 0 01-.974 1.9 4.67 4.67 0 01-1.622 1.318c-.648.321-1.439.482-2.37.482-.965 0-1.78-.178-2.446-.532a5.318 5.318 0 01-1.597-1.369v5.88c0 .168-.05.303-.15.405-.099.118-.241.177-.424.177h-1.198zm5.291-6.614c.865 0 1.539-.186 2.021-.557a3.221 3.221 0 001.073-1.495 7.11 7.11 0 00.374-2.002c.017-.49.017-.98 0-1.47a6.824 6.824 0 00-.374-1.977 3.06 3.06 0 00-1.073-1.495c-.482-.389-1.156-.583-2.021-.583-.815 0-1.481.194-1.997.583a3.583 3.583 0 00-1.123 1.495 5.777 5.777 0 00-.399 1.825c-.017.27-.025.591-.025.963 0 .371.008.7.025.988.017.591.15 1.174.399 1.748a3.588 3.588 0 001.173 1.42c.516.371 1.165.557 1.947.557zm16.216 1.799a.626.626 0 01-.425-.152.644.644 0 01-.149-.43v-1.065c0-.186.049-.33.149-.43a.575.575 0 01.425-.178h.873c.532 0 .99-.127 1.372-.38.383-.27.741-.684 1.073-1.242.35-.557.707-1.284 1.073-2.18l4.867-11.25a.563.563 0 01.249-.33.734.734 0 01.374-.102h1.348c.133 0 .249.051.349.152.1.102.15.22.15.355a.827.827 0 01-.025.203.28.28 0 01-.05.152l-5.091 11.708a38.636 38.636 0 01-1.122 2.331c-.35.642-.724 1.174-1.123 1.597a3.73 3.73 0 01-1.398.937c-.532.203-1.173.304-1.921.304h-.998zm4.242-4.308l-6.813-12.62a.637.637 0 01-.075-.278.49.49 0 01.15-.355.522.522 0 01.374-.178h1.398c.15 0 .274.034.374.102a.74.74 0 01.25.33l5.664 10.465-1.322 2.534zm17.514 4.308c-.183 0-.324-.05-.424-.152a.645.645 0 01-.15-.43v-4.765a4.183 4.183 0 01-1.647.938c-.632.186-1.355.279-2.171.279-1.464 0-2.603-.33-3.418-.989-.799-.658-1.198-1.723-1.198-3.193V6.268c0-.17.05-.304.15-.406a.57.57 0 01.424-.177h1.223c.166 0 .299.059.399.177a.512.512 0 01.174.406v4.13c0 .76.217 1.318.649 1.673.449.355 1.132.532 2.047.532 1.014 0 1.83-.127 2.445-.38.616-.27.923-.743.923-1.42V6.269c0-.17.05-.304.15-.406a.524.524 0 01.424-.177h1.248c.166 0 .299.059.399.177a.51.51 0 01.175.406V18.28a.59.59 0 01-.175.43.535.535 0 01-.399.152h-1.248zm10.701.254c-1.714 0-3.078-.532-4.093-1.597-1.014-1.08-1.572-2.55-1.672-4.41a11.82 11.82 0 01-.025-.835c0-.355.009-.642.025-.862.067-1.2.341-2.247.824-3.142.482-.913 1.139-1.614 1.971-2.104.849-.49 1.839-.735 2.97-.735 1.264 0 2.321.27 3.169.811.865.541 1.522 1.31 1.971 2.306.45.997.674 2.163.674 3.498v.43c0 .186-.058.33-.174.431a.536.536 0 01-.4.152h-8.634v.228c.033.693.183 1.343.449 1.952a3.615 3.615 0 001.148 1.444c.499.372 1.098.558 1.797.558.599 0 1.098-.093 1.497-.28a4.05 4.05 0 00.973-.607c.25-.237.416-.414.499-.533.15-.22.267-.346.35-.38.083-.05.216-.076.399-.076h1.198c.166 0 .299.051.399.152.117.085.166.212.15.38-.017.254-.15.566-.399.938-.25.355-.608.71-1.073 1.064-.466.355-1.032.65-1.697.887-.666.22-1.431.33-2.296.33zm-3.394-7.805h6.838v-.076c0-.76-.142-1.436-.425-2.028a3.187 3.187 0 00-1.173-1.393c-.515-.355-1.131-.533-1.846-.533-.715 0-1.331.178-1.847.533a3.257 3.257 0 00-1.148 1.393c-.266.592-.399 1.267-.399 2.028v.076zm16.16 7.551a.622.622 0 01-.424-.152.645.645 0 01-.15-.43V7.712h-4.342a.621.621 0 01-.424-.152.645.645 0 01-.15-.43v-.862c0-.17.05-.304.15-.406a.57.57 0 01.424-.177h10.98c.166 0 .299.059.399.177a.512.512 0 01.175.406v.861a.593.593 0 01-.175.431.535.535 0 01-.399.152h-4.342V18.28c0 .168-.05.312-.15.43-.1.102-.241.152-.424.152h-1.148zm12.42.254c-.832 0-1.589-.17-2.271-.507a4.408 4.408 0 01-1.647-1.368 3.244 3.244 0 01-.624-1.952c0-1.165.466-2.095 1.398-2.787.931-.693 2.146-1.15 3.643-1.369l3.718-.532v-.735c0-.81-.233-1.444-.698-1.9-.45-.457-1.19-.685-2.221-.685-.749 0-1.356.152-1.822.457a2.462 2.462 0 00-.948 1.165c-.1.254-.275.38-.524.38h-1.123c-.183 0-.325-.05-.425-.152a.688.688 0 01-.124-.405c0-.254.091-.566.274-.938.2-.371.499-.735.899-1.09.399-.354.906-.65 1.522-.886.632-.254 1.397-.38 2.296-.38.998 0 1.838.135 2.52.405.682.253 1.214.6 1.597 1.039.399.44.682.938.848 1.495.183.558.275 1.124.275 1.698v8.21a.59.59 0 01-.175.431.535.535 0 01-.399.152h-1.148c-.183 0-.324-.05-.424-.152a.645.645 0 01-.15-.43v-1.09a4.906 4.906 0 01-.873.912c-.366.287-.824.532-1.373.735-.549.186-1.222.279-2.021.279zm.524-1.9c.682 0 1.306-.144 1.872-.432.565-.304 1.006-.768 1.322-1.393.333-.626.499-1.411.499-2.357v-.71l-2.894.431c-1.182.17-2.072.456-2.671.862-.598.388-.898.887-.898 1.495 0 .473.133.87.399 1.19.283.305.633.533 1.048.685.433.152.874.228 1.323.228zM.918 49.217a.591.591 0 01-.4-.152.58.58 0 01-.149-.38V36.622a.55.55 0 01.15-.405.573.573 0 01.424-.178h1.198a.5.5 0 01.4.178.554.554 0 01.149.405v10.745l-.649-.684 7.561-10.264c.083-.1.175-.185.275-.253a.56.56 0 01.374-.127h1.148c.133 0 .25.051.35.152a.46.46 0 01.174.355v12.088a.591.591 0 01-.175.43.535.535 0 01-.399.153h-1.173c-.183 0-.324-.05-.424-.152a.646.646 0 01-.15-.43V38.522l.699-.026-7.611 10.34c-.067.084-.15.169-.25.253a.597.597 0 01-.399.127H.918zm26.664.253c-1.215 0-2.296-.185-3.244-.557-.932-.372-1.68-.896-2.246-1.571a4.34 4.34 0 01-.998-2.357c-.017-.152.024-.27.124-.355a.59.59 0 01.4-.152h1.322c.166 0 .291.042.374.127.084.067.159.194.225.38.183.642.599 1.191 1.248 1.647.649.456 1.564.684 2.745.684 1.364 0 2.42-.473 3.169-1.419.765-.963 1.148-2.28 1.148-3.953v-.583h-6.064a.573.573 0 01-.424-.177.646.646 0 01-.15-.431v-.862c0-.185.05-.33.15-.43a.573.573 0 01.424-.178h6.064v-.507c0-1.858-.375-3.218-1.123-4.08-.749-.878-1.813-1.317-3.194-1.317-1.181 0-2.096.236-2.745.71-.65.455-1.057 1.004-1.223 1.646a1.12 1.12 0 01-.225.406c-.066.067-.19.101-.374.101h-1.323a.591.591 0 01-.399-.152.446.446 0 01-.125-.38c.1-.912.433-1.698.999-2.357.565-.676 1.314-1.2 2.245-1.571.932-.372 2.005-.558 3.22-.558 1.264 0 2.395.254 3.393.76 1.015.508 1.814 1.319 2.396 2.433.599 1.116.923 2.577.973 4.385.017.405.025.768.025 1.09v.962c0 .304-.008.65-.025 1.04-.05 1.824-.374 3.294-.973 4.409-.582 1.098-1.373 1.9-2.37 2.407-.999.507-2.138.76-3.42.76zm10.671-.253a.624.624 0 01-.425-.152.646.646 0 01-.15-.43V36.621a.55.55 0 01.15-.405.573.573 0 01.425-.178h1.172c.167 0 .3.06.4.178a.51.51 0 01.174.405v4.866h2.271l3.37-5.069c.082-.118.174-.21.274-.278a.7.7 0 01.399-.102h1.298c.15 0 .274.034.374.102.1.067.15.169.15.304a.393.393 0 01-.05.152.642.642 0 01-.075.152l-3.743 5.6 4.242 6.133a.51.51 0 01.125.33c0 .135-.05.236-.15.304a.54.54 0 01-.35.1h-1.522a.654.654 0 01-.374-.1c-.1-.068-.191-.16-.274-.28l-3.669-5.295H40v5.093a.591.591 0 01-.174.43.535.535 0 01-.4.153h-1.172zm18.12.253c-1.264 0-2.32-.245-3.17-.735a4.93 4.93 0 01-1.946-2.027c-.449-.878-.698-1.875-.748-2.99a19.41 19.41 0 01-.025-1.09c0-.456.008-.82.025-1.09.05-1.131.299-2.128.748-2.99a5.096 5.096 0 011.972-2.027c.848-.49 1.896-.735 3.144-.735 1.248 0 2.296.245 3.144.735a4.93 4.93 0 011.947 2.027c.465.862.723 1.859.773 2.99.017.27.025.634.025 1.09 0 .44-.008.803-.025 1.09-.05 1.115-.3 2.112-.748 2.99a4.93 4.93 0 01-1.947 2.027c-.848.49-1.905.735-3.17.735zm0-1.95c1.031 0 1.855-.33 2.47-.99.616-.675.949-1.655.998-2.939.017-.253.025-.574.025-.963 0-.388-.008-.71-.024-.963-.05-1.284-.383-2.255-.999-2.914-.615-.676-1.439-1.014-2.47-1.014-1.032 0-1.863.338-2.496 1.014-.615.659-.94 1.63-.973 2.914-.016.254-.025.575-.025.963 0 .389.009.71.025.963.033 1.284.358 2.264.973 2.94.633.659 1.464.988 2.496.988zm9.587 1.697a.624.624 0 01-.423-.152.646.646 0 01-.15-.43V36.621a.55.55 0 01.15-.405.573.573 0 01.424-.178h1.198c.166 0 .299.06.399.178.1.101.15.236.15.405v4.866h6.812v-4.866a.55.55 0 01.15-.405.573.573 0 01.424-.178h1.173a.5.5 0 01.4.178.51.51 0 01.174.405v12.012a.591.591 0 01-.175.43.535.535 0 01-.4.153h-1.172a.624.624 0 01-.424-.152.646.646 0 01-.15-.43v-5.12h-6.813v5.12c0 .168-.05.312-.15.43a.535.535 0 01-.398.152H65.96zm19.949.253c-1.265 0-2.321-.245-3.17-.735a4.928 4.928 0 01-1.946-2.027c-.45-.878-.699-1.875-.749-2.99a19.52 19.52 0 01-.025-1.09c0-.456.009-.82.025-1.09.05-1.131.3-2.128.749-2.99a5.096 5.096 0 011.971-2.027c.849-.49 1.897-.735 3.145-.735 1.247 0 2.295.245 3.144.735a4.93 4.93 0 011.946 2.027c.466.862.724 1.859.774 2.99.017.27.025.634.025 1.09 0 .44-.008.803-.025 1.09-.05 1.115-.3 2.112-.749 2.99a4.93 4.93 0 01-1.946 2.027c-.849.49-1.905.735-3.17.735zm0-1.95c1.031 0 1.854-.33 2.47-.99.616-.675.948-1.655.998-2.939.017-.253.025-.574.025-.963 0-.388-.008-.71-.025-.963-.05-1.284-.382-2.255-.998-2.914-.616-.676-1.439-1.014-2.47-1.014-1.032 0-1.864.338-2.496 1.014-.615.659-.94 1.63-.973 2.914a14.95 14.95 0 00-.025.963c0 .389.008.71.025.963.033 1.284.358 2.264.973 2.94.632.659 1.464.988 2.496.988zm9.563 1.697c-.167 0-.3-.05-.4-.152a.553.553 0 01-.15-.406V36.521c0-.135.05-.245.15-.33a.535.535 0 01.35-.152h1.272c.266 0 .474.136.624.406l4.242 8.058 4.268-8.058c.149-.27.357-.406.623-.406h1.248c.133 0 .25.051.35.152a.413.413 0 01.149.33v12.138c0 .17-.05.305-.149.406a.505.505 0 01-.375.152h-1.223a.535.535 0 01-.399-.152.552.552 0 01-.15-.406V38.55l.874.1-4.068 7.806a2.158 2.158 0 01-.299.456c-.117.135-.291.203-.524.203h-.649c-.216 0-.383-.068-.499-.203a3.052 3.052 0 01-.324-.456L96.47 39.03l.773-.076v9.705c0 .17-.05.305-.15.406a.535.535 0 01-.399.152h-1.222zm17.009 0a.593.593 0 01-.399-.152.579.579 0 01-.15-.38V36.622a.55.55 0 01.15-.405.574.574 0 01.424-.178h1.198c.167 0 .3.06.399.178.1.101.15.236.15.405v10.745l-.649-.684 7.562-10.264c.083-.1.174-.185.274-.253a.56.56 0 01.374-.127h1.148c.133 0 .25.051.35.152a.46.46 0 01.174.355v12.088a.592.592 0 01-.174.43.536.536 0 01-.4.153h-1.173c-.183 0-.324-.05-.424-.152a.644.644 0 01-.149-.43V38.522l.698-.026-7.611 10.34c-.066.084-.15.169-.249.253a.599.599 0 01-.4.127h-1.123zm15.207 0a.59.59 0 01-.399-.152.579.579 0 01-.15-.38V36.622a.55.55 0 01.15-.405.572.572 0 01.424-.178h1.198c.166 0 .299.06.399.178.1.101.15.236.15.405v10.745l-.649-.684 7.561-10.264c.083-.1.175-.185.275-.253a.556.556 0 01.374-.127h1.148c.133 0 .249.051.349.152.117.102.175.22.175.355v12.088a.59.59 0 01-.175.43.535.535 0 01-.399.153h-1.173c-.183 0-.324-.05-.424-.152a.645.645 0 01-.15-.43V38.522l.699-.026-7.611 10.34c-.067.084-.15.169-.25.253a.598.598 0 01-.399.127h-1.123zm21.673 0c-.183 0-.325-.05-.425-.152a.65.65 0 01-.149-.43v-16.55c0-.186.05-.33.149-.43a.527.527 0 01.425-.178h6.338c1.231 0 2.296.203 3.194.608.915.406 1.622 1.014 2.121 1.825.499.794.749 1.79.749 2.99 0 1.2-.25 2.196-.749 2.99s-1.206 1.394-2.121 1.8c-.898.405-1.963.608-3.194.608h-4.417v6.335a.59.59 0 01-.175.43c-.099.102-.241.153-.424.153h-1.322zm1.896-9.047h4.317c1.231 0 2.155-.279 2.77-.836.616-.558.923-1.369.923-2.433 0-1.047-.299-1.858-.898-2.433-.599-.574-1.53-.861-2.795-.861h-4.317v6.563zm18.381 9.3c-1.713 0-3.077-.532-4.092-1.596-1.015-1.081-1.572-2.551-1.672-4.41-.017-.22-.025-.498-.025-.836 0-.355.008-.642.025-.861.067-1.2.341-2.247.824-3.143.482-.912 1.139-1.613 1.971-2.103.848-.49 1.838-.735 2.969-.735 1.265 0 2.321.27 3.17.81.865.542 1.522 1.31 1.971 2.307.449.997.674 2.162.674 3.497v.43c0 .187-.058.33-.175.432a.535.535 0 01-.399.152h-8.634v.228c.033.692.183 1.343.449 1.951a3.616 3.616 0 001.148 1.445c.499.371 1.098.557 1.796.557.599 0 1.098-.093 1.498-.279a4.07 4.07 0 00.973-.608c.249-.236.416-.414.499-.532.15-.22.266-.346.349-.38.084-.05.217-.076.4-.076h1.197c.167 0 .3.05.4.152.116.084.166.211.149.38-.016.253-.149.566-.399.938-.249.354-.607.71-1.073 1.064-.466.355-1.031.65-1.697.887-.665.22-1.43.33-2.296.33zm-3.393-7.805h6.837v-.076c0-.76-.141-1.436-.424-2.027a3.187 3.187 0 00-1.173-1.394c-.516-.355-1.131-.532-1.847-.532-.715 0-1.33.177-1.846.532a3.25 3.25 0 00-1.148 1.394c-.266.591-.399 1.267-.399 2.027v.076zm17.432 7.805c-1.181 0-2.204-.228-3.069-.684a4.927 4.927 0 01-1.972-2.002c-.466-.878-.715-1.926-.748-3.142a15.947 15.947 0 01-.025-1.014c0-.422.008-.76.025-1.014.033-1.216.282-2.255.748-3.116a4.73 4.73 0 011.972-2.002c.865-.474 1.888-.71 3.069-.71.965 0 1.788.135 2.47.405.699.27 1.273.617 1.722 1.04.45.422.782.878.999 1.368.232.49.357.954.374 1.394a.448.448 0 01-.15.405.623.623 0 01-.424.152h-1.198c-.166 0-.291-.034-.374-.101a1.406 1.406 0 01-.25-.406c-.299-.828-.707-1.41-1.223-1.748-.515-.338-1.156-.507-1.921-.507-.998 0-1.813.313-2.446.938-.615.625-.948 1.63-.998 3.015-.016.608-.016 1.2 0 1.774.05 1.402.383 2.416.998 3.041.633.608 1.448.912 2.446.912.765 0 1.406-.169 1.921-.507.516-.337.924-.92 1.223-1.748.083-.186.167-.313.25-.38.083-.085.208-.127.374-.127h1.198a.62.62 0 01.424.152.448.448 0 01.15.406 3.763 3.763 0 01-.225 1.09 4.209 4.209 0 01-.649 1.14c-.282.371-.64.71-1.073 1.013-.432.288-.956.524-1.572.71-.599.169-1.281.253-2.046.253zm9.127 4.562a.524.524 0 01-.424-.178.552.552 0 01-.15-.405v-.862c0-.169.05-.312.15-.43.1-.102.241-.152.424-.152h.649c.383 0 .69-.077.923-.229.233-.152.441-.414.624-.785.2-.355.433-.845.699-1.47l5.415-13.05a.682.682 0 01.2-.305c.099-.084.241-.127.424-.127h1.098c.15 0 .274.051.374.152.1.102.15.22.15.355a.828.828 0 01-.025.203c-.017.05-.05.135-.1.253l-4.741 11.404c-.25.608-.524 1.242-.824 1.9a11.718 11.718 0 01-.973 1.825c-.349.575-.765 1.03-1.248 1.369-.482.354-1.048.532-1.696.532h-.949zm3.469-5.195l-5.041-11.835c-.083-.202-.125-.346-.125-.43a.622.622 0 01.175-.38.475.475 0 01.349-.153h1.173c.183 0 .316.043.4.127a.81.81 0 01.224.304l4.143 10.06-1.298 2.307zm10.203 5.195a.575.575 0 01-.425-.178.552.552 0 01-.149-.405V36.622a.55.55 0 01.149-.405.575.575 0 01.425-.178h1.147c.167 0 .3.06.4.178a.511.511 0 01.174.405v1.115c.4-.557.932-1.022 1.597-1.394.666-.371 1.498-.557 2.496-.557.931 0 1.722.16 2.371.481.665.322 1.206.76 1.622 1.318.432.558.756 1.191.973 1.9.216.71.332 1.47.349 2.282.017.27.025.557.025.861 0 .304-.008.591-.025.862a8.613 8.613 0 01-.349 2.28 5.877 5.877 0 01-.973 1.901c-.416.54-.957.98-1.622 1.318-.649.32-1.44.481-2.371.481-.965 0-1.78-.177-2.446-.532a5.33 5.33 0 01-1.597-1.368v5.879c0 .169-.05.304-.149.405a.526.526 0 01-.425.178h-1.197zm5.29-6.614c.865 0 1.539-.186 2.021-.558a3.221 3.221 0 001.073-1.495 7.11 7.11 0 00.374-2.002c.017-.49.017-.98 0-1.47a6.824 6.824 0 00-.374-1.976 3.06 3.06 0 00-1.073-1.495c-.482-.39-1.156-.583-2.021-.583-.815 0-1.481.194-1.997.583a3.573 3.573 0 00-1.122 1.495 5.806 5.806 0 00-.4 1.824c-.016.27-.025.592-.025.963 0 .372.009.701.025.989.017.59.15 1.174.4 1.748a3.577 3.577 0 001.172 1.42c.516.37 1.165.557 1.947.557zm14.216 2.052c-1.181 0-2.204-.228-3.069-.684a4.924 4.924 0 01-1.971-2.002c-.466-.878-.716-1.926-.749-3.142a15.947 15.947 0 01-.025-1.014c0-.422.008-.76.025-1.014.033-1.216.283-2.255.749-3.116a4.729 4.729 0 011.971-2.002c.865-.474 1.888-.71 3.069-.71.965 0 1.789.135 2.471.405.699.27 1.272.617 1.722 1.04.449.422.782.878.998 1.368.233.49.358.954.374 1.394a.445.445 0 01-.15.405.621.621 0 01-.424.152h-1.198c-.166 0-.291-.034-.374-.101a1.406 1.406 0 01-.249-.406c-.3-.828-.707-1.41-1.223-1.748-.516-.338-1.156-.507-1.922-.507-.998 0-1.813.313-2.445.938-.616.625-.948 1.63-.998 3.015a30.85 30.85 0 000 1.774c.05 1.402.382 2.416.998 3.041.632.608 1.447.912 2.445.912.766 0 1.406-.169 1.922-.507.516-.337.923-.92 1.223-1.748.083-.186.166-.313.249-.38.083-.085.208-.127.374-.127h1.198c.167 0 .308.05.424.152a.445.445 0 01.15.406 3.727 3.727 0 01-.224 1.09c-.134.371-.35.751-.649 1.14-.283.371-.641.71-1.073 1.013-.433.288-.957.524-1.572.71-.599.169-1.281.253-2.047.253zm13.844 0c-1.264 0-2.321-.245-3.169-.735a4.926 4.926 0 01-1.947-2.027c-.449-.878-.698-1.875-.748-2.99-.017-.287-.025-.65-.025-1.09 0-.456.008-.82.025-1.09.05-1.131.299-2.128.748-2.99a5.096 5.096 0 011.972-2.027c.848-.49 1.896-.735 3.144-.735 1.248 0 2.296.245 3.144.735a4.932 4.932 0 011.947 2.027c.465.862.723 1.859.773 2.99.017.27.025.634.025 1.09 0 .44-.008.803-.025 1.09-.05 1.115-.299 2.112-.748 2.99a4.932 4.932 0 01-1.947 2.027c-.848.49-1.905.735-3.169.735zm0-1.95c1.031 0 1.855-.33 2.47-.99.616-.675.949-1.655.999-2.939.016-.253.025-.574.025-.963 0-.388-.009-.71-.025-.963-.05-1.284-.383-2.255-.999-2.914-.615-.676-1.439-1.014-2.47-1.014-1.031 0-1.863.338-2.495 1.014-.616.659-.94 1.63-.974 2.914a15.69 15.69 0 00-.025.963c0 .389.009.71.025.963.034 1.284.358 2.264.974 2.94.632.659 1.464.988 2.495.988zm9.588 1.697a.622.622 0 01-.424-.152.645.645 0 01-.15-.43V36.621a.55.55 0 01.15-.405.57.57 0 01.424-.178h5.19c1.564 0 2.737.321 3.519.963.798.642 1.198 1.504 1.198 2.585 0 .76-.142 1.335-.424 1.723-.283.389-.683.718-1.198.989.632.27 1.106.71 1.422 1.318.333.59.499 1.207.499 1.85 0 1.216-.424 2.145-1.272 2.787-.849.642-2.03.963-3.544.963h-5.39zm1.722-1.85h3.468c.799 0 1.439-.152 1.922-.456.499-.321.748-.803.748-1.445 0-.675-.224-1.165-.673-1.47-.449-.32-1.115-.48-1.997-.48h-3.468v3.851zm0-5.727h3.319c.798 0 1.43-.178 1.896-.532.483-.355.724-.853.724-1.495 0-.66-.241-1.107-.724-1.344-.466-.253-1.098-.38-1.896-.38h-3.319v3.75z" fill="#fff"/></svg>