<svg width="100" height="100" viewBox="0 0 100 100" fill="none" xmlns="http://www.w3.org/2000/svg">
<g clip-path="url(#clip0_2109_34556)">
<ellipse opacity="0.6" cx="43.7716" cy="48.8961" rx="42.5" ry="43" transform="rotate(-32.3892 43.7716 48.8961)" fill="url(#paint0_radial_2109_34556)"/>
<circle opacity="0.6" cx="73.2589" cy="44.9828" r="25.5" transform="rotate(-32.3892 73.2589 44.9828)" fill="url(#paint1_radial_2109_34556)"/>
<circle opacity="0.6" cx="64.9405" cy="20.6625" r="25.5" transform="rotate(-32.3892 64.9405 20.6625)" fill="url(#paint2_radial_2109_34556)"/>
<path fill-rule="evenodd" clip-rule="evenodd" d="M38.8279 10.3642L38.3634 10.7281V14.0531V17.3779H36.2575C34.2858 17.3779 34.12 17.405 33.6569 17.8016L33.1621 18.2255L33.1112 23.9135L33.0604 29.6018L31.4953 31.1499C28.0129 34.5945 25.6404 38.8653 24.4694 43.7985C24.0501 45.5641 24.0058 46.0872 24.0002 49.349C23.9931 53.3576 24.1665 54.5393 25.2279 57.7183C26.479 61.4653 28.5522 64.8409 31.3549 67.6942L33.074 69.4442V75.2998C33.074 81.6466 33.1526 82.2624 33.988 82.4562C34.2126 82.5082 35.2691 82.5704 36.3358 82.5941L38.2752 82.6375L38.3634 85.9751C38.4118 87.8108 38.5109 89.4038 38.5834 89.5151C38.8484 89.9214 39.6801 90.0757 40.2711 89.8282C40.5794 89.6989 40.8472 89.5696 40.8661 89.5408C40.8852 89.512 40.9446 87.947 40.9984 86.063L41.0962 82.6375L45.6363 82.5906L50.1763 82.5437V85.7866C50.1763 88.9342 50.1885 89.0438 50.5892 89.5079C51.1557 90.164 52.0179 90.164 52.5844 89.5079C52.9852 89.0438 52.9973 88.934 52.9973 85.7896V82.5497H54.9172C57.8018 82.5497 57.6567 82.7782 57.723 78.125L57.7766 74.3714L58.9572 73.9523C66.2423 71.3659 72.2872 65.1611 74.7721 57.7183C75.8335 54.5393 76.0069 53.3576 75.9998 49.349C75.9942 46.0872 75.9499 45.5641 75.5306 43.7985C74.0672 37.6344 70.5572 32.2678 65.5573 28.5495C63.8875 27.3077 61.0693 25.7853 59.036 25.0264L57.7578 24.5495V21.5869C57.7578 19.7896 57.6807 18.4556 57.5621 18.196C57.2662 17.5492 56.6779 17.3779 54.7522 17.3779H52.9973V14.312C52.9973 10.9751 52.8944 10.497 52.1059 10.1716C51.5225 9.93079 51 10.0636 50.5229 10.5739C50.2045 10.9145 50.1763 11.2058 50.1763 14.1613V17.3779H45.5922H41.008V14.0531V10.7281L40.5435 10.3642C40.288 10.1639 39.902 10 39.6857 10C39.4694 10 39.0834 10.1639 38.8279 10.3642ZM54.9368 22.052V23.9157L54.5173 23.8108C54.2867 23.753 53.1461 23.6235 51.9826 23.5229C47.2259 23.1113 42.3295 24.1221 37.8485 26.4403C36.8379 26.9631 35.9851 27.3908 35.9532 27.3908C35.9211 27.3908 35.895 25.7703 35.895 23.7897V20.1886H45.4159H54.9368V22.052ZM54.2245 26.6095C59.9712 27.6956 65.1292 30.8643 68.6188 35.4521C70.2541 37.6019 71.9071 41.0105 72.5896 43.6399C73.3024 46.3855 73.4828 50.3395 73.0263 53.211C71.516 62.7116 64.2396 70.2246 54.524 72.3151C52.5209 72.7461 47.4888 72.7488 45.504 72.3198C37.0496 70.4927 30.5178 64.7595 27.874 56.8448C27.0465 54.3682 26.7279 52.3282 26.7272 49.5037C26.7264 45.4771 27.4164 42.5446 29.1914 39.0332C31.0566 35.3434 33.6711 32.4043 37.1292 30.1101C40.321 27.9927 43.9586 26.705 47.9724 26.2719C49.2352 26.1355 52.7098 26.3231 54.2245 26.6095ZM47.2672 30.3963C44.541 30.7877 41.6816 31.8865 39.3526 33.4378C34.3568 36.7656 31.4038 41.6668 30.7572 47.7035C30.5391 49.7403 30.6915 50.3165 31.557 50.7299C31.9967 50.9398 32.1427 50.9349 32.6526 50.6926C33.3123 50.3791 33.3166 50.3661 33.5842 47.8244C33.9682 44.1788 35.4565 40.9107 37.9116 38.3226C39.5894 36.5541 40.9872 35.5298 43.0133 34.5838C44.8441 33.7288 46.7322 33.2282 48.6516 33.0885C50.3999 32.9612 50.9512 32.7702 51.2113 32.2014C51.5161 31.5351 51.4521 31.1053 50.9777 30.6327C50.6037 30.26 50.3944 30.2045 49.4349 30.2229C48.8245 30.2347 47.849 30.3127 47.2672 30.3963ZM41.169 41.6692C40.5355 42.1539 40.4791 42.5876 40.4791 46.9775C40.4791 51.3674 40.5355 51.8011 41.169 52.2857C41.3829 52.4495 44.4913 52.5011 54.3717 52.5053L67.2947 52.5109L67.7274 52.0797L68.1602 51.6486V46.9775V42.3064L67.7274 41.8753L67.2947 41.444L54.3717 41.4497C44.4913 41.4539 41.3829 41.5055 41.169 41.6692ZM65.3392 46.9775V49.7003H54.3197H43.3001V46.9775V44.2547H54.3197H65.3392V46.9775ZM46.4584 58.3574C45.6632 58.9657 45.6498 59.9835 46.4291 60.5943C46.8565 60.9292 47.1603 60.9429 54.1573 60.9429H61.4406L61.9207 60.5314C62.5373 60.003 62.5655 59.1825 61.9879 58.57L61.5751 58.1322L54.1568 58.1378C48.6033 58.1421 46.6679 58.1972 46.4584 58.3574ZM41.4913 74.1133C44.4536 75.0995 46.2548 75.3934 49.4711 75.4154C51.0711 75.4263 52.9554 75.3711 53.6585 75.2928L54.9368 75.1505V77.4446V79.739H45.4159H35.895V75.6184V71.498L37.8785 72.5345C38.9695 73.1045 40.5953 73.8149 41.4913 74.1133Z" fill="#062549"/>
<path fill-rule="evenodd" clip-rule="evenodd" d="M54.9368 22.052V23.9157L54.5173 23.8108C54.2867 23.753 53.1461 23.6235 51.9826 23.5229C47.2259 23.1113 42.3295 24.1221 37.8485 26.4403C36.8379 26.9631 35.9851 27.3908 35.9532 27.3908C35.9211 27.3908 35.895 25.7703 35.895 23.7897V20.1886H45.4159H54.9368V22.052ZM54.2245 26.6095C59.9712 27.6956 65.1292 30.8643 68.6188 35.4521C70.2541 37.6019 71.9071 41.0105 72.5896 43.6399C73.3024 46.3855 73.4828 50.3395 73.0263 53.211C71.516 62.7116 64.2396 70.2246 54.524 72.3151C52.5209 72.7461 47.4888 72.7488 45.504 72.3198C37.0496 70.4927 30.5178 64.7595 27.874 56.8448C27.0465 54.3682 26.7279 52.3282 26.7272 49.5037C26.7264 45.4771 27.4164 42.5446 29.1914 39.0332C31.0566 35.3434 33.6711 32.4043 37.1292 30.1101C40.321 27.9927 43.9586 26.705 47.9724 26.2719C49.2352 26.1355 52.7098 26.3231 54.2245 26.6095ZM47.2672 30.3963C44.541 30.7877 41.6816 31.8865 39.3526 33.4378C34.3568 36.7656 31.4038 41.6668 30.7572 47.7035C30.5391 49.7403 30.6914 50.3165 31.557 50.7299C31.9967 50.9398 32.1427 50.9349 32.6526 50.6926C33.3123 50.3791 33.3166 50.3661 33.5842 47.8244C33.9682 44.1788 35.4565 40.9107 37.9116 38.3226C39.5894 36.5541 40.9872 35.5297 43.0133 34.5838C44.8441 33.7288 46.7322 33.2282 48.6516 33.0885C50.3999 32.9612 50.9512 32.7702 51.2113 32.2014C51.5161 31.5351 51.4521 31.1053 50.9777 30.6327C50.6037 30.26 50.3944 30.2045 49.4349 30.2229C48.8245 30.2347 47.849 30.3127 47.2672 30.3963ZM41.169 41.6692C40.5355 42.1539 40.4791 42.5876 40.4791 46.9775C40.4791 51.3674 40.5355 51.8011 41.169 52.2857C41.3829 52.4494 44.4913 52.5011 54.3717 52.5053L67.2947 52.5109L67.7274 52.0797L68.1602 51.6486V46.9775V42.3064L67.7274 41.8753L67.2947 41.444L54.3717 41.4497C44.4913 41.4539 41.3829 41.5055 41.169 41.6692ZM65.3392 46.9775V49.7003H54.3197H43.3001V46.9775V44.2547H54.3197H65.3392V46.9775ZM46.4584 58.3574C45.6632 58.9658 45.6498 59.9835 46.4291 60.5943C46.8565 60.9291 47.1603 60.9429 54.1573 60.9429H61.4406L61.9207 60.5314C62.5373 60.003 62.5655 59.1825 61.9879 58.57L61.5751 58.1322L54.1568 58.1378C48.6032 58.1421 46.6679 58.1972 46.4584 58.3574ZM41.4913 74.1133C44.4535 75.0995 46.2548 75.3934 49.4711 75.4154C51.0711 75.4263 52.9554 75.3711 53.6585 75.2928L54.9368 75.1505V77.4446V79.739H45.4159H35.895V75.6184V71.498L37.8785 72.5345C38.9695 73.1045 40.5953 73.8149 41.4913 74.1133Z" fill="white"/>
</g>
<defs>
<radialGradient id="paint0_radial_2109_34556" cx="0" cy="0" r="1" gradientUnits="userSpaceOnUse" gradientTransform="translate(43.7715 48.8961) scale(42.5 43)">
<stop stop-color="#4E97ED"/>
<stop offset="1" stop-color="#2FC6E7" stop-opacity="0"/>
</radialGradient>
<radialGradient id="paint1_radial_2109_34556" cx="0" cy="0" r="1" gradientUnits="userSpaceOnUse" gradientTransform="translate(73.2589 44.9828) rotate(90) scale(25.5)">
<stop stop-color="#175CAB"/>
<stop offset="1" stop-color="#175CAB" stop-opacity="0"/>
</radialGradient>
<radialGradient id="paint2_radial_2109_34556" cx="0" cy="0" r="1" gradientUnits="userSpaceOnUse" gradientTransform="translate(64.9405 20.6625) rotate(90) scale(25.5)">
<stop stop-color="#74E6FF"/>
<stop offset="1" stop-color="#74E6FF" stop-opacity="0"/>
</radialGradient>
<clipPath id="clip0_2109_34556">
<rect width="100" height="100" fill="white"/>
</clipPath>
</defs>
</svg>
