<svg width="100" height="100" viewBox="0 0 100 100" fill="none" xmlns="http://www.w3.org/2000/svg">
<g clip-path="url(#clip0_2109_34588)">
<ellipse opacity="0.6" cx="42.8972" cy="43.7504" rx="42.5" ry="43" transform="rotate(48.1925 42.8972 43.7504)" fill="url(#paint0_radial_2109_34588)"/>
<circle opacity="0.6" cx="51.5795" cy="72.2018" r="25.5" transform="rotate(48.1925 51.5795 72.2018)" fill="url(#paint1_radial_2109_34588)"/>
<circle opacity="0.6" cx="74.2143" cy="60.0143" r="25.5" transform="rotate(48.1925 74.2143 60.0143)" fill="url(#paint2_radial_2109_34588)"/>
<path d="M38.5 26L61 26V68H15L38.5 26Z" fill="url(#paint3_linear_2109_34588)"/>
<path fill-rule="evenodd" clip-rule="evenodd" d="M32.436 25.4162C32.1736 25.6784 32.0199 26.0259 32.0199 26.3561C32.0199 26.6863 32.1736 27.0338 32.436 27.2961C32.7866 27.6468 33.0142 27.7122 33.8845 27.7122C34.7548 27.7122 34.9825 27.6468 35.333 27.2961C35.5954 27.0338 35.7492 26.6863 35.7492 26.3561C35.7492 26.0259 35.5954 25.6784 35.333 25.4162C34.9825 25.0654 34.7548 25 33.8845 25C33.0142 25 32.7866 25.0654 32.436 25.4162ZM38.1995 25.4162C37.9371 25.6784 37.7834 26.0259 37.7834 26.3561C37.7834 26.6863 37.9371 27.0338 38.1995 27.2961L38.6155 27.7122H49.218H59.8203V46.8674V66.0226H49.0749H38.3297L38.2205 65.4412C38.0095 64.3158 36.9739 62.5508 35.9541 61.5781C32.6993 58.4734 27.9501 58.4734 24.6953 61.5781C23.6755 62.5508 22.6399 64.3158 22.4289 65.4412L22.3197 66.0226H18.6016H14.8834L14.4674 66.4388C13.9168 66.9892 13.9168 67.7683 14.4674 68.3187L14.8834 68.7349H18.6016H22.3197L22.4289 69.3163C22.6399 70.4417 23.6755 72.2067 24.6953 73.1794C27.9501 76.284 32.6993 76.284 35.9541 73.1794C36.9739 72.2067 38.0095 70.4417 38.2205 69.3163L38.3297 68.7349H51.6836H65.0375L65.1466 69.3163C65.3577 70.4417 66.3932 72.2067 67.413 73.1794C70.6679 76.284 75.417 76.284 78.6719 73.1794C79.6917 72.2067 80.7273 70.4417 80.9383 69.3163L81.0475 68.7349H83.2549C84.4927 68.7349 85.769 68.6443 86.1602 68.5287C87.0914 68.2536 88.4956 66.8493 88.7707 65.9182C89.0616 64.9338 89.0616 51.8551 88.7707 50.8707C88.4956 49.9395 87.0914 48.5353 86.1602 48.2602C85.7764 48.1468 84.7466 48.0527 83.8718 48.051L82.281 48.0479L79.8231 43.7811C77.1547 39.1492 76.7338 38.561 75.6861 38.0003C75.0134 37.6404 74.7993 37.6273 68.7622 37.5787L62.5325 37.5285V31.6804V25.8321L62.1164 25.4162L61.7004 25H50.158H38.6155L38.1995 25.4162ZM16.1626 33.2138C15.9002 33.4761 15.7464 33.8236 15.7464 34.1538C15.7464 34.484 15.9002 34.8315 16.1626 35.0938L16.5786 35.5099H34.9016H53.2246L53.6406 35.0938C53.903 34.8315 54.0568 34.484 54.0568 34.1538C54.0568 33.8236 53.903 33.4761 53.6406 33.2138L53.2246 32.7977H34.9016H16.5786L16.1626 33.2138ZM74.4466 40.4399C74.7185 40.5638 75.5898 41.901 77.1244 44.5493C78.3756 46.7086 79.3993 48.5426 79.3993 48.6248C79.3993 48.7072 78.4458 49.146 77.2803 49.6003L75.1614 50.4264L70.6193 50.4267L66.0769 50.4272L65.6609 50.8434C65.3985 51.1056 65.2448 51.4531 65.2448 51.7834C65.2448 52.1136 65.3985 52.4611 65.6609 52.7233L66.0769 53.1395H70.8425H75.6081L78.7095 51.9529L81.8108 50.7663H83.6216C85.3182 50.7663 85.4588 50.7925 85.8485 51.1824L86.2646 51.5984V58.3944V65.1905L85.8485 65.6065C85.4496 66.0053 85.3418 66.0226 83.24 66.0226H81.0475L80.9383 65.4412C80.7273 64.3158 79.6917 62.5508 78.6719 61.5781C75.417 58.4734 70.6679 58.4734 67.413 61.5781C66.3932 62.5508 65.3577 64.3158 65.1466 65.4412L65.0375 66.0226H63.7851H62.5325V53.1395V40.2563H68.2881C72.0589 40.2563 74.1826 40.3197 74.4466 40.4399ZM20.2309 41.3506C19.9685 41.6128 19.8148 41.9603 19.8148 42.2905C19.8148 42.6207 19.9685 42.9682 20.2309 43.2305C20.5815 43.5812 20.8092 43.6466 21.6794 43.6466C22.5497 43.6466 22.7774 43.5812 23.1279 43.2305C23.6785 42.6801 23.6785 41.901 23.1279 41.3506C22.7774 40.9998 22.5497 40.9344 21.6794 40.9344C20.8092 40.9344 20.5815 40.9998 20.2309 41.3506ZM25.6554 41.3506C25.393 41.6128 25.2393 41.9603 25.2393 42.2905C25.2393 42.6207 25.393 42.9682 25.6554 43.2305L26.0714 43.6466H38.2919H50.5124L50.9284 43.2305C51.479 42.6801 51.479 41.901 50.9284 41.3506L50.5124 40.9344H38.2919H26.0714L25.6554 41.3506ZM11.4162 48.8092C11.1538 49.0715 11 49.419 11 49.7492C11 50.0794 11.1538 50.4269 11.4162 50.6891L11.8321 51.1053H25.7478H39.6635L40.0794 50.6891C40.63 50.1387 40.63 49.3596 40.0794 48.8092L39.6635 48.3931H25.7478H11.8321L11.4162 48.8092ZM32.5526 62.4521C33.7186 63.0002 34.4515 63.7001 35.0799 64.8657C35.6083 65.8456 35.6582 66.0618 35.6582 67.3787C35.6582 68.6947 35.6081 68.9123 35.0821 69.8877C34.4407 71.0774 33.9088 71.591 32.6313 72.2548C31.8956 72.6371 31.5491 72.7052 30.3247 72.7085C29.0042 72.7118 28.7943 72.6639 27.8116 72.134C26.6488 71.5069 25.9602 70.787 25.3762 69.5877C24.825 68.4557 24.8431 66.266 25.4133 65.0903C26.117 63.6397 27.4901 62.5121 29.0533 62.1014C29.885 61.8827 31.7363 62.0683 32.5526 62.4521ZM75.2704 62.4521C76.4363 63.0002 77.1693 63.7001 77.7977 64.8657C78.3261 65.8456 78.3759 66.0618 78.3759 67.3787C78.3759 68.6947 78.3259 68.9123 77.7999 69.8877C77.1585 71.0774 76.6265 71.591 75.3491 72.2548C74.6134 72.6371 74.2669 72.7052 73.0425 72.7085C71.7219 72.7118 71.5121 72.6639 70.5294 72.134C69.3665 71.5069 68.678 70.787 68.094 69.5877C67.5427 68.4557 67.5609 66.266 68.1311 65.0903C68.8348 63.6397 70.2078 62.5121 71.7711 62.1014C72.6027 61.8827 74.454 62.0683 75.2704 62.4521Z" fill="#062549" stroke="#062549" stroke-width="0.759427"/>
<path fill-rule="evenodd" clip-rule="evenodd" d="M74.4468 40.4399C74.7187 40.5638 75.59 41.901 77.1246 44.5493C78.3758 46.7086 79.3995 48.5426 79.3995 48.6248C79.3995 48.7072 78.446 49.146 77.2805 49.6003L75.1616 50.4264L70.6194 50.4267L66.0771 50.4272L65.6611 50.8434C65.3987 51.1056 65.245 51.4531 65.245 51.7834C65.245 52.1136 65.3987 52.4611 65.6611 52.7233L66.0771 53.1395H70.8427H75.6083L78.7097 51.9529L81.811 50.7663H83.6217C85.3184 50.7663 85.459 50.7925 85.8487 51.1824L86.2648 51.5984V58.3944V65.1905L85.8487 65.6065C85.4498 66.0053 85.342 66.0226 83.2402 66.0226H81.0477L80.9385 65.4412C80.7275 64.3158 79.6919 62.5508 78.6721 61.5781C75.4172 58.4734 70.6681 58.4734 67.4132 61.5781C66.3934 62.5508 65.3579 64.3158 65.1468 65.4412L65.0377 66.0226H63.7853H62.5327V53.1395V40.2563H68.2883C72.0591 40.2563 74.1828 40.3197 74.4468 40.4399ZM32.5528 62.4521C33.7188 63.0002 34.4517 63.7001 35.0801 64.8657C35.6085 65.8456 35.6583 66.0618 35.6583 67.3787C35.6583 68.6947 35.6083 68.9123 35.0823 69.8877C34.4409 71.0774 33.909 71.591 32.6315 72.2548C31.8958 72.6371 31.5493 72.7052 30.3249 72.7085C29.0044 72.7118 28.7945 72.6639 27.8118 72.134C26.649 71.5069 25.9604 70.787 25.3764 69.5877C24.8252 68.4557 24.8433 66.266 25.4135 65.0903C26.1172 63.6397 27.4903 62.5121 29.0535 62.1014C29.8852 61.8827 31.7365 62.0683 32.5528 62.4521ZM75.2706 62.4521C76.4365 63.0002 77.1695 63.7001 77.7979 64.8657C78.3263 65.8456 78.3761 66.0618 78.3761 67.3787C78.3761 68.6947 78.3261 68.9123 77.8001 69.8877C77.1587 71.0774 76.6267 71.591 75.3493 72.2548C74.6136 72.6371 74.2671 72.7052 73.0427 72.7085C71.7221 72.7118 71.5123 72.6639 70.5296 72.134C69.3667 71.5069 68.6782 70.787 68.0942 69.5877C67.5429 68.4557 67.5611 66.266 68.1313 65.0903C68.835 63.6397 70.208 62.5121 71.7713 62.1014C72.6029 61.8827 74.4542 62.0683 75.2706 62.4521Z" fill="white"/>
</g>
<defs>
<radialGradient id="paint0_radial_2109_34588" cx="0" cy="0" r="1" gradientUnits="userSpaceOnUse" gradientTransform="translate(42.8972 43.7504) scale(42.5 43)">
<stop stop-color="#4E97ED"/>
<stop offset="1" stop-color="#2FC6E7" stop-opacity="0"/>
</radialGradient>
<radialGradient id="paint1_radial_2109_34588" cx="0" cy="0" r="1" gradientUnits="userSpaceOnUse" gradientTransform="translate(51.5795 72.2018) rotate(90) scale(25.5)">
<stop stop-color="#175CAB"/>
<stop offset="1" stop-color="#175CAB" stop-opacity="0"/>
</radialGradient>
<radialGradient id="paint2_radial_2109_34588" cx="0" cy="0" r="1" gradientUnits="userSpaceOnUse" gradientTransform="translate(74.2143 60.0143) rotate(90) scale(25.5)">
<stop stop-color="#74E6FF"/>
<stop offset="1" stop-color="#74E6FF" stop-opacity="0"/>
</radialGradient>
<linearGradient id="paint3_linear_2109_34588" x1="42" y1="49.5" x2="29.5" y2="42.5" gradientUnits="userSpaceOnUse">
<stop stop-color="white"/>
<stop offset="1" stop-color="white" stop-opacity="0"/>
</linearGradient>
<clipPath id="clip0_2109_34588">
<rect width="100" height="100" fill="white"/>
</clipPath>
</defs>
</svg>
