<svg width="61" height="60" viewBox="0 0 61 60" fill="none" xmlns="http://www.w3.org/2000/svg">
<g clip-path="url(#clip0_825_56690)">
<ellipse opacity="0.6" cx="35.384" cy="34.7522" rx="25.5" ry="25.8" transform="rotate(-130.964 35.384 34.7522)" fill="url(#paint0_radial_825_56690)"/>
<circle opacity="0.6" cx="30.4273" cy="17.5959" r="15.3" transform="rotate(-130.964 30.4273 17.5959)" fill="url(#paint1_radial_825_56690)"/>
<circle opacity="0.6" cx="16.7398" cy="24.7131" r="15.3" transform="rotate(-130.964 16.7398 24.7131)" fill="url(#paint2_radial_825_56690)"/>
<path fill-rule="evenodd" clip-rule="evenodd" d="M40.6054 9.81462C40.8227 9.9162 41.0122 10.1172 41.1446 10.3865C41.3479 10.8 41.3487 10.874 41.3485 28.6432C41.3484 45.4326 41.3381 46.5047 41.1738 46.8267C41.0778 47.0149 40.8466 47.2694 40.66 47.3921L40.3208 47.6154H26.3061C10.8789 47.6154 11.802 47.653 11.402 47.0067C11.2024 46.6844 11.2004 46.5482 11.2001 33.1847L11.1997 19.6882H15.827C19.022 19.6882 20.5549 19.6537 20.7793 19.5766C21.3759 19.3716 21.3825 19.3136 21.3825 14.2337V9.65798H30.8264C39.2591 9.65798 40.3061 9.67479 40.6054 9.81462ZM19.6617 14.4518L19.6354 17.9673L15.9916 17.9929L12.3478 18.0184L15.9412 14.4774C17.9175 12.5299 19.569 10.9363 19.6112 10.9363C19.6534 10.9363 19.6761 12.5184 19.6617 14.4518ZM46.4705 12.362C48.2931 12.6593 49.9307 12.9685 50.1095 13.0491C50.4973 13.2237 50.8312 13.7233 50.8336 14.1322C50.8369 14.6902 44.9194 49.3364 44.7644 49.6674C44.5806 50.0596 44.1126 50.3671 43.6947 50.3703C43.53 50.3716 41.9801 50.1394 40.2505 49.8545L37.1058 49.3362L38.9527 49.2871C40.6116 49.2429 40.8463 49.2152 41.2588 49.015C41.8468 48.7296 42.396 48.1893 42.7313 47.5662L42.9959 47.0745L43.0221 29.4479C43.0366 19.7533 43.0727 11.8214 43.1025 11.8214C43.1322 11.8214 44.6478 12.0646 46.4705 12.362ZM25.5517 16.892C25.0973 17.1349 25.0222 17.7848 25.4021 18.1886L25.6102 18.4098H31.2197C36.7437 18.4098 36.8334 18.4067 37.0924 18.206C37.3562 18.0015 37.442 17.5663 37.2934 17.185C37.1236 16.7492 36.9691 16.7379 31.2458 16.742C26.6458 16.7454 25.7836 16.7681 25.5517 16.892ZM16.625 22.9257C16.2332 23.1621 16.1164 23.5871 16.331 23.9958C16.4148 24.1554 16.556 24.3136 16.645 24.3472C16.7338 24.3807 21.3324 24.4083 26.8639 24.4083H36.9213L37.1384 24.1807C37.4478 23.8563 37.4293 23.3309 37.0979 23.0241L36.8402 22.7857L26.8901 22.7607C17.2088 22.7364 16.9315 22.7408 16.625 22.9257ZM16.5209 28.9809C16.255 29.1644 16.15 29.5988 16.2863 29.9519C16.5084 30.5274 16.1644 30.5103 26.9652 30.4818L36.8402 30.4559L37.0979 30.2175C37.44 29.9008 37.4525 29.3508 37.1244 29.0471L36.8933 28.8333H26.8141C18.0126 28.8333 16.7077 28.852 16.5209 28.9809ZM16.4933 35.026C16.0572 35.4555 16.1539 36.1088 16.6934 36.3777C17.0383 36.5496 36.5609 36.5606 36.8878 36.3891C37.2192 36.2153 37.3487 35.9981 37.3522 35.611C37.3544 35.3678 37.2841 35.1935 37.1244 35.0456L36.8933 34.8318H26.7919C16.8669 34.8318 16.687 34.8351 16.4933 35.026ZM16.5819 40.9563C16.124 41.3026 16.0833 41.8207 16.4831 42.2145L16.7749 42.5019H26.7207C37.2896 42.5019 37.1164 42.5092 37.2934 42.055C37.4267 41.7129 37.3515 41.3091 37.1103 41.0716L36.8654 40.8302L26.8028 40.8334C19.0502 40.8357 16.704 40.864 16.5819 40.9563Z" fill="white"/>
<path fill-rule="evenodd" clip-rule="evenodd" d="M20.0348 8.17235C19.87 8.2752 17.4324 10.6335 14.6176 13.4129L9.5 18.4664L9.52626 32.8198L9.55251 47.1732L9.84881 47.7001C10.2179 48.3565 10.7743 48.8335 11.4701 49.0899C11.9885 49.281 12.2407 49.2874 19.2543 49.2874H26.5028L34.8492 50.6713C43.8604 52.1655 44.0645 52.1876 44.9148 51.7599C45.1466 51.6433 45.493 51.4124 45.6845 51.2467C46.4657 50.5712 46.2875 51.4475 49.5441 32.265C51.943 18.1338 52.5309 14.4951 52.4988 13.9752C52.4331 12.9124 51.8304 12.0281 50.8285 11.5246C50.5573 11.3883 49.2945 11.1373 46.863 10.7365C44.9008 10.4131 43.2036 10.1281 43.0914 10.1033C42.9704 10.0765 42.8129 9.89174 42.7041 9.64875C42.479 9.14636 41.899 8.56156 41.3278 8.26104L40.8994 8.03576L30.6168 8.01049C20.6579 7.9861 20.3249 7.99111 20.0348 8.17235ZM40.6054 9.81494C40.8227 9.91652 41.0122 10.1175 41.1446 10.3869C41.3479 10.8004 41.3487 10.8743 41.3485 28.6435C41.3484 45.4329 41.3381 46.505 41.1737 46.827C41.0778 47.0152 40.8466 47.2697 40.66 47.3925L40.3208 47.6157H26.3061C10.8789 47.6157 11.802 47.6533 11.402 47.007C11.2024 46.6847 11.2004 46.5485 11.2001 33.185L11.1997 19.6885H15.827C19.022 19.6885 20.5549 19.654 20.7793 19.5769C21.3759 19.3719 21.3825 19.3139 21.3825 14.234V9.65829H30.8264C39.2591 9.65829 40.3061 9.6751 40.6054 9.81494ZM19.6617 14.4521L19.6354 17.9676L15.9916 17.9932L12.3478 18.0187L15.9412 14.4777C17.9175 12.5302 19.569 10.9366 19.6112 10.9366C19.6534 10.9366 19.6761 12.5187 19.6617 14.4521ZM46.4705 12.3623C48.2931 12.6596 49.9307 12.9688 50.1095 13.0494C50.4973 13.224 50.8312 13.7236 50.8336 14.1325C50.8369 14.6905 44.9194 49.3367 44.7644 49.6677C44.5806 50.0599 44.1126 50.3674 43.6947 50.3706C43.53 50.3719 41.9801 50.1397 40.2505 49.8548L37.1058 49.3365L38.9527 49.2874C40.6116 49.2432 40.8463 49.2155 41.2588 49.0153C41.8468 48.7299 42.396 48.1897 42.7313 47.5665L42.9959 47.0748L43.0221 29.4482C43.0366 19.7536 43.0727 11.8217 43.1025 11.8217C43.1322 11.8217 44.6478 12.0649 46.4705 12.3623ZM25.5517 16.8923C25.0973 17.1352 25.0222 17.7851 25.4021 18.1889L25.6102 18.4101H31.2197C36.7437 18.4101 36.8334 18.407 37.0924 18.2063C37.3562 18.0018 37.442 17.5666 37.2934 17.1854C37.1236 16.7495 36.9691 16.7382 31.2458 16.7424C26.6458 16.7457 25.7836 16.7684 25.5517 16.8923ZM16.625 22.926C16.2332 23.1624 16.1164 23.5874 16.331 23.9961C16.4148 24.1557 16.556 24.3139 16.645 24.3475C16.7338 24.381 21.3324 24.4086 26.8639 24.4086H36.9213L37.1384 24.181C37.4478 23.8566 37.4293 23.3312 37.0979 23.0244L36.8402 22.786L26.8901 22.7611C17.2088 22.7367 16.9315 22.7411 16.625 22.926ZM16.5209 28.9813C16.255 29.1647 16.15 29.5991 16.2863 29.9522C16.5084 30.5277 16.1644 30.5106 26.9652 30.4821L36.8402 30.4562L37.0979 30.2178C37.44 29.9011 37.4525 29.3511 37.1244 29.0474L36.8933 28.8337H26.8141C18.0126 28.8337 16.7077 28.8523 16.5209 28.9813ZM16.4933 35.0263C16.0572 35.4558 16.1539 36.1091 16.6934 36.378C17.0383 36.5499 36.5609 36.5609 36.8878 36.3894C37.2191 36.2156 37.3487 35.9985 37.3522 35.6113C37.3544 35.3681 37.2841 35.1938 37.1244 35.0459L36.8933 34.8321H26.7919C16.8669 34.8321 16.687 34.8354 16.4933 35.0263ZM16.5819 40.9566C16.124 41.3029 16.0832 41.821 16.4831 42.2148L16.7749 42.5022H26.7207C37.2896 42.5022 37.1164 42.5095 37.2934 42.0553C37.4267 41.7132 37.3515 41.3094 37.1103 41.072L36.8653 40.8305L26.8028 40.8337C19.0502 40.8361 16.704 40.8643 16.5819 40.9566Z" fill="#062549"/>
</g>
<defs>
<radialGradient id="paint0_radial_825_56690" cx="0" cy="0" r="1" gradientUnits="userSpaceOnUse" gradientTransform="translate(35.384 34.7522) scale(25.5 25.8)">
<stop stop-color="#4E97ED"/>
<stop offset="1" stop-color="#2FC6E7" stop-opacity="0"/>
</radialGradient>
<radialGradient id="paint1_radial_825_56690" cx="0" cy="0" r="1" gradientUnits="userSpaceOnUse" gradientTransform="translate(30.4273 17.5959) rotate(90) scale(15.3)">
<stop stop-color="#175CAB"/>
<stop offset="1" stop-color="#175CAB" stop-opacity="0"/>
</radialGradient>
<radialGradient id="paint2_radial_825_56690" cx="0" cy="0" r="1" gradientUnits="userSpaceOnUse" gradientTransform="translate(16.7398 24.7131) rotate(90) scale(15.3)">
<stop stop-color="#74E6FF"/>
<stop offset="1" stop-color="#74E6FF" stop-opacity="0"/>
</radialGradient>
<clipPath id="clip0_825_56690">
<rect width="60" height="60" fill="white" transform="translate(0.5)"/>
</clipPath>
</defs>
</svg>
