<svg width="80" height="80" viewBox="0 0 80 80" fill="none" xmlns="http://www.w3.org/2000/svg">
<g clip-path="url(#clip0_2123_12775)">
<path fill-rule="evenodd" clip-rule="evenodd" d="M15.1406 4.32391L14.7289 4.64766V7.60516V10.5625H12.8627C11.1153 10.5625 10.9685 10.5866 10.558 10.9394L10.1196 11.3164L10.0744 16.3758L10.0294 21.4353L8.64237 22.8123C5.55627 25.8763 3.45377 29.675 2.41596 34.063C2.0444 35.6334 2.00518 36.0988 2.00018 39C1.99393 42.5656 2.14752 43.6167 3.08815 46.4444C4.1969 49.7772 6.03424 52.7797 8.51799 55.3177L10.0414 56.8742V62.0827C10.0414 67.728 10.1111 68.2758 10.8514 68.4481C11.0505 68.4944 11.9867 68.5497 12.9321 68.5708L14.6508 68.6094L14.7289 71.5781C14.7719 73.2109 14.8597 74.6278 14.9239 74.7269C15.1588 75.0883 15.8958 75.2255 16.4196 75.0053C16.6928 74.8903 16.9302 74.7753 16.9469 74.7497C16.9638 74.7241 17.0164 73.332 17.0641 71.6563L17.1508 68.6094L21.1742 68.5677L25.1977 68.5259V71.4105C25.1977 74.2102 25.2085 74.3077 25.5636 74.7205C26.0656 75.3041 26.8297 75.3041 27.3317 74.7205C27.6869 74.3077 27.6977 74.21 27.6977 71.4131V68.5313H29.3991C31.9555 68.5313 31.8269 68.7345 31.8857 64.5956L31.9331 61.2569L32.9794 60.8841C39.4355 58.5836 44.7925 53.0645 46.9947 46.4444C47.9353 43.6167 48.0889 42.5656 48.0827 39C48.0777 36.0988 48.0385 35.6334 47.6669 34.063C46.37 28.5802 43.2594 23.8067 38.8285 20.4994C37.3486 19.3948 34.8511 18.0406 33.0492 17.3656L31.9164 16.9414V14.3063C31.9164 12.7077 31.8482 11.5211 31.743 11.2902C31.4808 10.7148 30.9594 10.5625 29.2528 10.5625H27.6977V7.83547C27.6977 4.86734 27.6064 4.44203 26.9077 4.15266C26.3906 3.93844 25.9277 4.05656 25.5049 4.51047C25.2227 4.81344 25.1977 5.0725 25.1977 7.70141V10.5625H21.1352H17.0727V7.60516V4.64766L16.661 4.32391C16.4346 4.14578 16.0925 4 15.9008 4C15.7091 4 15.3671 4.14578 15.1406 4.32391ZM29.4164 14.72V16.3777L29.0447 16.2844C28.8403 16.233 27.8296 16.1178 26.7985 16.0283C22.583 15.6622 18.2438 16.5613 14.2727 18.6233C13.3771 19.0883 12.6213 19.4688 12.593 19.4688C12.5646 19.4688 12.5414 18.0273 12.5414 16.2656V13.0625H20.9789H29.4164V14.72ZM28.7852 18.7738C33.878 19.7398 38.4491 22.5583 41.5416 26.6391C42.9908 28.5513 44.4557 31.5831 45.0605 33.9219C45.6922 36.3641 45.8521 39.8811 45.4475 42.4352C44.1091 50.8858 37.6606 57.5684 29.0506 59.4278C27.2755 59.8113 22.816 59.8136 21.0571 59.432C13.5647 57.8069 7.77612 52.7073 5.43315 45.6673C4.69987 43.4645 4.41752 41.65 4.4169 39.1377C4.41612 35.5561 5.02768 32.9477 6.60065 29.8244C8.25362 26.5423 10.5706 23.9281 13.6352 21.8875C16.4638 20.0041 19.6875 18.8588 23.2446 18.4734C24.3636 18.3522 27.4428 18.5191 28.7852 18.7738ZM22.6196 22.142C20.2036 22.4902 17.6696 23.4675 15.6056 24.8473C11.1783 27.8073 8.56127 32.1669 7.9883 37.5364C7.79502 39.3481 7.93002 39.8606 8.69705 40.2283C9.08674 40.415 9.21612 40.4106 9.66799 40.1952C10.2527 39.9163 10.2564 39.9047 10.4936 37.6439C10.8339 34.4013 12.1528 31.4944 14.3286 29.1923C15.8155 27.6192 17.0542 26.7081 18.8497 25.8667C20.4722 25.1063 22.1455 24.6609 23.8464 24.5367C25.3958 24.4234 25.8844 24.2536 26.1149 23.7477C26.385 23.155 26.3283 22.7727 25.9078 22.3523C25.5764 22.0208 25.391 21.9714 24.5406 21.9878C23.9997 21.9983 23.1352 22.0677 22.6196 22.142ZM17.2153 32.1691C16.6539 32.6002 16.6039 32.9859 16.6039 36.8906C16.6039 40.7953 16.6539 41.1811 17.2153 41.6122C17.4049 41.7578 20.1596 41.8038 28.9156 41.8075L40.3681 41.8125L40.7516 41.4289L41.1352 41.0455V36.8906V32.7358L40.7516 32.3523L40.3681 31.9688L28.9156 31.9738C20.1596 31.9775 17.4049 32.0234 17.2153 32.1691ZM38.6352 36.8906V39.3125H28.8696H19.1039V36.8906V34.4688H28.8696H38.6352V36.8906ZM21.9028 47.0128C21.1981 47.5539 21.1863 48.4592 21.8769 49.0025C22.2556 49.3003 22.5249 49.3125 28.7257 49.3125H35.1802L35.6056 48.9466C36.1521 48.4766 36.1771 47.7467 35.6652 47.2019L35.2994 46.8125L28.7252 46.8175C23.8036 46.8213 22.0885 46.8703 21.9028 47.0128ZM17.501 61.0274C20.1261 61.9045 21.7224 62.1659 24.5727 62.1855C25.9906 62.1952 27.6605 62.1461 28.2836 62.0764L29.4164 61.9498V63.9905V66.0313H20.9789H12.5414V62.3661V58.7011L14.2992 59.623C15.2661 60.13 16.7069 60.7619 17.501 61.0274Z" fill="#175CAB"/>
<mask id="path-2-outside-1_2123_12775" maskUnits="userSpaceOnUse" x="19" y="1" width="54" height="78" fill="black">
<rect fill="white" x="19" y="1" width="54" height="78"/>
<path fill-rule="evenodd" clip-rule="evenodd" d="M50.4164 14.72V16.3777L50.0447 16.2844C49.8403 16.233 48.8296 16.1178 47.7985 16.0283C43.583 15.6622 39.2438 16.5612 35.2727 18.6233C34.3771 19.0883 33.6213 19.4688 33.593 19.4688C33.5646 19.4688 33.5414 18.0273 33.5414 16.2656V13.0625H41.9789H50.4164V14.72ZM49.7852 18.7737C54.878 19.7398 59.4491 22.5583 62.5416 26.6391C63.9908 28.5513 65.4557 31.5831 66.0605 33.9219C66.6922 36.3641 66.8521 39.8811 66.4475 42.4352C65.1091 50.8858 58.6606 57.5684 50.0506 59.4278C48.2755 59.8112 43.816 59.8136 42.0571 59.432C34.5647 57.8069 28.7761 52.7073 26.4331 45.6673C25.6999 43.4645 25.4175 41.65 25.4169 39.1377C25.4161 35.5561 26.0277 32.9477 27.6006 29.8244C29.2536 26.5423 31.5706 23.9281 34.6352 21.8875C37.4638 20.0041 40.6875 18.8587 44.2446 18.4734C45.3636 18.3522 48.4428 18.5191 49.7852 18.7737ZM43.6196 22.142C41.2036 22.4902 38.6696 23.4675 36.6056 24.8473C32.1783 27.8073 29.5613 32.1669 28.9883 37.5364C28.795 39.3481 28.93 39.8606 29.6971 40.2283C30.0867 40.415 30.2161 40.4106 30.668 40.1952C31.2527 39.9162 31.2564 39.9047 31.4936 37.6439C31.8339 34.4012 33.1528 31.4944 35.3286 29.1923C36.8155 27.6192 38.0542 26.7081 39.8497 25.8667C41.4722 25.1063 43.1455 24.6609 44.8464 24.5367C46.3958 24.4234 46.8844 24.2536 47.1149 23.7477C47.385 23.155 47.3283 22.7727 46.9078 22.3523C46.5764 22.0208 46.391 21.9714 45.5406 21.9878C44.9997 21.9983 44.1352 22.0677 43.6196 22.142ZM38.2153 32.1691C37.6539 32.6002 37.6039 32.9859 37.6039 36.8906C37.6039 40.7953 37.6539 41.1811 38.2153 41.6122C38.4049 41.7578 41.1596 41.8037 49.9157 41.8075L61.3681 41.8125L61.7516 41.4289L62.1352 41.0455V36.8906V32.7358L61.7516 32.3523L61.3681 31.9687L49.9157 31.9737C41.1596 31.9775 38.4049 32.0234 38.2153 32.1691ZM59.6352 36.8906V39.3125H49.8696H40.1039V36.8906V34.4688H49.8696H59.6352V36.8906ZM42.9028 47.0128C42.1981 47.5539 42.1863 48.4592 42.8769 49.0025C43.2556 49.3003 43.5249 49.3125 49.7257 49.3125H56.1802L56.6056 48.9466C57.1521 48.4766 57.1771 47.7467 56.6652 47.2019L56.2994 46.8125L49.7252 46.8175C44.8036 46.8213 43.0885 46.8703 42.9028 47.0128ZM38.501 61.0273C41.1261 61.9045 42.7224 62.1659 45.5727 62.1855C46.9906 62.1952 48.6605 62.1461 49.2836 62.0764L50.4164 61.9498V63.9905V66.0312H41.9789H33.5414V62.3661V58.7011L35.2992 59.623C36.2661 60.13 37.7069 60.7619 38.501 61.0273Z"/>
</mask>
<path fill-rule="evenodd" clip-rule="evenodd" d="M50.4164 14.72V16.3777L50.0447 16.2844C49.8403 16.233 48.8296 16.1178 47.7985 16.0283C43.583 15.6622 39.2438 16.5612 35.2727 18.6233C34.3771 19.0883 33.6213 19.4688 33.593 19.4688C33.5646 19.4688 33.5414 18.0273 33.5414 16.2656V13.0625H41.9789H50.4164V14.72ZM49.7852 18.7737C54.878 19.7398 59.4491 22.5583 62.5416 26.6391C63.9908 28.5513 65.4557 31.5831 66.0605 33.9219C66.6922 36.3641 66.8521 39.8811 66.4475 42.4352C65.1091 50.8858 58.6606 57.5684 50.0506 59.4278C48.2755 59.8112 43.816 59.8136 42.0571 59.432C34.5647 57.8069 28.7761 52.7073 26.4331 45.6673C25.6999 43.4645 25.4175 41.65 25.4169 39.1377C25.4161 35.5561 26.0277 32.9477 27.6006 29.8244C29.2536 26.5423 31.5706 23.9281 34.6352 21.8875C37.4638 20.0041 40.6875 18.8587 44.2446 18.4734C45.3636 18.3522 48.4428 18.5191 49.7852 18.7737ZM43.6196 22.142C41.2036 22.4902 38.6696 23.4675 36.6056 24.8473C32.1783 27.8073 29.5613 32.1669 28.9883 37.5364C28.795 39.3481 28.93 39.8606 29.6971 40.2283C30.0867 40.415 30.2161 40.4106 30.668 40.1952C31.2527 39.9162 31.2564 39.9047 31.4936 37.6439C31.8339 34.4012 33.1528 31.4944 35.3286 29.1923C36.8155 27.6192 38.0542 26.7081 39.8497 25.8667C41.4722 25.1063 43.1455 24.6609 44.8464 24.5367C46.3958 24.4234 46.8844 24.2536 47.1149 23.7477C47.385 23.155 47.3283 22.7727 46.9078 22.3523C46.5764 22.0208 46.391 21.9714 45.5406 21.9878C44.9997 21.9983 44.1352 22.0677 43.6196 22.142ZM38.2153 32.1691C37.6539 32.6002 37.6039 32.9859 37.6039 36.8906C37.6039 40.7953 37.6539 41.1811 38.2153 41.6122C38.4049 41.7578 41.1596 41.8037 49.9157 41.8075L61.3681 41.8125L61.7516 41.4289L62.1352 41.0455V36.8906V32.7358L61.7516 32.3523L61.3681 31.9687L49.9157 31.9737C41.1596 31.9775 38.4049 32.0234 38.2153 32.1691ZM59.6352 36.8906V39.3125H49.8696H40.1039V36.8906V34.4688H49.8696H59.6352V36.8906ZM42.9028 47.0128C42.1981 47.5539 42.1863 48.4592 42.8769 49.0025C43.2556 49.3003 43.5249 49.3125 49.7257 49.3125H56.1802L56.6056 48.9466C57.1521 48.4766 57.1771 47.7467 56.6652 47.2019L56.2994 46.8125L49.7252 46.8175C44.8036 46.8213 43.0885 46.8703 42.9028 47.0128ZM38.501 61.0273C41.1261 61.9045 42.7224 62.1659 45.5727 62.1855C46.9906 62.1952 48.6605 62.1461 49.2836 62.0764L50.4164 61.9498V63.9905V66.0312H41.9789H33.5414V62.3661V58.7011L35.2992 59.623C36.2661 60.13 37.7069 60.7619 38.501 61.0273Z" fill="white"/>
<path d="M36.1406 4.32391L37.995 6.68214L37.9956 6.68168L36.1406 4.32391ZM35.7289 4.64766L33.8746 2.28942C33.1512 2.8582 32.7289 3.72748 32.7289 4.64766H35.7289ZM35.7289 10.5625V13.5625C37.3858 13.5625 38.7289 12.2194 38.7289 10.5625H35.7289ZM31.558 10.9394L29.6025 8.6643L29.602 8.66475L31.558 10.9394ZM31.1196 11.3164L29.1635 9.04178C28.5079 9.60561 28.1274 10.4249 28.1197 11.2896L31.1196 11.3164ZM31.0744 16.3758L28.0745 16.349L28.0745 16.3491L31.0744 16.3758ZM31.0294 21.4353L33.143 23.5643C33.7038 23.0076 34.0223 22.2521 34.0293 21.462L31.0294 21.4353ZM29.6424 22.8123L27.5287 20.6834L27.5287 20.6834L29.6424 22.8123ZM23.416 34.063L26.3354 34.7537L26.3354 34.7535L23.416 34.063ZM23.0002 39L26.0002 39.0053V39.0052L23.0002 39ZM24.0881 46.4444L21.2415 47.3913L21.2415 47.3914L24.0881 46.4444ZM29.518 55.3177L27.3739 57.416L27.374 57.416L29.518 55.3177ZM31.0414 56.8742H34.0414C34.0414 56.0897 33.7341 55.3365 33.1854 54.7758L31.0414 56.8742ZM31.8514 68.4481L31.1712 71.37L31.1725 71.3703L31.8514 68.4481ZM33.9321 68.5708L33.9994 65.5715L33.999 65.5715L33.9321 68.5708ZM35.6508 68.6094L38.6498 68.5305C38.6077 66.931 37.3178 65.6461 35.7182 65.6101L35.6508 68.6094ZM35.7289 71.5781L38.7279 71.4992L35.7289 71.5781ZM35.9239 74.7269L33.4066 76.3588L33.4084 76.3615L35.9239 74.7269ZM37.4196 75.0053L38.5821 77.7709L38.5832 77.7705L37.4196 75.0053ZM37.9469 74.7497L35.4414 73.0997L35.4344 73.1104L37.9469 74.7497ZM38.0641 71.6562L35.0653 71.5709L35.0653 71.571L38.0641 71.6562ZM38.1508 68.6094L38.1197 65.6095C36.5082 65.6262 35.1979 66.9131 35.152 68.524L38.1508 68.6094ZM42.1742 68.5677L42.1431 65.5678L42.1742 68.5677ZM46.1977 68.5259H49.1977C49.1977 67.7249 48.8773 66.9571 48.308 66.3937C47.7386 65.8302 46.9676 65.5178 46.1666 65.5261L46.1977 68.5259ZM46.5636 74.7205L48.8379 72.764L48.8378 72.7639L46.5636 74.7205ZM48.3317 74.7205L46.0576 72.7639L46.0575 72.764L48.3317 74.7205ZM48.6977 68.5312V65.5312C47.0408 65.5312 45.6977 66.8744 45.6977 68.5312H48.6977ZM52.8857 64.5956L49.886 64.553L49.886 64.553L52.8857 64.5956ZM52.9331 61.2569L51.9262 58.4309C50.7459 58.8515 49.9513 59.9613 49.9335 61.2142L52.9331 61.2569ZM53.9794 60.8841L52.9724 58.0581H52.9724L53.9794 60.8841ZM67.9947 46.4444L65.1481 45.4974L65.1481 45.4974L67.9947 46.4444ZM69.0827 39L66.0827 39.0052V39.0053L69.0827 39ZM68.6669 34.063L65.7475 34.7535L65.7475 34.7537L68.6669 34.063ZM52.743 11.2902L55.4733 10.0469L55.4729 10.0461L52.743 11.2902ZM48.6977 10.5625H45.6977C45.6977 12.2194 47.0408 13.5625 48.6977 13.5625V10.5625ZM47.9077 4.15266L46.7594 6.92419L46.7598 6.92437L47.9077 4.15266ZM46.5049 4.51047L44.3097 2.46567L44.3096 2.46577L46.5049 4.51047ZM46.1977 10.5625V13.5625C47.8545 13.5625 49.1977 12.2194 49.1977 10.5625H46.1977ZM38.0727 10.5625H35.0727C35.0727 12.2194 36.4158 13.5625 38.0727 13.5625V10.5625ZM38.0727 4.64766H41.0727C41.0727 3.72748 40.6504 2.8582 39.9271 2.28942L38.0727 4.64766ZM37.661 4.32391L35.806 6.68168L35.8066 6.68215L37.661 4.32391ZM34.2863 1.96567L33.8746 2.28942L37.5833 7.00589L37.995 6.68214L34.2863 1.96567ZM32.7289 4.64766V7.60516H38.7289V4.64766H32.7289ZM32.7289 7.60516V10.5625H38.7289V7.60516H32.7289ZM35.7289 7.5625H33.8627V13.5625H35.7289V7.5625ZM33.8627 7.5625C33.1012 7.5625 32.3311 7.55882 31.7248 7.65797C31.3323 7.72215 30.8978 7.84091 30.451 8.07549C30.0378 8.29242 29.7403 8.54582 29.6025 8.6643L33.5135 13.2145C33.5809 13.1565 33.4557 13.2746 33.2401 13.3878C33.1261 13.4477 33.0122 13.4938 32.9055 13.5273C32.8038 13.5593 32.7278 13.5736 32.6932 13.5793C32.6609 13.5846 32.6576 13.5834 32.699 13.5803C32.7398 13.5772 32.8064 13.5735 32.9107 13.5705C33.1266 13.5642 33.4217 13.5625 33.8627 13.5625V7.5625ZM29.602 8.66475L29.1635 9.04178L33.0756 13.591L33.514 13.214L29.602 8.66475ZM28.1197 11.2896L28.0745 16.349L34.0743 16.4026L34.1194 11.3432L28.1197 11.2896ZM28.0745 16.3491L28.0295 21.4086L34.0293 21.462L34.0743 16.4025L28.0745 16.3491ZM28.9158 19.3063L27.5287 20.6834L31.756 24.9413L33.143 23.5643L28.9158 19.3063ZM27.5287 20.6834C24.0299 24.1571 21.6583 28.4602 20.4965 33.3725L26.3354 34.7535C27.2492 30.8898 29.0827 27.5954 31.756 24.9413L27.5287 20.6834ZM20.4966 33.3723C20.0456 35.2782 20.0053 36.0145 20.0002 38.9948L26.0002 39.0052C26.0027 37.5284 26.0154 36.8141 26.06 36.2842C26.0985 35.8279 26.162 35.4865 26.3354 34.7537L20.4966 33.3723ZM20.0002 38.9947C19.997 40.7914 20.0311 42.1357 20.2206 43.4328C20.4143 44.7584 20.7542 45.9263 21.2415 47.3913L26.9348 45.4974C26.4815 44.1348 26.2742 43.3634 26.1576 42.5651C26.0367 41.7383 25.9971 40.7743 26.0002 39.0053L20.0002 38.9947ZM21.2415 47.3914C22.4957 51.1612 24.5753 54.5562 27.3739 57.416L31.6621 53.2194C29.4932 51.0031 27.8981 48.3932 26.9348 45.4974L21.2415 47.3914ZM27.374 57.416L28.8974 58.9726L33.1854 54.7758L31.662 53.2193L27.374 57.416ZM28.0414 56.8742V62.0827H34.0414V56.8742H28.0414ZM28.0414 62.0827C28.0414 64.8083 28.0527 66.5952 28.1928 67.6964C28.2586 68.2136 28.4 69.0743 28.9265 69.8539C29.622 70.8835 30.5879 71.2342 31.1712 71.37L32.5316 65.5263C32.5904 65.5399 32.8294 65.5981 33.1172 65.7662C33.4385 65.9539 33.7056 66.2099 33.8986 66.4955C34.2038 66.9474 34.189 67.2861 34.1448 66.9391C34.065 66.312 34.0414 65.0024 34.0414 62.0827H28.0414ZM31.1725 71.3703C31.5778 71.4644 32.1597 71.4974 32.4352 71.5137C32.8527 71.5383 33.3599 71.5588 33.8651 71.57L33.999 65.5715C33.5589 65.5617 33.1253 65.544 32.7886 65.5241C32.6188 65.5141 32.4889 65.5044 32.4026 65.4965C32.359 65.4924 32.3407 65.4902 32.3419 65.4903C32.3429 65.4904 32.3575 65.4923 32.3819 65.4963C32.4022 65.4996 32.4566 65.5088 32.5304 65.526L31.1725 71.3703ZM33.8647 71.57L35.5835 71.6086L35.7182 65.6101L33.9994 65.5715L33.8647 71.57ZM32.6518 68.6883L32.73 71.657L38.7279 71.4992L38.6498 68.5305L32.6518 68.6883ZM32.73 71.657C32.7521 72.4999 32.7862 73.2989 32.8242 73.9131C32.8429 74.2158 32.8643 74.5006 32.8885 74.7333C32.9001 74.8444 32.9165 74.9853 32.9403 75.1268C32.9516 75.1942 32.9723 75.3089 33.0066 75.4421C33.0131 75.4672 33.1123 75.9048 33.4066 76.3588L38.4413 73.095C38.6156 73.364 38.7044 73.5983 38.737 73.6879C38.7784 73.8016 38.8036 73.8934 38.8166 73.9442C38.8426 74.0449 38.8548 74.1174 38.8575 74.1334C38.864 74.1721 38.8627 74.1733 38.8563 74.1121C38.8446 74.0002 38.8293 73.8102 38.8127 73.5422C38.7801 73.015 38.7487 72.2891 38.7279 71.4992L32.73 71.657ZM33.4084 76.3615C34.1633 77.5232 35.3493 77.9097 36.0144 78.0335C36.7756 78.1752 37.6979 78.1425 38.5821 77.7709L36.257 72.2397C36.6174 72.0882 36.9094 72.097 37.1124 72.1348C37.2311 72.1569 37.4099 72.2056 37.621 72.3209C37.8234 72.4314 38.1597 72.6617 38.4395 73.0923L33.4084 76.3615ZM38.5832 77.7705C38.7573 77.6972 38.9346 77.6179 39.0879 77.5436C39.1595 77.5089 39.2593 77.4592 39.3626 77.4013C39.4097 77.3749 39.5022 77.322 39.6092 77.2498C39.6613 77.2146 39.7561 77.1486 39.866 77.0567C39.9305 77.0027 40.2099 76.7714 40.4594 76.389L35.4344 73.1104C35.5751 72.8947 35.7147 72.7422 35.7961 72.6587C35.8846 72.5679 35.963 72.4991 36.0165 72.4544C36.1209 72.367 36.2086 72.3062 36.2521 72.2768C36.3418 72.2163 36.411 72.1775 36.4292 72.1673C36.4747 72.1417 36.4949 72.1328 36.471 72.1443C36.4331 72.1627 36.3551 72.1984 36.2559 72.2402L38.5832 77.7705ZM40.4524 76.3997C40.7467 75.9528 40.8449 75.5262 40.8482 75.5139C40.8796 75.395 40.8969 75.2993 40.9045 75.2559C40.9206 75.1627 40.9292 75.0872 40.9324 75.0579C40.94 74.9888 40.9447 74.9269 40.9471 74.8932C40.9526 74.8167 40.9575 74.7281 40.9618 74.6417C40.9708 74.463 40.981 74.2199 40.9918 73.9353C41.0135 73.3627 41.0389 72.5859 41.0629 71.7415L35.0653 71.571C35.0417 72.4024 35.0169 73.1595 34.9961 73.7083C34.9856 73.9843 34.9765 74.1987 34.9694 74.3406C34.9657 74.4146 34.9633 74.452 34.9625 74.463C34.9618 74.4731 34.9636 74.4454 34.9685 74.4004C34.9704 74.3831 34.9777 74.3171 34.9927 74.2307C34.9996 74.1907 35.0164 74.0978 35.0473 73.9811C35.0628 73.9223 35.0908 73.8234 35.1352 73.7038C35.1709 73.6076 35.2634 73.3701 35.4414 73.0997L40.4524 76.3997ZM41.0629 71.7416L41.1496 68.6947L35.152 68.524L35.0653 71.5709L41.0629 71.7416ZM38.1819 71.6092L42.2053 71.5675L42.1431 65.5678L38.1197 65.6095L38.1819 71.6092ZM42.2053 71.5675L46.2288 71.5258L46.1666 65.5261L42.1431 65.5678L42.2053 71.5675ZM43.1977 68.5259V71.4105H49.1977V68.5259H43.1977ZM43.1977 71.4105C43.1977 72.7088 43.1953 73.6545 43.2656 74.2902C43.307 74.6643 43.3922 75.1562 43.6304 75.675C43.8712 76.1992 44.1846 76.5552 44.2894 76.677L48.8378 72.7639C48.7651 72.6794 48.9439 72.8684 49.0828 73.1707C49.2192 73.4675 49.235 73.6827 49.2293 73.6309C49.2223 73.5673 49.2109 73.3991 49.2045 73.0026C49.1984 72.6221 49.1977 72.1166 49.1977 71.4105H43.1977ZM44.2893 76.6769C45.0448 77.5551 46.1616 78.1582 47.4477 78.1582C48.7337 78.1582 49.8505 77.5551 50.606 76.6769L46.0575 72.764C46.3109 72.4694 46.7947 72.1582 47.4477 72.1582C48.1007 72.1582 48.5845 72.4694 48.8379 72.764L44.2893 76.6769ZM50.6059 76.677C50.7108 76.5551 51.0241 76.1992 51.2648 75.6753C51.5031 75.1566 51.5883 74.6648 51.6297 74.2907C51.7 73.6551 51.6977 72.71 51.6977 71.4131H45.6977C45.6977 72.1186 45.6969 72.6235 45.6908 73.0037C45.6845 73.3997 45.6731 73.5676 45.6661 73.6309C45.6604 73.6824 45.6763 73.4672 45.8127 73.1704C45.9515 72.8683 46.1302 72.6795 46.0576 72.7639L50.6059 76.677ZM51.6977 71.4131V68.5312H45.6977V71.4131H51.6977ZM48.6977 71.5312H50.3991V65.5312H48.6977V71.5312ZM50.3991 71.5312C50.8578 71.5312 51.6438 71.552 52.2473 71.473C53.0282 71.3707 54.2928 71.0197 55.1152 69.7178C55.7143 68.7696 55.7908 67.6913 55.8257 67.1489C55.8681 66.4875 55.8716 65.6036 55.8853 64.6382L49.886 64.553C49.8783 65.0906 49.8743 65.5142 49.8673 65.8985C49.8604 66.2789 49.8515 66.5543 49.838 66.7644C49.824 66.983 49.8094 67.0516 49.8122 67.0383C49.8145 67.0275 49.86 66.8025 50.0427 66.5132C50.1391 66.3607 50.2663 66.2019 50.4285 66.0536C50.5907 65.9052 50.7606 65.7923 50.9219 65.7094C51.2265 65.5527 51.4581 65.5251 51.4684 65.5237C51.4784 65.5224 51.4197 65.5298 51.2061 65.5321C50.9813 65.5344 50.7715 65.5312 50.3991 65.5312V71.5312ZM55.8853 64.6383L55.9328 61.2995L49.9335 61.2142L49.886 64.553L55.8853 64.6383ZM53.9401 64.0828L54.9864 63.71L52.9724 58.0581L51.9262 58.4309L53.9401 64.0828ZM54.9864 63.71C62.3302 61.0932 68.3538 54.8692 70.8413 47.3913L65.1481 45.4974C63.2312 51.2599 58.5408 56.074 52.9724 58.0581L54.9864 63.71ZM70.8413 47.3913C71.3287 45.9263 71.6685 44.7584 71.8622 43.4328C72.0518 42.1357 72.0858 40.7914 72.0827 38.9947L66.0827 39.0053C66.0858 40.7743 66.0461 41.7383 65.9253 42.5651C65.8086 43.3634 65.6014 44.1348 65.1481 45.4974L70.8413 47.3913ZM72.0827 38.9948C72.0775 36.0145 72.0372 35.2782 71.5863 33.3723L65.7475 34.7537C65.9209 35.4865 65.9844 35.8279 66.0228 36.2842C66.0675 36.8141 66.0801 37.5284 66.0827 39.0052L72.0827 38.9948ZM71.5863 33.3724C70.1307 27.2182 66.63 21.8326 61.6229 18.0953L58.034 22.9035C61.8888 25.7808 64.6094 29.9421 65.7475 34.7535L71.5863 33.3724ZM55.9164 16.9414V14.3062H49.9164V16.9414H55.9164ZM55.9164 14.3062C55.9164 13.4715 55.8988 12.7142 55.8642 12.1131C55.8471 11.8164 55.824 11.5223 55.7911 11.2602C55.7771 11.1487 55.7173 10.5828 55.4733 10.0469L50.0127 12.5334C49.8841 12.2509 49.8433 12.0305 49.8428 12.0283C49.8332 11.9818 49.833 11.9692 49.8378 12.0079C49.8473 12.0831 49.8609 12.229 49.8741 12.4576C49.9 12.9072 49.9164 13.5424 49.9164 14.3062H55.9164ZM55.4729 10.0461C55.2658 9.59166 54.9414 9.0841 54.4219 8.64423C53.9127 8.21311 53.3636 7.97203 52.881 7.831C52.041 7.58557 51.0812 7.5625 50.2528 7.5625V13.5625C50.645 13.5625 50.9082 13.5716 51.0875 13.5859C51.2757 13.6008 51.2841 13.6153 51.1981 13.5902C51.092 13.5591 50.829 13.464 50.5447 13.2233C50.25 12.9738 50.0891 12.701 50.0131 12.5342L55.4729 10.0461ZM50.2528 7.5625H48.6977V13.5625H50.2528V7.5625ZM51.6977 10.5625V7.83547H45.6977V10.5625H51.6977ZM51.6977 7.83547C51.6977 6.47168 51.69 5.25547 51.498 4.36031C51.3846 3.83156 51.1572 3.13809 50.6214 2.50126C50.0751 1.85201 49.4407 1.54044 49.0555 1.38094L46.7598 6.92437C46.7241 6.90956 46.3631 6.75967 46.0304 6.36431C45.7082 5.98136 45.6347 5.63399 45.6314 5.61876C45.6291 5.60781 45.6369 5.64168 45.6471 5.74296C45.6571 5.84231 45.667 5.98146 45.6752 6.17494C45.6918 6.5686 45.6977 7.09726 45.6977 7.83547H51.6977ZM49.056 1.38113C48.3023 1.06886 47.3913 0.928741 46.4294 1.1741C45.4971 1.41193 44.7995 1.93983 44.3097 2.46567L48.7 6.55527C48.633 6.6272 48.3784 6.86908 47.9125 6.98793C47.417 7.11431 46.996 7.02224 46.7594 6.92419L49.056 1.38113ZM44.3096 2.46577C44.0733 2.71947 43.7641 3.10878 43.5421 3.67897C43.3541 4.16197 43.2906 4.62024 43.2593 4.94618C43.2005 5.55676 43.1977 6.45552 43.1977 7.70141H49.1977C49.1977 7.04305 49.1993 6.55736 49.2056 6.18716C49.212 5.80516 49.2227 5.614 49.2316 5.52124C49.2418 5.41593 49.2375 5.58832 49.1335 5.85538C49.0748 6.00627 48.9966 6.15725 48.9008 6.29979C48.8104 6.43438 48.729 6.52418 48.7001 6.55516L44.3096 2.46577ZM43.1977 7.70141V10.5625H49.1977V7.70141H43.1977ZM46.1977 7.5625H42.1352V13.5625H46.1977V7.5625ZM42.1352 7.5625H38.0727V13.5625H42.1352V7.5625ZM41.0727 10.5625V7.60516H35.0727V10.5625H41.0727ZM41.0727 7.60516V4.64766H35.0727V7.60516H41.0727ZM39.9271 2.28942L39.5153 1.96567L35.8066 6.68215L36.2183 7.0059L39.9271 2.28942ZM39.5159 1.96614C39.1643 1.6895 38.7858 1.48098 38.444 1.3353C38.1719 1.21938 37.5971 1 36.9008 1V7C36.6027 7 36.3888 6.94877 36.3057 6.92694C36.2035 6.90007 36.1323 6.87229 36.0918 6.85501C36.0255 6.82675 35.9312 6.78019 35.806 6.68168L39.5159 1.96614ZM36.9008 1C36.2045 1 35.6297 1.21938 35.3576 1.3353C35.0158 1.48098 34.6373 1.6895 34.2857 1.96614L37.9956 6.68168C37.8704 6.78019 37.7761 6.82675 37.7098 6.85501C37.6693 6.87229 37.5981 6.90007 37.4959 6.92694C37.4129 6.94877 37.199 7 36.9008 7V1ZM50.4164 16.3777L48.956 22.1972C50.749 22.6472 52.6492 22.2455 54.1068 21.1085C55.5643 19.9716 56.4164 18.2262 56.4164 16.3777H50.4164ZM50.0447 16.2844L48.5811 22.1031L48.5843 22.1039L50.0447 16.2844ZM47.7985 16.0283L47.2793 22.0058L47.2794 22.0058L47.7985 16.0283ZM35.2727 18.6233L38.0374 23.9483L38.0377 23.9482L35.2727 18.6233ZM33.5414 13.0625V7.0625C30.2277 7.0625 27.5414 9.74879 27.5414 13.0625H33.5414ZM50.4164 13.0625H56.4164C56.4164 9.74879 53.7301 7.0625 50.4164 7.0625V13.0625ZM49.7852 18.7737L48.6667 24.6686L48.6669 24.6686L49.7852 18.7737ZM62.5416 26.6391L57.7596 30.263L57.7597 30.2631L62.5416 26.6391ZM66.0605 33.9219L60.2516 35.4242L60.2517 35.4244L66.0605 33.9219ZM66.4475 42.4352L60.5214 41.4965L60.5214 41.4966L66.4475 42.4352ZM50.0506 59.4278L48.7841 53.563L48.7838 53.5631L50.0506 59.4278ZM42.0571 59.432L43.3291 53.5684L43.3289 53.5684L42.0571 59.432ZM26.4331 45.6673L32.1261 43.7727L32.126 43.7723L26.4331 45.6673ZM25.4169 39.1377L19.4169 39.139V39.1391L25.4169 39.1377ZM27.6006 29.8244L22.2419 27.1255L22.2419 27.1256L27.6006 29.8244ZM34.6352 21.8875L31.3098 16.8933L31.3097 16.8934L34.6352 21.8875ZM44.2446 18.4734L44.8907 24.4385L44.8909 24.4385L44.2446 18.4734ZM43.6196 22.142L44.4753 28.0807L44.4761 28.0806L43.6196 22.142ZM36.6056 24.8473L33.2709 19.8594L33.2709 19.8594L36.6056 24.8473ZM28.9883 37.5364L23.0222 36.8998L23.0222 36.8999L28.9883 37.5364ZM29.6971 40.2283L27.1036 45.6388L27.1044 45.6392L29.6971 40.2283ZM30.668 40.1952L33.2504 45.611L33.2512 45.6106L30.668 40.1952ZM31.4936 37.6439L25.5264 37.0177L25.5264 37.0179L31.4936 37.6439ZM35.3286 29.1923L30.9681 25.0709L30.9681 25.071L35.3286 29.1923ZM39.8497 25.8667L42.3958 31.2997L42.3961 31.2996L39.8497 25.8667ZM44.8464 24.5367L45.2834 30.5208L45.2839 30.5207L44.8464 24.5367ZM47.1149 23.7477L41.6553 21.259L41.6547 21.2604L47.1149 23.7477ZM46.9078 22.3523L42.6642 26.594L42.666 26.5958L46.9078 22.3523ZM45.5406 21.9878L45.4249 15.9889L45.4246 15.9889L45.5406 21.9878ZM38.2153 32.1691L41.8696 36.9279L41.8709 36.9268L38.2153 32.1691ZM38.2153 41.6122L41.8709 36.8544L41.8696 36.8533L38.2153 41.6122ZM49.9157 41.8075L49.9183 35.8075H49.9182L49.9157 41.8075ZM61.3681 41.8125L61.3655 47.8125C62.9581 47.8132 64.4857 47.1807 65.6116 46.0543L61.3681 41.8125ZM61.7516 41.4289L57.5098 37.1854L57.5081 37.1871L61.7516 41.4289ZM62.1352 41.0455L66.377 45.289C67.5027 44.1637 68.1352 42.6372 68.1352 41.0455H62.1352ZM62.1352 32.7358H68.1352C68.1352 31.1441 67.5027 29.6176 66.3769 28.4923L62.1352 32.7358ZM61.7516 32.3523L57.5081 36.5941L57.5098 36.5959L61.7516 32.3523ZM61.3681 31.9687L65.6117 27.727C64.4857 26.6006 62.9582 25.9681 61.3655 25.9688L61.3681 31.9687ZM49.9157 31.9737L49.9182 37.9737H49.9183L49.9157 31.9737ZM59.6352 39.3125V45.3125C62.9489 45.3125 65.6352 42.6262 65.6352 39.3125H59.6352ZM40.1039 39.3125H34.1039C34.1039 42.6262 36.7902 45.3125 40.1039 45.3125V39.3125ZM40.1039 34.4688V28.4688C36.7902 28.4688 34.1039 31.155 34.1039 34.4688H40.1039ZM59.6352 34.4688H65.6352C65.6352 31.155 62.9489 28.4688 59.6352 28.4688V34.4688ZM42.9028 47.0128L39.2492 42.2535L39.2487 42.2539L42.9028 47.0128ZM42.8769 49.0025L39.1672 53.7183L39.1682 53.7191L42.8769 49.0025ZM56.1802 49.3125V55.3125C57.6159 55.3125 59.0041 54.7976 60.0926 53.8614L56.1802 49.3125ZM56.6056 48.9466L60.5181 53.4955L60.5183 53.4953L56.6056 48.9466ZM56.6652 47.2019L52.2921 51.3099L52.2923 51.3102L56.6652 47.2019ZM56.2994 46.8125L60.6725 42.7044C59.5373 41.4961 57.9528 40.8112 56.2948 40.8125L56.2994 46.8125ZM49.7252 46.8175L49.7206 40.8175H49.7206L49.7252 46.8175ZM38.501 61.0273L36.5986 66.7178L36.5994 66.7181L38.501 61.0273ZM45.5727 62.1855L45.5316 68.1853H45.5317L45.5727 62.1855ZM49.2836 62.0764L48.6174 56.1135L48.6168 56.1136L49.2836 62.0764ZM50.4164 61.9498H56.4164C56.4164 60.2425 55.6891 58.6161 54.4166 57.4779C53.1441 56.3396 51.447 55.7974 49.7502 55.9869L50.4164 61.9498ZM50.4164 66.0312V72.0312C53.7301 72.0312 56.4164 69.345 56.4164 66.0312H50.4164ZM33.5414 66.0312H27.5414C27.5414 69.345 30.2277 72.0312 33.5414 72.0312V66.0312ZM33.5414 58.7011L36.3281 53.3875C34.4682 52.4121 32.2337 52.4801 30.4366 53.5669C28.6395 54.6537 27.5414 56.6009 27.5414 58.7011H33.5414ZM35.2992 59.623L32.5126 64.9366L32.5127 64.9367L35.2992 59.623ZM44.4164 14.72V16.3777H56.4164V14.72H44.4164ZM51.8768 10.5581L51.5051 10.4648L48.5843 22.1039L48.956 22.1972L51.8768 10.5581ZM51.5083 10.4656C50.9256 10.319 50.1461 10.236 49.9111 10.2092C49.4443 10.156 48.8799 10.0996 48.3175 10.0508L47.2794 22.0058C47.7481 22.0465 48.2047 22.0924 48.5521 22.132C48.7281 22.1521 48.8527 22.1679 48.9257 22.178C48.9632 22.1832 48.9647 22.1839 48.9406 22.1798C48.9279 22.1777 48.8944 22.172 48.8466 22.1627C48.8063 22.1548 48.7092 22.1353 48.5811 22.1031L51.5083 10.4656ZM48.3176 10.0508C42.9011 9.58038 37.4284 10.7432 32.5077 13.2984L38.0377 23.9482C41.0592 22.3793 44.2649 21.744 47.2793 22.0058L48.3176 10.0508ZM32.508 13.2982C32.0758 13.5226 31.6861 13.722 31.4099 13.8611C31.268 13.9325 31.1762 13.9778 31.1303 14C31.1012 14.0141 31.1235 14.0029 31.1731 13.9805C31.1897 13.973 31.2756 13.9342 31.3934 13.8875C31.4453 13.8669 31.5828 13.8129 31.7639 13.7548C31.8529 13.7262 32.0213 13.6742 32.2372 13.6241C32.3479 13.5984 32.5092 13.5642 32.706 13.5347C32.8881 13.5075 33.2014 13.4688 33.593 13.4688V25.4688C34.2858 25.4688 34.8167 25.3444 34.9525 25.3129C35.17 25.2623 35.3403 25.2098 35.4316 25.1805C35.6173 25.1209 35.7607 25.0647 35.8199 25.0412C35.9523 24.9887 36.0582 24.9413 36.1 24.9225C36.1999 24.8775 36.2929 24.8329 36.3525 24.8041C36.4843 24.7404 36.6427 24.6615 36.8053 24.5797C37.138 24.4123 37.574 24.1889 38.0374 23.9483L32.508 13.2982ZM33.593 13.4688C35.2802 13.4688 36.554 14.1604 37.3173 14.7648C38.0342 15.3326 38.4571 15.9351 38.665 16.2645C39.0735 16.9114 39.2571 17.4844 39.3121 17.6587C39.4494 18.0938 39.5032 18.4462 39.5146 18.5181C39.5506 18.7464 39.5631 18.9197 39.5643 18.9352C39.5707 19.0161 39.571 19.0503 39.5686 18.9887C39.5649 18.8916 39.5602 18.7076 39.5558 18.4314C39.5471 17.8919 39.5414 17.1248 39.5414 16.2656H27.5414C27.5414 17.1682 27.5473 18.0026 27.5573 18.6243C27.5622 18.9286 27.5686 19.2151 27.5772 19.4433C27.5811 19.5444 27.5879 19.7049 27.6009 19.8715C27.6055 19.9299 27.6214 20.1359 27.6609 20.3861C27.6739 20.4691 27.7295 20.8298 27.8686 21.2705C27.9245 21.4475 28.1089 22.0226 28.5183 22.6709C28.6906 22.9439 30.252 25.4688 33.593 25.4688V13.4688ZM39.5414 16.2656V13.0625H27.5414V16.2656H39.5414ZM33.5414 19.0625H41.9789V7.0625H33.5414V19.0625ZM41.9789 19.0625H50.4164V7.0625H41.9789V19.0625ZM44.4164 13.0625V14.72H56.4164V13.0625H44.4164ZM48.6669 24.6686C52.3194 25.3615 55.5771 27.383 57.7596 30.263L67.3236 23.0152C63.3211 17.7336 57.4366 14.1182 50.9034 12.8789L48.6669 24.6686ZM57.7597 30.2631C58.7262 31.5383 59.844 33.848 60.2516 35.4242L71.8694 32.4196C71.0673 29.3182 69.2554 25.5642 67.3234 23.015L57.7597 30.2631ZM60.2517 35.4244C60.672 37.0492 60.8005 39.7346 60.5214 41.4965L72.3737 43.3738C72.9036 40.0276 72.7125 35.6789 71.8693 32.4193L60.2517 35.4244ZM60.5214 41.4966C59.5854 47.406 55.0681 52.2059 48.7841 53.563L51.3172 65.2926C62.2532 62.9309 70.6327 54.3656 72.3737 43.3738L60.5214 41.4966ZM48.7838 53.5631C48.796 53.5605 48.7237 53.5759 48.5432 53.5979C48.3726 53.6187 48.1524 53.6397 47.8853 53.6582C47.3485 53.6954 46.7089 53.7164 46.0446 53.7168C45.3802 53.7171 44.7421 53.6968 44.2082 53.6603C43.9425 53.6421 43.7245 53.6214 43.5567 53.601C43.3786 53.5793 43.3111 53.5645 43.3291 53.5684L40.785 65.2956C42.3304 65.6309 44.4275 65.7177 46.0509 65.7168C47.6783 65.7159 49.772 65.6264 51.3174 65.2926L48.7838 53.5631ZM43.3289 53.5684C37.8231 52.3741 33.7729 48.7207 32.1261 43.7727L20.7402 47.562C23.7793 56.694 31.3064 63.2396 40.7852 65.2957L43.3289 53.5684ZM32.126 43.7723C31.6121 42.2284 31.4174 41.0579 31.4169 39.1362L19.4169 39.1391C19.4177 42.2421 19.7877 44.7007 20.7403 47.5624L32.126 43.7723ZM31.4169 39.1363C31.4163 36.469 31.8187 34.7881 32.9594 32.5232L22.2419 27.1256C20.2366 31.1072 19.4159 34.6432 19.4169 39.139L31.4169 39.1363ZM32.9594 32.5233C34.1439 30.1714 35.7595 28.3473 37.9607 26.8816L31.3097 16.8934C27.3818 19.5089 24.3633 22.9133 22.2419 27.1255L32.9594 32.5233ZM37.9606 26.8817C39.9444 25.5607 42.2395 24.7257 44.8907 24.4385L43.5984 12.5083C39.1355 12.9918 34.9831 14.4474 31.3098 16.8933L37.9606 26.8817ZM44.8909 24.4385C44.8272 24.4454 44.9589 24.4311 45.3606 24.4333C45.7122 24.4352 46.1448 24.4488 46.6064 24.4738C47.6121 24.5283 48.3972 24.6174 48.6667 24.6686L50.9036 12.8789C49.8309 12.6754 48.4051 12.5537 47.2559 12.4914C46.166 12.4323 44.6871 12.3904 43.5982 12.5083L44.8909 24.4385ZM42.7638 16.2034C39.4455 16.6815 36.0667 17.9902 33.2709 19.8594L39.9404 29.8353C41.2724 28.9448 42.9617 28.2988 44.4753 28.0807L42.7638 16.2034ZM33.2709 19.8594C27.341 23.824 23.7808 29.7901 23.0222 36.8998L34.9544 38.173C35.3417 34.5437 37.0156 31.7907 39.9404 29.8353L33.2709 19.8594ZM23.0222 36.8999C22.9368 37.6996 22.7552 39.3372 23.1803 40.9517C23.4467 41.9632 23.9521 43.0238 24.8146 43.9638C25.6267 44.8489 26.5062 45.3525 27.1036 45.6388L32.2905 34.8177C32.5043 34.9202 33.0794 35.2219 33.6565 35.8508C34.284 36.5347 34.6239 37.285 34.7848 37.8961C34.857 38.1703 34.8858 38.3872 34.8981 38.5159C34.9044 38.5822 34.9072 38.633 34.9084 38.6655C34.9096 38.698 34.9095 38.7167 34.9094 38.719C34.9094 38.7204 34.9099 38.6793 34.9168 38.5806C34.9237 38.483 34.9355 38.3509 34.9544 38.1729L23.0222 36.8999ZM27.1044 45.6392C27.3948 45.7784 28.6635 46.417 30.3636 46.3591C31.8922 46.307 33.0671 45.6984 33.2504 45.611L28.0856 34.7793C28.0287 34.8065 28.1904 34.7248 28.4494 34.6367C28.7464 34.5358 29.2732 34.3892 29.9548 34.366C30.6638 34.3419 31.2613 34.4599 31.6939 34.5913C31.8917 34.6514 32.0435 34.7108 32.1339 34.7484C32.2233 34.7855 32.2814 34.8134 32.2897 34.8173L27.1044 45.6392ZM33.2512 45.6106C33.2895 45.5923 33.5278 45.4808 33.7771 45.3422C34.0555 45.1874 34.4955 44.9206 34.9653 44.5087C36.0682 43.542 36.6284 42.4101 36.9196 41.5101C37.1519 40.7926 37.2472 40.1044 37.2948 39.7451C37.3509 39.322 37.405 38.8025 37.4609 38.27L25.5264 37.0179C25.4636 37.6157 25.4284 37.9455 25.3987 38.169C25.3607 38.4565 25.3741 38.2126 25.5026 37.8153C25.582 37.5701 25.7306 37.1812 26.0004 36.7385C26.287 36.2684 26.6449 35.8445 27.0553 35.4848C27.4389 35.1486 27.7808 34.9461 27.9461 34.8541C28.0824 34.7784 28.1927 34.7282 28.0847 34.7797L33.2512 45.6106ZM37.4608 38.2702C37.6681 36.2957 38.4463 34.6287 39.6891 33.3137L30.9681 25.071C27.8593 28.3601 25.9998 32.5068 25.5264 37.0177L37.4608 38.2702ZM39.6891 33.3138C40.7062 32.2377 41.3418 31.7936 42.3958 31.2997L37.3037 20.4337C34.7667 21.6226 32.9248 23.0008 30.9681 25.0709L39.6891 33.3138ZM42.3961 31.2996C43.3888 30.8343 44.3497 30.589 45.2834 30.5208L44.4094 18.5527C41.9412 18.7329 39.5556 19.3782 37.3033 20.4339L42.3961 31.2996ZM45.2839 30.5207C46.033 30.466 47.2699 30.3656 48.4463 29.9565C50.1321 29.3701 51.6941 28.1688 52.575 26.2349L41.6547 21.2604C41.8944 20.7341 42.3012 20.0984 42.9497 19.5359C43.5656 19.0016 44.1603 18.742 44.5042 18.6224C44.8203 18.5125 45.0109 18.4914 44.9393 18.5021C44.8827 18.5105 44.7282 18.5293 44.4089 18.5527L45.2839 30.5207ZM52.5744 26.2363C52.9426 25.4287 53.4786 23.9461 53.2054 22.1048C52.9185 20.1712 51.8977 18.8567 51.1497 18.1089L42.666 26.5958C42.3384 26.2683 41.5562 25.3551 41.3353 23.8659C41.1281 22.4691 41.5573 21.474 41.6553 21.259L52.5744 26.2363ZM51.1515 18.1107C50.6312 17.5902 49.607 16.68 47.9643 16.2421C46.8268 15.9388 45.7305 15.983 45.4249 15.9889L45.6564 27.9867C45.835 27.9832 45.8308 27.9871 45.7501 27.9829C45.6664 27.9785 45.3274 27.9582 44.8733 27.8371C44.3541 27.6987 43.8395 27.4714 43.3691 27.161C42.9586 26.8901 42.7042 26.634 42.6642 26.594L51.1515 18.1107ZM45.4246 15.9889C44.6455 16.004 43.5334 16.0924 42.763 16.2035L44.4761 28.0806C44.7369 28.043 45.3539 27.9925 45.6567 27.9867L45.4246 15.9889ZM34.5611 27.4102C34.0676 27.7892 33.2255 28.5148 32.5815 29.7298C32.0135 30.8015 31.8308 31.8237 31.7488 32.4567C31.604 33.5748 31.6039 35.1224 31.6039 36.8906H43.6039C43.6039 35.9115 43.6072 35.2181 43.619 34.7026C43.6314 34.1555 43.6506 33.9886 43.6494 33.9978C43.6466 34.0195 43.6273 34.1666 43.5674 34.388C43.5047 34.6203 43.3906 34.9603 43.1844 35.3494C42.9692 35.7554 42.7079 36.1128 42.428 36.4146C42.1688 36.6943 41.9444 36.8705 41.8696 36.9279L34.5611 27.4102ZM31.6039 36.8906C31.6039 38.6589 31.604 40.2065 31.7488 41.3246C31.8308 41.9575 32.0135 42.9798 32.5815 44.0515C33.2255 45.2664 34.0676 45.9921 34.5611 46.371L41.8696 36.8533C41.9444 36.9108 42.1688 37.087 42.428 37.3666C42.7079 37.6685 42.9692 38.0259 43.1844 38.4319C43.3906 38.8209 43.5047 39.161 43.5674 39.3932C43.6273 39.6147 43.6466 39.7618 43.6494 39.7834C43.6506 39.7927 43.6314 39.6258 43.619 39.0787C43.6072 38.5632 43.6039 37.8698 43.6039 36.8906H31.6039ZM34.5597 46.37C35.6191 47.1839 36.6938 47.4254 36.8006 47.4526C37.1421 47.5396 37.4336 47.584 37.5962 47.6063C37.9374 47.6532 38.2764 47.6777 38.5393 47.6932C39.0938 47.7259 39.8345 47.7469 40.7529 47.7622C42.6156 47.7933 45.54 47.8056 49.9131 47.8075L49.9182 35.8075C45.5352 35.8056 42.7042 35.7931 40.9532 35.7639C40.0647 35.7491 39.534 35.731 39.245 35.714C39.0862 35.7046 39.1105 35.7016 39.2305 35.7181C39.2826 35.7253 39.4869 35.7537 39.763 35.824C39.9033 35.8598 40.1475 35.9277 40.4441 36.0448C40.6972 36.1447 41.2583 36.3837 41.8709 36.8544L34.5597 46.37ZM49.913 47.8075L61.3655 47.8125L61.3708 35.8125L49.9183 35.8075L49.913 47.8075ZM65.6116 46.0543L65.9951 45.6707L57.5081 37.1871L57.1247 37.5707L65.6116 46.0543ZM65.9934 45.6724L66.377 45.289L57.8934 36.802L57.5098 37.1854L65.9934 45.6724ZM68.1352 41.0455V36.8906H56.1352V41.0455H68.1352ZM68.1352 36.8906V32.7358H56.1352V36.8906H68.1352ZM66.3769 28.4923L65.9934 28.1088L57.5098 36.5959L57.8934 36.9793L66.3769 28.4923ZM65.9951 28.1106L65.6117 27.727L57.1246 36.2105L57.5081 36.5941L65.9951 28.1106ZM61.3655 25.9688L49.913 25.9738L49.9183 37.9737L61.3708 37.9687L61.3655 25.9688ZM49.9131 25.9738C45.54 25.9756 42.6156 25.988 40.7529 26.019C39.8345 26.0344 39.0938 26.0554 38.5393 26.088C38.2764 26.1035 37.9374 26.128 37.5962 26.1749C37.4336 26.1973 37.1421 26.2416 36.8006 26.3286C36.6938 26.3558 35.6191 26.5973 34.5597 27.4113L41.8709 36.9268C41.2583 37.3975 40.6972 37.6365 40.4441 37.7365C40.1475 37.8536 39.9033 37.9215 39.763 37.9572C39.4869 38.0275 39.2826 38.056 39.2305 38.0631C39.1105 38.0796 39.0862 38.0766 39.245 38.0673C39.534 38.0502 40.0647 38.0322 40.9532 38.0174C42.7042 37.9881 45.5352 37.9756 49.9182 37.9737L49.9131 25.9738ZM53.6352 36.8906V39.3125H65.6352V36.8906H53.6352ZM59.6352 33.3125H49.8696V45.3125H59.6352V33.3125ZM49.8696 33.3125H40.1039V45.3125H49.8696V33.3125ZM46.1039 39.3125V36.8906H34.1039V39.3125H46.1039ZM46.1039 36.8906V34.4688H34.1039V36.8906H46.1039ZM40.1039 40.4688H49.8696V28.4688H40.1039V40.4688ZM49.8696 40.4688H59.6352V28.4688H49.8696V40.4688ZM53.6352 34.4688V36.8906H65.6352V34.4688H53.6352ZM39.2487 42.2539C37.5908 43.5269 36.3982 45.5467 36.3671 47.9285C36.3359 50.3211 37.4876 52.397 39.1672 53.7183L46.5866 44.2867C47.5756 45.0647 48.3879 46.4163 48.3661 48.0852C48.3445 49.7433 47.5102 51.0398 46.557 51.7717L39.2487 42.2539ZM39.1682 53.7191C39.7712 54.1931 40.6189 54.7128 41.8054 55.0038C42.5938 55.1972 43.3623 55.2411 43.8467 55.263C44.91 55.3112 46.7108 55.3125 49.7257 55.3125V43.3125C46.5397 43.3125 45.1056 43.3077 44.3893 43.2753C43.984 43.257 44.2266 43.242 44.6642 43.3493C44.9576 43.4213 45.3502 43.5485 45.7832 43.7726C46.2088 43.9928 46.501 44.2195 46.5855 44.2859L39.1682 53.7191ZM49.7257 55.3125H56.1802V43.3125H49.7257V55.3125ZM60.0926 53.8614L60.5181 53.4955L52.6932 44.3976L52.2677 44.7636L60.0926 53.8614ZM60.5183 53.4953C61.9648 52.2511 62.9567 50.4165 63.0288 48.3071C63.1 46.2215 62.2582 44.3923 61.0381 43.0936L52.2923 51.3102C51.5841 50.5563 50.9857 49.3644 51.0358 47.8974C51.0867 46.4067 51.7929 45.1721 52.693 44.3978L60.5183 53.4953ZM61.0383 43.0938L60.6725 42.7044L51.9263 50.9206L52.2921 51.3099L61.0383 43.0938ZM56.2948 40.8125L49.7206 40.8175L49.7297 52.8175L56.304 52.8125L56.2948 40.8125ZM49.7206 40.8175C47.2636 40.8194 45.5273 40.8324 44.3664 40.8656C43.8014 40.8818 43.2588 40.9055 42.7958 40.9488C42.5756 40.9694 42.2354 41.0066 41.8607 41.0822C41.6735 41.12 41.3703 41.1884 41.0157 41.3095C40.7359 41.4052 40.0127 41.6674 39.2492 42.2535L46.5564 51.7721C45.8161 52.3405 45.1281 52.5856 44.8962 52.6648C44.5895 52.7696 44.3471 52.8223 44.2341 52.8451C44.008 52.8908 43.8707 52.9007 43.9143 52.8966C43.9789 52.8905 44.2075 52.875 44.7097 52.8607C45.6831 52.8328 47.2652 52.8194 49.7297 52.8175L49.7206 40.8175ZM36.5994 66.7181C39.8424 67.8017 42.0678 68.1616 45.5316 68.1853L45.6138 56.1856C43.3769 56.1703 42.4098 56.0074 40.4025 55.3366L36.5994 66.7181ZM45.5317 68.1853C46.9672 68.1951 48.9453 68.1516 49.9505 68.0392L48.6168 56.1136C48.6343 56.1116 48.5492 56.1205 48.3198 56.1328C48.1132 56.1438 47.8515 56.1544 47.55 56.1633C46.9452 56.1811 46.2459 56.1899 45.6137 56.1856L45.5317 68.1853ZM49.9498 68.0393L51.0826 67.9127L49.7502 55.9869L48.6174 56.1135L49.9498 68.0393ZM44.4164 61.9498V63.9905H56.4164V61.9498H44.4164ZM44.4164 63.9905V66.0312H56.4164V63.9905H44.4164ZM50.4164 60.0312H41.9789V72.0312H50.4164V60.0312ZM41.9789 60.0312H33.5414V72.0312H41.9789V60.0312ZM39.5414 66.0312V62.3661H27.5414V66.0312H39.5414ZM39.5414 62.3661V58.7011H27.5414V62.3661H39.5414ZM30.7547 64.0147L32.5126 64.9366L38.0859 54.3094L36.3281 53.3875L30.7547 64.0147ZM32.5127 64.9367C33.684 65.5509 35.4253 66.3255 36.5986 66.7178L40.4034 55.3369C39.9885 55.1982 38.8483 54.7091 38.0858 54.3093L32.5127 64.9367Z" fill="white" mask="url(#path-2-outside-1_2123_12775)"/>
<path fill-rule="evenodd" clip-rule="evenodd" d="M36.1406 4.32391L35.7289 4.64766V7.60516V10.5625H33.8627C32.1153 10.5625 31.9685 10.5866 31.558 10.9394L31.1196 11.3164L31.0744 16.3758L31.0294 21.4353L29.6424 22.8123C26.5563 25.8763 24.4538 29.675 23.416 34.063C23.0444 35.6334 23.0052 36.0988 23.0002 39C22.9939 42.5656 23.1475 43.6167 24.0881 46.4444C25.1969 49.7772 27.0342 52.7797 29.518 55.3177L31.0414 56.8742V62.0827C31.0414 67.728 31.1111 68.2758 31.8514 68.4481C32.0505 68.4944 32.9867 68.5497 33.9321 68.5708L35.6508 68.6094L35.7289 71.5781C35.7719 73.2109 35.8597 74.6278 35.9239 74.7269C36.1588 75.0883 36.8958 75.2255 37.4196 75.0053C37.6928 74.8903 37.9302 74.7753 37.9469 74.7497C37.9638 74.7241 38.0164 73.332 38.0641 71.6563L38.1508 68.6094L42.1742 68.5677L46.1977 68.5259V71.4105C46.1977 74.2102 46.2085 74.3077 46.5636 74.7205C47.0656 75.3041 47.8297 75.3041 48.3317 74.7205C48.6869 74.3077 48.6977 74.21 48.6977 71.4131V68.5313H50.3991C52.9555 68.5313 52.8269 68.7345 52.8857 64.5956L52.9331 61.2569L53.9794 60.8841C60.4355 58.5836 65.7925 53.0645 67.9947 46.4444C68.9353 43.6167 69.0889 42.5656 69.0827 39C69.0777 36.0988 69.0385 35.6334 68.6669 34.063C67.37 28.5802 64.2594 23.8067 59.8285 20.4994C58.3486 19.3948 55.8511 18.0406 54.0492 17.3656L52.9164 16.9414V14.3063C52.9164 12.7077 52.8482 11.5211 52.743 11.2902C52.4808 10.7148 51.9594 10.5625 50.2528 10.5625H48.6977V7.83547C48.6977 4.86734 48.6064 4.44203 47.9077 4.15266C47.3906 3.93844 46.9277 4.05656 46.5049 4.51047C46.2227 4.81344 46.1977 5.0725 46.1977 7.70141V10.5625H42.1352H38.0727V7.60516V4.64766L37.661 4.32391C37.4346 4.14578 37.0925 4 36.9008 4C36.7091 4 36.3671 4.14578 36.1406 4.32391ZM50.4164 14.72V16.3777L50.0447 16.2844C49.8403 16.233 48.8296 16.1178 47.7985 16.0283C43.583 15.6622 39.2438 16.5613 35.2727 18.6233C34.3771 19.0883 33.6213 19.4688 33.593 19.4688C33.5646 19.4688 33.5414 18.0273 33.5414 16.2656V13.0625H41.9789H50.4164V14.72ZM49.7852 18.7738C54.878 19.7398 59.4491 22.5583 62.5416 26.6391C63.9908 28.5513 65.4557 31.5831 66.0605 33.9219C66.6922 36.3641 66.8521 39.8811 66.4475 42.4352C65.1091 50.8858 58.6606 57.5684 50.0506 59.4278C48.2755 59.8113 43.816 59.8136 42.0571 59.432C34.5647 57.8069 28.7761 52.7073 26.4331 45.6673C25.6999 43.4645 25.4175 41.65 25.4169 39.1377C25.4161 35.5561 26.0277 32.9477 27.6006 29.8244C29.2536 26.5423 31.5706 23.9281 34.6352 21.8875C37.4638 20.0041 40.6875 18.8588 44.2446 18.4734C45.3636 18.3522 48.4428 18.5191 49.7852 18.7738ZM43.6196 22.142C41.2036 22.4902 38.6696 23.4675 36.6056 24.8473C32.1783 27.8073 29.5613 32.1669 28.9883 37.5364C28.795 39.3481 28.93 39.8606 29.6971 40.2283C30.0867 40.415 30.2161 40.4106 30.668 40.1952C31.2527 39.9163 31.2564 39.9047 31.4936 37.6439C31.8339 34.4013 33.1528 31.4944 35.3286 29.1923C36.8155 27.6192 38.0542 26.7081 39.8497 25.8667C41.4722 25.1063 43.1455 24.6609 44.8464 24.5367C46.3958 24.4234 46.8844 24.2536 47.1149 23.7477C47.385 23.155 47.3283 22.7727 46.9078 22.3523C46.5764 22.0208 46.391 21.9714 45.5406 21.9878C44.9997 21.9983 44.1352 22.0677 43.6196 22.142ZM38.2153 32.1691C37.6539 32.6002 37.6039 32.9859 37.6039 36.8906C37.6039 40.7953 37.6539 41.1811 38.2153 41.6122C38.4049 41.7578 41.1596 41.8038 49.9156 41.8075L61.3681 41.8125L61.7516 41.4289L62.1352 41.0455V36.8906V32.7358L61.7516 32.3523L61.3681 31.9688L49.9156 31.9738C41.1596 31.9775 38.4049 32.0234 38.2153 32.1691ZM59.6352 36.8906V39.3125H49.8696H40.1039V36.8906V34.4688H49.8696H59.6352V36.8906ZM42.9028 47.0128C42.1981 47.5539 42.1863 48.4592 42.8769 49.0025C43.2556 49.3003 43.5249 49.3125 49.7257 49.3125H56.1802L56.6056 48.9466C57.1521 48.4766 57.1771 47.7467 56.6652 47.2019L56.2994 46.8125L49.7252 46.8175C44.8036 46.8213 43.0885 46.8703 42.9028 47.0128ZM38.501 61.0274C41.1261 61.9045 42.7224 62.1659 45.5727 62.1855C46.9906 62.1952 48.6605 62.1461 49.2836 62.0764L50.4164 61.9498V63.9905V66.0313H41.9789H33.5414V62.3661V58.7011L35.2992 59.623C36.2661 60.13 37.7069 60.7619 38.501 61.0274Z" fill="#4E97ED"/>
<path d="M52 55.5L58.0866 64.3864C59.2781 66.126 61.8452 66.126 63.0367 64.3864L77 44" stroke="white" stroke-width="8" stroke-linecap="round" stroke-linejoin="round"/>
<path d="M52 55.5L58.0866 64.3864C59.2781 66.126 61.8452 66.126 63.0367 64.3864L77 44" stroke="#2FC6E7" stroke-width="3" stroke-linecap="round" stroke-linejoin="round"/>
</g>
<defs>
<clipPath id="clip0_2123_12775">
<rect width="80" height="80" fill="white"/>
</clipPath>
</defs>
</svg>
