<svg width="40" height="40" viewBox="0 0 40 40" fill="none" xmlns="http://www.w3.org/2000/svg">
<g clip-path="url(#clip0_690_48034)">
<path fill-rule="evenodd" clip-rule="evenodd" d="M5.19604 0.18375C4.70097 0.416719 4.40206 0.715703 4.16995 1.21031L3.98667 1.60094L3.98589 19.8875C3.98503 40.5166 3.92831 38.7143 4.59925 39.3852C5.26495 40.0509 3.97722 39.9994 19.9329 39.9994C29.4428 39.9994 34.178 39.9727 34.4305 39.9179C34.9759 39.7994 35.4899 39.393 35.7289 38.8914L35.9268 38.4759L35.9521 19.9994L35.9773 1.52281L35.7945 1.17125C35.5596 0.719531 35.2751 0.418359 34.8835 0.207031L34.571 0.0384375L20.0789 0.0192188L5.58667 0L5.19604 0.18375ZM15.9773 4.68687V8.00719L10.6453 8.02727L5.31323 8.04734L5.3144 4.98039C5.31558 1.70258 5.32464 1.62078 5.70542 1.4275C5.85636 1.35094 7.01222 1.33328 10.9382 1.34789L15.9773 1.36656V4.68687ZM34.292 1.4418C34.4136 1.50469 34.5349 1.61297 34.5616 1.68258C34.5882 1.75211 34.6101 3.21242 34.6101 4.92766V8.04625H25.9773H17.3445V4.68687V1.3275H25.7078C32.895 1.3275 34.1021 1.34359 34.292 1.4418ZM29.6551 2.21992C27.9208 2.95047 27.4693 5.19898 28.7915 6.52109C30.1593 7.88898 32.4421 7.38273 33.1303 5.55883C33.4891 4.60836 33.1915 3.3925 32.4378 2.72906C31.8998 2.25547 31.4692 2.08313 30.7461 2.05195C30.2136 2.02906 30.0474 2.05461 29.6551 2.21992ZM7.61792 2.7707C6.92261 3.02164 6.56464 3.72109 6.70979 4.54523C6.87268 5.46992 7.4412 6.17711 8.27136 6.48766C8.67464 6.63852 8.83847 6.6475 10.7775 6.625C12.8105 6.60141 12.86 6.59703 13.2327 6.40664C13.7176 6.15906 14.1601 5.71648 14.3903 5.24898C14.5367 4.95203 14.571 4.75453 14.571 4.21203C14.571 3.59836 14.5526 3.51773 14.3521 3.25492C13.921 2.68961 13.9657 2.6968 10.782 2.67633C8.45839 2.66133 7.87253 2.67883 7.61792 2.7707ZM19.7105 2.77094C19.2997 2.94953 19.231 3.49422 19.5797 3.80797C19.7414 3.95344 19.8656 3.98375 20.3002 3.98375C21.0806 3.98375 21.4271 3.66391 21.2371 3.11891C21.0896 2.69594 20.298 2.51555 19.7105 2.77094ZM22.3757 2.76227C21.9744 2.94516 21.8975 3.46578 22.2238 3.79195C22.3907 3.95898 22.486 3.98375 22.9616 3.98375C23.4235 3.98375 23.5408 3.95523 23.7229 3.79859C23.9954 3.56414 24.0205 3.12508 23.7754 2.88C23.564 2.66859 22.7345 2.59883 22.3757 2.76227ZM25.086 2.73664C24.6532 2.91922 24.5478 3.45977 24.88 3.79195C25.0442 3.95625 25.1446 3.98375 25.5794 3.98375C26.17 3.98375 26.4336 3.88539 26.5546 3.61992C26.6853 3.33297 26.6605 3.15539 26.4566 2.91828C26.2964 2.73203 26.2053 2.70039 25.773 2.68031C25.4986 2.66758 25.1895 2.69297 25.086 2.73664ZM31.3296 3.53453C31.851 3.88937 32.0609 4.38312 31.9349 4.95875C31.7299 5.89563 30.6252 6.3125 29.8714 5.73758C29.5079 5.46039 29.2664 4.92281 29.3213 4.51352C29.3752 4.11117 29.6854 3.65242 30.0124 3.49125C30.4011 3.29977 31.0143 3.31992 31.3296 3.53453ZM13.3004 4.28273C13.271 4.65352 13.0794 4.98227 12.7899 5.15875C12.5602 5.29883 12.3869 5.31133 10.6648 5.31133C8.94378 5.31133 8.76933 5.29875 8.54011 5.15906C8.2162 4.96156 8.04378 4.69125 7.99112 4.2982L7.94862 3.98164L10.6349 4.00227L13.321 4.02281L13.3004 4.28273ZM19.7105 5.42719C19.2997 5.60578 19.231 6.15047 19.5797 6.46422C19.7414 6.60969 19.8656 6.64 20.3002 6.64C21.0806 6.64 21.4271 6.32016 21.2371 5.77516C21.0896 5.35219 20.298 5.1718 19.7105 5.42719ZM22.5398 5.36781C22.0299 5.49117 21.8454 6.16945 22.2378 6.47805C22.5332 6.71047 23.487 6.71266 23.735 6.48156C24.1014 6.14023 24.0137 5.61555 23.5584 5.42531C23.295 5.31523 22.8589 5.29063 22.5398 5.36781ZM25.196 5.36781C24.6998 5.48789 24.5232 6.09141 24.88 6.4482C25.0489 6.61711 25.1404 6.64 25.6465 6.64C26.2782 6.64 26.5134 6.5143 26.6113 6.1243C26.7532 5.55891 26.0219 5.16797 25.196 5.36781ZM34.6492 23.8148V38.2941L34.43 38.4827L34.2107 38.6712H19.9903H5.76995L5.54159 38.4429L5.31323 38.2145V23.7555V9.29656L19.9812 9.31594L34.6492 9.33531V23.8148ZM19.2976 11.3792C14.5319 11.7104 10.5319 15.1748 9.57018 19.8041C8.81511 23.4388 9.98667 27.1884 12.6705 29.727C15.92 32.8003 20.7662 33.5346 24.7113 31.5513C27.8244 29.9862 29.993 27.0111 30.5121 23.5931C30.8657 21.2645 30.3741 18.669 29.2023 16.6791C27.7032 14.1332 25.2523 12.3141 22.4207 11.6453C21.7821 11.4945 20.2467 11.3133 19.8445 11.3412C19.7371 11.3487 19.491 11.3658 19.2976 11.3792ZM21.8367 12.8502C22.5861 13.0083 23.5601 13.3377 24.1251 13.624C27.2549 15.2099 29.2976 18.4562 29.2976 21.8439V22.6556H28.6335H27.9695L27.9692 22.0111C27.9675 17.323 23.9027 13.6287 19.2304 14.0683C16.51 14.3242 14.0808 15.9862 12.8532 18.4313C12.3328 19.4675 12.1123 20.3498 12.0558 21.6205L12.0098 22.6556H11.3583C10.7145 22.6556 10.7062 22.6531 10.6535 22.4431C10.6242 22.3263 10.6418 21.7902 10.6928 21.2517C10.8662 19.4196 11.3878 17.9929 12.406 16.5656C13.8245 14.5771 16.0986 13.1716 18.5528 12.7666C19.3565 12.6341 21.0121 12.6762 21.8367 12.8502ZM21.6023 15.5323C22.9103 15.8831 23.8945 16.4699 24.8201 17.4507C26.6708 19.4117 27.1535 22.1326 26.0928 24.6251C25.7428 25.4475 25.2328 26.1606 24.4946 26.8593C23.9485 27.3763 23.6817 27.5589 22.9526 27.9145C22.4678 28.151 21.8338 28.4009 21.5438 28.4697C18.9985 29.0739 16.2972 28.1201 14.7381 26.0666C12.2039 22.7289 13.2096 18.0559 16.8817 16.1059C17.9716 15.527 18.9931 15.2969 20.2351 15.3503C20.6863 15.3698 21.3015 15.4516 21.6023 15.5323ZM18.6114 16.8759C17.6879 17.1177 17.0029 17.5242 16.2473 18.2784C15.7146 18.8102 15.5132 19.0798 15.2502 19.6138C14.7997 20.5281 14.5527 21.8209 14.7367 22.3005C14.814 22.5019 15.2159 22.6723 15.4778 22.6148C15.8053 22.5428 15.9178 22.3206 16.0107 21.5619C16.2466 19.6354 17.7523 18.2009 19.7537 17.9959C20.139 17.9564 20.3118 17.8985 20.4464 17.7639C20.671 17.5393 20.6782 17.1965 20.4638 16.924C20.315 16.7348 20.2564 16.7184 19.7411 16.7224C19.4328 16.7248 18.9243 16.7938 18.6114 16.8759ZM12.4148 24.5502C13.4632 27.8641 16.8515 30.1706 20.3855 29.9758C23.6935 29.7934 26.5507 27.6215 27.5743 24.5111L27.7478 23.9837H28.4117H29.0757L29.0222 24.2377C28.9204 24.721 28.6609 25.4317 28.3589 26.0541C26.2978 30.3026 21.432 32.3289 16.9539 30.8036C14.1156 29.8369 11.8172 27.4016 11.0167 24.5128L10.87 23.9837H11.5528H12.2356L12.4148 24.5502Z" fill="#175CAB"/>
</g>
<defs>
<clipPath id="clip0_690_48034">
<rect width="40" height="40" fill="white"/>
</clipPath>
</defs>
</svg>
