<svg width="41" height="40" viewBox="0 0 41 40" fill="none" xmlns="http://www.w3.org/2000/svg">
<path fill-rule="evenodd" clip-rule="evenodd" d="M19.6902 0.115651C18.0246 0.467682 16.6104 1.8176 16.1746 3.47112C16.0179 4.06542 16.0186 5.20838 16.1757 5.80495C16.4692 6.91862 17.2334 7.9612 18.207 8.57612L18.7136 8.89604V9.43456V9.97315L17.8864 9.99979C17.0918 10.0254 17.0518 10.035 16.8708 10.2457C16.6913 10.4545 16.6824 10.5159 16.6824 11.548V12.631L14.4363 12.6569C12.2664 12.6818 12.1776 12.6889 11.8193 12.8653C11.6154 12.9658 11.3245 13.1928 11.173 13.3697C10.636 13.9971 10.6668 13.2101 10.6668 26.3155C10.6668 39.7177 10.6194 38.7118 11.2809 39.3732C11.9309 40.0233 11.3821 39.9874 20.6668 39.9874C29.9514 39.9874 29.4026 40.0233 30.0526 39.3732C30.7141 38.7118 30.6668 39.7177 30.6668 26.3155C30.6668 13.2101 30.6975 13.9971 30.1605 13.3697C30.009 13.1928 29.7182 12.9658 29.5142 12.8653C29.1559 12.6889 29.0671 12.6818 26.8972 12.6569L24.6511 12.631V11.548C24.6511 10.5159 24.6422 10.4545 24.4627 10.2457C24.2818 10.035 24.2418 10.0254 23.4471 9.99979L22.6199 9.97315V9.43456V8.89604L23.1265 8.57612C24.0988 7.96198 24.8604 6.92409 25.1596 5.80495C25.32 5.20549 25.3205 4.06823 25.1608 3.47112C24.7097 1.78503 23.2989 0.457604 21.588 0.109792C20.8598 -0.038255 20.412 -0.0368488 19.6902 0.115651ZM21.473 1.43229C22.0632 1.58604 22.4231 1.7762 22.8703 2.17042C23.6862 2.88971 24.1393 4.11073 23.9668 5.12526C23.8555 5.77948 23.4981 6.51073 23.0795 6.94049L22.7371 7.29206L22.6961 5.72956C22.6576 4.26706 22.6426 4.14268 22.4623 3.78589C22.1302 3.12893 21.3673 2.64362 20.6668 2.64362C19.9662 2.64362 19.2033 3.12893 18.8712 3.78589C18.6909 4.14268 18.6759 4.26706 18.6375 5.72956L18.5964 7.29206L18.254 6.94049C17.8354 6.51073 17.478 5.77948 17.3668 5.12526C17.3 4.73292 17.3082 4.51534 17.4079 4.02878C17.7971 2.12932 19.6371 0.954089 21.473 1.43229ZM20.8782 4.05362C21.0075 4.09862 21.1506 4.21292 21.1964 4.30753C21.248 4.41401 21.2954 5.52823 21.3207 7.23346L21.3617 9.98737H20.6668H19.9718L20.0128 7.23346C20.0383 5.51471 20.0853 4.41448 20.1377 4.30635C20.1839 4.21104 20.313 4.09956 20.4246 4.05862C20.5364 4.0176 20.6312 3.98128 20.6356 3.97792C20.6399 3.97456 20.7491 4.00862 20.8782 4.05362ZM23.323 11.9796V12.6436H20.6668H18.0105V11.9796V11.3155H20.6668H23.323V11.9796ZM29.1103 14.2001L29.3386 14.4285V21.5439V28.6592H20.6668H11.9949V21.5439V14.4285L12.2232 14.2001L12.4516 13.9717H20.6668H28.8819L29.1103 14.2001ZM19.4435 16.1132C17.3993 16.5037 16.0525 17.6125 16.0408 18.9145C16.0314 19.973 16.6636 20.7945 17.9489 21.3937C18.8399 21.8091 19.3343 21.9014 20.6668 21.9014C21.9993 21.9014 22.4936 21.8091 23.3846 21.3937C24.0555 21.0809 24.495 20.7516 24.8232 20.3156C26.0036 18.7481 24.9019 16.8727 22.4246 16.2324C21.6181 16.0239 20.2062 15.9675 19.4435 16.1132ZM22.2293 17.5129C23.2182 17.8413 23.7193 18.191 23.9078 18.6844C24.0336 19.0139 24.0336 19.0496 23.9071 19.3161C23.5281 20.1149 22.2536 20.6328 20.6668 20.6328C19.08 20.6328 17.8054 20.1149 17.4264 19.3161C17.3 19.0496 17.2999 19.0139 17.4257 18.6844C17.6552 18.0835 18.305 17.7084 19.6902 17.377C20.0188 17.2983 21.8837 17.3982 22.2293 17.5129ZM29.3386 34.0949V38.2025L29.1103 38.4309L28.8819 38.6592H20.6668H12.4516L12.2232 38.4309L11.9949 38.2025V34.0949V29.9874H20.6668H29.3386V34.0949ZM17.0339 31.3669C16.3021 31.5397 15.8264 31.9085 15.5381 32.5264C15.3683 32.8902 15.3558 33.0138 15.3558 34.3233C15.3558 35.6328 15.3683 35.7564 15.5381 36.1202C15.7532 36.5811 16.2284 37.0351 16.6526 37.1849C17.0957 37.3415 24.2378 37.3415 24.6809 37.1849C25.1051 37.0351 25.5804 36.5811 25.7954 36.1202C25.9652 35.7564 25.9777 35.6328 25.9777 34.3233C25.9777 33.0064 25.966 32.8923 25.7928 32.5264C25.5744 32.0654 25.2019 31.6904 24.7683 31.4953C24.4832 31.3669 24.138 31.3535 20.823 31.3423C18.825 31.3356 17.1199 31.3466 17.0339 31.3669ZM24.2852 32.7345C24.6227 32.9142 24.6461 33.0176 24.6461 34.3233C24.6461 35.9916 24.6363 36.003 23.1939 36.003H22.2732L22.7111 35.5538C23.3747 34.8729 23.4643 34.6062 23.1472 34.2539C22.9793 34.0672 22.8407 34.021 22.5094 34.0409C22.4271 34.0458 21.9157 34.4893 21.3729 35.0264L20.3859 36.003H18.8025C17.2016 36.003 16.993 35.9714 16.7825 35.6973C16.7168 35.6117 16.6874 35.186 16.6874 34.3233C16.6874 33.0295 16.7105 32.9235 17.0339 32.738C17.257 32.6101 24.0454 32.6068 24.2852 32.7345Z" fill="#175CAB"/>
</svg>
