<svg width="40" height="40" viewBox="0 0 40 40" fill="none" xmlns="http://www.w3.org/2000/svg">
<g clip-path="url(#clip0_690_48076)">
<path fill-rule="evenodd" clip-rule="evenodd" d="M35.8587 0.395967C35.6388 0.451983 35.2956 0.593545 35.096 0.710498C34.8745 0.840342 31.4844 4.15948 26.3913 9.233L18.0493 17.5428L17.857 17.3935C17.5801 17.1784 16.9628 17.0093 16.4548 17.0093C15.7841 17.0093 15.3397 17.275 14.238 18.3348L13.2896 19.247L12.6864 19.0717C11.5791 18.7498 10.6333 18.6234 9.3443 18.625C7.99602 18.6267 7.05938 18.7597 5.78961 19.1299C3.6625 19.75 0.703283 21.7317 0.436877 22.7145C0.0203924 24.251 2.44172 27.954 6.68742 32.2735C10.6705 36.3258 14.2197 39.0235 16.2552 39.546C17.1855 39.7849 17.5729 39.6472 18.3585 38.7988C19.4057 37.6678 20.3281 36.038 20.8525 34.3921C21.2648 33.098 21.4041 32.1737 21.4061 30.7203C21.4079 29.3998 21.3304 28.7762 21.0103 27.5354L20.8134 26.7725L21.6831 25.8678C22.1614 25.3702 22.6567 24.7819 22.7838 24.5604C22.9872 24.2057 23.0146 24.0832 23.0138 23.5328C23.0127 22.8417 22.8527 22.3702 22.491 21.9917L22.2876 21.7789L30.2933 13.7447C34.6965 9.32589 38.5326 5.43683 38.8181 5.10222C39.2899 4.54917 39.3491 4.44019 39.469 3.90112C39.5768 3.41636 39.5853 3.22487 39.5157 2.8505C39.3219 1.80855 38.7894 1.07456 37.9127 0.64128C37.2539 0.315733 36.518 0.227842 35.8587 0.395967ZM37.1322 1.85808C37.6511 2.05409 38.0943 2.71081 38.0943 3.28355C38.0943 3.54159 38.0355 3.70761 37.8569 3.95425C37.4084 4.57339 35.0493 6.98362 28.1857 13.8351L21.3088 20.7L21.0883 20.5398C20.967 20.4517 20.4634 19.9713 19.9693 19.4722L19.0709 18.5648L27.2349 10.4179C31.7252 5.93722 35.5537 2.15948 35.7427 2.02308C36.0255 1.81901 36.1598 1.77495 36.4994 1.77495C36.7265 1.77495 37.0113 1.81237 37.1322 1.85808ZM16.9693 18.6403C17.1369 18.7639 18.2496 19.8488 19.442 21.051C21.4773 23.1034 21.6099 23.2543 21.6099 23.5194C21.6099 23.7761 21.5069 23.91 20.4738 24.9949C19.849 25.6511 19.316 26.2743 19.2895 26.38C19.263 26.4855 19.3012 26.7846 19.3742 27.0445C19.945 29.0749 19.9147 28.8695 19.9164 30.7203C19.9179 32.3387 19.9059 32.483 19.7116 33.193C19.367 34.4514 18.6183 36.1439 18.1477 36.7282L17.9651 36.955L17.5897 36.2595C16.8403 34.8713 15.457 32.9837 13.8737 31.189C12.8132 29.987 9.63352 26.8277 8.59344 25.9426C6.75446 24.3778 4.855 23.0058 3.79742 22.4786C3.02102 22.0915 3.02391 22.0982 3.4993 21.7943C6.2375 20.0447 9.36422 19.6165 12.5576 20.554C13.2838 20.7671 13.488 20.8002 13.6767 20.7347C13.8037 20.6907 14.3486 20.228 14.8877 19.7064C16.3788 18.2636 16.4259 18.2395 16.9693 18.6403ZM2.9732 23.6816C7.13164 25.8332 14.4883 33.2251 16.4261 37.1989C16.8352 38.0382 16.8591 38.2194 16.5513 38.1491C15.9882 38.0204 14.1845 36.9419 12.9021 35.9669C11.6734 35.0329 10.0629 33.5897 8.39953 31.9324C6.07406 29.6153 4.84063 28.2128 3.57891 26.4508C2.73789 25.2764 1.8443 23.671 1.8443 23.3346C1.8443 23.1708 2.1936 23.2782 2.9732 23.6816Z" fill="#175CAB"/>
</g>
<defs>
<clipPath id="clip0_690_48076">
<rect width="40" height="40" fill="white"/>
</clipPath>
</defs>
</svg>
