<svg width="40" height="40" viewBox="0 0 40 40" fill="none" xmlns="http://www.w3.org/2000/svg">
<path fill-rule="evenodd" clip-rule="evenodd" d="M11.0059 1.47639C10.7716 1.57139 10.673 1.72139 10.644 2.02732L10.618 2.30045L6.1128 2.33951C3.63491 2.36099 1.59179 2.39615 1.57257 2.41764C1.34843 2.6681 1.35093 2.95224 1.57952 3.21842C1.68882 3.34568 2.0071 3.35514 6.17702 3.35514H10.6571V5.69889V8.04264H6.21265C2.00975 8.04264 1.7585 8.05045 1.59022 8.1867C1.37444 8.36146 1.35085 8.76982 1.5453 8.96435C1.66686 9.08599 2.06132 9.09912 6.16765 9.11873L10.6571 9.14013V9.40607C10.6571 9.69803 10.8057 9.8931 11.0805 9.96209C11.1786 9.9867 11.8294 9.99553 12.5269 9.98178C13.9416 9.95381 14.0165 9.92435 14.0165 9.3949V9.13639H15.2665H16.5165V10.3864V11.6364H16.2487C16.0525 11.6364 15.9376 11.6914 15.8191 11.8422C15.6706 12.0309 15.6571 12.1519 15.6571 13.2927C15.6571 14.81 15.7219 14.992 16.2626 14.9946L16.5165 14.9958V16.3537V17.7117L15.2079 17.9576C13.1228 18.3492 13.0726 18.3615 12.9158 18.5183C12.7805 18.6536 12.7665 18.7926 12.7665 19.9958C12.7665 21.199 12.7805 21.3379 12.9158 21.4732C13.0726 21.63 13.1228 21.6423 15.2079 22.034L16.5165 22.2798V23.6378V24.9958L16.2626 24.9969C15.7219 24.9995 15.6571 25.1815 15.6571 26.6988C15.6571 27.8397 15.6706 27.9606 15.8191 28.1493C15.9376 28.3001 16.0525 28.3551 16.2487 28.3551H16.5165V30.2517C16.5165 32.4054 16.5933 33.204 16.8764 33.9886C17.3436 35.2837 18.3064 36.4124 19.4462 37.0013C20.5844 37.5894 20.6425 37.599 23.3915 37.6476L25.8524 37.6911L25.8762 37.9758C25.9208 38.5101 26.0399 38.5504 27.5712 38.5504C29.1024 38.5504 29.2216 38.5101 29.2662 37.9758L29.2899 37.6911L33.8212 37.6504C36.3133 37.628 38.3569 37.6017 38.3625 37.5919C38.5503 37.2566 38.5629 37.0845 38.4141 36.8853L38.2574 36.6754L33.7541 36.6553L29.2508 36.6351V34.292V31.9489H33.6953C37.8982 31.9489 38.1494 31.9411 38.3177 31.8048C38.5335 31.6301 38.5571 31.2217 38.3626 31.0272C38.2411 30.9055 37.8466 30.8924 33.7403 30.8728L29.2508 30.8514L29.2497 30.5994C29.2471 30.0574 29.0682 29.9958 27.4982 29.9958C26.3081 29.9958 26.1914 30.0083 26.0477 30.152C25.951 30.2487 25.8915 30.4124 25.8915 30.5817V30.8551H24.6415H23.3915V29.6051V28.3551H23.6592C23.8555 28.3551 23.9703 28.3001 24.0889 28.1493C24.2373 27.9606 24.2508 27.8397 24.2508 26.6988C24.2508 25.1815 24.1861 24.9995 23.6454 24.9969L23.3915 24.9958V23.6378V22.2798L24.7001 22.034C26.7851 21.6423 26.8354 21.63 26.9922 21.4732C27.1274 21.3379 27.1415 21.199 27.1415 19.9958C27.1415 18.7926 27.1274 18.6536 26.9922 18.5183C26.8354 18.3615 26.7851 18.3492 24.7001 17.9576L23.3915 17.7117V16.3537V14.9958L23.6454 14.9946C24.1861 14.992 24.2508 14.81 24.2508 13.2927C24.2508 12.1519 24.2373 12.0309 24.0889 11.8422C23.9703 11.6914 23.8555 11.6364 23.6592 11.6364H23.3915V9.73982C23.3915 7.58607 23.3146 6.78748 23.0316 6.00295C22.5644 4.70787 21.6016 3.57912 20.4618 2.99021C19.3236 2.40209 19.2655 2.39256 16.5165 2.34396L14.0555 2.30045L14.0314 2.00951C14.0148 1.80842 13.9451 1.66974 13.806 1.56029C13.6227 1.41615 13.4961 1.40248 12.3848 1.40693C11.7139 1.40967 11.0933 1.44092 11.0059 1.47639ZM13.0008 5.69889V8.90201H12.3368H11.6727V5.75099C11.6727 4.01787 11.6962 2.57646 11.7248 2.54787C11.7534 2.5192 12.0523 2.49576 12.3889 2.49576H13.0008V5.69889ZM19.2416 3.6074C20.5913 4.0942 21.6425 5.15607 22.0797 6.47451C22.2358 6.94545 22.2524 7.18021 22.2799 9.31217L22.3099 11.6364H19.9601H17.6102V9.99881C17.6102 7.85873 17.7952 8.04264 15.6423 8.04264H14.0165V5.75099C14.0165 4.49053 14.0429 3.43287 14.0751 3.40053C14.1073 3.3681 15.1532 3.35467 16.3993 3.37053C18.6208 3.39889 18.6762 3.40349 19.2416 3.6074ZM23.1571 13.3551V13.9801H19.954H16.7508V13.3551V12.7301H19.954H23.1571V13.3551ZM22.2977 16.2404V17.4852L21.9082 17.2231C21.267 16.7916 20.7126 16.6207 19.954 16.6207C19.1954 16.6207 18.6409 16.7916 17.9998 17.2231L17.6102 17.4852V16.2404V14.9958H19.954H22.2977V16.2404ZM20.9079 17.8683C21.3643 18.0702 21.8756 18.5803 22.0891 19.0466C22.3201 19.5511 22.3201 20.4404 22.0891 20.9449C21.8766 21.4092 21.3674 21.9183 20.9031 22.1309C20.3986 22.3619 19.5094 22.3619 19.0048 22.1309C18.0012 21.6715 17.4318 20.5185 17.6857 19.4601C18.0237 18.0508 19.5812 17.2815 20.9079 17.8683ZM16.7134 18.9606C16.5191 19.7283 16.5197 20.2652 16.7156 21.0396C16.7648 21.2341 16.753 21.2574 16.6248 21.2196C16.5437 21.1958 15.9852 21.0854 15.3837 20.9745C14.7821 20.8636 14.1932 20.7534 14.0751 20.7297L13.8602 20.6865V19.9931V19.2997L14.1532 19.2442C14.3144 19.2137 14.9383 19.0933 15.5399 18.9768C16.1415 18.8603 16.6638 18.7606 16.7007 18.7554C16.7376 18.7501 16.7433 18.8425 16.7134 18.9606ZM24.329 18.9789C24.8231 19.0683 25.412 19.178 25.6376 19.2226L26.0477 19.3037V19.9958V20.6878L25.6376 20.7689C25.412 20.8135 24.8231 20.9232 24.329 21.0126C23.8348 21.1022 23.3642 21.1951 23.2832 21.2192C23.1548 21.2574 23.1431 21.2342 23.1923 21.0396C23.2234 20.9166 23.2791 20.6315 23.3161 20.4059C23.3781 20.0271 23.3344 19.5136 23.1923 18.9519C23.1431 18.7573 23.1548 18.7341 23.2832 18.7723C23.3642 18.7964 23.8348 18.8894 24.329 18.9789ZM18.551 23.0745C19.6728 23.5858 21.0621 23.4303 22.0405 22.684L22.2977 22.4878V23.7418V24.9958H19.954H17.6102V23.7418V22.4878L17.8674 22.684C18.0089 22.7919 18.3165 22.9676 18.551 23.0745ZM23.1571 26.6364V27.2614H19.954H16.7508V26.6364V26.0114H19.954H23.1571V26.6364ZM22.2977 29.9927C22.2977 32.1329 22.1126 31.9489 24.2667 31.9489H25.8938L25.8731 34.2731L25.8524 36.5973H23.6258C21.2224 36.5973 21.0148 36.5715 20.1641 36.1679C19.295 35.7554 18.5103 34.9776 18.0752 34.0973C17.6805 33.2986 17.6131 32.7676 17.6116 30.445L17.6102 28.3551H19.954H22.2977V29.9927ZM28.2166 34.2731L28.1962 37.4567L27.5516 37.4794L26.9071 37.5021V34.2958V31.0895H27.572H28.2369L28.2166 34.2731Z" fill="#175CAB"/>
</svg>
