<svg width="49" height="48" viewBox="0 0 49 48" fill="none" xmlns="http://www.w3.org/2000/svg">
<path fill-rule="evenodd" clip-rule="evenodd" d="M16.8453 1.13375C16.3513 1.29207 15.5088 2.17911 15.3573 2.70041C15.2657 3.01551 15.235 5.1577 15.235 11.2056V19.2895L12.3917 22.0755C10.8279 23.6077 9.47113 25.0073 9.37662 25.1855C9.21891 25.4826 9.20432 26.1507 9.2005 33.2614C9.19677 40 9.17695 41.0133 9.04883 41.0133C8.79037 41.0133 8.19626 41.6329 8.08284 42.0206C8.01591 42.2496 7.98612 43.0976 8.00615 44.2042C8.04187 46.1806 8.07207 46.2882 8.73179 46.789C9.00726 46.9982 9.08345 47 17.3485 47C25.6135 47 25.6897 46.9982 25.9652 46.789C26.6431 46.2743 26.6581 46.2136 26.6581 43.9811C26.6581 42.0887 26.6439 41.93 26.4506 41.6668C26.1086 41.201 25.7457 40.9876 25.2062 40.9349C24.7178 40.8872 24.6956 40.8717 24.6956 40.5804C24.6956 40.3307 24.8728 40.0973 25.6768 39.2883C27.1131 37.8431 27.5064 36.9459 27.5112 35.1034L27.5136 34.1568H33.2135C37.3946 34.1568 39.0238 34.1237 39.3277 34.0324C39.8805 33.8663 40.7143 33.0186 40.8776 32.4564C40.9707 32.136 41 29.1051 41 19.7903V7.54541L40.2703 6.79283C39.869 6.37888 38.4033 4.90616 37.0131 3.52012L34.4856 1L25.8415 1.01044C19.8469 1.0177 17.0895 1.05547 16.8453 1.13375ZM33.351 5.38663C33.351 8.01308 33.3604 8.14796 33.5596 8.40554L33.7682 8.67519H36.579H39.3897V20.3461V32.0171L39.1426 32.2682L38.8956 32.5195H30.4872H22.0788L22.0823 31.7775L22.0859 31.0356L23.037 29.9783C24.5875 28.2548 25.1498 26.7455 24.9117 24.9466C24.8484 24.4682 24.75 23.9074 24.693 23.7005C24.3664 22.5136 23.2428 21.6699 21.9946 21.6741C20.9196 21.6777 20.6466 21.8584 18.6317 23.901L16.8453 25.712V14.4259V3.13974L17.0924 2.88861L17.3393 2.63737H25.3452H33.351V5.38663ZM36.5716 5.45161L38.1292 7.03782H36.5453H34.9613V5.45161C34.9613 4.5792 34.9732 3.86541 34.9877 3.86541C35.0022 3.86541 35.7149 4.5792 36.5716 5.45161ZM21.5207 13.7362C21.3649 13.8945 21.2736 14.1043 21.2736 14.3037C21.2736 14.503 21.3649 14.7128 21.5207 14.8711L21.7677 15.1224H28.822H35.8763L36.1233 14.8711C36.2791 14.7128 36.3703 14.503 36.3703 14.3037C36.3703 14.1043 36.2791 13.8945 36.1233 13.7362L35.8763 13.485H28.822H21.7677L21.5207 13.7362ZM21.5207 17.625C21.3649 17.7833 21.2736 17.9931 21.2736 18.1924C21.2736 18.3918 21.3649 18.6016 21.5207 18.7599L21.7677 19.0111H25.702H29.6363L29.8833 18.7599C30.0391 18.6016 30.1304 18.3918 30.1304 18.1924C30.1304 17.9931 30.0391 17.7833 29.8833 17.625L29.6363 17.3737H25.702H21.7677L21.5207 17.625ZM14.1295 28.5824C13.1835 29.5573 13.0208 29.7731 13.0208 30.0524C13.0208 30.4945 13.4058 30.8819 13.8466 30.8828C14.1499 30.8835 14.4876 30.564 17.8014 27.1413C21.7792 23.0327 21.7209 23.0784 22.5107 23.4595C23.0841 23.7362 23.2339 24.1705 23.2352 25.5606C23.2361 26.6435 23.2137 26.784 22.9544 27.3209C22.7926 27.6562 22.2863 28.331 21.7647 28.9071C20.4188 30.3935 20.5268 30.0934 20.4665 32.5146C20.4194 34.4071 20.3926 34.6583 20.1989 35.0267C19.7487 35.883 19.0886 36.2903 17.9757 36.3984C17.36 36.4582 17.1855 36.5153 17.0328 36.7072C16.7646 37.0439 16.7942 37.4914 17.1057 37.8081C17.3556 38.0622 17.4021 38.0709 18.2453 38.022C18.9572 37.9807 19.2502 37.91 19.7856 37.6502C20.9633 37.0786 21.8319 35.8903 22.0403 34.5652L22.1046 34.1568H24.0039H25.9033V35.074C25.9033 36.5023 25.6989 36.9483 24.4829 38.1739C23.3664 39.2993 23.1925 39.5768 23.113 40.3597L23.0571 40.911H16.9318H10.8066L10.8047 33.4149L10.8027 25.9188L12.9937 23.7589L15.1846 21.599L15.2114 24.5195L15.2381 27.4398L14.1295 28.5824ZM25.0981 43.9811V45.4138H17.3485H9.59885V43.9811V42.5484H17.3485H25.0981V43.9811Z" fill="white" stroke="white" stroke-width="0.7"/>
</svg>
