<svg width="121" height="30" viewBox="0 0 121 30" fill="none" xmlns="http://www.w3.org/2000/svg">
<path d="M11.08 29C10.7867 29 10.5467 28.9067 10.36 28.72C10.2 28.5333 10.12 28.3067 10.12 28.04V7.32L4.04 12C3.8 12.16 3.56 12.2267 3.32 12.2C3.08 12.1467 2.86667 12 2.68 11.76L1 9.6C0.84 9.36 0.773333 9.10667 0.8 8.84C0.853333 8.57333 1 8.36 1.24 8.2L10.2 1.28C10.36 1.14667 10.52 1.06667 10.68 1.04C10.84 1.01333 11.0133 0.999998 11.2 0.999998H14.72C14.9867 0.999998 15.2133 1.09333 15.4 1.28C15.5867 1.46667 15.68 1.69333 15.68 1.96V28.04C15.68 28.3067 15.5867 28.5333 15.4 28.72C15.2133 28.9067 14.9867 29 14.72 29H11.08ZM21.2756 29C21.009 29 20.7823 28.9067 20.5956 28.72C20.409 28.5333 20.3156 28.3067 20.3156 28.04V26C20.3156 25.76 20.369 25.48 20.4756 25.16C20.609 24.8133 20.889 24.4667 21.3156 24.12L27.6356 17.84C29.3956 16.4533 30.809 15.28 31.8756 14.32C32.969 13.3333 33.7556 12.44 34.2356 11.64C34.7423 10.8133 34.9956 10 34.9956 9.2C34.9956 8 34.6623 7.02667 33.9956 6.28C33.3556 5.53333 32.329 5.16 30.9156 5.16C29.9823 5.16 29.1956 5.36 28.5556 5.76C27.9156 6.13333 27.409 6.64 27.0356 7.28C26.689 7.92 26.449 8.62667 26.3156 9.4C26.2623 9.74667 26.1156 9.98667 25.8756 10.12C25.6356 10.2533 25.3956 10.32 25.1556 10.32H21.5956C21.3556 10.32 21.1556 10.24 20.9956 10.08C20.8356 9.92 20.7556 9.73333 20.7556 9.52C20.7823 8.37333 21.0223 7.26667 21.4756 6.2C21.929 5.10667 22.5823 4.14667 23.4356 3.32C24.3156 2.46667 25.3823 1.78667 26.6356 1.28C27.889 0.773333 29.3023 0.52 30.8756 0.52C33.089 0.52 34.9156 0.893333 36.3556 1.64C37.8223 2.38667 38.9156 3.4 39.6356 4.68C40.3823 5.96 40.7556 7.4 40.7556 9C40.7556 10.2533 40.5156 11.4133 40.0356 12.48C39.5556 13.52 38.8623 14.5333 37.9556 15.52C37.049 16.48 35.9556 17.4667 34.6756 18.48L28.9956 24.24H40.3956C40.689 24.24 40.9156 24.3333 41.0756 24.52C41.2623 24.68 41.3556 24.9067 41.3556 25.2V28.04C41.3556 28.3067 41.2623 28.5333 41.0756 28.72C40.9156 28.9067 40.689 29 40.3956 29H21.2756ZM54.4219 29C54.1285 29 53.8885 28.9067 53.7019 28.72C53.5152 28.5333 53.4219 28.2933 53.4219 28V25.52C53.4219 24.9333 53.7285 24.6133 54.3419 24.56C55.1419 24.5067 55.7819 24.1333 56.2619 23.44C56.7419 22.7467 57.0885 21.68 57.3019 20.24C57.5152 18.7733 57.6219 16.88 57.6219 14.56V9.16C57.6219 8.89333 57.7152 8.66667 57.9019 8.48C58.0885 8.29333 58.3285 8.2 58.6219 8.2H72.8219C73.0885 8.2 73.3152 8.29333 73.5019 8.48C73.6885 8.66667 73.7819 8.89333 73.7819 9.16V28.04C73.7819 28.3067 73.6885 28.5333 73.5019 28.72C73.3152 28.9067 73.0885 29 72.8219 29H69.5019C69.2085 29 68.9685 28.9067 68.7819 28.72C68.6219 28.5333 68.5419 28.3067 68.5419 28.04V12.44H62.6619V15.12C62.6619 17.68 62.5152 19.8533 62.2219 21.64C61.9552 23.4 61.4885 24.8267 60.8219 25.92C60.1819 26.9867 59.3285 27.7733 58.2619 28.28C57.2219 28.76 55.9419 29 54.4219 29ZM88.1234 29.4C85.1634 29.4 82.8168 28.5467 81.0834 26.84C79.3501 25.1333 78.4168 22.7067 78.2834 19.56C78.2568 19.2933 78.2434 18.96 78.2434 18.56C78.2434 18.1333 78.2568 17.8 78.2834 17.56C78.3901 15.56 78.8434 13.8267 79.6434 12.36C80.4701 10.8933 81.6034 9.77333 83.0434 9C84.4834 8.2 86.1768 7.8 88.1234 7.8C90.2834 7.8 92.0968 8.25333 93.5634 9.16C95.0301 10.04 96.1368 11.28 96.8834 12.88C97.6301 14.4533 98.0034 16.28 98.0034 18.36V19.2C98.0034 19.4667 97.9101 19.6933 97.7234 19.88C97.5368 20.0667 97.2968 20.16 97.0034 20.16H83.7234C83.7234 20.16 83.7234 20.2 83.7234 20.28C83.7234 20.36 83.7234 20.4267 83.7234 20.48C83.7501 21.4133 83.9234 22.28 84.2434 23.08C84.5901 23.8533 85.0834 24.48 85.7234 24.96C86.3901 25.44 87.1768 25.68 88.0834 25.68C88.8301 25.68 89.4568 25.5733 89.9634 25.36C90.4701 25.12 90.8834 24.8533 91.2034 24.56C91.5234 24.2667 91.7501 24.0267 91.8834 23.84C92.1234 23.52 92.3101 23.3333 92.4434 23.28C92.6034 23.2 92.8301 23.16 93.1234 23.16H96.5634C96.8301 23.16 97.0434 23.24 97.2034 23.4C97.3901 23.56 97.4701 23.76 97.4434 24C97.4168 24.4267 97.1901 24.9467 96.7634 25.56C96.3634 26.1733 95.7768 26.7733 95.0034 27.36C94.2301 27.9467 93.2568 28.44 92.0834 28.84C90.9368 29.2133 89.6168 29.4 88.1234 29.4ZM83.7234 16.8H92.5634V16.68C92.5634 15.64 92.3901 14.7333 92.0434 13.96C91.6968 13.1867 91.1901 12.5733 90.5234 12.12C89.8568 11.6667 89.0568 11.44 88.1234 11.44C87.1901 11.44 86.3901 11.6667 85.7234 12.12C85.0568 12.5733 84.5501 13.1867 84.2034 13.96C83.8834 14.7333 83.7234 15.64 83.7234 16.68V16.8ZM108.609 29C108.316 29 108.076 28.9067 107.889 28.72C107.729 28.5333 107.649 28.3067 107.649 28.04V12.44H101.129C100.836 12.44 100.596 12.3467 100.409 12.16C100.249 11.9733 100.169 11.7467 100.169 11.48V9.16C100.169 8.89333 100.249 8.66667 100.409 8.48C100.596 8.29333 100.836 8.2 101.129 8.2H119.289C119.583 8.2 119.823 8.29333 120.009 8.48C120.196 8.66667 120.289 8.89333 120.289 9.16V11.48C120.289 11.7467 120.196 11.9733 120.009 12.16C119.823 12.3467 119.583 12.44 119.289 12.44H112.809V28.04C112.809 28.3067 112.716 28.5333 112.529 28.72C112.343 28.9067 112.116 29 111.849 29H108.609Z" fill="white"/>
</svg>
