<svg width="100" height="100" viewBox="0 0 100 100" fill="none" xmlns="http://www.w3.org/2000/svg">
<g clip-path="url(#clip0_2109_34565)">
<ellipse opacity="0.6" cx="47.2941" cy="41.8822" rx="42.5" ry="43" transform="rotate(120.819 47.2941 41.8822)" fill="url(#paint0_radial_2109_34565)"/>
<circle opacity="0.6" cx="22.7337" cy="58.6627" r="25.5" transform="rotate(120.819 22.7337 58.6627)" fill="url(#paint1_radial_2109_34565)"/>
<circle opacity="0.6" cx="41.1243" cy="76.6237" r="25.5" transform="rotate(120.819 41.1243 76.6237)" fill="url(#paint2_radial_2109_34565)"/>
<path fill-rule="evenodd" clip-rule="evenodd" d="M41.4966 14.0915C40.0713 14.4542 39.1058 15.5207 37.7673 18.2113C36.2077 21.3465 36.2494 21.2945 35.295 21.2912C34.8509 21.2896 33.7492 21.1134 32.8469 20.8993C29.7017 20.1535 28.2105 20.2132 26.9369 21.1359C25.6394 22.0757 25.1953 23.6445 25.1895 27.3096C25.1872 28.7313 25.1181 29.6338 24.992 29.8878C24.7759 30.3228 23.7398 30.7023 21.1281 31.3034C18.4886 31.911 17.3012 32.6324 16.6542 34.022C15.9755 35.4796 16.1758 36.5951 17.707 39.8851C18.9923 42.647 19.0033 42.7638 18.057 43.6681C17.6406 44.0659 16.7725 44.8067 16.1278 45.3139C11.9573 48.5954 11.9573 51.1685 16.1281 54.4593C16.7727 54.9679 17.6406 55.7096 18.057 56.1074C19.0033 57.0117 18.9923 57.1285 17.707 59.8904C16.1758 63.1804 15.9755 64.2959 16.6542 65.7535C17.3012 67.1431 18.4886 67.8645 21.1281 68.4721C23.7398 69.0732 24.7759 69.4528 24.992 69.8878C25.1181 70.1417 25.1872 71.0442 25.1895 72.4659C25.1953 76.1098 25.6414 77.7012 26.9156 78.6243C28.1923 79.5492 29.7066 79.6128 32.8469 78.8734C33.7492 78.6609 34.8509 78.4859 35.295 78.4843C36.2494 78.481 36.2077 78.429 37.7673 81.5642C39.337 84.7195 40.4367 85.7276 42.3088 85.7276C43.5941 85.7276 44.7533 85.1551 46.8312 83.4943C47.6906 82.8074 48.6927 82.0842 49.0578 81.8871L49.7219 81.5288L50.3859 81.8817C50.7513 82.0757 51.7531 82.7984 52.6125 83.4874C54.6986 85.1603 55.892 85.7507 57.1572 85.736C58.9864 85.7148 60.1437 84.6715 61.5645 81.7628C62.0473 80.7745 62.6448 79.632 62.8923 79.2237C63.3366 78.4913 63.3531 78.4815 64.1494 78.4843C64.5931 78.4859 65.6945 78.6609 66.5969 78.8734C69.7372 79.6128 71.2514 79.5492 72.5281 78.6243C73.8023 77.7012 74.2484 76.1098 74.2542 72.4659C74.2566 71.0442 74.3256 70.1417 74.4517 69.8878C74.6666 69.4551 75.6712 69.0881 78.3058 68.4798C80.9441 67.8704 82.1433 67.1412 82.7895 65.7535C83.4683 64.2959 83.268 63.1804 81.7367 59.8904C81.2211 58.7823 80.7605 57.6379 80.7133 57.3473C80.6111 56.717 80.8794 56.4115 83.0672 54.6665C84.8114 53.2753 85.577 52.439 86.0636 51.394C86.9942 49.3954 86.167 47.5659 83.3156 45.3162C82.6711 44.8076 81.8031 44.0659 81.3867 43.6681C80.4405 42.7638 80.4514 42.647 81.7367 39.8851C82.7944 37.6128 83.1594 36.5184 83.1594 35.6198C83.1594 33.3971 81.6636 32.0617 78.3156 31.2951C75.6872 30.6934 74.6673 30.3218 74.4517 29.8878C74.3256 29.6338 74.2566 28.7313 74.2542 27.3096C74.2484 23.6445 73.8044 22.0757 72.5069 21.1359C71.2333 20.2132 69.742 20.1535 66.5969 20.8993C65.6945 21.1134 64.5928 21.2896 64.1488 21.2912C63.1978 21.2945 63.2817 21.3988 61.6994 18.2471C60.1003 15.0621 59.0197 14.061 57.1572 14.0395C55.8866 14.0248 54.6861 14.6178 52.6125 16.2846C51.7531 16.9756 50.7511 17.6995 50.3859 17.8937L49.7219 18.2467L49.0578 17.8884C48.6925 17.6913 47.6906 16.9681 46.8312 16.2812C44.4652 14.3901 42.8798 13.7393 41.4966 14.0915ZM43.1678 17.8342C43.5498 18.0796 44.4953 18.7903 45.2687 19.4132C46.0422 20.0363 47.0969 20.7653 47.6125 21.0331C48.4183 21.4517 48.7147 21.5201 49.7219 21.5201C50.7337 21.5201 51.0247 21.4521 51.8533 21.0228C52.3811 20.7492 53.5697 19.921 54.4948 19.1824C55.4198 18.4437 56.3831 17.7328 56.6353 17.6023C57.0523 17.3867 57.1208 17.3893 57.3887 17.6317C57.5508 17.7784 58.1792 18.9048 58.7853 20.1348C60.1389 22.882 60.8158 23.7745 61.9766 24.3424C63.1677 24.9251 64.4523 24.9101 67.3278 24.2796C69.8961 23.7167 70.4228 23.6823 70.5844 24.0674C70.6475 24.2179 70.7477 25.712 70.8067 27.3878C70.9012 30.0626 70.957 30.5301 71.2636 31.2159C72.0245 32.9181 73.0634 33.5534 76.4008 34.3579C77.6612 34.6618 78.9328 35.0109 79.2266 35.1337C79.717 35.3385 79.7527 35.3981 79.6605 35.8587C79.6053 36.1348 79.1431 37.2565 78.6336 38.3515C77.1038 41.6384 76.8919 42.8653 77.5995 44.3409C78.0869 45.357 78.8014 46.1088 80.8594 47.7712C81.7858 48.5196 82.6578 49.3059 82.7973 49.5187C83.0348 49.8812 83.0309 49.9323 82.7373 50.3264C82.5648 50.5578 81.6225 51.3967 80.6431 52.1906C78.6017 53.8454 78.1322 54.3465 77.6041 55.4346C76.8877 56.9109 77.11 58.1846 78.6622 61.4967C79.1775 62.5965 79.6092 63.7215 79.6216 63.9967C79.6431 64.4842 79.6155 64.506 78.55 64.8389C77.9484 65.0268 76.7883 65.3321 75.9719 65.5173C73.2267 66.1401 71.9859 66.9418 71.2633 68.5596C70.9572 69.2451 70.9012 69.7142 70.8067 72.3878C70.7477 74.0635 70.6475 75.5578 70.5844 75.7081C70.4223 76.0943 69.87 76.0585 67.3981 75.5021C64.5698 74.8653 63.1745 74.847 61.9803 75.4314C60.8148 76.0015 60.1303 76.9029 58.7739 79.6531C58.1678 80.882 57.5419 82.0053 57.383 82.149C57.1209 82.386 57.0513 82.3884 56.6353 82.1732C56.3831 82.0428 55.4198 81.3318 54.4948 80.5931C53.5697 79.8545 52.3811 79.0264 51.8533 78.7528C51.0247 78.3234 50.7337 78.2554 49.7219 78.2554C48.7092 78.2554 48.4192 78.3232 47.5877 78.7542C47.0583 79.0285 45.9069 79.8253 45.0289 80.5248C44.1508 81.2243 43.1925 81.9381 42.8994 82.111C42.3902 82.4115 42.3528 82.4132 42.0633 82.1514C41.8967 82.0006 41.2645 80.8707 40.6584 79.6407C39.2977 76.879 38.63 76.002 37.4473 75.4234C36.2534 74.8393 34.9005 74.859 32.0456 75.502C29.5744 76.0585 29.0227 76.0942 28.8562 75.7081C28.7914 75.5578 28.6919 74.0635 28.635 72.3878C28.5439 69.7038 28.4898 69.2478 28.1816 68.5596C27.4561 66.9407 26.2164 66.1399 23.4719 65.5173C22.6555 65.3321 21.4953 65.0268 20.8938 64.8389C19.8294 64.5064 19.8006 64.4837 19.822 63.9985C19.8342 63.7242 20.27 62.5848 20.7905 61.4665C22.3416 58.134 22.5544 56.9156 21.8442 55.4346C21.3569 54.4185 20.6423 53.6667 18.5844 52.0043C17.658 51.2559 16.7859 50.4696 16.6464 50.2568C16.4091 49.8945 16.4128 49.8431 16.7044 49.4492C16.8756 49.2178 17.8659 48.3253 18.9048 47.4659C20.9884 45.7426 21.4492 45.2471 21.9064 44.2396C22.5402 42.8429 22.2956 41.5429 20.7905 38.309C20.27 37.1907 19.8342 36.0513 19.822 35.777C19.8006 35.2918 19.8294 35.2692 20.8938 34.9367C21.4953 34.7487 22.6555 34.4434 23.4719 34.2582C26.2164 33.6356 27.4561 32.8348 28.1816 31.2159C28.4898 30.5278 28.5439 30.0717 28.635 27.3878C28.6919 25.712 28.7914 24.2179 28.8562 24.0674C29.0222 23.6824 29.5483 23.7168 32.1159 24.2796C34.9914 24.9101 36.2761 24.9251 37.4672 24.3424C38.6175 23.7796 39.3281 22.8537 40.5797 20.2874C41.54 18.3181 42.1109 17.3878 42.3589 17.3878C42.4217 17.3878 42.7858 17.5885 43.1678 17.8342ZM39.867 35.8826C36.6914 36.7389 34.773 40.2599 35.8127 43.3238C37.5163 48.344 44.3098 48.8539 46.6325 44.136C47.5389 42.2948 47.4111 40.0874 46.2984 38.3659C44.94 36.2643 42.2722 35.2342 39.867 35.8826ZM60.7375 36.6695C60.0752 36.979 36.6517 60.4817 36.4412 61.0478C36.2128 61.6621 36.3675 62.2612 36.878 62.7389C37.4341 63.2593 37.897 63.3845 38.5134 63.1809C39.1561 62.9687 62.7486 39.4109 63.0025 38.7278C63.2311 38.1128 63.0766 37.5167 62.5602 37.0218C62.0297 36.5135 61.3514 36.3824 60.7375 36.6695ZM42.4459 39.4214C43.3297 39.8592 43.6798 40.4037 43.7463 41.4432C43.7891 42.1134 43.7292 42.4249 43.4819 42.8189C43.0445 43.5156 42.2811 43.949 41.4898 43.9496C40.6539 43.9504 40.2181 43.7803 39.6827 43.244C38.8094 42.3695 38.7403 40.9604 39.525 40.0279C40.3048 39.1012 41.3584 38.8824 42.4459 39.4214ZM55.9083 52.7746C51.6862 54.5104 50.8828 60.1571 54.4737 62.8574C56.9167 64.6945 60.2308 64.4276 62.2883 62.2279C64.2972 60.0801 64.4613 56.9931 62.6916 54.6396C61.1705 52.6168 58.247 51.8131 55.9083 52.7746ZM59.4533 56.2235C59.6844 56.3912 60.0239 56.832 60.2075 57.2032C61.2186 59.2463 59.0805 61.3845 57.0373 60.3734C56.1145 59.9168 55.7647 59.3837 55.6975 58.3323C55.6328 57.3201 55.968 56.6442 56.7908 56.1278C57.4423 55.7187 58.8258 55.7685 59.4533 56.2235Z" fill="#062549"/>
<path fill-rule="evenodd" clip-rule="evenodd" d="M43.1678 17.8342C43.5498 18.0796 44.4953 18.7903 45.2687 19.4132C46.0422 20.0363 47.0969 20.7653 47.6125 21.0331C48.4183 21.4517 48.7147 21.5201 49.7219 21.5201C50.7337 21.5201 51.0247 21.4521 51.8533 21.0228C52.3811 20.7492 53.5697 19.921 54.4948 19.1824C55.4198 18.4437 56.3831 17.7328 56.6353 17.6023C57.0523 17.3867 57.1208 17.3893 57.3887 17.6317C57.5508 17.7784 58.1792 18.9048 58.7853 20.1348C60.1389 22.882 60.8158 23.7745 61.9766 24.3424C63.1677 24.9251 64.4523 24.9101 67.3278 24.2796C69.8961 23.7167 70.4228 23.6823 70.5844 24.0674C70.6475 24.2179 70.7477 25.712 70.8067 27.3878C70.9012 30.0626 70.957 30.5301 71.2636 31.2159C72.0245 32.9181 73.0634 33.5534 76.4008 34.3579C77.6612 34.6618 78.9328 35.0109 79.2266 35.1337C79.717 35.3385 79.7527 35.3981 79.6605 35.8587C79.6053 36.1348 79.1431 37.2565 78.6336 38.3515C77.1037 41.6384 76.8919 42.8653 77.5995 44.3409C78.0869 45.357 78.8014 46.1089 80.8594 47.7712C81.7858 48.5196 82.6578 49.3059 82.7973 49.5187C83.0348 49.8812 83.0309 49.9323 82.7373 50.3264C82.5648 50.5578 81.6225 51.3967 80.6431 52.1906C78.6017 53.8454 78.1322 54.3465 77.6041 55.4346C76.8877 56.9109 77.11 58.1846 78.6622 61.4967C79.1775 62.5965 79.6092 63.7215 79.6216 63.9967C79.6431 64.4842 79.6155 64.506 78.55 64.8389C77.9484 65.0268 76.7883 65.3321 75.9719 65.5173C73.2267 66.1401 71.9859 66.9418 71.2633 68.5596C70.9572 69.2451 70.9012 69.7142 70.8067 72.3878C70.7477 74.0635 70.6475 75.5578 70.5844 75.7081C70.4223 76.0943 69.87 76.0585 67.3981 75.5021C64.5698 74.8653 63.1745 74.847 61.9803 75.4314C60.8148 76.0015 60.1303 76.9029 58.7739 79.6531C58.1678 80.882 57.5419 82.0052 57.383 82.149C57.1209 82.386 57.0513 82.3884 56.6353 82.1732C56.3831 82.0428 55.4198 81.3318 54.4948 80.5931C53.5697 79.8545 52.3811 79.0263 51.8533 78.7528C51.0247 78.3234 50.7337 78.2554 49.7219 78.2554C48.7092 78.2554 48.4192 78.3232 47.5877 78.7542C47.0583 79.0285 45.9069 79.8253 45.0289 80.5248C44.1508 81.2243 43.1925 81.9381 42.8994 82.111C42.3902 82.4115 42.3528 82.4132 42.0633 82.1514C41.8967 82.0006 41.2645 80.8707 40.6584 79.6407C39.2977 76.879 38.63 76.002 37.4473 75.4234C36.2534 74.8393 34.9005 74.859 32.0456 75.502C29.5744 76.0585 29.0227 76.0942 28.8562 75.7081C28.7914 75.5578 28.6919 74.0635 28.635 72.3878C28.5439 69.7038 28.4898 69.2478 28.1816 68.5596C27.4561 66.9407 26.2164 66.1399 23.4719 65.5173C22.6555 65.3321 21.4953 65.0268 20.8938 64.8389C19.8294 64.5064 19.8006 64.4837 19.822 63.9985C19.8342 63.7242 20.27 62.5848 20.7905 61.4665C22.3416 58.134 22.5544 56.9156 21.8442 55.4346C21.3569 54.4185 20.6423 53.6667 18.5844 52.0043C17.658 51.2559 16.7859 50.4696 16.6464 50.2568C16.4091 49.8945 16.4128 49.8431 16.7044 49.4492C16.8756 49.2178 17.8659 48.3253 18.9048 47.4659C20.9884 45.7426 21.4492 45.2471 21.9064 44.2396C22.5402 42.8429 22.2956 41.5429 20.7905 38.309C20.27 37.1907 19.8342 36.0513 19.822 35.777C19.8006 35.2918 19.8294 35.2692 20.8938 34.9367C21.4953 34.7487 22.6555 34.4434 23.4719 34.2582C26.2164 33.6356 27.4561 32.8348 28.1816 31.2159C28.4898 30.5278 28.5439 30.0717 28.635 27.3878C28.6919 25.712 28.7914 24.2179 28.8562 24.0674C29.0222 23.6824 29.5483 23.7168 32.1159 24.2796C34.9914 24.9101 36.2761 24.9251 37.4672 24.3424C38.6175 23.7796 39.3281 22.8537 40.5797 20.2874C41.54 18.3181 42.1109 17.3878 42.3589 17.3878C42.4217 17.3878 42.7858 17.5885 43.1678 17.8342ZM39.867 35.8826C36.6914 36.7389 34.773 40.2599 35.8127 43.3239C37.5163 48.344 44.3098 48.8539 46.6325 44.136C47.5389 42.2948 47.4111 40.0874 46.2984 38.3659C44.94 36.2643 42.2722 35.2342 39.867 35.8826ZM60.7375 36.6695C60.0752 36.979 36.6517 60.4817 36.4412 61.0478C36.2128 61.6621 36.3675 62.2612 36.878 62.7389C37.4341 63.2593 37.897 63.3845 38.5134 63.1809C39.1561 62.9687 62.7486 39.4109 63.0025 38.7278C63.2311 38.1128 63.0766 37.5167 62.5602 37.0218C62.0297 36.5135 61.3514 36.3824 60.7375 36.6695ZM42.4459 39.4214C43.3297 39.8592 43.6798 40.4037 43.7463 41.4432C43.7891 42.1134 43.7292 42.4249 43.4819 42.8189C43.0445 43.5156 42.2811 43.949 41.4898 43.9496C40.6539 43.9504 40.2181 43.7803 39.6827 43.244C38.8094 42.3695 38.7403 40.9604 39.525 40.0279C40.3048 39.1012 41.3584 38.8824 42.4459 39.4214ZM55.9083 52.7746C51.6862 54.5104 50.8828 60.1571 54.4737 62.8574C56.9167 64.6945 60.2308 64.4276 62.2883 62.2279C64.2972 60.0801 64.4613 56.9931 62.6916 54.6396C61.1705 52.6168 58.247 51.8131 55.9083 52.7746ZM59.4533 56.2235C59.6844 56.3912 60.0239 56.832 60.2075 57.2032C61.2186 59.2463 59.0805 61.3845 57.0373 60.3734C56.1145 59.9168 55.7647 59.3837 55.6975 58.3323C55.6328 57.3201 55.968 56.6442 56.7908 56.1278C57.4423 55.7187 58.8258 55.7685 59.4533 56.2235Z" fill="white"/>
</g>
<defs>
<radialGradient id="paint0_radial_2109_34565" cx="0" cy="0" r="1" gradientUnits="userSpaceOnUse" gradientTransform="translate(47.2941 41.8822) scale(42.5 43)">
<stop stop-color="#4E97ED"/>
<stop offset="1" stop-color="#2FC6E7" stop-opacity="0"/>
</radialGradient>
<radialGradient id="paint1_radial_2109_34565" cx="0" cy="0" r="1" gradientUnits="userSpaceOnUse" gradientTransform="translate(22.7337 58.6627) rotate(90) scale(25.5)">
<stop stop-color="#175CAB"/>
<stop offset="1" stop-color="#175CAB" stop-opacity="0"/>
</radialGradient>
<radialGradient id="paint2_radial_2109_34565" cx="0" cy="0" r="1" gradientUnits="userSpaceOnUse" gradientTransform="translate(41.1243 76.6237) rotate(90) scale(25.5)">
<stop stop-color="#74E6FF"/>
<stop offset="1" stop-color="#74E6FF" stop-opacity="0"/>
</radialGradient>
<clipPath id="clip0_2109_34565">
<rect width="100" height="100" fill="white"/>
</clipPath>
</defs>
</svg>
