<svg width="60" height="60" viewBox="0 0 60 60" fill="none" xmlns="http://www.w3.org/2000/svg">
<g clip-path="url(#clip0_628_46907)">
<ellipse opacity="0.6" cx="28.3774" cy="25.1262" rx="25.5" ry="25.8" transform="rotate(120.819 28.3774 25.1262)" fill="url(#paint0_radial_628_46907)"/>
<circle opacity="0.6" cx="13.64" cy="35.1992" r="15.3" transform="rotate(120.819 13.64 35.1992)" fill="url(#paint1_radial_628_46907)"/>
<circle opacity="0.6" cx="24.6742" cy="45.9726" r="15.3" transform="rotate(120.819 24.6742 45.9726)" fill="url(#paint2_radial_628_46907)"/>
<path fill-rule="evenodd" clip-rule="evenodd" d="M29.1701 11.64C28.9264 11.7299 28.4958 11.9608 27.8064 12.3713C26.6409 13.0654 25.1251 13.8023 23.7748 14.3312C21.3437 15.2835 19.0608 15.8816 16.2294 16.308C15.1648 16.4683 14.9604 16.519 14.4863 16.74C13.9237 17.0023 13.5712 17.3703 13.2266 18.0552L13.0827 18.3411L13.0588 23.1935C13.027 29.6569 13.0541 30.3607 13.4011 32.0893C13.9363 34.7545 15.1178 37.41 16.7381 39.5892C18.0278 41.3237 19.7709 42.9744 21.4823 44.0818C22.4981 44.7392 27.2693 47.4167 28.8417 48.2118L29.2842 48.4356L29.8303 48.453C30.5361 48.4755 30.7114 48.4364 31.3328 48.1176C32.803 47.3633 36.8018 45.1223 38.2543 44.2388C40.0938 43.1197 41.9645 41.3699 43.3324 39.4886C45.0231 37.1635 46.1639 34.5178 46.6559 31.781C46.9393 30.2051 46.9733 29.1678 46.9404 23.1094L46.9146 18.3706L46.7426 18.0245C46.5123 17.5609 46.372 17.3645 46.0865 17.1061C45.6779 16.7364 45.1666 16.531 44.3282 16.3996C41.3037 15.9258 39.8474 15.5918 37.8158 14.906C35.8316 14.2363 34.4598 13.6146 32.2333 12.3763C31.602 12.0252 30.9742 11.7039 30.8359 11.6611C30.6279 11.5968 30.4748 11.5839 29.9465 11.5862C29.5296 11.588 29.2605 11.6067 29.1701 11.64ZM35.6127 24.5941C35.431 24.6467 34.2868 25.7937 32.1902 28.0252C30.2154 30.1271 29.428 30.945 29.2648 31.0637C29.1176 31.1708 28.897 31.186 28.7631 31.0982C28.7142 31.0662 28.3032 30.7131 27.8497 30.3137C26.1076 28.7788 25.861 28.5686 25.5798 28.3793C25.2352 28.1474 25.0477 28.1252 24.7234 28.2782C24.4879 28.3892 24.3806 28.4985 24.2722 28.7376C24.1745 28.9531 24.1691 29.1369 24.2532 29.3837C24.3073 29.5427 24.4062 29.652 24.935 30.137C26.2128 31.3092 28.3106 33.1467 28.66 33.3998C28.81 33.5084 28.855 33.5202 29.1222 33.5202H29.4183L29.8123 33.1348C30.5576 32.4058 33.6284 29.1799 35.3163 27.3528C36.6792 25.8775 36.6799 25.8765 36.6799 25.4764C36.6799 25.2127 36.5861 25.0077 36.3844 24.8306C36.1409 24.6168 35.8465 24.5266 35.6127 24.5941Z" fill="white"/>
<path fill-rule="evenodd" clip-rule="evenodd" d="M29.1701 11.64C28.9264 11.7299 28.4958 11.9608 27.8064 12.3713C26.6409 13.0654 25.1251 13.8023 23.7748 14.3312C21.3437 15.2835 19.0608 15.8816 16.2294 16.308C15.1648 16.4683 14.9604 16.519 14.4863 16.74C13.9237 17.0023 13.5712 17.3703 13.2266 18.0552L13.0827 18.3411L13.0588 23.1935C13.027 29.6569 13.0541 30.3607 13.4011 32.0893C13.9363 34.7545 15.1178 37.41 16.7381 39.5892C18.0278 41.3237 19.7709 42.9744 21.4823 44.0818C22.4981 44.7392 27.2693 47.4167 28.8417 48.2118L29.2842 48.4356L29.8303 48.453C30.5361 48.4755 30.7114 48.4364 31.3328 48.1176C32.803 47.3633 36.8018 45.1223 38.2543 44.2388C40.0938 43.1197 41.9645 41.3699 43.3324 39.4886C45.0231 37.1635 46.1639 34.5178 46.6559 31.781C46.9393 30.2051 46.9733 29.1678 46.9404 23.1094L46.9146 18.3706L46.7426 18.0245C46.5123 17.5609 46.372 17.3645 46.0865 17.1061C45.6779 16.7364 45.1666 16.531 44.3282 16.3996C41.3037 15.9258 39.8474 15.5918 37.8158 14.906C35.8316 14.2363 34.4598 13.6146 32.2333 12.3763C31.602 12.0252 30.9742 11.7039 30.8359 11.6611C30.6279 11.5968 30.4748 11.5839 29.9465 11.5862C29.5296 11.588 29.2605 11.6067 29.1701 11.64ZM30.3756 13.4607C30.4843 13.5086 30.9467 13.7576 31.4033 14.0142C35.2175 16.1584 39.0391 17.4604 43.3491 18.0843C44.5862 18.2634 44.8707 18.3713 45.0248 18.7198C45.1524 19.0082 45.1763 19.7493 45.1758 23.4016C45.1752 27.6458 45.1325 29.5925 45.021 30.4569C44.5861 33.8269 43.2423 36.8721 41.0538 39.447C40.2995 40.3344 39.0744 41.4657 38.1622 42.117C37.1882 42.8124 32.503 45.4851 30.7681 46.3349C30.2673 46.5802 30.0862 46.6503 29.9481 46.6524C29.7462 46.6555 29.3419 46.4449 26.2254 44.7135C22.4101 42.5939 22.0012 42.3367 20.7616 41.2771C20.2303 40.8229 19.3275 39.9131 18.8887 39.3897C17.2101 37.3874 16.0246 35.0745 15.3821 32.5486C15.0105 31.0877 14.9085 30.2717 14.8612 28.3818C14.8126 26.4354 14.8135 20.1428 14.8626 19.5478C14.949 18.5014 15.1361 18.2627 15.9332 18.1829C18.3587 17.94 21.2879 17.2171 23.8934 16.2182C25.583 15.5705 26.9978 14.9043 28.6167 13.994C29.8968 13.2743 29.9293 13.2644 30.3756 13.4607ZM35.6127 24.5941C35.431 24.6467 34.2868 25.7937 32.1902 28.0252C30.2154 30.1271 29.428 30.945 29.2648 31.0637C29.1176 31.1708 28.897 31.186 28.7631 31.0982C28.7142 31.0662 28.3032 30.7131 27.8497 30.3137C26.1076 28.7788 25.861 28.5686 25.5798 28.3793C25.2352 28.1474 25.0477 28.1252 24.7234 28.2782C24.4879 28.3892 24.3806 28.4985 24.2722 28.7376C24.1745 28.9531 24.1691 29.1369 24.2532 29.3837C24.3073 29.5427 24.4062 29.652 24.935 30.137C26.2128 31.3092 28.3106 33.1467 28.66 33.3998C28.81 33.5084 28.855 33.5202 29.1222 33.5202H29.4183L29.8123 33.1348C30.5576 32.4058 33.6284 29.1799 35.3163 27.3528C36.6792 25.8775 36.6799 25.8765 36.6799 25.4764C36.6799 25.2127 36.5861 25.0077 36.3844 24.8306C36.1409 24.6168 35.8465 24.5266 35.6127 24.5941Z" fill="#062549"/>
</g>
<defs>
<radialGradient id="paint0_radial_628_46907" cx="0" cy="0" r="1" gradientUnits="userSpaceOnUse" gradientTransform="translate(28.3774 25.1262) scale(25.5 25.8)">
<stop stop-color="#4E97ED"/>
<stop offset="1" stop-color="#2FC6E7" stop-opacity="0"/>
</radialGradient>
<radialGradient id="paint1_radial_628_46907" cx="0" cy="0" r="1" gradientUnits="userSpaceOnUse" gradientTransform="translate(13.64 35.1992) rotate(90) scale(15.3)">
<stop stop-color="#175CAB"/>
<stop offset="1" stop-color="#175CAB" stop-opacity="0"/>
</radialGradient>
<radialGradient id="paint2_radial_628_46907" cx="0" cy="0" r="1" gradientUnits="userSpaceOnUse" gradientTransform="translate(24.6742 45.9726) rotate(90) scale(15.3)">
<stop stop-color="#74E6FF"/>
<stop offset="1" stop-color="#74E6FF" stop-opacity="0"/>
</radialGradient>
<clipPath id="clip0_628_46907">
<rect width="60" height="60" fill="white"/>
</clipPath>
</defs>
</svg>
