<svg width="49" height="48" viewBox="0 0 49 48" fill="none" xmlns="http://www.w3.org/2000/svg">
<g clip-path="url(#clip0_2057_19443)">
<path fill-rule="evenodd" clip-rule="evenodd" d="M1.86061 1.52663C0.440016 2.94712 0.333984 3.07716 0.333984 3.39862C0.333984 3.66637 0.636891 4.29778 1.68183 6.20794L3.02967 8.67188L4.3777 9.49247L5.72564 10.3131L12.3584 16.9462L18.991 23.5794L17.3989 25.1694L15.8068 26.7594L15.5001 26.4691C15.3314 26.3094 15.094 26.1277 14.9726 26.0651C14.4264 25.7843 14.5016 25.7175 7.87045 32.3676C1.84055 38.4147 1.57027 38.7006 1.2442 39.375C0.102703 41.7368 0.534891 44.4302 2.35036 46.2695C3.09033 47.019 4.12627 47.5993 5.20786 47.8701C6.01664 48.0725 7.54458 48.0065 8.39648 47.7323C9.75689 47.2945 9.80339 47.2535 16.3838 40.6901C20.5725 36.5123 22.5628 34.4644 22.605 34.2891C22.6969 33.9059 22.5874 33.6014 22.2058 33.179L21.8635 32.8001L22.5826 32.081L23.3018 31.3618L26.7505 34.8059L30.1993 38.25H30.6019C31.3265 38.25 31.7716 37.5447 31.449 36.9079C31.392 36.7953 30.5694 35.9223 29.621 34.968L27.8968 33.2329L30.7337 30.3971L33.5706 27.5614L39.6744 33.6791C46.3356 40.3555 46.1505 40.1405 46.3594 41.448C46.7768 44.0607 44.4765 46.4047 41.8652 46.0277C40.6445 45.8514 40.2148 45.5701 38.4446 43.7884C37.6352 42.9739 37.0192 42.431 36.8354 42.3703C36.192 42.158 35.4975 42.7755 35.6236 43.4478C35.667 43.679 36.0618 44.1248 37.3429 45.3899C39.196 47.2197 39.7104 47.5603 41.0828 47.8657C42.002 48.0701 43.4459 48.0082 44.2348 47.7304C46.2293 47.0281 47.737 45.4114 48.1901 43.4893C48.3959 42.6162 48.3746 41.3457 48.1398 40.4988C47.722 38.9909 48.0526 39.3626 39.5295 30.8201L31.6956 22.9684L33.4289 21.226C34.4316 20.218 35.5561 19.1904 36.097 18.7879L37.0319 18.0921L37.2895 18.3507L37.5471 18.6094L37.369 19.3001C37.2375 19.8097 37.2149 20.0556 37.2826 20.2376C37.4093 20.5778 39.857 23.0293 40.3184 23.2779C40.847 23.5628 41.9444 23.5633 42.4746 23.2789C42.6809 23.1682 44.034 21.8825 45.4815 20.4217C48.3435 17.5334 48.334 17.5464 48.334 16.4841C48.334 15.6656 48.0424 15.2138 46.5784 13.7633C45.859 13.0505 45.1799 12.457 45.045 12.4233C44.9085 12.3891 44.4924 12.4421 44.0913 12.5449L43.3799 12.7271L43.0981 12.4339L42.8164 12.1406L43.0908 11.625C43.4006 11.0428 43.4216 10.8791 43.2322 10.5187C43.1591 10.3795 41.229 8.40581 38.9431 6.13275C34.5242 1.73859 34.0764 1.35787 32.6081 0.746531C31.197 0.159094 30.6368 0.057 28.834 0.0585C27.3186 0.0599063 27.129 0.0795 26.3496 0.315656C25.2553 0.647156 23.975 1.27819 23.209 1.86347C22.8738 2.11959 21.9141 3.02081 21.0762 3.86634C19.5631 5.39297 19.5527 5.40637 19.5527 5.82328C19.5527 6.23831 19.5674 6.25753 20.8493 7.52775C22.0225 8.69025 22.1774 8.8125 22.4764 8.8125C22.7071 8.8125 22.9315 8.71744 23.2189 8.49816C23.9723 7.92309 24.4114 7.74937 25.1309 7.7415C26.2481 7.72931 26.52 7.88747 28.165 9.50522C28.9572 10.2844 29.6638 11.0576 29.7353 11.2236C29.9151 11.6411 29.8944 12.2572 29.6853 12.7031C29.5715 12.9459 28.5226 14.0614 26.7104 15.867L23.9113 18.6559L17.2797 12.0233L10.6481 5.39062L9.82702 4.04344L9.00586 2.69625L6.54192 1.34812C4.63158 0.302906 4.00036 0 3.73261 0C3.41114 0 3.28111 0.106031 1.86061 1.52663ZM29.6309 1.97119C30.9723 2.12166 32.2145 2.59238 33.2871 3.35691C33.8237 3.73941 41.1154 10.9575 41.1149 11.1056C41.1147 11.1593 41.0092 11.4107 40.8805 11.6643C40.6113 12.1948 40.5941 12.3789 40.7804 12.7313C40.9776 13.1041 42.5254 14.5992 42.8333 14.7142C43.0391 14.7911 43.2587 14.772 43.8177 14.6284L44.5371 14.4434L45.3642 15.2608C46.1028 15.9908 46.459 16.4444 46.459 16.6553C46.459 16.6943 45.3737 17.8143 44.0474 19.1443C42.1742 21.0225 41.5831 21.5625 41.4005 21.5625C41.2277 21.5625 40.9139 21.3119 40.2174 20.6178L39.2694 19.6731L39.4456 19.0475C39.7125 18.1005 39.6653 17.9902 38.5032 16.8451C37.209 15.5698 37.2039 15.5692 35.9051 16.5098C35.3992 16.8762 34.9408 17.1931 34.8862 17.214C34.8317 17.2349 34.0086 16.4726 33.0571 15.5201L31.3272 13.7882L31.484 13.4594C31.7641 12.8719 31.8798 11.9747 31.7591 11.3253C31.5584 10.246 31.2787 9.83325 29.6396 8.19675C28.0646 6.62419 27.6765 6.33647 26.6753 5.99916C25.524 5.61131 23.8535 5.77884 22.8739 6.38044L22.5857 6.55734L22.2208 6.18356L21.8558 5.80978L22.7902 4.86919C24.291 3.35822 25.2078 2.72662 26.5186 2.30016C26.9479 2.16056 27.6128 2.01347 27.9962 1.97334C28.3797 1.93331 28.7145 1.89506 28.7402 1.8885C28.766 1.88194 29.1668 1.91916 29.6309 1.97119ZM5.85614 3.18722L7.65098 4.17131L8.1757 5.0505L8.70033 5.92969L7.48214 7.14788L6.26395 8.36597L5.40642 7.86272L4.54889 7.35938L3.51361 5.49244L2.47833 3.6255L3.2092 2.89031C3.6112 2.48597 3.96736 2.16591 4.00064 2.17912C4.03402 2.19234 4.86895 2.646 5.85614 3.18722ZM18.0525 15.5154L26.0676 23.531L24.964 24.6326L23.8604 25.7344L15.8472 17.6985C11.4399 13.2787 7.83398 9.63019 7.83398 9.59063C7.83398 9.48178 9.83217 7.5 9.94195 7.5C9.99455 7.5 13.6443 11.1069 18.0525 15.5154ZM31.7977 20.1449L30.2609 21.6818L29.9553 21.5753C29.563 21.4385 28.7645 21.4386 28.3558 21.5754C28.1805 21.6341 27.8956 21.7873 27.7227 21.9158L27.4082 22.1494L26.3395 21.0836L25.2706 20.0179L27.6375 17.6497L30.0043 15.2815L31.6695 16.9447L33.3346 18.6081L31.7977 20.1449ZM30.7747 24.7734L32.2118 26.2031L29.3722 29.0408L26.5326 31.8784L25.1052 30.4402C24.2658 29.5945 23.6777 28.9283 23.6777 28.8232C23.6777 28.5812 28.9159 23.3438 29.158 23.3438C29.2643 23.3438 29.9238 23.927 30.7747 24.7734ZM22.3421 27.2551C21.8696 27.7772 21.6619 28.9119 21.9091 29.6211C22.0145 29.9233 22.008 29.9339 21.2527 30.6892L20.4899 31.4521L18.8266 29.7889L17.1635 28.1257L18.7558 26.5313L20.3481 24.9369L21.422 26.0109C22.4368 27.0257 22.4876 27.0943 22.3421 27.2551ZM14.5615 39.7143C8.29495 45.9665 8.46961 45.8174 7.16723 46.0254C5.47617 46.2956 3.71545 45.3789 2.95392 43.8321C2.45086 42.8101 2.44102 41.4887 2.92833 40.3702C3.15745 39.8441 3.64964 39.3238 8.9033 34.0541L14.6285 28.3113L17.4666 31.1479L20.3047 33.9844L14.5615 39.7143ZM32.9709 39.5715C32.4978 40.0123 32.4987 40.6139 32.973 41.0131C33.59 41.5322 34.5527 41.0997 34.5527 40.3034C34.5527 40.0362 34.3013 39.5851 34.0891 39.4716C33.7776 39.3048 33.202 39.3563 32.9709 39.5715Z" fill="white"/>
</g>
<defs>
<clipPath id="clip0_2057_19443">
<rect width="48" height="48" fill="white" transform="translate(0.333984)"/>
</clipPath>
</defs>
</svg>
