<svg width="80" height="80" viewBox="0 0 80 80" fill="none" xmlns="http://www.w3.org/2000/svg">
<g clip-path="url(#clip0_1157_53378)">
<rect width="80" height="80" fill="white"/>
<path fill-rule="evenodd" clip-rule="evenodd" d="M15.1406 4.32391L14.7289 4.64766V7.60516V10.5625H12.8627C11.1153 10.5625 10.9685 10.5866 10.558 10.9394L10.1196 11.3164L10.0744 16.3758L10.0294 21.4353L8.64237 22.8123C5.55627 25.8763 3.45377 29.675 2.41596 34.063C2.0444 35.6334 2.00518 36.0988 2.00018 39C1.99393 42.5656 2.14752 43.6167 3.08815 46.4444C4.1969 49.7772 6.03424 52.7797 8.51799 55.3177L10.0414 56.8742V62.0827C10.0414 67.728 10.1111 68.2758 10.8514 68.4481C11.0505 68.4944 11.9867 68.5497 12.9321 68.5708L14.6508 68.6094L14.7289 71.5781C14.7719 73.2109 14.8597 74.6278 14.9239 74.7269C15.1588 75.0883 15.8958 75.2255 16.4196 75.0053C16.6928 74.8903 16.9302 74.7753 16.9469 74.7497C16.9638 74.7241 17.0164 73.332 17.0641 71.6563L17.1508 68.6094L21.1742 68.5677L25.1977 68.5259V71.4105C25.1977 74.2102 25.2085 74.3077 25.5636 74.7205C26.0656 75.3041 26.8297 75.3041 27.3317 74.7205C27.6869 74.3077 27.6977 74.21 27.6977 71.4131V68.5313H29.3991C31.9555 68.5313 31.8269 68.7345 31.8856 64.5956L31.9331 61.2569L32.9794 60.8841C39.4355 58.5836 44.7925 53.0645 46.9947 46.4444C47.9353 43.6167 48.0889 42.5656 48.0827 39C48.0777 36.0988 48.0385 35.6334 47.6669 34.063C46.37 28.5802 43.2594 23.8067 38.8285 20.4994C37.3486 19.3948 34.8511 18.0406 33.0492 17.3656L31.9164 16.9414V14.3063C31.9164 12.7077 31.8482 11.5211 31.743 11.2902C31.4808 10.7148 30.9594 10.5625 29.2528 10.5625H27.6977V7.83547C27.6977 4.86734 27.6064 4.44203 26.9077 4.15266C26.3906 3.93844 25.9277 4.05656 25.5049 4.51047C25.2227 4.81344 25.1977 5.0725 25.1977 7.70141V10.5625H21.1352H17.0727V7.60516V4.64766L16.661 4.32391C16.4346 4.14578 16.0925 4 15.9008 4C15.7091 4 15.3671 4.14578 15.1406 4.32391ZM29.4164 14.72V16.3777L29.0447 16.2844C28.8403 16.233 27.8296 16.1178 26.7985 16.0283C22.583 15.6622 18.2438 16.5613 14.2727 18.6233C13.3771 19.0883 12.6213 19.4688 12.593 19.4688C12.5646 19.4688 12.5414 18.0273 12.5414 16.2656V13.0625H20.9789H29.4164V14.72ZM28.7852 18.7738C33.878 19.7398 38.4491 22.5583 41.5416 26.6391C42.9908 28.5513 44.4556 31.5831 45.0605 33.9219C45.6922 36.3641 45.8521 39.8811 45.4475 42.4352C44.1091 50.8858 37.6606 57.5684 29.0506 59.4278C27.2755 59.8113 22.816 59.8136 21.0571 59.432C13.5647 57.8069 7.77612 52.7073 5.43315 45.6673C4.69987 43.4645 4.41752 41.65 4.4169 39.1377C4.41612 35.5561 5.02768 32.9477 6.60065 29.8244C8.25362 26.5423 10.5706 23.9281 13.6352 21.8875C16.4638 20.0041 19.6875 18.8588 23.2446 18.4734C24.3636 18.3522 27.4428 18.5191 28.7852 18.7738ZM22.6196 22.142C20.2036 22.4902 17.6696 23.4675 15.6056 24.8473C11.1783 27.8073 8.56127 32.1669 7.9883 37.5364C7.79502 39.3481 7.93002 39.8606 8.69705 40.2283C9.08674 40.415 9.21612 40.4106 9.66799 40.1952C10.2527 39.9163 10.2564 39.9047 10.4936 37.6439C10.8339 34.4013 12.1528 31.4944 14.3286 29.1923C15.8155 27.6192 17.0542 26.7081 18.8497 25.8667C20.4722 25.1063 22.1455 24.6609 23.8464 24.5367C25.3958 24.4234 25.8844 24.2536 26.1149 23.7477C26.385 23.155 26.3283 22.7727 25.9078 22.3523C25.5764 22.0208 25.391 21.9714 24.5406 21.9878C23.9997 21.9983 23.1352 22.0677 22.6196 22.142ZM17.2153 32.1691C16.6539 32.6002 16.6039 32.9859 16.6039 36.8906C16.6039 40.7953 16.6539 41.1811 17.2153 41.6122C17.4049 41.7578 20.1596 41.8038 28.9157 41.8075L40.3681 41.8125L40.7516 41.4289L41.1352 41.0455V36.8906V32.7358L40.7516 32.3523L40.3681 31.9688L28.9157 31.9738C20.1596 31.9775 17.4049 32.0234 17.2153 32.1691ZM38.6352 36.8906V39.3125H28.8696H19.1039V36.8906V34.4688H28.8696H38.6352V36.8906ZM21.9028 47.0128C21.1981 47.5539 21.1863 48.4592 21.8769 49.0025C22.2556 49.3003 22.5249 49.3125 28.7256 49.3125H35.1802L35.6056 48.9466C36.1521 48.4766 36.1771 47.7467 35.6652 47.2019L35.2994 46.8125L28.7252 46.8175C23.8036 46.8213 22.0885 46.8703 21.9028 47.0128ZM17.501 61.0274C20.1261 61.9045 21.7224 62.1659 24.5727 62.1855C25.9906 62.1952 27.6605 62.1461 28.2836 62.0764L29.4164 61.9498V63.9905V66.0313H20.9789H12.5414V62.3661V58.7011L14.2992 59.623C15.2661 60.13 16.7069 60.7619 17.501 61.0274Z" fill="#175CAB"/>
<mask id="path-2-outside-1_1157_53378" maskUnits="userSpaceOnUse" x="13" y="1" width="54" height="78" fill="black">
<rect fill="white" x="13" y="1" width="54" height="78"/>
<path fill-rule="evenodd" clip-rule="evenodd" d="M44.4164 14.72V16.3777L44.0447 16.2844C43.8403 16.233 42.8296 16.1178 41.7985 16.0283C37.583 15.6622 33.2438 16.5612 29.2727 18.6233C28.3771 19.0883 27.6213 19.4688 27.593 19.4688C27.5646 19.4688 27.5414 18.0273 27.5414 16.2656V13.0625H35.9789H44.4164V14.72ZM43.7852 18.7737C48.878 19.7398 53.4491 22.5583 56.5416 26.6391C57.9908 28.5512 59.4556 31.5831 60.0605 33.9219C60.6922 36.3641 60.8521 39.8811 60.4475 42.4352C59.1091 50.8858 52.6606 57.5684 44.0506 59.4278C42.2755 59.8112 37.816 59.8136 36.0571 59.432C28.5647 57.8069 22.7761 52.7073 20.4331 45.6673C19.6999 43.4645 19.4175 41.65 19.4169 39.1377C19.4161 35.5561 20.0277 32.9477 21.6006 29.8244C23.2536 26.5423 25.5706 23.9281 28.6352 21.8875C31.4638 20.0041 34.6875 18.8587 38.2446 18.4734C39.3636 18.3522 42.4428 18.5191 43.7852 18.7737ZM37.6196 22.142C35.2036 22.4902 32.6696 23.4675 30.6056 24.8473C26.1783 27.8073 23.5613 32.1669 22.9883 37.5364C22.795 39.3481 22.93 39.8606 23.6971 40.2283C24.0867 40.415 24.2161 40.4106 24.668 40.1952C25.2527 39.9162 25.2564 39.9047 25.4936 37.6439C25.8339 34.4012 27.1528 31.4944 29.3286 29.1923C30.8155 27.6192 32.0542 26.7081 33.8497 25.8667C35.4722 25.1063 37.1455 24.6609 38.8464 24.5367C40.3958 24.4234 40.8844 24.2536 41.1149 23.7477C41.385 23.155 41.3283 22.7727 40.9078 22.3523C40.5764 22.0208 40.391 21.9714 39.5406 21.9878C38.9997 21.9983 38.1352 22.0677 37.6196 22.142ZM32.2153 32.1691C31.6539 32.6002 31.6039 32.9859 31.6039 36.8906C31.6039 40.7953 31.6539 41.1811 32.2153 41.6122C32.4049 41.7578 35.1596 41.8037 43.9157 41.8075L55.3681 41.8125L55.7516 41.4289L56.1352 41.0455V36.8906V32.7358L55.7516 32.3523L55.3681 31.9687L43.9157 31.9737C35.1596 31.9775 32.4049 32.0234 32.2153 32.1691ZM53.6352 36.8906V39.3125H43.8696H34.1039V36.8906V34.4688H43.8696H53.6352V36.8906ZM36.9028 47.0128C36.1981 47.5539 36.1863 48.4592 36.8769 49.0025C37.2556 49.3003 37.5249 49.3125 43.7257 49.3125H50.1802L50.6056 48.9466C51.1521 48.4766 51.1771 47.7467 50.6652 47.2019L50.2994 46.8125L43.7252 46.8175C38.8036 46.8212 37.0885 46.8703 36.9028 47.0128ZM32.501 61.0273C35.1261 61.9045 36.7224 62.1659 39.5727 62.1855C40.9906 62.1952 42.6605 62.1461 43.2836 62.0764L44.4164 61.9498V63.9905V66.0313H35.9789H27.5414V62.3661V58.7011L29.2992 59.623C30.2661 60.13 31.7069 60.7619 32.501 61.0273Z"/>
</mask>
<path fill-rule="evenodd" clip-rule="evenodd" d="M44.4164 14.72V16.3777L44.0447 16.2844C43.8403 16.233 42.8296 16.1178 41.7985 16.0283C37.583 15.6622 33.2438 16.5612 29.2727 18.6233C28.3771 19.0883 27.6213 19.4688 27.593 19.4688C27.5646 19.4688 27.5414 18.0273 27.5414 16.2656V13.0625H35.9789H44.4164V14.72ZM43.7852 18.7737C48.878 19.7398 53.4491 22.5583 56.5416 26.6391C57.9908 28.5512 59.4556 31.5831 60.0605 33.9219C60.6922 36.3641 60.8521 39.8811 60.4475 42.4352C59.1091 50.8858 52.6606 57.5684 44.0506 59.4278C42.2755 59.8112 37.816 59.8136 36.0571 59.432C28.5647 57.8069 22.7761 52.7073 20.4331 45.6673C19.6999 43.4645 19.4175 41.65 19.4169 39.1377C19.4161 35.5561 20.0277 32.9477 21.6006 29.8244C23.2536 26.5423 25.5706 23.9281 28.6352 21.8875C31.4638 20.0041 34.6875 18.8587 38.2446 18.4734C39.3636 18.3522 42.4428 18.5191 43.7852 18.7737ZM37.6196 22.142C35.2036 22.4902 32.6696 23.4675 30.6056 24.8473C26.1783 27.8073 23.5613 32.1669 22.9883 37.5364C22.795 39.3481 22.93 39.8606 23.6971 40.2283C24.0867 40.415 24.2161 40.4106 24.668 40.1952C25.2527 39.9162 25.2564 39.9047 25.4936 37.6439C25.8339 34.4012 27.1528 31.4944 29.3286 29.1923C30.8155 27.6192 32.0542 26.7081 33.8497 25.8667C35.4722 25.1063 37.1455 24.6609 38.8464 24.5367C40.3958 24.4234 40.8844 24.2536 41.1149 23.7477C41.385 23.155 41.3283 22.7727 40.9078 22.3523C40.5764 22.0208 40.391 21.9714 39.5406 21.9878C38.9997 21.9983 38.1352 22.0677 37.6196 22.142ZM32.2153 32.1691C31.6539 32.6002 31.6039 32.9859 31.6039 36.8906C31.6039 40.7953 31.6539 41.1811 32.2153 41.6122C32.4049 41.7578 35.1596 41.8037 43.9157 41.8075L55.3681 41.8125L55.7516 41.4289L56.1352 41.0455V36.8906V32.7358L55.7516 32.3523L55.3681 31.9687L43.9157 31.9737C35.1596 31.9775 32.4049 32.0234 32.2153 32.1691ZM53.6352 36.8906V39.3125H43.8696H34.1039V36.8906V34.4688H43.8696H53.6352V36.8906ZM36.9028 47.0128C36.1981 47.5539 36.1863 48.4592 36.8769 49.0025C37.2556 49.3003 37.5249 49.3125 43.7257 49.3125H50.1802L50.6056 48.9466C51.1521 48.4766 51.1771 47.7467 50.6652 47.2019L50.2994 46.8125L43.7252 46.8175C38.8036 46.8212 37.0885 46.8703 36.9028 47.0128ZM32.501 61.0273C35.1261 61.9045 36.7224 62.1659 39.5727 62.1855C40.9906 62.1952 42.6605 62.1461 43.2836 62.0764L44.4164 61.9498V63.9905V66.0313H35.9789H27.5414V62.3661V58.7011L29.2992 59.623C30.2661 60.13 31.7069 60.7619 32.501 61.0273Z" fill="white"/>
<path d="M30.1406 4.32391L31.995 6.68214L31.9956 6.68168L30.1406 4.32391ZM29.7289 4.64766L27.8746 2.28942C27.1512 2.8582 26.7289 3.72748 26.7289 4.64766L29.7289 4.64766ZM29.7289 10.5625V13.5625C31.3858 13.5625 32.7289 12.2194 32.7289 10.5625H29.7289ZM25.558 10.9394L23.6025 8.6643L23.602 8.66475L25.558 10.9394ZM25.1196 11.3164L23.1635 9.04178C22.5079 9.60561 22.1274 10.4249 22.1197 11.2896L25.1196 11.3164ZM25.0744 16.3758L22.0745 16.349L22.0745 16.3491L25.0744 16.3758ZM25.0294 21.4353L27.143 23.5643C27.7038 23.0076 28.0223 22.2521 28.0293 21.462L25.0294 21.4353ZM23.6424 22.8123L21.5287 20.6834L21.5287 20.6834L23.6424 22.8123ZM17.416 34.063L20.3354 34.7537L20.3354 34.7535L17.416 34.063ZM17.0002 39L20.0002 39.0053L20.0002 39.0052L17.0002 39ZM18.0881 46.4444L15.2415 47.3913L15.2415 47.3914L18.0881 46.4444ZM23.518 55.3177L21.3739 57.416L21.374 57.416L23.518 55.3177ZM25.0414 56.8742H28.0414C28.0414 56.0897 27.7341 55.3365 27.1854 54.7758L25.0414 56.8742ZM25.8514 68.4481L25.1712 71.37L25.1725 71.3703L25.8514 68.4481ZM27.9321 68.5708L27.9994 65.5715L27.999 65.5715L27.9321 68.5708ZM29.6508 68.6094L32.6498 68.5305C32.6077 66.931 31.3178 65.6461 29.7182 65.6101L29.6508 68.6094ZM29.7289 71.5781L32.7279 71.4992L29.7289 71.5781ZM29.9239 74.7269L27.4066 76.3588L27.4084 76.3615L29.9239 74.7269ZM31.4196 75.0053L32.5821 77.7709L32.5832 77.7705L31.4196 75.0053ZM31.9469 74.7497L29.4414 73.0997L29.4344 73.1104L31.9469 74.7497ZM32.0641 71.6562L29.0653 71.5709L29.0653 71.571L32.0641 71.6562ZM32.1508 68.6094L32.1197 65.6095C30.5082 65.6262 29.1979 66.9131 29.152 68.524L32.1508 68.6094ZM36.1742 68.5677L36.1431 65.5678L36.1742 68.5677ZM40.1977 68.5259H43.1977C43.1977 67.7249 42.8773 66.9571 42.308 66.3937C41.7386 65.8302 40.9676 65.5178 40.1666 65.5261L40.1977 68.5259ZM40.5636 74.7205L42.8379 72.764L42.8378 72.7639L40.5636 74.7205ZM42.3317 74.7205L40.0576 72.7639L40.0575 72.764L42.3317 74.7205ZM42.6977 68.5312V65.5312C41.0408 65.5312 39.6977 66.8744 39.6977 68.5312H42.6977ZM46.8857 64.5956L43.886 64.553L43.886 64.553L46.8857 64.5956ZM46.9331 61.2569L45.9262 58.4309C44.7459 58.8515 43.9513 59.9613 43.9335 61.2142L46.9331 61.2569ZM47.9794 60.8841L46.9724 58.0581L46.9724 58.0581L47.9794 60.8841ZM61.9947 46.4444L59.1481 45.4974L59.1481 45.4974L61.9947 46.4444ZM63.0827 39L60.0827 39.0052L60.0827 39.0053L63.0827 39ZM62.6669 34.063L59.7475 34.7535L59.7475 34.7537L62.6669 34.063ZM46.743 11.2902L49.4733 10.0469L49.4729 10.0461L46.743 11.2902ZM42.6977 10.5625H39.6977C39.6977 12.2194 41.0408 13.5625 42.6977 13.5625V10.5625ZM41.9077 4.15266L40.7594 6.92419L40.7598 6.92437L41.9077 4.15266ZM40.5049 4.51047L38.3097 2.46567L38.3096 2.46577L40.5049 4.51047ZM40.1977 10.5625V13.5625C41.8545 13.5625 43.1977 12.2194 43.1977 10.5625H40.1977ZM32.0727 10.5625H29.0727C29.0727 12.2194 30.4158 13.5625 32.0727 13.5625V10.5625ZM32.0727 4.64766H35.0727C35.0727 3.72748 34.6504 2.8582 33.9271 2.28942L32.0727 4.64766ZM31.661 4.32391L29.806 6.68168L29.8066 6.68215L31.661 4.32391ZM28.2863 1.96567L27.8746 2.28942L31.5833 7.00589L31.995 6.68214L28.2863 1.96567ZM26.7289 4.64766V7.60516H32.7289V4.64766H26.7289ZM26.7289 7.60516V10.5625H32.7289V7.60516H26.7289ZM29.7289 7.5625H27.8627V13.5625H29.7289V7.5625ZM27.8627 7.5625C27.1012 7.5625 26.3311 7.55882 25.7248 7.65797C25.3323 7.72215 24.8978 7.84091 24.451 8.07549C24.0378 8.29242 23.7403 8.54582 23.6025 8.6643L27.5135 13.2145C27.5809 13.1565 27.4557 13.2746 27.2401 13.3878C27.1261 13.4477 27.0122 13.4938 26.9055 13.5273C26.8038 13.5593 26.7278 13.5736 26.6932 13.5793C26.6609 13.5846 26.6576 13.5834 26.699 13.5803C26.7398 13.5772 26.8064 13.5735 26.9107 13.5705C27.1266 13.5642 27.4217 13.5625 27.8627 13.5625V7.5625ZM23.602 8.66475L23.1635 9.04178L27.0756 13.591L27.514 13.214L23.602 8.66475ZM22.1197 11.2896L22.0745 16.349L28.0743 16.4026L28.1194 11.3432L22.1197 11.2896ZM22.0745 16.3491L22.0295 21.4086L28.0293 21.462L28.0743 16.4025L22.0745 16.3491ZM22.9158 19.3063L21.5287 20.6834L25.756 24.9413L27.143 23.5643L22.9158 19.3063ZM21.5287 20.6834C18.0299 24.1571 15.6583 28.4602 14.4965 33.3725L20.3354 34.7535C21.2492 30.8898 23.0827 27.5954 25.756 24.9413L21.5287 20.6834ZM14.4966 33.3723C14.0456 35.2782 14.0053 36.0145 14.0002 38.9948L20.0002 39.0052C20.0027 37.5284 20.0154 36.8141 20.06 36.2842C20.0985 35.8279 20.162 35.4865 20.3354 34.7537L14.4966 33.3723ZM14.0002 38.9947C13.997 40.7914 14.0311 42.1357 14.2206 43.4327C14.4143 44.7584 14.7542 45.9263 15.2415 47.3913L20.9348 45.4974C20.4815 44.1348 20.2742 43.3634 20.1576 42.5651C20.0367 41.7383 19.9971 40.7743 20.0002 39.0053L14.0002 38.9947ZM15.2415 47.3914C16.4957 51.1612 18.5753 54.5562 21.3739 57.416L25.6621 53.2194C23.4932 51.0031 21.8981 48.3932 20.9348 45.4974L15.2415 47.3914ZM21.374 57.416L22.8974 58.9726L27.1854 54.7758L25.662 53.2193L21.374 57.416ZM22.0414 56.8742V62.0827H28.0414V56.8742H22.0414ZM22.0414 62.0827C22.0414 64.8083 22.0527 66.5952 22.1928 67.6964C22.2586 68.2136 22.4 69.0744 22.9265 69.8539C23.622 70.8835 24.5879 71.2342 25.1712 71.37L26.5316 65.5263C26.5904 65.5399 26.8294 65.5981 27.1172 65.7662C27.4385 65.9539 27.7056 66.2099 27.8986 66.4955C28.2038 66.9474 28.189 67.2861 28.1448 66.9391C28.065 66.312 28.0414 65.0024 28.0414 62.0827H22.0414ZM25.1725 71.3703C25.5778 71.4644 26.1597 71.4974 26.4352 71.5137C26.8527 71.5383 27.3599 71.5588 27.8651 71.57L27.999 65.5715C27.5589 65.5617 27.1253 65.544 26.7886 65.5241C26.6188 65.5141 26.4889 65.5044 26.4026 65.4965C26.359 65.4924 26.3407 65.4902 26.3419 65.4903C26.3429 65.4904 26.3575 65.4923 26.3819 65.4963C26.4022 65.4996 26.4566 65.5088 26.5304 65.526L25.1725 71.3703ZM27.8647 71.57L29.5835 71.6086L29.7182 65.6101L27.9994 65.5715L27.8647 71.57ZM26.6518 68.6883L26.73 71.657L32.7279 71.4992L32.6498 68.5305L26.6518 68.6883ZM26.73 71.657C26.7521 72.4999 26.7862 73.2989 26.8242 73.9131C26.8429 74.2158 26.8643 74.5006 26.8885 74.7333C26.9001 74.8444 26.9165 74.9853 26.9403 75.1268C26.9516 75.1942 26.9723 75.3089 27.0066 75.4421C27.0131 75.4672 27.1123 75.9048 27.4066 76.3588L32.4413 73.095C32.6156 73.364 32.7044 73.5983 32.737 73.6879C32.7784 73.8016 32.8036 73.8934 32.8166 73.9442C32.8426 74.0449 32.8548 74.1174 32.8575 74.1334C32.864 74.1721 32.8627 74.1733 32.8563 74.1121C32.8446 74.0002 32.8293 73.8102 32.8127 73.5422C32.7801 73.015 32.7487 72.2891 32.7279 71.4992L26.73 71.657ZM27.4084 76.3615C28.1633 77.5232 29.3493 77.9097 30.0144 78.0335C30.7756 78.1752 31.6979 78.1426 32.5821 77.7709L30.257 72.2397C30.6174 72.0882 30.9094 72.097 31.1124 72.1348C31.2311 72.1569 31.4099 72.2056 31.621 72.3209C31.8234 72.4314 32.1597 72.6617 32.4395 73.0923L27.4084 76.3615ZM32.5832 77.7705C32.7573 77.6972 32.9346 77.6179 33.0879 77.5436C33.1595 77.5089 33.2593 77.4592 33.3626 77.4013C33.4097 77.3749 33.5022 77.322 33.6092 77.2498C33.6613 77.2146 33.7561 77.1486 33.866 77.0567C33.9305 77.0027 34.2099 76.7714 34.4594 76.389L29.4344 73.1104C29.5751 72.8947 29.7147 72.7422 29.7961 72.6587C29.8846 72.5679 29.963 72.4991 30.0165 72.4544C30.1209 72.367 30.2086 72.3062 30.2521 72.2768C30.3418 72.2163 30.411 72.1775 30.4292 72.1673C30.4747 72.1417 30.4949 72.1328 30.471 72.1444C30.4331 72.1627 30.3551 72.1984 30.2559 72.2402L32.5832 77.7705ZM34.4524 76.3997C34.7467 75.9528 34.8449 75.5262 34.8482 75.5139C34.8796 75.395 34.8969 75.2993 34.9045 75.2559C34.9206 75.1627 34.9292 75.0872 34.9324 75.0579C34.94 74.9888 34.9447 74.9269 34.9471 74.8933C34.9526 74.8167 34.9575 74.7281 34.9618 74.6417C34.9708 74.463 34.981 74.2199 34.9918 73.9353C35.0135 73.3627 35.0389 72.5859 35.0629 71.7415L29.0653 71.571C29.0417 72.4024 29.0169 73.1595 28.9961 73.7083C28.9856 73.9843 28.9765 74.1987 28.9694 74.3406C28.9657 74.4146 28.9633 74.452 28.9625 74.463C28.9618 74.4731 28.9636 74.4455 28.9685 74.4004C28.9704 74.3831 28.9777 74.3171 28.9927 74.2307C28.9996 74.1907 29.0164 74.0978 29.0473 73.9811C29.0628 73.9223 29.0908 73.8234 29.1352 73.7038C29.1709 73.6076 29.2634 73.3701 29.4414 73.0997L34.4524 76.3997ZM35.0629 71.7416L35.1496 68.6947L29.152 68.524L29.0653 71.5709L35.0629 71.7416ZM32.1819 71.6092L36.2053 71.5675L36.1431 65.5678L32.1197 65.6095L32.1819 71.6092ZM36.2053 71.5675L40.2288 71.5258L40.1666 65.5261L36.1431 65.5678L36.2053 71.5675ZM37.1977 68.5259V71.4105H43.1977V68.5259H37.1977ZM37.1977 71.4105C37.1977 72.7088 37.1953 73.6545 37.2656 74.2902C37.307 74.6643 37.3922 75.1562 37.6304 75.675C37.8712 76.1992 38.1846 76.5552 38.2894 76.677L42.8378 72.7639C42.7651 72.6794 42.9439 72.8684 43.0828 73.1707C43.2192 73.4675 43.235 73.6827 43.2293 73.6309C43.2223 73.5673 43.2109 73.3991 43.2045 73.0026C43.1984 72.6221 43.1977 72.1166 43.1977 71.4105H37.1977ZM38.2893 76.6769C39.0448 77.5551 40.1616 78.1582 41.4477 78.1582C42.7337 78.1582 43.8505 77.5551 44.606 76.6769L40.0575 72.764C40.3109 72.4694 40.7947 72.1582 41.4477 72.1582C42.1007 72.1582 42.5845 72.4694 42.8379 72.764L38.2893 76.6769ZM44.6059 76.677C44.7108 76.5551 45.0241 76.1992 45.2648 75.6753C45.5031 75.1566 45.5883 74.6649 45.6297 74.2907C45.7 73.6551 45.6977 72.71 45.6977 71.4131H39.6977C39.6977 72.1186 39.6969 72.6235 39.6908 73.0037C39.6845 73.3997 39.6731 73.5676 39.6661 73.6309C39.6604 73.6824 39.6763 73.4672 39.8127 73.1704C39.9515 72.8683 40.1302 72.6794 40.0576 72.7639L44.6059 76.677ZM45.6977 71.4131V68.5312H39.6977V71.4131H45.6977ZM42.6977 71.5312H44.3991V65.5312H42.6977V71.5312ZM44.3991 71.5312C44.8578 71.5312 45.6438 71.552 46.2473 71.473C47.0282 71.3707 48.2928 71.0197 49.1152 69.7178C49.7143 68.7696 49.7908 67.6913 49.8257 67.1489C49.8681 66.4875 49.8716 65.6036 49.8853 64.6382L43.886 64.553C43.8783 65.0906 43.8743 65.5142 43.8673 65.8985C43.8604 66.2789 43.8515 66.5543 43.838 66.7644C43.824 66.983 43.8094 67.0516 43.8122 67.0383C43.8145 67.0275 43.86 66.8025 44.0427 66.5132C44.1391 66.3607 44.2663 66.2019 44.4285 66.0536C44.5907 65.9052 44.7606 65.7923 44.9219 65.7094C45.2265 65.5527 45.4581 65.5251 45.4684 65.5237C45.4784 65.5224 45.4197 65.5298 45.2061 65.5321C44.9813 65.5344 44.7715 65.5312 44.3991 65.5312V71.5312ZM49.8853 64.6383L49.9328 61.2995L43.9335 61.2142L43.886 64.553L49.8853 64.6383ZM47.9401 64.0828L48.9864 63.71L46.9724 58.0581L45.9262 58.4309L47.9401 64.0828ZM48.9864 63.71C56.3302 61.0932 62.3538 54.8692 64.8413 47.3913L59.1481 45.4974C57.2312 51.2599 52.5408 56.074 46.9724 58.0581L48.9864 63.71ZM64.8413 47.3913C65.3287 45.9263 65.6685 44.7584 65.8622 43.4327C66.0518 42.1357 66.0858 40.7914 66.0827 38.9947L60.0827 39.0053C60.0858 40.7743 60.0461 41.7383 59.9253 42.5651C59.8086 43.3634 59.6014 44.1348 59.1481 45.4974L64.8413 47.3913ZM66.0827 38.9948C66.0775 36.0145 66.0372 35.2782 65.5863 33.3723L59.7475 34.7537C59.9209 35.4865 59.9844 35.8279 60.0228 36.2842C60.0675 36.8141 60.0801 37.5284 60.0827 39.0052L66.0827 38.9948ZM65.5863 33.3724C64.1307 27.2182 60.63 21.8326 55.6229 18.0953L52.034 22.9035C55.8888 25.7808 58.6094 29.9421 59.7475 34.7535L65.5863 33.3724ZM49.9164 16.9414V14.3062H43.9164V16.9414H49.9164ZM49.9164 14.3062C49.9164 13.4715 49.8988 12.7142 49.8642 12.1131C49.8471 11.8164 49.824 11.5223 49.7911 11.2602C49.7771 11.1487 49.7173 10.5828 49.4733 10.0469L44.0127 12.5334C43.8841 12.2509 43.8433 12.0305 43.8428 12.0283C43.8332 11.9818 43.833 11.9692 43.8378 12.0079C43.8473 12.0831 43.8609 12.229 43.8741 12.4576C43.9 12.9072 43.9164 13.5424 43.9164 14.3062H49.9164ZM49.4729 10.0461C49.2658 9.59166 48.9414 9.0841 48.4219 8.64423C47.9127 8.21311 47.3636 7.97203 46.881 7.831C46.041 7.58557 45.0812 7.5625 44.2528 7.5625V13.5625C44.645 13.5625 44.9082 13.5716 45.0875 13.5859C45.2757 13.6008 45.2841 13.6153 45.1981 13.5902C45.092 13.5591 44.829 13.464 44.5447 13.2233C44.25 12.9738 44.0891 12.701 44.0131 12.5342L49.4729 10.0461ZM44.2528 7.5625H42.6977V13.5625H44.2528V7.5625ZM45.6977 10.5625V7.83547H39.6977V10.5625H45.6977ZM45.6977 7.83547C45.6977 6.47168 45.69 5.25547 45.498 4.36031C45.3846 3.83156 45.1572 3.13809 44.6214 2.50126C44.0751 1.85201 43.4407 1.54044 43.0555 1.38094L40.7598 6.92437C40.7241 6.90956 40.3631 6.75967 40.0304 6.36431C39.7082 5.98136 39.6347 5.63399 39.6314 5.61876C39.6291 5.60781 39.6369 5.64168 39.6471 5.74296C39.6571 5.84231 39.667 5.98146 39.6752 6.17494C39.6918 6.5686 39.6977 7.09726 39.6977 7.83547H45.6977ZM43.056 1.38113C42.3023 1.06886 41.3913 0.928741 40.4294 1.1741C39.4971 1.41193 38.7995 1.93983 38.3097 2.46567L42.7 6.55527C42.633 6.6272 42.3784 6.86908 41.9125 6.98793C41.417 7.11431 40.996 7.02224 40.7594 6.92419L43.056 1.38113ZM38.3096 2.46577C38.0733 2.71947 37.7641 3.10878 37.5421 3.67897C37.3541 4.16197 37.2906 4.62024 37.2593 4.94618C37.2005 5.55676 37.1977 6.45552 37.1977 7.70141H43.1977C43.1977 7.04305 43.1993 6.55736 43.2056 6.18716C43.212 5.80516 43.2227 5.614 43.2316 5.52124C43.2418 5.41593 43.2375 5.58832 43.1335 5.85538C43.0748 6.00627 42.9966 6.15725 42.9008 6.29979C42.8104 6.43438 42.729 6.52418 42.7001 6.55516L38.3096 2.46577ZM37.1977 7.70141V10.5625H43.1977V7.70141H37.1977ZM40.1977 7.5625H36.1352V13.5625H40.1977V7.5625ZM36.1352 7.5625H32.0727V13.5625H36.1352V7.5625ZM35.0727 10.5625V7.60516H29.0727V10.5625H35.0727ZM35.0727 7.60516V4.64766H29.0727V7.60516H35.0727ZM33.9271 2.28942L33.5153 1.96567L29.8066 6.68215L30.2183 7.0059L33.9271 2.28942ZM33.5159 1.96614C33.1643 1.6895 32.7858 1.48098 32.444 1.3353C32.1719 1.21938 31.5971 1 30.9008 1V7C30.6027 7 30.3887 6.94877 30.3057 6.92694C30.2035 6.90007 30.1323 6.87229 30.0918 6.85501C30.0255 6.82675 29.9312 6.78019 29.806 6.68168L33.5159 1.96614ZM30.9008 1C30.2045 1 29.6297 1.21938 29.3576 1.3353C29.0158 1.48098 28.6373 1.6895 28.2857 1.96614L31.9956 6.68168C31.8704 6.78019 31.7761 6.82675 31.7098 6.85501C31.6693 6.87229 31.5981 6.90007 31.4959 6.92694C31.4129 6.94877 31.199 7 30.9008 7V1ZM44.4164 16.3777L42.956 22.1972C44.749 22.6472 46.6492 22.2455 48.1068 21.1085C49.5643 19.9716 50.4164 18.2262 50.4164 16.3777H44.4164ZM44.0447 16.2844L42.5811 22.1031L42.5843 22.1039L44.0447 16.2844ZM41.7985 16.0283L41.2793 22.0058L41.2794 22.0058L41.7985 16.0283ZM29.2727 18.6233L32.0374 23.9483L32.0377 23.9482L29.2727 18.6233ZM27.5414 13.0625V7.0625C24.2277 7.0625 21.5414 9.74879 21.5414 13.0625L27.5414 13.0625ZM44.4164 13.0625H50.4164C50.4164 9.74879 47.7301 7.0625 44.4164 7.0625V13.0625ZM43.7852 18.7737L42.6667 24.6686L42.6669 24.6686L43.7852 18.7737ZM56.5416 26.6391L51.7596 30.263L51.7597 30.2631L56.5416 26.6391ZM60.0605 33.9219L54.2516 35.4242L54.2517 35.4244L60.0605 33.9219ZM60.4475 42.4352L54.5214 41.4965L54.5214 41.4966L60.4475 42.4352ZM44.0506 59.4278L42.7841 53.563L42.7839 53.5631L44.0506 59.4278ZM36.0571 59.432L37.3291 53.5684L37.3289 53.5684L36.0571 59.432ZM20.4331 45.6673L26.1261 43.7727L26.126 43.7723L20.4331 45.6673ZM19.4169 39.1377L13.4169 39.139L13.4169 39.1391L19.4169 39.1377ZM21.6006 29.8244L16.2419 27.1255L16.2419 27.1256L21.6006 29.8244ZM28.6352 21.8875L25.3098 16.8933L25.3097 16.8934L28.6352 21.8875ZM38.2446 18.4734L38.8907 24.4385L38.8909 24.4385L38.2446 18.4734ZM37.6196 22.142L38.4753 28.0807L38.4761 28.0806L37.6196 22.142ZM30.6056 24.8473L27.2709 19.8594L27.2709 19.8594L30.6056 24.8473ZM22.9883 37.5364L17.0222 36.8998L17.0222 36.8999L22.9883 37.5364ZM23.6971 40.2283L21.1036 45.6388L21.1044 45.6392L23.6971 40.2283ZM24.668 40.1952L27.2504 45.611L27.2512 45.6106L24.668 40.1952ZM25.4936 37.6439L19.5264 37.0177L19.5264 37.0179L25.4936 37.6439ZM29.3286 29.1923L24.9681 25.0709L24.9681 25.071L29.3286 29.1923ZM33.8497 25.8667L36.3958 31.2997L36.3961 31.2996L33.8497 25.8667ZM38.8464 24.5367L39.2834 30.5208L39.2839 30.5207L38.8464 24.5367ZM41.1149 23.7477L35.6553 21.259L35.6547 21.2604L41.1149 23.7477ZM40.9078 22.3523L36.6642 26.594L36.666 26.5958L40.9078 22.3523ZM39.5406 21.9878L39.4249 15.9889L39.4246 15.9889L39.5406 21.9878ZM32.2153 32.1691L35.8696 36.9279L35.8709 36.9268L32.2153 32.1691ZM32.2153 41.6122L35.8709 36.8544L35.8696 36.8533L32.2153 41.6122ZM43.9157 41.8075L43.9183 35.8075L43.9182 35.8075L43.9157 41.8075ZM55.3681 41.8125L55.3655 47.8125C56.9581 47.8132 58.4857 47.1807 59.6116 46.0543L55.3681 41.8125ZM55.7516 41.4289L51.5098 37.1854L51.5081 37.1871L55.7516 41.4289ZM56.1352 41.0455L60.377 45.289C61.5027 44.1637 62.1352 42.6372 62.1352 41.0455H56.1352ZM56.1352 32.7358H62.1352C62.1352 31.1441 61.5027 29.6176 60.3769 28.4923L56.1352 32.7358ZM55.7516 32.3523L51.5081 36.5941L51.5098 36.5959L55.7516 32.3523ZM55.3681 31.9687L59.6117 27.727C58.4857 26.6006 56.9582 25.9681 55.3655 25.9687L55.3681 31.9687ZM43.9157 31.9737L43.9182 37.9737L43.9183 37.9737L43.9157 31.9737ZM53.6352 39.3125V45.3125C56.9489 45.3125 59.6352 42.6262 59.6352 39.3125H53.6352ZM34.1039 39.3125H28.1039C28.1039 42.6262 30.7902 45.3125 34.1039 45.3125V39.3125ZM34.1039 34.4688V28.4688C30.7902 28.4688 28.1039 31.155 28.1039 34.4688H34.1039ZM53.6352 34.4688H59.6352C59.6352 31.155 56.9489 28.4688 53.6352 28.4688V34.4688ZM36.9028 47.0128L33.2492 42.2535L33.2487 42.2539L36.9028 47.0128ZM36.8769 49.0025L33.1672 53.7183L33.1682 53.7191L36.8769 49.0025ZM50.1802 49.3125V55.3125C51.6159 55.3125 53.0041 54.7976 54.0926 53.8614L50.1802 49.3125ZM50.6056 48.9466L54.5181 53.4955L54.5183 53.4953L50.6056 48.9466ZM50.6652 47.2019L46.2921 51.3099L46.2923 51.3102L50.6652 47.2019ZM50.2994 46.8125L54.6725 42.7044C53.5373 41.4961 51.9528 40.8112 50.2948 40.8125L50.2994 46.8125ZM43.7252 46.8175L43.7206 40.8175L43.7206 40.8175L43.7252 46.8175ZM32.501 61.0273L30.5986 66.7178L30.5994 66.7181L32.501 61.0273ZM39.5727 62.1855L39.5316 68.1853L39.5317 68.1853L39.5727 62.1855ZM43.2836 62.0764L42.6174 56.1135L42.6168 56.1136L43.2836 62.0764ZM44.4164 61.9498H50.4164C50.4164 60.2425 49.6891 58.6161 48.4166 57.4779C47.1441 56.3396 45.447 55.7974 43.7502 55.9869L44.4164 61.9498ZM44.4164 66.0313V72.0313C47.7301 72.0313 50.4164 69.345 50.4164 66.0313H44.4164ZM27.5414 66.0313H21.5414C21.5414 69.345 24.2277 72.0313 27.5414 72.0313V66.0313ZM27.5414 58.7011L30.3281 53.3875C28.4682 52.4121 26.2337 52.4801 24.4366 53.5669C22.6395 54.6537 21.5414 56.6009 21.5414 58.7011H27.5414ZM29.2992 59.623L26.5126 64.9366L26.5127 64.9367L29.2992 59.623ZM38.4164 14.72V16.3777H50.4164V14.72H38.4164ZM45.8768 10.5581L45.5051 10.4648L42.5843 22.1039L42.956 22.1972L45.8768 10.5581ZM45.5083 10.4656C44.9256 10.319 44.1461 10.236 43.9111 10.2092C43.4443 10.156 42.8799 10.0996 42.3175 10.0508L41.2794 22.0058C41.7481 22.0465 42.2047 22.0924 42.5521 22.132C42.7281 22.1521 42.8527 22.1679 42.9257 22.178C42.9632 22.1832 42.9647 22.1839 42.9406 22.1798C42.9279 22.1777 42.8944 22.172 42.8466 22.1627C42.8063 22.1548 42.7092 22.1353 42.5811 22.1031L45.5083 10.4656ZM42.3176 10.0508C36.9011 9.58038 31.4284 10.7432 26.5077 13.2984L32.0377 23.9482C35.0592 22.3793 38.2649 21.744 41.2793 22.0058L42.3176 10.0508ZM26.508 13.2982C26.0758 13.5226 25.6861 13.722 25.4099 13.8611C25.268 13.9325 25.1762 13.9778 25.1303 14C25.1012 14.0141 25.1235 14.0029 25.1731 13.9805C25.1897 13.973 25.2756 13.9342 25.3934 13.8875C25.4453 13.8669 25.5828 13.8129 25.7639 13.7548C25.8529 13.7262 26.0213 13.6742 26.2372 13.6241C26.3479 13.5984 26.5092 13.5642 26.706 13.5347C26.8881 13.5075 27.2014 13.4688 27.593 13.4688V25.4688C28.2858 25.4688 28.8167 25.3444 28.9525 25.3129C29.17 25.2623 29.3403 25.2098 29.4316 25.1805C29.6173 25.1209 29.7607 25.0647 29.8199 25.0412C29.9523 24.9887 30.0582 24.9413 30.1 24.9225C30.1999 24.8775 30.2929 24.8329 30.3525 24.8041C30.4843 24.7404 30.6427 24.6615 30.8053 24.5797C31.138 24.4123 31.574 24.189 32.0374 23.9483L26.508 13.2982ZM27.593 13.4688C29.2802 13.4688 30.554 14.1604 31.3173 14.7648C32.0342 15.3326 32.4571 15.9351 32.665 16.2645C33.0735 16.9114 33.2571 17.4844 33.3121 17.6587C33.4494 18.0938 33.5032 18.4462 33.5146 18.5181C33.5505 18.7464 33.5631 18.9197 33.5643 18.9352C33.5707 19.0161 33.571 19.0503 33.5686 18.9887C33.5649 18.8916 33.5602 18.7076 33.5558 18.4314C33.5471 17.8919 33.5414 17.1248 33.5414 16.2656H21.5414C21.5414 17.1682 21.5473 18.0026 21.5573 18.6243C21.5622 18.9286 21.5686 19.2151 21.5772 19.4433C21.5811 19.5444 21.5879 19.7049 21.6009 19.8715C21.6055 19.9299 21.6214 20.1359 21.6609 20.3861C21.6739 20.4691 21.7295 20.8298 21.8686 21.2705C21.9245 21.4475 22.1089 22.0226 22.5183 22.6709C22.6906 22.9439 24.252 25.4688 27.593 25.4688V13.4688ZM33.5414 16.2656V13.0625H21.5414V16.2656H33.5414ZM27.5414 19.0625H35.9789V7.0625H27.5414V19.0625ZM35.9789 19.0625H44.4164V7.0625H35.9789V19.0625ZM38.4164 13.0625V14.72H50.4164V13.0625H38.4164ZM42.6669 24.6686C46.3194 25.3615 49.5771 27.383 51.7596 30.263L61.3236 23.0152C57.3211 17.7336 51.4366 14.1182 44.9034 12.8789L42.6669 24.6686ZM51.7597 30.2631C52.7262 31.5383 53.844 33.848 54.2516 35.4242L65.8694 32.4196C65.0673 29.3182 63.2554 25.5642 61.3234 23.015L51.7597 30.2631ZM54.2517 35.4244C54.672 37.0492 54.8005 39.7346 54.5214 41.4965L66.3737 43.3738C66.9036 40.0276 66.7125 35.6789 65.8693 32.4193L54.2517 35.4244ZM54.5214 41.4966C53.5854 47.406 49.0681 52.2059 42.7841 53.563L45.3172 65.2926C56.2532 62.9309 64.6327 54.3656 66.3737 43.3738L54.5214 41.4966ZM42.7839 53.5631C42.796 53.5605 42.7237 53.5759 42.5432 53.5979C42.3726 53.6187 42.1524 53.6397 41.8853 53.6582C41.3485 53.6954 40.7089 53.7164 40.0446 53.7168C39.3802 53.7171 38.7421 53.6968 38.2082 53.6603C37.9425 53.6421 37.7245 53.6214 37.5567 53.601C37.3786 53.5793 37.3111 53.5645 37.3291 53.5684L34.785 65.2956C36.3304 65.6309 38.4275 65.7177 40.0509 65.7168C41.6783 65.7159 43.772 65.6264 45.3174 65.2926L42.7839 53.5631ZM37.3289 53.5684C31.8231 52.3741 27.7729 48.7207 26.1261 43.7727L14.7402 47.562C17.7793 56.694 25.3064 63.2396 34.7852 65.2957L37.3289 53.5684ZM26.126 43.7723C25.6121 42.2284 25.4174 41.0579 25.4169 39.1362L13.4169 39.1391C13.4177 42.2421 13.7877 44.7007 14.7403 47.5624L26.126 43.7723ZM25.4169 39.1363C25.4163 36.469 25.8187 34.7881 26.9594 32.5232L16.2419 27.1256C14.2366 31.1072 13.4159 34.6432 13.4169 39.139L25.4169 39.1363ZM26.9594 32.5233C28.1439 30.1714 29.7595 28.3473 31.9607 26.8816L25.3097 16.8934C21.3818 19.5089 18.3633 22.9133 16.2419 27.1255L26.9594 32.5233ZM31.9606 26.8817C33.9444 25.5607 36.2395 24.7257 38.8907 24.4385L37.5984 12.5083C33.1355 12.9918 28.9831 14.4474 25.3098 16.8933L31.9606 26.8817ZM38.8909 24.4385C38.8272 24.4454 38.9589 24.4311 39.3606 24.4333C39.7122 24.4352 40.1448 24.4488 40.6064 24.4738C41.6121 24.5283 42.3972 24.6174 42.6667 24.6686L44.9036 12.8789C43.8309 12.6754 42.4051 12.5537 41.2559 12.4914C40.166 12.4323 38.6871 12.3904 37.5982 12.5083L38.8909 24.4385ZM36.7638 16.2034C33.4455 16.6815 30.0667 17.9902 27.2709 19.8594L33.9404 29.8353C35.2724 28.9448 36.9617 28.2988 38.4753 28.0807L36.7638 16.2034ZM27.2709 19.8594C21.341 23.824 17.7808 29.7901 17.0222 36.8998L28.9544 38.173C29.3417 34.5437 31.0156 31.7907 33.9404 29.8353L27.2709 19.8594ZM17.0222 36.8999C16.9368 37.6996 16.7552 39.3372 17.1803 40.9517C17.4467 41.9632 17.9521 43.0238 18.8146 43.9638C19.6267 44.8489 20.5062 45.3525 21.1036 45.6388L26.2905 34.8177C26.5043 34.9202 27.0794 35.2219 27.6565 35.8508C28.284 36.5347 28.6239 37.285 28.7848 37.8961C28.857 38.1703 28.8858 38.3872 28.8981 38.5159C28.9044 38.5822 28.9072 38.633 28.9084 38.6655C28.9096 38.698 28.9095 38.7167 28.9094 38.719C28.9094 38.7204 28.9099 38.6793 28.9168 38.5806C28.9237 38.483 28.9355 38.3509 28.9544 38.1729L17.0222 36.8999ZM21.1044 45.6392C21.3948 45.7784 22.6635 46.417 24.3636 46.3591C25.8922 46.307 27.0671 45.6984 27.2504 45.611L22.0856 34.7793C22.0287 34.8065 22.1904 34.7248 22.4494 34.6367C22.7464 34.5358 23.2732 34.3892 23.9548 34.366C24.6638 34.3419 25.2613 34.4599 25.6939 34.5913C25.8917 34.6514 26.0435 34.7108 26.1339 34.7484C26.2233 34.7855 26.2814 34.8134 26.2897 34.8173L21.1044 45.6392ZM27.2512 45.6106C27.2895 45.5923 27.5278 45.4808 27.7771 45.3422C28.0555 45.1874 28.4955 44.9206 28.9653 44.5087C30.0682 43.542 30.6284 42.4101 30.9196 41.5101C31.1519 40.7926 31.2472 40.1044 31.2948 39.7451C31.3509 39.322 31.405 38.8025 31.4609 38.27L19.5264 37.0179C19.4636 37.6157 19.4284 37.9455 19.3987 38.169C19.3607 38.4565 19.3741 38.2126 19.5026 37.8153C19.582 37.5701 19.7306 37.1812 20.0004 36.7386C20.287 36.2684 20.6449 35.8445 21.0553 35.4848C21.4389 35.1486 21.7808 34.9461 21.9461 34.8541C22.0824 34.7784 22.1927 34.7282 22.0847 34.7797L27.2512 45.6106ZM31.4608 38.2702C31.6681 36.2957 32.4463 34.6287 33.6891 33.3137L24.9681 25.071C21.8593 28.3601 19.9998 32.5068 19.5264 37.0177L31.4608 38.2702ZM33.6891 33.3138C34.7062 32.2377 35.3418 31.7936 36.3958 31.2997L31.3037 20.4337C28.7667 21.6226 26.9248 23.0008 24.9681 25.0709L33.6891 33.3138ZM36.3961 31.2996C37.3889 30.8343 38.3497 30.589 39.2834 30.5208L38.4094 18.5527C35.9413 18.7329 33.5556 19.3782 31.3033 20.4339L36.3961 31.2996ZM39.2839 30.5207C40.033 30.466 41.2699 30.3656 42.4463 29.9565C44.1321 29.3701 45.6941 28.1688 46.575 26.2349L35.6547 21.2604C35.8944 20.7341 36.3012 20.0984 36.9497 19.5359C37.5656 19.0016 38.1603 18.742 38.5042 18.6224C38.8203 18.5125 39.0109 18.4914 38.9393 18.5021C38.8827 18.5105 38.7282 18.5293 38.4089 18.5527L39.2839 30.5207ZM46.5744 26.2363C46.9426 25.4287 47.4786 23.9461 47.2054 22.1048C46.9185 20.1712 45.8977 18.8567 45.1497 18.1089L36.666 26.5958C36.3384 26.2683 35.5562 25.3551 35.3353 23.8659C35.1281 22.4691 35.5573 21.474 35.6553 21.259L46.5744 26.2363ZM45.1515 18.1107C44.6312 17.5902 43.607 16.68 41.9643 16.2421C40.8268 15.9388 39.7305 15.983 39.4249 15.9889L39.6564 27.9867C39.835 27.9832 39.8308 27.9871 39.7501 27.9829C39.6664 27.9785 39.3274 27.9582 38.8733 27.8371C38.3541 27.6987 37.8395 27.4714 37.3691 27.161C36.9586 26.8901 36.7042 26.634 36.6642 26.594L45.1515 18.1107ZM39.4246 15.9889C38.6455 16.004 37.5334 16.0924 36.763 16.2035L38.4761 28.0806C38.7369 28.043 39.3539 27.9925 39.6567 27.9867L39.4246 15.9889ZM28.5611 27.4102C28.0676 27.7892 27.2255 28.5148 26.5815 29.7298C26.0135 30.8015 25.8308 31.8237 25.7488 32.4567C25.604 33.5748 25.6039 35.1224 25.6039 36.8906H37.6039C37.6039 35.9115 37.6072 35.2181 37.619 34.7026C37.6314 34.1555 37.6506 33.9886 37.6494 33.9978C37.6466 34.0195 37.6273 34.1666 37.5674 34.388C37.5047 34.6203 37.3906 34.9603 37.1844 35.3494C36.9692 35.7554 36.7079 36.1128 36.428 36.4146C36.1688 36.6943 35.9444 36.8705 35.8696 36.9279L28.5611 27.4102ZM25.6039 36.8906C25.6039 38.6589 25.604 40.2065 25.7488 41.3246C25.8308 41.9575 26.0135 42.9798 26.5815 44.0515C27.2255 45.2664 28.0676 45.9921 28.5611 46.371L35.8696 36.8533C35.9444 36.9108 36.1688 37.087 36.428 37.3666C36.7079 37.6685 36.9692 38.0259 37.1844 38.4319C37.3906 38.8209 37.5047 39.161 37.5674 39.3932C37.6273 39.6147 37.6466 39.7618 37.6494 39.7834C37.6506 39.7927 37.6314 39.6258 37.619 39.0787C37.6072 38.5632 37.6039 37.8698 37.6039 36.8906H25.6039ZM28.5597 46.37C29.6191 47.1839 30.6938 47.4254 30.8006 47.4526C31.1421 47.5396 31.4336 47.584 31.5962 47.6063C31.9374 47.6532 32.2764 47.6777 32.5393 47.6932C33.0938 47.7259 33.8345 47.7469 34.7529 47.7622C36.6156 47.7933 39.54 47.8056 43.9131 47.8075L43.9182 35.8075C39.5352 35.8056 36.7042 35.7931 34.9532 35.7639C34.0647 35.7491 33.534 35.731 33.245 35.714C33.0862 35.7046 33.1105 35.7016 33.2305 35.7181C33.2826 35.7253 33.4869 35.7537 33.763 35.824C33.9033 35.8598 34.1475 35.9277 34.4441 36.0448C34.6972 36.1447 35.2583 36.3837 35.8709 36.8544L28.5597 46.37ZM43.913 47.8075L55.3655 47.8125L55.3708 35.8125L43.9183 35.8075L43.913 47.8075ZM59.6116 46.0543L59.9951 45.6707L51.5081 37.1871L51.1247 37.5707L59.6116 46.0543ZM59.9934 45.6724L60.377 45.289L51.8934 36.802L51.5098 37.1854L59.9934 45.6724ZM62.1352 41.0455V36.8906H50.1352V41.0455H62.1352ZM62.1352 36.8906V32.7358H50.1352V36.8906H62.1352ZM60.3769 28.4923L59.9934 28.1088L51.5098 36.5959L51.8934 36.9793L60.3769 28.4923ZM59.9951 28.1106L59.6117 27.727L51.1246 36.2105L51.5081 36.5941L59.9951 28.1106ZM55.3655 25.9687L43.913 25.9738L43.9183 37.9737L55.3708 37.9687L55.3655 25.9687ZM43.9131 25.9738C39.54 25.9756 36.6156 25.988 34.7529 26.019C33.8345 26.0344 33.0938 26.0554 32.5393 26.088C32.2764 26.1035 31.9374 26.128 31.5962 26.1749C31.4336 26.1973 31.1421 26.2416 30.8006 26.3286C30.6938 26.3558 29.6191 26.5973 28.5597 27.4113L35.8709 36.9268C35.2583 37.3975 34.6972 37.6365 34.4441 37.7365C34.1475 37.8536 33.9033 37.9215 33.763 37.9572C33.4869 38.0275 33.2826 38.056 33.2305 38.0631C33.1105 38.0796 33.0862 38.0766 33.245 38.0673C33.534 38.0502 34.0647 38.0322 34.9532 38.0174C36.7042 37.9881 39.5352 37.9756 43.9182 37.9737L43.9131 25.9738ZM47.6352 36.8906V39.3125H59.6352V36.8906H47.6352ZM53.6352 33.3125H43.8696V45.3125H53.6352V33.3125ZM43.8696 33.3125H34.1039V45.3125H43.8696V33.3125ZM40.1039 39.3125V36.8906H28.1039V39.3125H40.1039ZM40.1039 36.8906V34.4688H28.1039V36.8906H40.1039ZM34.1039 40.4688H43.8696V28.4688H34.1039V40.4688ZM43.8696 40.4688H53.6352V28.4688H43.8696V40.4688ZM47.6352 34.4688V36.8906H59.6352V34.4688H47.6352ZM33.2487 42.2539C31.5908 43.5269 30.3982 45.5467 30.3671 47.9285C30.3359 50.3211 31.4876 52.397 33.1672 53.7183L40.5866 44.2867C41.5756 45.0647 42.3879 46.4163 42.3661 48.0852C42.3445 49.7433 41.5102 51.0398 40.557 51.7717L33.2487 42.2539ZM33.1682 53.7191C33.7712 54.1931 34.6189 54.7128 35.8054 55.0038C36.5938 55.1972 37.3623 55.2411 37.8467 55.263C38.91 55.3112 40.7108 55.3125 43.7257 55.3125V43.3125C40.5397 43.3125 39.1056 43.3077 38.3893 43.2753C37.984 43.257 38.2266 43.242 38.6642 43.3493C38.9576 43.4213 39.3502 43.5485 39.7832 43.7726C40.2088 43.9928 40.501 44.2195 40.5855 44.2859L33.1682 53.7191ZM43.7257 55.3125H50.1802V43.3125H43.7257V55.3125ZM54.0926 53.8614L54.5181 53.4955L46.6932 44.3976L46.2677 44.7636L54.0926 53.8614ZM54.5183 53.4953C55.9648 52.2511 56.9567 50.4165 57.0288 48.3071C57.1 46.2215 56.2582 44.3923 55.0381 43.0936L46.2923 51.3102C45.5841 50.5563 44.9857 49.3644 45.0358 47.8974C45.0867 46.4067 45.7929 45.1721 46.693 44.3978L54.5183 53.4953ZM55.0383 43.0938L54.6725 42.7044L45.9263 50.9206L46.2921 51.3099L55.0383 43.0938ZM50.2948 40.8125L43.7206 40.8175L43.7297 52.8175L50.304 52.8125L50.2948 40.8125ZM43.7206 40.8175C41.2636 40.8194 39.5273 40.8324 38.3664 40.8656C37.8014 40.8818 37.2588 40.9055 36.7958 40.9488C36.5756 40.9694 36.2354 41.0066 35.8607 41.0822C35.6735 41.12 35.3703 41.1884 35.0157 41.3095C34.7359 41.4052 34.0127 41.6674 33.2492 42.2535L40.5565 51.7721C39.8161 52.3405 39.1281 52.5856 38.8962 52.6648C38.5895 52.7696 38.3471 52.8223 38.2341 52.8451C38.008 52.8908 37.8707 52.9007 37.9143 52.8966C37.9789 52.8905 38.2075 52.875 38.7097 52.8607C39.6831 52.8328 41.2652 52.8194 43.7297 52.8175L43.7206 40.8175ZM30.5994 66.7181C33.8424 67.8017 36.0678 68.1616 39.5316 68.1853L39.6138 56.1856C37.3769 56.1703 36.4098 56.0074 34.4025 55.3366L30.5994 66.7181ZM39.5317 68.1853C40.9672 68.1951 42.9453 68.1516 43.9505 68.0392L42.6168 56.1136C42.6343 56.1116 42.5492 56.1205 42.3198 56.1328C42.1132 56.1438 41.8515 56.1544 41.55 56.1633C40.9452 56.1811 40.2459 56.1899 39.6137 56.1856L39.5317 68.1853ZM43.9498 68.0393L45.0826 67.9127L43.7502 55.9869L42.6174 56.1135L43.9498 68.0393ZM38.4164 61.9498V63.9905H50.4164V61.9498H38.4164ZM38.4164 63.9905V66.0313H50.4164V63.9905H38.4164ZM44.4164 60.0313H35.9789V72.0313H44.4164V60.0313ZM35.9789 60.0313H27.5414V72.0313H35.9789V60.0313ZM33.5414 66.0313V62.3661H21.5414V66.0313H33.5414ZM33.5414 62.3661V58.7011H21.5414V62.3661H33.5414ZM24.7547 64.0147L26.5126 64.9366L32.0859 54.3094L30.3281 53.3875L24.7547 64.0147ZM26.5127 64.9367C27.684 65.5509 29.4253 66.3255 30.5986 66.7178L34.4034 55.3369C33.9885 55.1982 32.8483 54.7091 32.0858 54.3093L26.5127 64.9367Z" fill="white" mask="url(#path-2-outside-1_1157_53378)"/>
<path fill-rule="evenodd" clip-rule="evenodd" d="M30.1406 4.32391L29.7289 4.64766V7.60516V10.5625H27.8627C26.1153 10.5625 25.9685 10.5866 25.558 10.9394L25.1196 11.3164L25.0744 16.3758L25.0294 21.4353L23.6424 22.8123C20.5563 25.8763 18.4538 29.675 17.416 34.063C17.0444 35.6334 17.0052 36.0988 17.0002 39C16.9939 42.5656 17.1475 43.6167 18.0881 46.4444C19.1969 49.7772 21.0342 52.7797 23.518 55.3177L25.0414 56.8742V62.0827C25.0414 67.728 25.1111 68.2758 25.8514 68.4481C26.0505 68.4944 26.9867 68.5497 27.9321 68.5708L29.6508 68.6094L29.7289 71.5781C29.7719 73.2109 29.8597 74.6278 29.9239 74.7269C30.1588 75.0883 30.8958 75.2255 31.4196 75.0053C31.6928 74.8903 31.9302 74.7753 31.9469 74.7497C31.9638 74.7241 32.0164 73.332 32.0641 71.6563L32.1508 68.6094L36.1742 68.5677L40.1977 68.5259V71.4105C40.1977 74.2102 40.2085 74.3077 40.5636 74.7205C41.0656 75.3041 41.8297 75.3041 42.3317 74.7205C42.6869 74.3077 42.6977 74.21 42.6977 71.4131V68.5313H44.3991C46.9555 68.5313 46.8269 68.7345 46.8856 64.5956L46.9331 61.2569L47.9794 60.8841C54.4355 58.5836 59.7925 53.0645 61.9947 46.4444C62.9353 43.6167 63.0889 42.5656 63.0827 39C63.0777 36.0988 63.0385 35.6334 62.6669 34.063C61.37 28.5802 58.2594 23.8067 53.8285 20.4994C52.3486 19.3948 49.8511 18.0406 48.0492 17.3656L46.9164 16.9414V14.3063C46.9164 12.7077 46.8482 11.5211 46.743 11.2902C46.4808 10.7148 45.9594 10.5625 44.2528 10.5625H42.6977V7.83547C42.6977 4.86734 42.6064 4.44203 41.9077 4.15266C41.3906 3.93844 40.9277 4.05656 40.5049 4.51047C40.2227 4.81344 40.1977 5.0725 40.1977 7.70141V10.5625H36.1352H32.0727V7.60516V4.64766L31.661 4.32391C31.4346 4.14578 31.0925 4 30.9008 4C30.7091 4 30.3671 4.14578 30.1406 4.32391ZM44.4164 14.72V16.3777L44.0447 16.2844C43.8403 16.233 42.8296 16.1178 41.7985 16.0283C37.583 15.6622 33.2438 16.5613 29.2727 18.6233C28.3771 19.0883 27.6213 19.4688 27.593 19.4688C27.5646 19.4688 27.5414 18.0273 27.5414 16.2656V13.0625H35.9789H44.4164V14.72ZM43.7852 18.7738C48.878 19.7398 53.4491 22.5583 56.5416 26.6391C57.9908 28.5513 59.4556 31.5831 60.0605 33.9219C60.6922 36.3641 60.8521 39.8811 60.4475 42.4352C59.1091 50.8858 52.6606 57.5684 44.0506 59.4278C42.2755 59.8113 37.816 59.8136 36.0571 59.432C28.5647 57.8069 22.7761 52.7073 20.4331 45.6673C19.6999 43.4645 19.4175 41.65 19.4169 39.1377C19.4161 35.5561 20.0277 32.9477 21.6006 29.8244C23.2536 26.5423 25.5706 23.9281 28.6352 21.8875C31.4638 20.0041 34.6875 18.8588 38.2446 18.4734C39.3636 18.3522 42.4428 18.5191 43.7852 18.7738ZM37.6196 22.142C35.2036 22.4902 32.6696 23.4675 30.6056 24.8473C26.1783 27.8073 23.5613 32.1669 22.9883 37.5364C22.795 39.3481 22.93 39.8606 23.6971 40.2283C24.0867 40.415 24.2161 40.4106 24.668 40.1952C25.2527 39.9163 25.2564 39.9047 25.4936 37.6439C25.8339 34.4013 27.1528 31.4944 29.3286 29.1923C30.8155 27.6192 32.0542 26.7081 33.8497 25.8667C35.4722 25.1063 37.1455 24.6609 38.8464 24.5367C40.3958 24.4234 40.8844 24.2536 41.1149 23.7477C41.385 23.155 41.3283 22.7727 40.9078 22.3523C40.5764 22.0208 40.391 21.9714 39.5406 21.9878C38.9997 21.9983 38.1352 22.0677 37.6196 22.142ZM32.2153 32.1691C31.6539 32.6002 31.6039 32.9859 31.6039 36.8906C31.6039 40.7953 31.6539 41.1811 32.2153 41.6122C32.4049 41.7578 35.1596 41.8038 43.9157 41.8075L55.3681 41.8125L55.7516 41.4289L56.1352 41.0455V36.8906V32.7358L55.7516 32.3523L55.3681 31.9688L43.9157 31.9738C35.1596 31.9775 32.4049 32.0234 32.2153 32.1691ZM53.6352 36.8906V39.3125H43.8696H34.1039V36.8906V34.4688H43.8696H53.6352V36.8906ZM36.9028 47.0128C36.1981 47.5539 36.1863 48.4592 36.8769 49.0025C37.2556 49.3003 37.5249 49.3125 43.7256 49.3125H50.1802L50.6056 48.9466C51.1521 48.4766 51.1771 47.7467 50.6652 47.2019L50.2994 46.8125L43.7252 46.8175C38.8036 46.8213 37.0885 46.8703 36.9028 47.0128ZM32.501 61.0274C35.1261 61.9045 36.7224 62.1659 39.5727 62.1855C40.9906 62.1952 42.6605 62.1461 43.2836 62.0764L44.4164 61.9498V63.9905V66.0313H35.9789H27.5414V62.3661V58.7011L29.2992 59.623C30.2661 60.13 31.7069 60.7619 32.501 61.0274Z" fill="#4E97ED"/>
<rect x="58" y="39" width="19" height="37" fill="white"/>
<rect x="58" y="39" width="19" height="37" fill="white"/>
<rect x="48" y="53" width="19" height="37" fill="white"/>
<rect x="48" y="53" width="19" height="37" fill="white"/>
<rect x="23" y="70" width="5" height="37" fill="white"/>
<rect x="23" y="70" width="5" height="37" fill="white"/>
<path d="M47.5 58L56.0616 70.5M56.0616 70.5V42M56.0616 70.5L64.5 58" stroke="white" stroke-width="8" stroke-linecap="round" stroke-linejoin="round"/>
<mask id="path-9-outside-2_1157_53378" maskUnits="userSpaceOnUse" x="41" y="1" width="39" height="39" fill="black">
<rect fill="white" x="41" y="1" width="39" height="39"/>
<path fill-rule="evenodd" clip-rule="evenodd" d="M45.5386 4.11139C45.4182 4.16874 45.2532 4.30581 45.1718 4.41601C45.0263 4.61302 45.0235 4.65613 45.006 6.96862C44.9861 9.59702 44.9893 9.61783 45.4506 9.91563C45.6514 10.0453 45.7595 10.0619 46.4009 10.0619H47.1246L47.1247 11.238C47.1248 12.2286 47.1432 12.4497 47.2414 12.6397C47.3332 12.8172 47.6738 13.0699 48.8418 13.8269L50.3256 14.7886V15.6152V16.4418H48.0014C45.696 16.4418 45.6753 16.443 45.4506 16.5881C45.3259 16.6685 45.1713 16.8353 45.107 16.9587C44.9968 17.1699 44.991 17.7416 45.0069 26.785L45.0239 36.3871L45.1726 36.5886C45.502 37.0348 44.135 36.9993 61.007 36.9993C75.7088 36.9993 76.2443 36.9952 76.4687 36.8799C76.5965 36.8141 76.7681 36.6474 76.85 36.5093L76.9989 36.2582L76.9999 26.7206C77.0009 17.7677 76.9938 17.1692 76.8843 16.9587C76.8202 16.8353 76.6658 16.6685 76.5411 16.5881C76.3164 16.443 76.2956 16.4418 73.9903 16.4418H71.666L71.6669 15.6202L71.6678 14.7985L73.1123 13.8641C73.9068 13.3501 74.6191 12.8479 74.6953 12.7479C74.8223 12.5812 74.8355 12.4626 74.8544 11.3141L74.875 10.0619H75.5948C76.232 10.0619 76.3405 10.0452 76.5411 9.91563C77.0024 9.61783 77.0055 9.59702 76.9857 6.96862C76.9681 4.65226 76.9655 4.61334 76.8191 4.41492C76.5219 4.0124 76.463 4.00422 73.8567 4.00435C71.2243 4.00441 71.1871 4.01002 70.8815 4.45197L70.7279 4.67417L70.7468 7.10518L70.7657 9.53612L70.9325 9.70825C71.2053 9.99 71.3313 10.0281 72.0995 10.0619L72.8331 10.0941V10.8997V11.7052L71.3707 12.6536C70.4141 13.2741 69.8606 13.6749 69.7702 13.8129C69.6456 14.0028 69.6298 14.1425 69.6091 15.2327L69.5862 16.4418H66.8582H64.1302V15.587V14.7321L64.9685 13.9276C65.4295 13.485 65.9021 13.0083 66.0188 12.868L66.2309 12.6131L66.2642 11.3536L66.2976 10.0941L67.086 10.0619L67.8746 10.0297L68.1301 9.76483C68.4631 9.41973 68.4818 9.24355 68.4536 6.71085C68.4332 4.88278 68.4223 4.73005 68.2982 4.52653C68.2249 4.40615 68.0802 4.24665 67.9767 4.17209C67.7946 4.04089 67.7093 4.03586 65.3575 4.01801C62.5946 3.99713 62.5897 3.99784 62.294 4.48548L62.1295 4.75666V7.0397C62.1295 9.5851 62.1339 9.61191 62.5963 9.91692C62.791 10.0454 62.8989 10.0619 63.5399 10.0619H64.2636V10.9489V11.8358L63.2897 12.7694C62.7541 13.2829 62.274 13.7963 62.2227 13.9104C62.1543 14.0626 62.1295 14.4267 62.1295 15.2798V16.4418H60.9958H59.8621V15.2798C59.8621 14.4267 59.8373 14.0626 59.769 13.9104C59.7177 13.7963 59.2375 13.2829 58.7019 12.7694L57.7281 11.8358V10.9489V10.0619H58.4518C59.0927 10.0619 59.2006 10.0454 59.3954 9.91692C59.8576 9.61203 59.8621 9.58419 59.8621 7.04763C59.8621 4.89451 59.8549 4.75879 59.7279 4.51809C59.6407 4.35286 59.4997 4.21746 59.3257 4.13169C59.0681 4.00467 58.9657 4.00035 56.6305 4.01801C54.2824 4.03586 54.197 4.04089 54.015 4.17209C53.9115 4.24665 53.7668 4.40615 53.6934 4.52653C53.5666 4.73443 53.56 4.86119 53.56 7.07669C53.56 9.33087 53.5646 9.414 53.6975 9.586C53.9942 9.96995 54.1446 10.0272 54.9483 10.0619L55.6941 10.0941L55.7274 11.3508C55.7582 12.5123 55.7718 12.6221 55.9062 12.8008C55.9862 12.9071 56.4589 13.3852 56.9566 13.8632L57.8615 14.7323V15.587V16.4418H55.1344H52.4074L52.3835 15.2329C52.3617 14.1279 52.3473 14.005 52.2159 13.8043C52.1178 13.6548 51.608 13.2855 50.6153 12.6451L49.1586 11.7052V10.8997V10.0941L49.937 10.0619C50.6515 10.0323 50.7299 10.0165 50.8936 9.86858C51.2605 9.53709 51.2593 9.54643 51.2593 7.0136C51.2593 3.74045 51.5337 4.00383 48.1249 4.00576C46.0806 4.00699 45.7276 4.02136 45.5386 4.11139ZM49.2586 7.03307V8.12861H48.1249H46.9912V7.03307V5.93753H48.1249H49.2586V7.03307ZM57.8615 7.03307V8.12861H56.7278H55.594V7.03307V5.93753H56.7278H57.8615V7.03307ZM66.3976 7.03307V8.12861H65.2639H64.1302V7.03307V5.93753H65.2639H66.3976V7.03307ZM75.0005 7.03307V8.12861H73.8668H72.7331V7.03307V5.93753H73.8668H75.0005V7.03307ZM75.0005 26.7206V35.066H60.9958H46.9912V26.7206V18.3751H60.9958H75.0005V26.7206ZM52.0262 20.6572C51.757 20.7728 51.5368 21.0144 51.4577 21.2804C51.4219 21.4011 51.3927 21.9831 51.3927 22.574V23.6481L50.6637 23.6699C49.8761 23.6935 49.7276 23.7495 49.4295 24.1355C49.2964 24.3077 49.292 24.39 49.292 26.7092V29.105L49.4521 29.322C49.6994 29.657 50.0505 29.7786 50.7758 29.7802L51.3927 29.7817V30.8164C51.3927 32.036 51.4574 32.3522 51.7596 32.6087C52.3295 33.0922 53.184 32.834 53.3904 32.1157C53.4283 31.9839 53.4594 31.4049 53.4596 30.8289L53.46 29.7817H54.0794C54.8752 29.7817 55.2181 29.6362 55.4463 29.2017C55.5976 28.9135 55.5984 28.8966 55.5796 26.6188L55.5607 24.3259L55.3685 24.0825C55.1007 23.7434 54.8483 23.6595 54.0957 23.6595H53.46L53.4596 22.6123C53.4594 22.0364 53.4265 21.4491 53.3866 21.3073C53.2199 20.7165 52.5895 20.4152 52.0262 20.6572ZM60.5435 20.6734C60.2731 20.8022 60.0658 21.0747 60.0169 21.3658L59.9798 21.5866L59.2374 21.6081C58.5976 21.6266 58.4662 21.6494 58.2865 21.7732C57.8691 22.0609 57.8615 22.1134 57.8615 24.6747C57.8615 26.9717 57.8627 26.9934 58.0117 27.207C58.2674 27.5736 58.5248 27.6731 59.3042 27.7066L59.9955 27.7363V29.9361C59.9955 32.4436 59.998 32.4566 60.5299 32.7283C60.8831 32.9088 61.0755 32.9124 61.4249 32.7451C61.9753 32.4816 61.9604 32.5554 61.9819 29.9911L62.001 27.7195L62.5154 27.7179C63.4146 27.7151 63.8004 27.5652 64.0365 27.1266C64.1119 26.9866 64.1302 26.5027 64.1302 24.6552C64.1302 22.1154 64.1221 22.0607 63.7052 21.7732C63.5255 21.6494 63.3941 21.6266 62.7542 21.6081L62.0118 21.5866L61.9757 21.3716C61.9243 21.0658 61.7485 20.836 61.4551 20.6914C61.1477 20.5399 60.8368 20.5337 60.5435 20.6734ZM69.1652 20.6537C68.8846 20.7791 68.69 21.0061 68.6051 21.3073C68.5597 21.4684 68.5323 22.3449 68.5321 23.6434L68.5317 25.7217H67.9123C67.1165 25.7217 66.7736 25.8672 66.5454 26.3017C66.3941 26.5898 66.3932 26.6069 66.412 28.8794C66.433 31.4141 66.4213 31.3456 66.8896 31.6678C67.066 31.7892 67.2048 31.8142 67.8138 31.8344L68.5305 31.8581L68.5995 32.1058C68.8738 33.0902 70.2538 33.101 70.5269 32.121L70.6002 31.8581L71.3295 31.8339C72.1169 31.8079 72.2658 31.7516 72.5622 31.3679C72.6953 31.1957 72.6997 31.1134 72.6997 28.7942C72.6997 26.421 72.6983 26.3964 72.5514 26.1974C72.2774 25.8262 72.1024 25.7603 71.3191 25.7327L70.6054 25.7077L70.5855 23.4638C70.5665 21.3138 70.5599 21.2125 70.4282 21.042C70.1086 20.6287 69.5828 20.467 69.1652 20.6537ZM62.1295 24.6262V25.7217H60.9958H59.8621V24.6262V23.5306H60.9958H62.1295V24.6262ZM53.5267 26.6884V27.7839H52.393H51.2593V26.7313C51.2593 26.1524 51.2793 25.6594 51.3038 25.6358C51.3282 25.6122 51.8383 25.5928 52.4375 25.5928H53.5267V26.6884ZM70.7173 28.7989L70.699 29.8783L69.582 29.896L68.465 29.9136V28.8165V27.7195H69.6003H70.7356L70.7173 28.7989Z"/>
</mask>
<path fill-rule="evenodd" clip-rule="evenodd" d="M45.5386 4.11139C45.4182 4.16874 45.2532 4.30581 45.1718 4.41601C45.0263 4.61302 45.0235 4.65613 45.006 6.96862C44.9861 9.59702 44.9893 9.61783 45.4506 9.91563C45.6514 10.0453 45.7595 10.0619 46.4009 10.0619H47.1246L47.1247 11.238C47.1248 12.2286 47.1432 12.4497 47.2414 12.6397C47.3332 12.8172 47.6738 13.0699 48.8418 13.8269L50.3256 14.7886V15.6152V16.4418H48.0014C45.696 16.4418 45.6753 16.443 45.4506 16.5881C45.3259 16.6685 45.1713 16.8353 45.107 16.9587C44.9968 17.1699 44.991 17.7416 45.0069 26.785L45.0239 36.3871L45.1726 36.5886C45.502 37.0348 44.135 36.9993 61.007 36.9993C75.7088 36.9993 76.2443 36.9952 76.4687 36.8799C76.5965 36.8141 76.7681 36.6474 76.85 36.5093L76.9989 36.2582L76.9999 26.7206C77.0009 17.7677 76.9938 17.1692 76.8843 16.9587C76.8202 16.8353 76.6658 16.6685 76.5411 16.5881C76.3164 16.443 76.2956 16.4418 73.9903 16.4418H71.666L71.6669 15.6202L71.6678 14.7985L73.1123 13.8641C73.9068 13.3501 74.6191 12.8479 74.6953 12.7479C74.8223 12.5812 74.8355 12.4626 74.8544 11.3141L74.875 10.0619H75.5948C76.232 10.0619 76.3405 10.0452 76.5411 9.91563C77.0024 9.61783 77.0055 9.59702 76.9857 6.96862C76.9681 4.65226 76.9655 4.61334 76.8191 4.41492C76.5219 4.0124 76.463 4.00422 73.8567 4.00435C71.2243 4.00441 71.1871 4.01002 70.8815 4.45197L70.7279 4.67417L70.7468 7.10518L70.7657 9.53612L70.9325 9.70825C71.2053 9.99 71.3313 10.0281 72.0995 10.0619L72.8331 10.0941V10.8997V11.7052L71.3707 12.6536C70.4141 13.2741 69.8606 13.6749 69.7702 13.8129C69.6456 14.0028 69.6298 14.1425 69.6091 15.2327L69.5862 16.4418H66.8582H64.1302V15.587V14.7321L64.9685 13.9276C65.4295 13.485 65.9021 13.0083 66.0188 12.868L66.2309 12.6131L66.2642 11.3536L66.2976 10.0941L67.086 10.0619L67.8746 10.0297L68.1301 9.76483C68.4631 9.41973 68.4818 9.24355 68.4536 6.71085C68.4332 4.88278 68.4223 4.73005 68.2982 4.52653C68.2249 4.40615 68.0802 4.24665 67.9767 4.17209C67.7946 4.04089 67.7093 4.03586 65.3575 4.01801C62.5946 3.99713 62.5897 3.99784 62.294 4.48548L62.1295 4.75666V7.0397C62.1295 9.5851 62.1339 9.61191 62.5963 9.91692C62.791 10.0454 62.8989 10.0619 63.5399 10.0619H64.2636V10.9489V11.8358L63.2897 12.7694C62.7541 13.2829 62.274 13.7963 62.2227 13.9104C62.1543 14.0626 62.1295 14.4267 62.1295 15.2798V16.4418H60.9958H59.8621V15.2798C59.8621 14.4267 59.8373 14.0626 59.769 13.9104C59.7177 13.7963 59.2375 13.2829 58.7019 12.7694L57.7281 11.8358V10.9489V10.0619H58.4518C59.0927 10.0619 59.2006 10.0454 59.3954 9.91692C59.8576 9.61203 59.8621 9.58419 59.8621 7.04763C59.8621 4.89451 59.8549 4.75879 59.7279 4.51809C59.6407 4.35286 59.4997 4.21746 59.3257 4.13169C59.0681 4.00467 58.9657 4.00035 56.6305 4.01801C54.2824 4.03586 54.197 4.04089 54.015 4.17209C53.9115 4.24665 53.7668 4.40615 53.6934 4.52653C53.5666 4.73443 53.56 4.86119 53.56 7.07669C53.56 9.33087 53.5646 9.414 53.6975 9.586C53.9942 9.96995 54.1446 10.0272 54.9483 10.0619L55.6941 10.0941L55.7274 11.3508C55.7582 12.5123 55.7718 12.6221 55.9062 12.8008C55.9862 12.9071 56.4589 13.3852 56.9566 13.8632L57.8615 14.7323V15.587V16.4418H55.1344H52.4074L52.3835 15.2329C52.3617 14.1279 52.3473 14.005 52.2159 13.8043C52.1178 13.6548 51.608 13.2855 50.6153 12.6451L49.1586 11.7052V10.8997V10.0941L49.937 10.0619C50.6515 10.0323 50.7299 10.0165 50.8936 9.86858C51.2605 9.53709 51.2593 9.54643 51.2593 7.0136C51.2593 3.74045 51.5337 4.00383 48.1249 4.00576C46.0806 4.00699 45.7276 4.02136 45.5386 4.11139ZM49.2586 7.03307V8.12861H48.1249H46.9912V7.03307V5.93753H48.1249H49.2586V7.03307ZM57.8615 7.03307V8.12861H56.7278H55.594V7.03307V5.93753H56.7278H57.8615V7.03307ZM66.3976 7.03307V8.12861H65.2639H64.1302V7.03307V5.93753H65.2639H66.3976V7.03307ZM75.0005 7.03307V8.12861H73.8668H72.7331V7.03307V5.93753H73.8668H75.0005V7.03307ZM75.0005 26.7206V35.066H60.9958H46.9912V26.7206V18.3751H60.9958H75.0005V26.7206ZM52.0262 20.6572C51.757 20.7728 51.5368 21.0144 51.4577 21.2804C51.4219 21.4011 51.3927 21.9831 51.3927 22.574V23.6481L50.6637 23.6699C49.8761 23.6935 49.7276 23.7495 49.4295 24.1355C49.2964 24.3077 49.292 24.39 49.292 26.7092V29.105L49.4521 29.322C49.6994 29.657 50.0505 29.7786 50.7758 29.7802L51.3927 29.7817V30.8164C51.3927 32.036 51.4574 32.3522 51.7596 32.6087C52.3295 33.0922 53.184 32.834 53.3904 32.1157C53.4283 31.9839 53.4594 31.4049 53.4596 30.8289L53.46 29.7817H54.0794C54.8752 29.7817 55.2181 29.6362 55.4463 29.2017C55.5976 28.9135 55.5984 28.8966 55.5796 26.6188L55.5607 24.3259L55.3685 24.0825C55.1007 23.7434 54.8483 23.6595 54.0957 23.6595H53.46L53.4596 22.6123C53.4594 22.0364 53.4265 21.4491 53.3866 21.3073C53.2199 20.7165 52.5895 20.4152 52.0262 20.6572ZM60.5435 20.6734C60.2731 20.8022 60.0658 21.0747 60.0169 21.3658L59.9798 21.5866L59.2374 21.6081C58.5976 21.6266 58.4662 21.6494 58.2865 21.7732C57.8691 22.0609 57.8615 22.1134 57.8615 24.6747C57.8615 26.9717 57.8627 26.9934 58.0117 27.207C58.2674 27.5736 58.5248 27.6731 59.3042 27.7066L59.9955 27.7363V29.9361C59.9955 32.4436 59.998 32.4566 60.5299 32.7283C60.8831 32.9088 61.0755 32.9124 61.4249 32.7451C61.9753 32.4816 61.9604 32.5554 61.9819 29.9911L62.001 27.7195L62.5154 27.7179C63.4146 27.7151 63.8004 27.5652 64.0365 27.1266C64.1119 26.9866 64.1302 26.5027 64.1302 24.6552C64.1302 22.1154 64.1221 22.0607 63.7052 21.7732C63.5255 21.6494 63.3941 21.6266 62.7542 21.6081L62.0118 21.5866L61.9757 21.3716C61.9243 21.0658 61.7485 20.836 61.4551 20.6914C61.1477 20.5399 60.8368 20.5337 60.5435 20.6734ZM69.1652 20.6537C68.8846 20.7791 68.69 21.0061 68.6051 21.3073C68.5597 21.4684 68.5323 22.3449 68.5321 23.6434L68.5317 25.7217H67.9123C67.1165 25.7217 66.7736 25.8672 66.5454 26.3017C66.3941 26.5898 66.3932 26.6069 66.412 28.8794C66.433 31.4141 66.4213 31.3456 66.8896 31.6678C67.066 31.7892 67.2048 31.8142 67.8138 31.8344L68.5305 31.8581L68.5995 32.1058C68.8738 33.0902 70.2538 33.101 70.5269 32.121L70.6002 31.8581L71.3295 31.8339C72.1169 31.8079 72.2658 31.7516 72.5622 31.3679C72.6953 31.1957 72.6997 31.1134 72.6997 28.7942C72.6997 26.421 72.6983 26.3964 72.5514 26.1974C72.2774 25.8262 72.1024 25.7603 71.3191 25.7327L70.6054 25.7077L70.5855 23.4638C70.5665 21.3138 70.5599 21.2125 70.4282 21.042C70.1086 20.6287 69.5828 20.467 69.1652 20.6537ZM62.1295 24.6262V25.7217H60.9958H59.8621V24.6262V23.5306H60.9958H62.1295V24.6262ZM53.5267 26.6884V27.7839H52.393H51.2593V26.7313C51.2593 26.1524 51.2793 25.6594 51.3038 25.6358C51.3282 25.6122 51.8383 25.5928 52.4375 25.5928H53.5267V26.6884ZM70.7173 28.7989L70.699 29.8783L69.582 29.896L68.465 29.9136V28.8165V27.7195H69.6003H70.7356L70.7173 28.7989Z" fill="url(#paint0_linear_1157_53378)"/>
<path fill-rule="evenodd" clip-rule="evenodd" d="M45.5386 4.11139C45.4182 4.16874 45.2532 4.30581 45.1718 4.41601C45.0263 4.61302 45.0235 4.65613 45.006 6.96862C44.9861 9.59702 44.9893 9.61783 45.4506 9.91563C45.6514 10.0453 45.7595 10.0619 46.4009 10.0619H47.1246L47.1247 11.238C47.1248 12.2286 47.1432 12.4497 47.2414 12.6397C47.3332 12.8172 47.6738 13.0699 48.8418 13.8269L50.3256 14.7886V15.6152V16.4418H48.0014C45.696 16.4418 45.6753 16.443 45.4506 16.5881C45.3259 16.6685 45.1713 16.8353 45.107 16.9587C44.9968 17.1699 44.991 17.7416 45.0069 26.785L45.0239 36.3871L45.1726 36.5886C45.502 37.0348 44.135 36.9993 61.007 36.9993C75.7088 36.9993 76.2443 36.9952 76.4687 36.8799C76.5965 36.8141 76.7681 36.6474 76.85 36.5093L76.9989 36.2582L76.9999 26.7206C77.0009 17.7677 76.9938 17.1692 76.8843 16.9587C76.8202 16.8353 76.6658 16.6685 76.5411 16.5881C76.3164 16.443 76.2956 16.4418 73.9903 16.4418H71.666L71.6669 15.6202L71.6678 14.7985L73.1123 13.8641C73.9068 13.3501 74.6191 12.8479 74.6953 12.7479C74.8223 12.5812 74.8355 12.4626 74.8544 11.3141L74.875 10.0619H75.5948C76.232 10.0619 76.3405 10.0452 76.5411 9.91563C77.0024 9.61783 77.0055 9.59702 76.9857 6.96862C76.9681 4.65226 76.9655 4.61334 76.8191 4.41492C76.5219 4.0124 76.463 4.00422 73.8567 4.00435C71.2243 4.00441 71.1871 4.01002 70.8815 4.45197L70.7279 4.67417L70.7468 7.10518L70.7657 9.53612L70.9325 9.70825C71.2053 9.99 71.3313 10.0281 72.0995 10.0619L72.8331 10.0941V10.8997V11.7052L71.3707 12.6536C70.4141 13.2741 69.8606 13.6749 69.7702 13.8129C69.6456 14.0028 69.6298 14.1425 69.6091 15.2327L69.5862 16.4418H66.8582H64.1302V15.587V14.7321L64.9685 13.9276C65.4295 13.485 65.9021 13.0083 66.0188 12.868L66.2309 12.6131L66.2642 11.3536L66.2976 10.0941L67.086 10.0619L67.8746 10.0297L68.1301 9.76483C68.4631 9.41973 68.4818 9.24355 68.4536 6.71085C68.4332 4.88278 68.4223 4.73005 68.2982 4.52653C68.2249 4.40615 68.0802 4.24665 67.9767 4.17209C67.7946 4.04089 67.7093 4.03586 65.3575 4.01801C62.5946 3.99713 62.5897 3.99784 62.294 4.48548L62.1295 4.75666V7.0397C62.1295 9.5851 62.1339 9.61191 62.5963 9.91692C62.791 10.0454 62.8989 10.0619 63.5399 10.0619H64.2636V10.9489V11.8358L63.2897 12.7694C62.7541 13.2829 62.274 13.7963 62.2227 13.9104C62.1543 14.0626 62.1295 14.4267 62.1295 15.2798V16.4418H60.9958H59.8621V15.2798C59.8621 14.4267 59.8373 14.0626 59.769 13.9104C59.7177 13.7963 59.2375 13.2829 58.7019 12.7694L57.7281 11.8358V10.9489V10.0619H58.4518C59.0927 10.0619 59.2006 10.0454 59.3954 9.91692C59.8576 9.61203 59.8621 9.58419 59.8621 7.04763C59.8621 4.89451 59.8549 4.75879 59.7279 4.51809C59.6407 4.35286 59.4997 4.21746 59.3257 4.13169C59.0681 4.00467 58.9657 4.00035 56.6305 4.01801C54.2824 4.03586 54.197 4.04089 54.015 4.17209C53.9115 4.24665 53.7668 4.40615 53.6934 4.52653C53.5666 4.73443 53.56 4.86119 53.56 7.07669C53.56 9.33087 53.5646 9.414 53.6975 9.586C53.9942 9.96995 54.1446 10.0272 54.9483 10.0619L55.6941 10.0941L55.7274 11.3508C55.7582 12.5123 55.7718 12.6221 55.9062 12.8008C55.9862 12.9071 56.4589 13.3852 56.9566 13.8632L57.8615 14.7323V15.587V16.4418H55.1344H52.4074L52.3835 15.2329C52.3617 14.1279 52.3473 14.005 52.2159 13.8043C52.1178 13.6548 51.608 13.2855 50.6153 12.6451L49.1586 11.7052V10.8997V10.0941L49.937 10.0619C50.6515 10.0323 50.7299 10.0165 50.8936 9.86858C51.2605 9.53709 51.2593 9.54643 51.2593 7.0136C51.2593 3.74045 51.5337 4.00383 48.1249 4.00576C46.0806 4.00699 45.7276 4.02136 45.5386 4.11139ZM49.2586 7.03307V8.12861H48.1249H46.9912V7.03307V5.93753H48.1249H49.2586V7.03307ZM57.8615 7.03307V8.12861H56.7278H55.594V7.03307V5.93753H56.7278H57.8615V7.03307ZM66.3976 7.03307V8.12861H65.2639H64.1302V7.03307V5.93753H65.2639H66.3976V7.03307ZM75.0005 7.03307V8.12861H73.8668H72.7331V7.03307V5.93753H73.8668H75.0005V7.03307ZM75.0005 26.7206V35.066H60.9958H46.9912V26.7206V18.3751H60.9958H75.0005V26.7206ZM52.0262 20.6572C51.757 20.7728 51.5368 21.0144 51.4577 21.2804C51.4219 21.4011 51.3927 21.9831 51.3927 22.574V23.6481L50.6637 23.6699C49.8761 23.6935 49.7276 23.7495 49.4295 24.1355C49.2964 24.3077 49.292 24.39 49.292 26.7092V29.105L49.4521 29.322C49.6994 29.657 50.0505 29.7786 50.7758 29.7802L51.3927 29.7817V30.8164C51.3927 32.036 51.4574 32.3522 51.7596 32.6087C52.3295 33.0922 53.184 32.834 53.3904 32.1157C53.4283 31.9839 53.4594 31.4049 53.4596 30.8289L53.46 29.7817H54.0794C54.8752 29.7817 55.2181 29.6362 55.4463 29.2017C55.5976 28.9135 55.5984 28.8966 55.5796 26.6188L55.5607 24.3259L55.3685 24.0825C55.1007 23.7434 54.8483 23.6595 54.0957 23.6595H53.46L53.4596 22.6123C53.4594 22.0364 53.4265 21.4491 53.3866 21.3073C53.2199 20.7165 52.5895 20.4152 52.0262 20.6572ZM60.5435 20.6734C60.2731 20.8022 60.0658 21.0747 60.0169 21.3658L59.9798 21.5866L59.2374 21.6081C58.5976 21.6266 58.4662 21.6494 58.2865 21.7732C57.8691 22.0609 57.8615 22.1134 57.8615 24.6747C57.8615 26.9717 57.8627 26.9934 58.0117 27.207C58.2674 27.5736 58.5248 27.6731 59.3042 27.7066L59.9955 27.7363V29.9361C59.9955 32.4436 59.998 32.4566 60.5299 32.7283C60.8831 32.9088 61.0755 32.9124 61.4249 32.7451C61.9753 32.4816 61.9604 32.5554 61.9819 29.9911L62.001 27.7195L62.5154 27.7179C63.4146 27.7151 63.8004 27.5652 64.0365 27.1266C64.1119 26.9866 64.1302 26.5027 64.1302 24.6552C64.1302 22.1154 64.1221 22.0607 63.7052 21.7732C63.5255 21.6494 63.3941 21.6266 62.7542 21.6081L62.0118 21.5866L61.9757 21.3716C61.9243 21.0658 61.7485 20.836 61.4551 20.6914C61.1477 20.5399 60.8368 20.5337 60.5435 20.6734ZM69.1652 20.6537C68.8846 20.7791 68.69 21.0061 68.6051 21.3073C68.5597 21.4684 68.5323 22.3449 68.5321 23.6434L68.5317 25.7217H67.9123C67.1165 25.7217 66.7736 25.8672 66.5454 26.3017C66.3941 26.5898 66.3932 26.6069 66.412 28.8794C66.433 31.4141 66.4213 31.3456 66.8896 31.6678C67.066 31.7892 67.2048 31.8142 67.8138 31.8344L68.5305 31.8581L68.5995 32.1058C68.8738 33.0902 70.2538 33.101 70.5269 32.121L70.6002 31.8581L71.3295 31.8339C72.1169 31.8079 72.2658 31.7516 72.5622 31.3679C72.6953 31.1957 72.6997 31.1134 72.6997 28.7942C72.6997 26.421 72.6983 26.3964 72.5514 26.1974C72.2774 25.8262 72.1024 25.7603 71.3191 25.7327L70.6054 25.7077L70.5855 23.4638C70.5665 21.3138 70.5599 21.2125 70.4282 21.042C70.1086 20.6287 69.5828 20.467 69.1652 20.6537ZM62.1295 24.6262V25.7217H60.9958H59.8621V24.6262V23.5306H60.9958H62.1295V24.6262ZM53.5267 26.6884V27.7839H52.393H51.2593V26.7313C51.2593 26.1524 51.2793 25.6594 51.3038 25.6358C51.3282 25.6122 51.8383 25.5928 52.4375 25.5928H53.5267V26.6884ZM70.7173 28.7989L70.699 29.8783L69.582 29.896L68.465 29.9136V28.8165V27.7195H69.6003H70.7356L70.7173 28.7989Z" stroke="white" stroke-width="6" mask="url(#path-9-outside-2_1157_53378)"/>
<path d="M47.5 58L56.0616 70.5M56.0616 70.5V42M56.0616 70.5L64.5 58" stroke="#2FC6E7" stroke-width="3" stroke-linecap="round" stroke-linejoin="round"/>
<path d="M78.5 54.5L69.9384 42M69.9384 42L69.9384 70.5M69.9384 42L61.5 54.5" stroke="white" stroke-width="6" stroke-linecap="round" stroke-linejoin="round"/>
<path d="M78.5 54.5L69.9384 42M69.9384 42L69.9384 70.5M69.9384 42L61.5 54.5" stroke="#2FC6E7" stroke-width="3" stroke-linecap="round" stroke-linejoin="round"/>
</g>
<defs>
<linearGradient id="paint0_linear_1157_53378" x1="77" y1="4" x2="40.8864" y2="9.37823" gradientUnits="userSpaceOnUse">
<stop stop-color="#18EB58"/>
<stop offset="1" stop-color="#368BEF"/>
</linearGradient>
<clipPath id="clip0_1157_53378">
<rect width="80" height="80" fill="white"/>
</clipPath>
</defs>
</svg>
