<svg width="60" height="60" viewBox="0 0 60 60" fill="none" xmlns="http://www.w3.org/2000/svg">
<path fill-rule="evenodd" clip-rule="evenodd" d="M31.9399 0.284716C30.6458 0.816864 29.5596 1.99401 28.525 3.98538C27.8142 5.35319 27.4843 6.21733 26.1912 10.0975C24.7464 14.4328 24.2034 15.5344 23.3319 15.8985C22.9726 16.0487 22.8939 16.047 22.6457 15.8844C22.0083 15.4667 21.5008 13.8755 21.2986 11.6612C21.1567 10.107 21.0027 9.71093 20.3758 9.28847C19.8429 8.9294 19.0219 8.93046 18.4832 9.29081C17.9639 9.63827 16.2861 11.7312 14.9813 13.6594C10.7166 19.9614 7.93079 27.333 7.2395 34.1462C7.06489 35.8658 7.15396 39.6536 7.39958 40.958C8.33825 45.944 10.5333 50.0901 14.072 53.5618C17.3291 56.7571 21.4068 58.8355 26.1709 59.7287C27.4621 59.9707 31.0635 60.065 32.5104 59.8946C42.0653 58.7695 49.8463 51.9554 52.1912 42.6594C52.8065 40.2205 53.0064 36.8007 52.6683 34.5028C52.2355 31.5619 51.3156 28.948 49.5993 25.7823C48.1297 23.0715 46.5504 20.7869 41.9052 14.6521C37.1758 8.40604 35.7424 5.72866 35.3361 2.38132C35.1646 0.967099 35.0045 0.600653 34.397 0.230224C33.8613 -0.096378 32.8098 -0.0730576 31.9399 0.284716ZM32.3061 5.54819C32.5286 6.43155 33.4419 8.48257 34.2016 9.80468C35.3906 11.874 36.2963 13.171 39.9984 18.1067C44.3709 23.9361 45.6515 25.8405 46.9615 28.462C49.1276 32.7965 49.7188 36.5838 48.9011 40.8869C47.8036 46.6618 43.6529 52.0031 38.288 54.5445C28.679 59.0964 17.2853 55.0927 12.6295 45.5283C10.4182 40.9857 10.1165 35.7555 11.7043 29.4908C12.8229 25.0775 15.1565 19.9367 17.8253 16.0067L18.3011 15.306L18.5102 15.9215C19.0104 17.3929 20.01 18.6165 21.1821 19.1921C21.7614 19.4766 21.967 19.5127 23.0068 19.5127C24.1191 19.5127 24.2163 19.4923 24.9193 19.1111C25.9584 18.5478 26.9672 17.4198 27.7168 15.9827C28.4906 14.4994 28.7906 13.7328 30.0999 9.8928C31.1802 6.72405 31.9268 4.88128 32.0897 4.98194C32.1379 5.01171 32.2352 5.26647 32.3061 5.54819ZM27.326 21.5132C23.8555 22.0962 20.2275 24.1388 18.0209 26.7521C15.4463 29.8012 14.1601 33.2649 14.1601 37.1494C14.1601 43.2578 17.4946 48.6152 23.0068 51.3633C26.5792 53.1442 30.9226 53.4734 34.7551 52.2535C40.4432 50.4431 44.6729 45.5567 45.623 39.6985C45.8486 38.308 45.848 35.9878 45.6219 34.5932C44.5399 27.9219 39.2043 22.5885 32.5286 21.506C31.2015 21.2907 28.6295 21.2943 27.326 21.5132ZM32.4404 25.1557C33.6694 25.4037 35.1973 25.9992 36.336 26.6738C37.6624 27.4596 39.6694 29.4665 40.4551 30.793C41.6372 32.7883 42.1966 34.8302 42.1966 37.1494C42.1966 39.4687 41.6372 41.5106 40.4551 43.5059C39.6694 44.8324 37.6624 46.8393 36.336 47.6251C34.3415 48.8067 32.308 49.3624 29.9795 49.3624C27.651 49.3624 25.6175 48.8067 23.623 47.6251C22.2966 46.8393 20.2896 44.8324 19.5039 43.5059C18.3218 41.5106 17.7624 39.4687 17.7624 37.1494C17.7624 33.8929 18.8761 31.1062 21.1211 28.7453C24.0912 25.6218 28.2374 24.307 32.4404 25.1557ZM29.0702 28.5942C28.8601 28.7223 28.5836 28.9988 28.4555 29.2089C28.2349 29.5706 28.2225 29.8059 28.2225 33.6338C28.2225 37.4617 28.2349 37.6971 28.4555 38.0587C28.5836 38.2688 28.8601 38.5454 29.0702 38.6735C29.4319 38.894 29.6672 38.9064 33.4951 38.9064C37.3231 38.9064 37.5584 38.894 37.92 38.6735C39.0519 37.9833 39.0519 36.3155 37.92 35.6254C37.5661 35.4096 37.3252 35.3924 34.6377 35.3921L31.7373 35.3916L31.7368 32.4912C31.7365 29.8038 31.7194 29.5628 31.5035 29.2089C31.0065 28.3938 29.8699 28.1066 29.0702 28.5942Z" fill="url(#paint0_linear_2109_13514)"/>
<defs>
<linearGradient id="paint0_linear_2109_13514" x1="52.8317" y1="0" x2="0.843738" y2="6.08102" gradientUnits="userSpaceOnUse">
<stop stop-color="#FF808B"/>
<stop offset="1" stop-color="#F45B69"/>
</linearGradient>
</defs>
</svg>
