<svg width="41" height="40" viewBox="0 0 41 40" fill="none" xmlns="http://www.w3.org/2000/svg">
<g clip-path="url(#clip0_690_48376)">
<path fill-rule="evenodd" clip-rule="evenodd" d="M9.04492 0.0864479C8.50906 0.220042 8.18734 0.401292 7.80195 0.786604C7.30656 1.28199 7.09859 1.77106 7.06633 2.51653C7.03406 3.26192 7.21406 3.83528 7.63484 4.32676L7.90313 4.64028L7.67961 4.91145C7.24477 5.43903 7.09383 5.82965 7.06555 6.5009C7.04453 7.00106 7.07391 7.21824 7.21281 7.58832C7.40125 8.09059 7.8443 8.62738 8.29266 8.89676C8.44859 8.99043 8.58867 9.07645 8.60406 9.08793C8.61938 9.09934 8.5 9.24262 8.33875 9.40637C7.91836 9.83324 7.48305 10.5304 7.28563 11.0929C7.07031 11.7065 6.98961 13.0043 7.12742 13.638C7.2693 14.29 7.71109 15.157 8.18828 15.7195L8.60945 16.216L8.26734 16.4164C7.80656 16.6865 7.40109 17.1776 7.20289 17.7057C6.9625 18.3461 7.01016 19.2304 7.31789 19.8377C7.44219 20.083 7.62375 20.3588 7.72125 20.4504L7.89867 20.6171L7.59367 21.0199C7.42586 21.2415 7.23555 21.5785 7.1707 21.7687C7.00195 22.2636 7.01937 23.0911 7.20891 23.5899C7.29484 23.816 7.36516 24.005 7.36516 24.0101C7.36523 24.0152 7.22469 24.0382 7.05297 24.0613C6.53453 24.1308 5.78742 24.5315 5.33773 24.9812C4.32078 25.9981 4.08328 27.5265 4.74031 28.8251L5.00711 29.3525H2.91133C1.75859 29.3525 0.758594 29.3743 0.689063 29.401C0.372344 29.5225 0.333984 29.7992 0.333984 31.9607C0.333984 33.1422 0.367266 34.1174 0.411641 34.2339C0.537891 34.5661 0.904609 34.665 2.01117 34.665H2.99023V35.6299C2.99023 36.1606 3.03016 36.7093 3.07891 36.8492C3.18273 37.1471 3.52383 37.3212 4.00336 37.3212H4.31836V37.9759V38.6306L3.84656 38.6646C3.49812 38.6899 3.3307 38.7429 3.20602 38.8675C2.98398 39.0896 2.99055 39.5437 3.21914 39.7725C3.37422 39.9278 3.4782 39.94 4.84203 39.9629C5.64352 39.9764 6.37992 39.9671 6.47852 39.9425C6.74867 39.8746 6.97492 39.5885 6.97211 39.3182C6.9675 38.874 6.65516 38.6493 6.04227 38.6493H5.64648V37.9946V37.34L6.12703 37.3052C6.53031 37.2761 6.63703 37.2361 6.79109 37.0571C6.96477 36.8553 6.97461 36.7851 6.97461 35.7543V34.665H20.334H33.6934V35.7543C33.6934 36.7851 33.7032 36.8553 33.8769 37.0571C34.0309 37.2361 34.1377 37.2761 34.5409 37.3052L35.0215 37.34V37.9946V38.6493H34.6257C34.0128 38.6493 33.7005 38.874 33.6959 39.3182C33.693 39.5885 33.9193 39.8746 34.1895 39.9425C34.288 39.9671 35.0245 39.9764 35.8259 39.9629C37.1898 39.94 37.2938 39.9278 37.4488 39.7725C37.6774 39.5437 37.684 39.0896 37.462 38.8675C37.3373 38.7429 37.1698 38.6899 36.8214 38.6646L36.3496 38.6306V37.9759V37.3212H36.6646C37.1441 37.3212 37.4852 37.1471 37.5891 36.8492C37.6378 36.7093 37.6777 36.1606 37.6777 35.6299V34.665H38.6568C39.7634 34.665 40.1301 34.5661 40.2563 34.2339C40.3007 34.1174 40.334 33.1422 40.334 31.9607C40.334 29.7992 40.2956 29.5225 39.9789 29.401C39.9094 29.3743 38.9094 29.3525 37.7566 29.3525H35.6609L35.9277 28.8251C36.5847 27.5265 36.3472 25.9981 35.3302 24.9812C34.6662 24.3172 33.7363 23.9686 32.6145 23.9634L32.2778 23.9618L32.5898 23.5907C32.9688 23.1401 33.3394 22.41 33.4977 21.802C33.6492 21.2203 33.6483 20.0591 33.4959 19.4737C33.3309 18.8404 32.8757 18.0045 32.4309 17.5177L32.0577 17.1094L32.4825 16.8168C32.9168 16.5177 33.3615 15.9364 33.5252 15.4541C33.5747 15.308 33.6152 14.949 33.6152 14.6562C33.6152 14.0018 33.4083 13.4101 33.0211 12.9579L32.7408 12.6303L33.0123 12.3297C33.6456 11.6288 33.8049 10.3292 33.3629 9.46965C33.137 9.03028 32.6776 8.53785 32.3262 8.35848C32.1973 8.2927 32.0787 8.22723 32.0627 8.21309C32.0466 8.19895 32.2261 7.97449 32.4616 7.71434C33.2409 6.85317 33.6152 5.85567 33.6152 4.64028C33.6152 3.81004 33.4619 3.16528 33.1005 2.47574C32.5548 1.43481 31.6167 0.641292 30.4512 0.234573L29.8262 0.0165261L19.6309 0.00277606C11.7122 -0.00792706 9.34828 0.0107448 9.04492 0.0864479ZM29.8293 1.42684C31.4797 1.8566 32.5282 3.43129 32.289 5.12082C32.1133 6.36145 31.1652 7.46918 29.9716 7.8284C29.6748 7.9177 27.8498 7.93918 19.4755 7.95207L9.33859 7.96762L9.01211 7.7841C8.05859 7.24817 8.11922 5.89121 9.11687 5.43809C9.41844 5.30114 9.76992 5.29332 15.6695 5.29168L21.9036 5.28996L22.0953 5.09817C22.4376 4.75598 22.3199 4.21582 21.8655 4.04301C21.7243 3.98934 19.5616 3.96184 15.4812 3.96184C8.71781 3.96184 9.0818 3.98692 8.6657 3.49239C8.23352 2.97871 8.22891 2.29418 8.65422 1.78871C9.08617 1.27535 8.33047 1.30934 19.3605 1.30739C28.153 1.30582 29.42 1.32028 29.8293 1.42684ZM26.7681 2.70715C26.5663 2.7934 26.3496 3.08621 26.3496 3.27238C26.3496 3.50864 26.5167 3.78543 26.7134 3.87512C26.8241 3.92551 27.3624 3.96184 27.9978 3.96184C29.2211 3.96184 29.5094 4.04262 29.6065 4.41246C29.6848 4.71051 29.6427 4.91059 29.4602 5.10762C29.3139 5.26559 29.2184 5.27848 28.015 5.30293L26.7265 5.32903L26.538 5.54824C26.3305 5.78973 26.3023 5.9927 26.4405 6.25215C26.6213 6.5916 26.7198 6.61301 28.1074 6.61481C29.3434 6.61645 29.4627 6.60371 29.8262 6.43192C30.5544 6.08762 30.9555 5.44606 30.9555 4.6259C30.9555 3.82879 30.5292 3.17621 29.788 2.83848C29.4876 2.7016 29.251 2.67481 28.1855 2.65668C27.498 2.64504 26.8602 2.6677 26.7681 2.70715ZM31.6777 9.49387C32.5414 10.0286 32.5414 11.2529 31.6777 11.79L31.3887 11.9697L25.0491 12.0087C18.9544 12.0463 18.7034 12.0536 18.5452 12.1966C18.3161 12.404 18.3224 12.8641 18.5575 13.085C18.7341 13.2509 18.7346 13.2509 25.0223 13.2743L31.3105 13.2978L31.6244 13.4777C32.6035 14.0391 32.5618 15.3859 31.5511 15.845C31.2463 15.9834 30.8027 15.9896 21.3496 15.99C10.5817 15.9904 10.8139 15.9994 10.0431 15.5503C8.86359 14.8629 8.19109 13.5049 8.37766 12.1871C8.53273 11.0922 9.2568 10.1056 10.251 9.63442L10.7637 9.39153L19.9824 9.34762C32.2983 9.28887 31.3269 9.27676 31.6777 9.49387ZM10.8418 10.8668C9.93133 11.2972 9.51094 12.2689 9.79406 13.2886C9.9093 13.7036 10.4941 14.3108 10.9467 14.4855C11.2452 14.6007 11.547 14.6259 12.6259 14.6259H13.9411L14.1298 14.4067C14.3375 14.1653 14.3657 13.9623 14.2275 13.7028C14.0497 13.369 13.9383 13.3419 12.7324 13.3393C11.4343 13.3365 11.188 13.2675 11.0486 12.8675C10.9509 12.5875 11.022 12.35 11.2706 12.1259C11.4248 11.9869 11.5861 11.9654 12.732 11.9306C13.9688 11.8931 14.0261 11.8842 14.1692 11.7071C14.377 11.4502 14.3593 11.105 14.1266 10.8724C13.9377 10.6835 13.9145 10.6806 12.5836 10.6814C11.3263 10.6821 11.2053 10.695 10.8418 10.8668ZM30.4285 17.6539C32.9826 18.9163 32.9389 22.4483 30.3542 23.6727L29.8262 23.9228L19.5918 23.9436C12.0704 23.9589 9.30039 23.9407 9.14219 23.8754C8.84641 23.753 8.48406 23.3214 8.37695 22.9639C8.20742 22.3981 8.54156 21.7039 9.11445 21.4321C9.3532 21.3188 10.0272 21.3056 15.5645 21.3056C22.1205 21.3056 22.102 21.3066 22.2386 20.9505C22.3008 20.7885 22.3008 20.4946 22.2386 20.3325C22.102 19.9765 22.1201 19.9775 15.5698 19.9775C8.81391 19.9775 9.07547 19.995 8.67227 19.5158C8.2168 18.9746 8.21672 18.3242 8.67203 17.7832C9.08039 17.2979 8.41703 17.3246 19.5959 17.3432L29.8343 17.3603L30.4285 17.6539ZM26.578 18.8777C26.2987 19.157 26.2859 19.4259 26.538 19.7192L26.7263 19.9384L28.0295 19.9775C29.282 20.015 29.3384 20.0237 29.4817 20.201C29.7109 20.4843 29.7045 20.8657 29.4666 21.1103C29.3302 21.2506 29.1823 21.2705 28.0205 21.3056L26.7263 21.3447L26.538 21.5639C26.2484 21.9008 26.3328 22.3736 26.7134 22.547C27.0148 22.6843 29.2141 22.6597 29.6409 22.5143C31.1152 22.012 31.4371 19.9852 30.1869 19.0768C29.6887 18.7149 29.3518 18.6493 27.9887 18.6493H26.8063L26.578 18.8777ZM33.6106 25.413C34.3691 25.6382 35.0215 26.5111 35.0215 27.3008C35.0215 27.9993 34.551 28.7538 33.9191 29.0686L33.5064 29.2743H20.334H7.16156L6.74883 29.0686C6.11695 28.7538 5.64648 27.9993 5.64648 27.3008C5.64648 26.532 6.29898 25.6404 7.02461 25.4175C7.35445 25.3161 9.09766 25.3001 20.3002 25.2954C31.8199 25.2905 33.2405 25.3031 33.6106 25.413ZM7.22258 26.877C6.97484 27.1407 6.99203 27.5746 7.25859 27.7843L7.46445 27.9462H20.334H33.2035L33.4094 27.7843C33.6844 27.568 33.6968 27.1125 33.4345 26.8661L33.2536 26.6962H20.323H7.3925L7.22258 26.877ZM39.0059 31.9892V33.3368H20.334H1.66211V31.9892V30.6415H20.334H39.0059V31.9892ZM5.64648 35.329V35.9931H4.98242H4.31836V35.329V34.665H4.98242H5.64648V35.329ZM36.3496 35.329V35.9931H35.6855H35.0215V35.329V34.665H35.6855H36.3496V35.329Z" fill="#175CAB"/>
</g>
<defs>
<clipPath id="clip0_690_48376">
<rect width="40" height="40" fill="white" transform="translate(0.333984)"/>
</clipPath>
</defs>
</svg>
