<svg width="209" height="41" fill="none" xmlns="http://www.w3.org/2000/svg"><path d="M.667 13.95a.423.423 0 01-.315-.113.48.48 0 01-.111-.32V1.21c0-.138.037-.244.11-.32A.389.389 0 01.668.76h7.13c.135 0 .24.044.314.132.087.076.13.182.13.32v.754a.44.44 0 01-.13.32c-.074.076-.179.114-.315.114h-5.74v11.117a.44.44 0 01-.13.32.421.421 0 01-.315.114H.667zm12.971.188c-.938 0-1.722-.182-2.352-.546a3.663 3.663 0 01-1.444-1.508c-.334-.653-.519-1.394-.556-2.223a14.509 14.509 0 01-.019-.81c0-.34.007-.61.019-.81.037-.843.222-1.584.556-2.224a3.787 3.787 0 011.463-1.508c.63-.364 1.407-.546 2.333-.546.926 0 1.704.182 2.333.546.63.364 1.111.867 1.445 1.508.345.64.537 1.381.574 2.223.012.201.018.471.018.81 0 .327-.006.597-.018.81-.037.83-.222 1.571-.556 2.224a3.662 3.662 0 01-1.444 1.508c-.63.364-1.414.546-2.352.546zm0-1.45c.765 0 1.376-.246 1.833-.736.457-.502.704-1.23.741-2.186.012-.188.018-.427.018-.716s-.006-.527-.018-.716c-.037-.954-.284-1.677-.74-2.167-.458-.502-1.069-.753-1.834-.753-.766 0-1.383.25-1.852.753-.457.49-.697 1.213-.722 2.167-.013.189-.019.428-.019.716 0 .29.006.528.019.716.024.955.265 1.684.722 2.186.47.49 1.086.735 1.852.735zm7.134 4.842a.425.425 0 01-.315-.132.411.411 0 01-.111-.301V4.584c0-.125.037-.226.11-.301a.425.425 0 01.316-.132h.852c.123 0 .222.044.296.132a.38.38 0 01.13.301v.83a3.56 3.56 0 011.185-1.037c.494-.276 1.11-.414 1.852-.414.69 0 1.277.119 1.759.358.494.238.895.565 1.203.98.322.414.562.885.723 1.413.16.527.247 1.093.259 1.696a10.511 10.511 0 010 1.281 6.399 6.399 0 01-.26 1.696c-.16.528-.4.999-.722 1.413-.308.402-.71.729-1.203.98-.482.239-1.068.358-1.76.358-.716 0-1.32-.132-1.814-.396a3.949 3.949 0 01-1.185-1.017v4.372a.412.412 0 01-.112.301.39.39 0 01-.315.132h-.888zm3.926-4.918c.642 0 1.142-.138 1.5-.415.37-.289.635-.66.796-1.111.16-.465.253-.962.278-1.49a16.06 16.06 0 000-1.092 5.083 5.083 0 00-.278-1.47 2.275 2.275 0 00-.796-1.112c-.358-.289-.858-.433-1.5-.433-.605 0-1.1.144-1.482.433a2.66 2.66 0 00-.833 1.112 4.31 4.31 0 00-.296 1.357c-.013.2-.02.44-.02.716 0 .276.007.521.02.735.012.44.11.873.296 1.3.197.427.487.779.87 1.055.383.277.864.415 1.445.415zm10.605 1.526c-.938 0-1.722-.182-2.351-.546a3.662 3.662 0 01-1.445-1.508c-.333-.653-.519-1.394-.556-2.223a14.56 14.56 0 01-.018-.81c0-.34.006-.61.018-.81.037-.843.223-1.584.556-2.224a3.786 3.786 0 011.463-1.508c.63-.364 1.407-.546 2.333-.546.926 0 1.704.182 2.334.546a3.66 3.66 0 011.444 1.508c.346.64.537 1.381.574 2.223.013.201.019.471.019.81 0 .327-.006.597-.019.81-.037.83-.222 1.571-.555 2.224a3.663 3.663 0 01-1.445 1.508c-.63.364-1.413.546-2.352.546zm0-1.45c.766 0 1.377-.246 1.834-.736.456-.502.703-1.23.74-2.186.013-.188.019-.427.019-.716s-.006-.527-.019-.716c-.037-.954-.284-1.677-.74-2.167-.457-.502-1.068-.753-1.834-.753-.765 0-1.382.25-1.851.753-.457.49-.698 1.213-.723 2.167-.012.189-.018.428-.018.716 0 .29.006.528.018.716.025.955.266 1.684.723 2.186.469.49 1.086.735 1.851.735zm6.134 3.335a.425.425 0 01-.315-.132.412.412 0 01-.11-.302v-2.713c0-.126.036-.226.11-.302a.425.425 0 01.315-.132h.093c.333-.012.617-.2.852-.565.234-.377.413-.961.537-1.753.123-.803.185-1.846.185-3.128V4.584c0-.125.037-.226.11-.301a.425.425 0 01.316-.132h5.907a.37.37 0 01.297.132.38.38 0 01.13.301v7.82h.87c.135 0 .24.045.314.133a.411.411 0 01.111.301v2.751a.411.411 0 01-.11.302.389.389 0 01-.316.132h-.87a.425.425 0 01-.315-.132.411.411 0 01-.11-.302v-1.64h-6.705v1.64a.38.38 0 01-.13.302.368.368 0 01-.296.132h-.87zm2.296-3.58l4.408-.038V5.659h-3.352v1.545c0 1.331-.093 2.424-.278 3.279-.185.841-.444 1.494-.778 1.96zm13.253 1.695c-.877 0-1.636-.17-2.278-.509a3.66 3.66 0 01-1.463-1.488c-.346-.653-.531-1.432-.556-2.337-.012-.188-.018-.44-.018-.754s.006-.565.018-.753c.025-.905.21-1.677.556-2.318a3.514 3.514 0 011.463-1.489c.642-.351 1.401-.527 2.278-.527.716 0 1.327.1 1.833.301.518.201.944.459 1.278.773.333.314.58.653.74 1.017.173.365.266.71.278 1.037a.333.333 0 01-.11.301.462.462 0 01-.316.113H59.8c-.123 0-.216-.025-.277-.075a1.048 1.048 0 01-.186-.302c-.222-.615-.524-1.049-.907-1.3-.383-.251-.858-.377-1.426-.377-.74 0-1.346.233-1.815.698-.456.464-.703 1.212-.74 2.242-.013.452-.013.892 0 1.319.037 1.043.284 1.796.74 2.261.47.452 1.074.679 1.815.679.568 0 1.043-.126 1.426-.377.383-.252.685-.685.907-1.3a.78.78 0 01.186-.283c.061-.063.154-.094.277-.094h.89c.123 0 .228.037.314.113a.333.333 0 01.111.301 2.79 2.79 0 01-.166.81c-.1.277-.26.56-.482.848a3.57 3.57 0 01-.796.754c-.321.214-.71.39-1.167.528a5.61 5.61 0 01-1.518.188zm6.754-.188a.462.462 0 01-.314-.113.48.48 0 01-.111-.32V4.584c0-.126.037-.227.11-.302a.425.425 0 01.315-.132h.87c.124 0 .223.044.297.132a.38.38 0 01.13.301v3.618h1.685l2.5-3.768a.803.803 0 01.204-.208.52.52 0 01.296-.075h.963c.111 0 .204.025.278.075.074.05.11.126.11.227a.292.292 0 01-.036.113.481.481 0 01-.056.113l-2.778 4.164 3.149 4.56a.38.38 0 01.092.245c0 .1-.037.176-.11.226a.4.4 0 01-.26.076h-1.13a.484.484 0 01-.278-.076.803.803 0 01-.203-.207L66.74 9.73h-1.703v3.787a.44.44 0 01-.13.32.397.397 0 01-.296.114h-.87zm13.448.188c-.939 0-1.723-.182-2.352-.546a3.663 3.663 0 01-1.445-1.508c-.333-.653-.518-1.394-.555-2.223a14.45 14.45 0 01-.019-.81c0-.34.006-.61.019-.81.037-.843.222-1.584.555-2.224a3.787 3.787 0 011.463-1.508c.63-.364 1.407-.546 2.334-.546.925 0 1.703.182 2.333.546a3.66 3.66 0 011.444 1.508c.346.64.537 1.381.574 2.223.013.201.019.471.019.81 0 .327-.006.597-.019.81-.037.83-.222 1.571-.555 2.224a3.662 3.662 0 01-1.445 1.508c-.63.364-1.413.546-2.352.546zm0-1.45c.765 0 1.376-.246 1.833-.736.457-.502.704-1.23.74-2.186.013-.188.02-.427.02-.716s-.007-.527-.02-.716c-.036-.954-.283-1.677-.74-2.167-.457-.502-1.068-.753-1.834-.753-.765 0-1.382.25-1.851.753-.457.49-.698 1.213-.723 2.167-.012.189-.018.428-.018.716 0 .29.006.528.018.716.025.955.266 1.684.723 2.186.469.49 1.086.735 1.852.735zm7.096 1.262a.438.438 0 01-.296-.113.431.431 0 01-.111-.283v-8.97c0-.125.037-.226.11-.301a.425.425 0 01.316-.132h.889c.123 0 .222.044.296.132a.411.411 0 01.111.301v7.99l-.481-.509 5.61-7.631a.96.96 0 01.204-.189.415.415 0 01.278-.094h.852c.099 0 .185.038.26.113a.342.342 0 01.129.264v8.988a.44.44 0 01-.13.32.397.397 0 01-.296.114h-.87a.423.423 0 01-.315-.113.48.48 0 01-.111-.32v-7.52l.518-.018-5.648 7.688a1.36 1.36 0 01-.185.189.443.443 0 01-.296.094h-.834zm3.926-11.1c-.716 0-1.278-.112-1.685-.338-.407-.226-.691-.515-.852-.867a2.776 2.776 0 01-.24-1.13.39.39 0 01.073-.246c.062-.075.155-.113.278-.113h.63a.32.32 0 01.26.113.335.335 0 01.092.245c0 .29.092.56.277.81.198.24.587.359 1.167.359.593 0 .982-.12 1.167-.358a1.34 1.34 0 00.278-.81c0-.101.03-.183.092-.246a.316.316 0 01.26-.113h.648c.11 0 .197.038.259.113a.335.335 0 01.093.245c0 .39-.087.767-.26 1.13-.16.353-.444.642-.852.868-.407.226-.969.339-1.685.339zm21.695 13.738a.389.389 0 01-.315-.132.412.412 0 01-.111-.302V13.95h-9.111a.389.389 0 01-.315-.132.48.48 0 01-.111-.32V1.193a.41.41 0 01.111-.302.389.389 0 01.315-.132h.944c.136 0 .241.044.315.132a.381.381 0 01.129.302v11.06h6.371V1.194c0-.126.037-.226.111-.302a.424.424 0 01.315-.132h.944c.136 0 .241.044.315.132a.38.38 0 01.13.302v11.06h.907a.39.39 0 01.315.133c.086.075.13.176.13.301v3.467a.382.382 0 01-.13.302.389.389 0 01-.315.132h-.944zm7.229-2.45c-1.272 0-2.284-.396-3.037-1.187-.753-.804-1.167-1.897-1.241-3.279a8.777 8.777 0 01-.018-.622c0-.263.006-.477.018-.64.049-.892.253-1.671.611-2.337.358-.678.846-1.2 1.463-1.564.63-.364 1.364-.546 2.204-.546.938 0 1.722.2 2.352.603.642.402 1.129.973 1.463 1.714.333.742.5 1.608.5 2.6v.321a.4.4 0 01-.13.32.397.397 0 01-.296.114h-6.408v.169c.025.515.136.999.334 1.451.197.44.481.798.852 1.074.37.277.814.415 1.333.415.444 0 .815-.07 1.111-.207.296-.139.537-.29.722-.453.185-.176.309-.307.371-.396.111-.163.197-.257.259-.282.062-.038.16-.057.296-.057h.889c.124 0 .222.038.296.113.087.063.124.157.112.283-.013.189-.112.42-.297.697a3.7 3.7 0 01-.796.792 4.624 4.624 0 01-1.259.66c-.494.163-1.062.244-1.704.244zm-2.519-5.804h5.075v-.056c0-.565-.105-1.068-.315-1.508a2.373 2.373 0 00-.871-1.036c-.382-.264-.839-.396-1.37-.396-.531 0-.988.132-1.37.396a2.408 2.408 0 00-.852 1.036c-.198.44-.297.943-.297 1.508v.056zm9.474 5.616a.465.465 0 01-.315-.113.48.48 0 01-.111-.32V4.584c0-.126.037-.227.111-.302a.427.427 0 01.315-.132h.889c.123 0 .222.044.296.132a.412.412 0 01.111.301v3.618h5.056V4.585c0-.126.037-.227.111-.302a.424.424 0 01.315-.132h.87a.37.37 0 01.297.132.381.381 0 01.129.301v8.932a.441.441 0 01-.129.32.399.399 0 01-.297.114h-.87a.461.461 0 01-.315-.113.48.48 0 01-.111-.32V9.71h-5.056v3.806a.48.48 0 01-.111.32.396.396 0 01-.296.114h-.889zm13.803 0a.46.46 0 01-.314-.113.482.482 0 01-.112-.32V5.658h-3.222a.465.465 0 01-.315-.113.48.48 0 01-.111-.32v-.641c0-.126.037-.227.111-.302a.427.427 0 01.315-.132h8.148c.124 0 .223.044.297.132a.381.381 0 01.129.301v.641a.441.441 0 01-.129.32.397.397 0 01-.297.114h-3.222v7.857a.48.48 0 01-.111.32c-.074.076-.179.114-.315.114h-.852zm6.977 3.58a.424.424 0 01-.315-.132.412.412 0 01-.111-.301V4.584a.41.41 0 01.111-.301.424.424 0 01.315-.132h.852c.123 0 .222.044.296.132.086.075.13.176.13.301v.83a3.57 3.57 0 011.185-1.037c.494-.276 1.111-.414 1.852-.414.691 0 1.277.119 1.759.358a3.22 3.22 0 011.204.98c.321.414.561.885.722 1.413.16.527.247 1.093.259 1.696a10.743 10.743 0 010 1.281 6.403 6.403 0 01-.259 1.696 4.364 4.364 0 01-.722 1.413 3.48 3.48 0 01-1.204.98c-.482.239-1.068.358-1.759.358-.716 0-1.321-.132-1.815-.396a3.935 3.935 0 01-1.185-1.017v4.372a.408.408 0 01-.112.301.388.388 0 01-.314.132h-.889zm3.926-4.918c.642 0 1.142-.138 1.5-.415.37-.289.636-.66.796-1.111a5.29 5.29 0 00.278-1.49c.012-.363.012-.728 0-1.092a5.077 5.077 0 00-.278-1.47 2.274 2.274 0 00-.796-1.112c-.358-.289-.858-.433-1.5-.433-.605 0-1.099.144-1.482.433-.37.29-.648.66-.833 1.112a4.29 4.29 0 00-.296 1.357c-.013.2-.019.44-.019.716 0 .276.006.521.019.735.012.44.111.873.296 1.3.197.427.488.779.87 1.055.383.277.864.415 1.445.415zm12.034 1.338a.461.461 0 01-.315-.113.48.48 0 01-.111-.32v-.792c0-.138.037-.245.111-.32a.424.424 0 01.315-.132h.648c.395 0 .734-.095 1.018-.283.284-.201.55-.509.797-.923.259-.415.524-.955.796-1.62l3.611-8.367a.422.422 0 01.185-.245.545.545 0 01.278-.076h1c.099 0 .185.038.259.113a.365.365 0 01.111.264c0 .05-.006.1-.018.15a.21.21 0 01-.037.114l-3.778 8.706a28.663 28.663 0 01-.833 1.733c-.26.478-.537.873-.834 1.187a2.763 2.763 0 01-1.037.698c-.395.15-.87.226-1.426.226h-.74zm3.148-3.204l-5.056-9.384a.475.475 0 01-.055-.207c0-.1.037-.188.111-.264a.385.385 0 01.277-.132h1.038c.111 0 .203.025.277.076a.55.55 0 01.185.245l4.204 7.782-.981 1.884zm12.997 3.204a.42.42 0 01-.314-.113.482.482 0 01-.112-.32V9.973a3.1 3.1 0 01-1.222.697 5.707 5.707 0 01-1.611.207c-1.086 0-1.932-.245-2.537-.735-.593-.49-.889-1.281-.889-2.374V4.585c0-.126.037-.227.111-.302a.427.427 0 01.315-.132h.908c.123 0 .222.044.296.132a.381.381 0 01.129.301v3.072c0 .565.161.98.482 1.244.333.264.839.395 1.518.395.754 0 1.359-.094 1.815-.282.457-.201.685-.553.685-1.056V4.585c0-.126.038-.227.112-.302a.388.388 0 01.314-.132h.926c.124 0 .223.044.297.132a.381.381 0 01.129.301v8.932a.441.441 0 01-.129.32.397.397 0 01-.297.114h-.926zm7.941.188c-1.271 0-2.284-.396-3.037-1.187-.753-.804-1.166-1.897-1.241-3.279a8.777 8.777 0 01-.018-.622c0-.263.006-.477.018-.64.05-.892.254-1.671.612-2.337.358-.678.845-1.2 1.463-1.564.629-.364 1.364-.546 2.203-.546.939 0 1.723.2 2.352.603.642.402 1.13.973 1.463 1.714.334.742.5 1.608.5 2.6v.321a.403.403 0 01-.129.32.399.399 0 01-.297.114h-6.407v.169c.024.515.136.999.333 1.451.198.44.482.798.852 1.074.37.277.815.415 1.333.415.445 0 .815-.07 1.111-.207a3.06 3.06 0 00.723-.453c.185-.176.308-.307.37-.396.111-.163.198-.257.259-.282.062-.038.161-.057.297-.057h.889c.123 0 .222.038.296.113.086.063.123.157.111.283-.012.189-.111.42-.296.697a3.73 3.73 0 01-.797.792 4.595 4.595 0 01-1.259.66c-.494.163-1.062.244-1.704.244zm-2.518-5.804h5.074v-.056c0-.565-.105-1.068-.315-1.508a2.37 2.37 0 00-.87-1.036c-.383-.264-.84-.396-1.371-.396s-.987.132-1.37.396c-.37.251-.654.597-.852 1.036-.197.44-.296.943-.296 1.508v.056zm11.992 5.616a.465.465 0 01-.315-.113.48.48 0 01-.111-.32V5.658h-3.222a.461.461 0 01-.315-.113.48.48 0 01-.111-.32v-.641c0-.126.037-.227.111-.302a.424.424 0 01.315-.132h8.148c.123 0 .222.044.296.132.087.075.13.176.13.301v.641a.438.438 0 01-.13.32.397.397 0 01-.296.114h-3.222v7.857a.48.48 0 01-.111.32c-.074.076-.179.114-.315.114h-.852zm9.217.188a3.736 3.736 0 01-1.685-.377 3.267 3.267 0 01-1.222-1.017 2.414 2.414 0 01-.463-1.451c0-.867.345-1.558 1.037-2.073.691-.515 1.592-.854 2.703-1.018l2.76-.395V7.26c0-.603-.173-1.074-.519-1.413-.333-.34-.883-.509-1.648-.509-.556 0-1.006.113-1.352.34a1.834 1.834 0 00-.704.866c-.074.189-.203.283-.388.283h-.834a.423.423 0 01-.315-.113.517.517 0 01-.092-.302c0-.188.068-.42.204-.697a3.01 3.01 0 01.666-.81 3.663 3.663 0 011.13-.66c.469-.188 1.037-.282 1.704-.282.74 0 1.364.1 1.87.301.506.189.901.446 1.185.773.296.326.506.697.63 1.112.136.414.204.835.204 1.262v6.105a.442.442 0 01-.13.32.396.396 0 01-.296.114h-.852a.423.423 0 01-.315-.113.48.48 0 01-.111-.32v-.81a3.693 3.693 0 01-.648.677 3.735 3.735 0 01-1.019.547c-.407.138-.907.207-1.5.207zm.389-1.413a3.02 3.02 0 001.389-.32c.42-.226.747-.572.981-1.037.247-.465.371-1.049.371-1.752v-.528l-2.148.32c-.877.126-1.537.34-1.982.641-.444.29-.667.66-.667 1.112 0 .352.099.647.297.886.21.226.469.395.777.508.321.113.649.17.982.17zM.407 36.521a.438.438 0 01-.296-.113.431.431 0 01-.111-.283v-8.97c0-.125.037-.225.111-.3a.425.425 0 01.315-.133h.889c.123 0 .222.044.296.132a.412.412 0 01.111.302v7.99l-.481-.51 5.61-7.63a.962.962 0 01.205-.19.415.415 0 01.277-.094h.852c.099 0 .185.038.26.113a.34.34 0 01.13.264v8.989a.44.44 0 01-.13.32.397.397 0 01-.297.113h-.87a.425.425 0 01-.315-.113.48.48 0 01-.111-.32v-7.519l.518-.019-5.648 7.688c-.05.063-.11.126-.185.189a.443.443 0 01-.296.094H.407zm19.788.189c-.902 0-1.704-.139-2.408-.415-.691-.276-1.247-.666-1.667-1.168a3.23 3.23 0 01-.74-1.753c-.013-.113.018-.2.092-.264a.438.438 0 01.296-.113h.982c.123 0 .216.032.278.095.062.05.117.144.167.282.135.478.444.886.925 1.225.482.34 1.16.509 2.037.509 1.013 0 1.797-.352 2.352-1.055.568-.716.852-1.696.852-2.94v-.433h-4.5a.425.425 0 01-.315-.132.48.48 0 01-.11-.32v-.641c0-.139.036-.245.11-.32a.425.425 0 01.315-.133h4.5v-.377c0-1.381-.278-2.393-.833-3.033-.556-.654-1.346-.98-2.37-.98-.877 0-1.556.176-2.038.527-.481.34-.784.748-.907 1.225a.83.83 0 01-.167.302c-.049.05-.142.075-.277.075h-.982a.438.438 0 01-.296-.113.331.331 0 01-.093-.283 3.152 3.152 0 01.74-1.752c.42-.503.976-.892 1.668-1.168.691-.277 1.487-.415 2.389-.415.938 0 1.777.189 2.518.565.753.377 1.346.98 1.778 1.81.444.829.685 1.915.722 3.26.012.3.019.57.019.81v.716c0 .226-.007.483-.019.772-.037 1.357-.278 2.45-.722 3.28-.432.816-1.019 1.412-1.76 1.79-.74.376-1.586.564-2.537.564zm7.919-.189a.462.462 0 01-.315-.113.48.48 0 01-.111-.32v-8.932c0-.126.037-.226.11-.302a.425.425 0 01.316-.132h.87c.123 0 .222.044.296.132a.38.38 0 01.13.302v3.618h1.685l2.5-3.769a.805.805 0 01.204-.207.52.52 0 01.296-.076h.963a.48.48 0 01.278.076c.074.05.111.125.111.226a.293.293 0 01-.037.113.48.48 0 01-.056.113l-2.777 4.165 3.148 4.56a.38.38 0 01.092.245c0 .1-.037.175-.11.226a.4.4 0 01-.26.075h-1.13a.483.483 0 01-.277-.075.802.802 0 01-.204-.208L31.114 32.3H29.41v3.788a.44.44 0 01-.13.32.397.397 0 01-.296.113h-.87zm13.446.189c-.938 0-1.722-.183-2.351-.547a3.663 3.663 0 01-1.445-1.507c-.333-.654-.518-1.395-.555-2.224a14.558 14.558 0 01-.019-.81c0-.34.006-.61.019-.81.037-.842.222-1.583.555-2.224a3.786 3.786 0 011.463-1.508c.63-.364 1.408-.546 2.334-.546.926 0 1.703.182 2.333.546.63.365 1.111.867 1.445 1.508.345.64.537 1.382.574 2.223.012.201.018.472.018.81 0 .327-.006.598-.018.811-.037.83-.223 1.57-.556 2.224a3.664 3.664 0 01-1.444 1.507c-.63.364-1.414.547-2.352.547zm0-1.451c.766 0 1.377-.245 1.834-.735.457-.503.704-1.232.74-2.186.013-.189.02-.427.02-.716 0-.29-.007-.528-.02-.716-.036-.955-.283-1.677-.74-2.167-.457-.503-1.068-.754-1.833-.754-.766 0-1.383.251-1.852.754-.457.49-.698 1.212-.723 2.167a11.36 11.36 0 00-.018.716c0 .289.006.527.018.716.025.954.266 1.683.723 2.186.469.49 1.086.735 1.852.735zm7.116 1.262a.462.462 0 01-.315-.113.48.48 0 01-.111-.32v-8.932c0-.126.037-.226.111-.302a.425.425 0 01.315-.132h.889c.123 0 .222.044.296.132a.412.412 0 01.111.302v3.618h5.056v-3.618c0-.126.037-.226.11-.302a.425.425 0 01.316-.132h.87c.124 0 .222.044.296.132a.38.38 0 01.13.302v8.932a.44.44 0 01-.13.32.397.397 0 01-.296.113h-.87a.462.462 0 01-.315-.113.48.48 0 01-.111-.32V32.28h-5.056v3.807a.48.48 0 01-.11.32.397.397 0 01-.297.113h-.89zm14.804.189c-.939 0-1.723-.183-2.353-.547a3.664 3.664 0 01-1.444-1.507c-.333-.654-.519-1.395-.556-2.224a14.46 14.46 0 01-.018-.81c0-.34.006-.61.018-.81.037-.842.223-1.583.556-2.224a3.787 3.787 0 011.463-1.508c.63-.364 1.407-.546 2.333-.546.926 0 1.704.182 2.334.546.63.365 1.11.867 1.444 1.508.346.64.537 1.382.574 2.223.013.201.019.472.019.81 0 .327-.006.598-.019.811-.037.83-.222 1.57-.555 2.224a3.663 3.663 0 01-1.445 1.507c-.63.364-1.413.547-2.352.547zm0-1.451c.765 0 1.376-.245 1.833-.735.456-.503.703-1.232.74-2.186.013-.189.019-.427.019-.716 0-.29-.006-.528-.019-.716-.037-.955-.284-1.677-.74-2.167-.457-.503-1.068-.754-1.834-.754-.765 0-1.383.251-1.852.754-.456.49-.697 1.212-.722 2.167-.012.188-.018.427-.018.716s.006.527.018.716c.025.954.266 1.683.722 2.186.47.49 1.087.735 1.852.735zm7.096 1.262a.397.397 0 01-.296-.113.411.411 0 01-.111-.302V27.08c0-.1.037-.182.11-.244a.396.396 0 01.26-.114h.944c.198 0 .352.1.463.302l3.149 5.992 3.166-5.992c.111-.201.266-.302.463-.302h.926c.099 0 .185.038.26.113a.306.306 0 01.11.245v9.026a.411.411 0 01-.11.302.373.373 0 01-.278.113h-.908a.397.397 0 01-.296-.113.412.412 0 01-.111-.302v-7.518l.648.075-3.019 5.804a1.596 1.596 0 01-.222.34c-.086.1-.216.15-.389.15h-.481a.462.462 0 01-.37-.15 2.346 2.346 0 01-.241-.34l-2.926-5.521.574-.057v7.217a.411.411 0 01-.111.302.397.397 0 01-.297.113h-.907zm12.624 0a.438.438 0 01-.297-.113.431.431 0 01-.111-.283v-8.97c0-.125.037-.225.11-.3a.425.425 0 01.316-.133h.888c.124 0 .223.044.297.132a.411.411 0 01.11.302v7.99l-.48-.51 5.61-7.63a.961.961 0 01.204-.19.415.415 0 01.278-.094h.852c.099 0 .185.038.26.113a.344.344 0 01.129.264v8.989a.44.44 0 01-.13.32.397.397 0 01-.296.113h-.87a.423.423 0 01-.315-.113.48.48 0 01-.111-.32v-7.519l.518-.019-5.648 7.688a1.36 1.36 0 01-.185.189.443.443 0 01-.297.094H83.2zm11.284 0a.438.438 0 01-.296-.113.432.432 0 01-.112-.283v-8.97a.41.41 0 01.112-.3.425.425 0 01.314-.133h.89c.123 0 .222.044.296.132a.412.412 0 01.11.302v7.99l-.48-.51 5.61-7.63a.972.972 0 01.204-.19.415.415 0 01.278-.094h.852c.099 0 .185.038.259.113.086.076.13.164.13.264v8.989a.442.442 0 01-.13.32.396.396 0 01-.296.113h-.871a.42.42 0 01-.314-.113.476.476 0 01-.112-.32v-7.519l.519-.019-5.648 7.688a1.36 1.36 0 01-.185.189.443.443 0 01-.297.094h-.833zm16.083 0a.425.425 0 01-.315-.113.48.48 0 01-.111-.32V23.783c0-.138.037-.245.111-.32a.391.391 0 01.315-.132h4.704c.914 0 1.704.15 2.37.452a3.434 3.434 0 011.575 1.357c.37.59.555 1.331.555 2.223 0 .892-.185 1.633-.555 2.224-.371.59-.896 1.036-1.575 1.337-.666.302-1.456.453-2.37.453h-3.278v4.71a.441.441 0 01-.129.321.423.423 0 01-.315.113h-.982zm1.408-6.727h3.203c.914 0 1.599-.207 2.056-.622.457-.415.685-1.018.685-1.809 0-.779-.222-1.382-.666-1.809-.445-.427-1.136-.64-2.075-.64h-3.203v4.88zm13.641 6.916c-1.272 0-2.284-.396-3.037-1.188-.754-.804-1.167-1.897-1.241-3.278a8.14 8.14 0 01-.019-.622c0-.264.006-.478.019-.64.049-.893.253-1.672.611-2.337.358-.679.846-1.2 1.463-1.565.63-.364 1.364-.546 2.204-.546.938 0 1.722.201 2.352.603.642.402 1.129.973 1.463 1.715.333.74.5 1.608.5 2.6v.32a.404.404 0 01-.13.32.396.396 0 01-.296.114h-6.408v.17a4.1 4.1 0 00.333 1.45c.198.44.482.798.852 1.075.371.276.815.414 1.334.414.444 0 .814-.069 1.111-.207.296-.138.537-.29.722-.452.185-.176.309-.308.37-.396.111-.163.198-.258.26-.283a.595.595 0 01.296-.056h.889c.123 0 .222.037.296.113.087.063.124.157.111.282-.012.189-.111.421-.296.698-.185.263-.451.527-.796.791a4.619 4.619 0 01-1.26.66c-.493.163-1.061.244-1.703.244zm-2.519-5.804h5.074v-.057c0-.565-.105-1.068-.315-1.507a2.364 2.364 0 00-.87-1.037c-.383-.264-.839-.395-1.37-.395-.531 0-.988.131-1.371.395-.37.252-.654.597-.852 1.037-.197.44-.296.942-.296 1.507v.057zm12.937 5.804c-.877 0-1.636-.17-2.278-.51a3.66 3.66 0 01-1.463-1.488c-.346-.653-.531-1.432-.556-2.337a12.43 12.43 0 01-.018-.753c0-.314.006-.566.018-.754.025-.904.21-1.677.556-2.318a3.515 3.515 0 011.463-1.488c.642-.352 1.401-.528 2.278-.528.716 0 1.327.1 1.833.302.519.2.945.458 1.278.772.333.314.58.653.741 1.018.172.364.265.71.277 1.036a.33.33 0 01-.111.302.461.461 0 01-.315.113h-.888c-.124 0-.216-.026-.278-.076a1.024 1.024 0 01-.185-.301c-.223-.616-.525-1.05-.908-1.3-.383-.252-.858-.377-1.426-.377-.74 0-1.345.232-1.815.697-.456.465-.703 1.212-.74 2.242-.013.453-.013.892 0 1.32.037 1.042.284 1.796.74 2.26.47.453 1.075.679 1.815.679.568 0 1.043-.126 1.426-.377s.685-.685.908-1.3a.766.766 0 01.185-.283c.062-.063.154-.094.278-.094h.888c.124 0 .229.038.315.113a.33.33 0 01.111.301 2.771 2.771 0 01-.166.81c-.099.277-.26.56-.482.849a3.57 3.57 0 01-.796.753c-.321.214-.71.39-1.167.528a5.57 5.57 0 01-1.518.188zm6.773 3.391a.389.389 0 01-.315-.132.412.412 0 01-.111-.301v-.64c0-.126.037-.233.111-.321a.423.423 0 01.315-.113h.482c.284 0 .512-.057.685-.17.173-.113.327-.307.463-.584.148-.264.321-.628.518-1.093l4.019-9.704a.509.509 0 01.148-.226.473.473 0 01.315-.095h.815c.111 0 .203.038.277.113a.366.366 0 01.112.264c0 .05-.007.1-.019.151-.012.038-.037.1-.074.189l-3.519 8.48a42.7 42.7 0 01-.611 1.412c-.21.49-.45.942-.722 1.357a3.326 3.326 0 01-.926 1.018 2.065 2.065 0 01-1.259.395h-.704zm2.574-3.863l-3.741-8.8a1.02 1.02 0 01-.092-.32.46.46 0 01.129-.282.355.355 0 01.26-.114h.87c.136 0 .235.032.296.095a.59.59 0 01.167.226l3.074 7.48-.963 1.715zm7.572 3.863a.424.424 0 01-.315-.132.412.412 0 01-.111-.301V27.156c0-.126.037-.226.111-.302a.424.424 0 01.315-.132h.851c.124 0 .223.044.297.132a.381.381 0 01.129.302v.829a3.58 3.58 0 011.186-1.037c.493-.276 1.111-.414 1.851-.414.692 0 1.278.12 1.76.358.494.239.895.565 1.203.98.321.414.562.886.723 1.413a6.25 6.25 0 01.259 1.696 10.772 10.772 0 010 1.281 6.403 6.403 0 01-.259 1.696 4.366 4.366 0 01-.723 1.414 3.467 3.467 0 01-1.203.98c-.482.238-1.068.358-1.76.358-.716 0-1.321-.132-1.814-.396a3.95 3.95 0 01-1.186-1.018v4.372a.412.412 0 01-.111.301.388.388 0 01-.314.132h-.889zm3.926-4.918c.642 0 1.142-.138 1.5-.414.37-.29.635-.66.796-1.112.16-.465.253-.961.278-1.489.012-.364.012-.728 0-1.093a5.11 5.11 0 00-.278-1.47 2.28 2.28 0 00-.796-1.111c-.358-.29-.858-.434-1.5-.434-.605 0-1.099.145-1.482.434a2.66 2.66 0 00-.833 1.111c-.173.44-.272.892-.297 1.357-.012.201-.018.44-.018.716 0 .277.006.522.018.735.013.44.112.873.297 1.3.197.428.487.78.87 1.056s.864.414 1.445.414zm10.55 1.527c-.877 0-1.636-.17-2.278-.51a3.66 3.66 0 01-1.463-1.488c-.346-.653-.531-1.432-.556-2.337a12.43 12.43 0 01-.018-.753c0-.314.006-.566.018-.754.025-.904.21-1.677.556-2.318a3.515 3.515 0 011.463-1.488c.642-.352 1.401-.528 2.278-.528.716 0 1.327.1 1.833.302.519.2.945.458 1.278.772.333.314.58.653.741 1.018.172.364.265.71.277 1.036a.33.33 0 01-.111.302.461.461 0 01-.315.113h-.888c-.124 0-.216-.026-.278-.076a1.024 1.024 0 01-.185-.301c-.223-.616-.525-1.05-.908-1.3-.383-.252-.858-.377-1.426-.377-.741 0-1.345.232-1.815.697-.456.465-.703 1.212-.74 2.242-.013.453-.013.892 0 1.32.037 1.042.284 1.796.74 2.26.47.453 1.074.679 1.815.679.568 0 1.043-.126 1.426-.377s.685-.685.908-1.3a.766.766 0 01.185-.283c.062-.063.154-.094.278-.094h.888c.124 0 .229.038.315.113a.33.33 0 01.111.301 2.771 2.771 0 01-.166.81c-.099.277-.26.56-.482.849a3.57 3.57 0 01-.796.753c-.321.214-.71.39-1.167.528a5.57 5.57 0 01-1.518.188zm10.273 0c-.938 0-1.722-.183-2.352-.547a3.664 3.664 0 01-1.444-1.507c-.334-.654-.519-1.395-.556-2.224a14.928 14.928 0 01-.018-.81c0-.34.006-.61.018-.81.037-.842.222-1.583.556-2.224a3.78 3.78 0 011.463-1.508c.629-.364 1.407-.546 2.333-.546.926 0 1.704.182 2.333.546a3.66 3.66 0 011.445 1.508c.346.64.537 1.382.574 2.223.012.201.019.472.019.81 0 .327-.007.598-.019.811-.037.83-.222 1.57-.556 2.224a3.658 3.658 0 01-1.444 1.507c-.63.364-1.414.547-2.352.547zm0-1.451c.766 0 1.377-.245 1.833-.735.457-.503.704-1.232.741-2.186.013-.189.019-.427.019-.716 0-.29-.006-.528-.019-.716-.037-.955-.284-1.677-.741-2.167-.456-.503-1.067-.754-1.833-.754-.765 0-1.383.251-1.852.754-.457.49-.697 1.212-.722 2.167-.012.188-.018.427-.018.716s.006.527.018.716c.025.954.265 1.683.722 2.186.469.49 1.087.735 1.852.735zm7.115 1.262a.46.46 0 01-.314-.113.476.476 0 01-.112-.32v-8.932a.41.41 0 01.112-.302.423.423 0 01.314-.132h3.852c1.161 0 2.031.24 2.611.716.593.478.889 1.119.889 1.922 0 .566-.105.993-.314 1.282-.21.289-.507.534-.889.735.469.2.821.527 1.055.98.247.44.371.898.371 1.375 0 .905-.315 1.596-.945 2.073-.63.477-1.506.716-2.63.716h-4zm1.278-1.376h2.574c.593 0 1.068-.113 1.426-.339.371-.238.556-.596.556-1.074 0-.502-.167-.867-.5-1.093-.334-.238-.827-.358-1.482-.358h-2.574v2.864zm0-4.258h2.463c.593 0 1.062-.132 1.408-.396.358-.264.537-.634.537-1.112 0-.49-.179-.823-.537-.998-.346-.189-.815-.283-1.408-.283h-2.463v2.789z" fill="#062549"/></svg>