<svg width="80" height="80" viewBox="0 0 80 80" fill="none" xmlns="http://www.w3.org/2000/svg">
<g clip-path="url(#clip0_722_49596)">
<path fill-rule="evenodd" clip-rule="evenodd" d="M14.3637 5.19321C14.0178 5.3408 13.5731 6.08293 11.6692 9.69068L9.38918 14.0114L5.73895 14.0835C1.69837 14.1632 1.59887 14.1845 0.748102 15.1532C0.502676 15.4326 0.233891 15.906 0.150689 16.2055C0.0485964 16.5731 -0.000287128 23.0487 1.2685e-06 36.1355L0.000722414 55.5212L0.3393 56.2418C0.737575 57.0893 1.00261 57.3486 1.87501 57.7441C2.44993 58.0047 2.81893 58.0375 5.21522 58.0403L7.90928 58.0435L7.95499 61.3224L8.00084 64.6014L10.7147 69.6007C12.2072 72.3503 13.5313 74.6852 13.6569 74.7895C13.9965 75.0712 48.0063 75.0696 48.3459 74.7879C48.4725 74.6828 49.7966 72.3479 51.2881 69.5992L54.0001 64.6014L54.0459 61.3224L54.0917 58.0435L56.7857 58.042C59.3105 58.0407 59.5249 58.0194 60.2006 57.7022C61.0485 57.3041 61.3079 57.0392 61.7036 56.1672C61.9936 55.5281 61.9967 55.3146 61.9999 36.1523C62.0022 22.0483 61.9584 16.634 61.8386 16.2342C61.636 15.5585 60.9758 14.7373 60.3679 14.4048C59.9814 14.1935 59.3582 14.1446 56.2646 14.0835L52.6168 14.0114L50.3402 9.69313C48.4236 6.05814 47.9968 5.34657 47.6431 5.19552C47.0355 4.93637 14.9708 4.93406 14.3637 5.19321ZM48.4124 10.5285C49.384 12.3779 50.1788 13.9343 50.1788 13.9872C50.1788 14.0401 41.5486 14.0835 31.0005 14.0835C20.4524 14.0835 11.8221 14.042 11.8221 13.9911C11.8221 13.9404 12.6169 12.3845 13.5885 10.5337L15.355 7.16867L31.0005 7.16737L46.646 7.16593L48.4124 10.5285ZM59.3089 16.2671C59.4821 16.3582 59.6715 16.5042 59.7298 16.5914C59.7881 16.6786 59.8367 25.436 59.8379 36.0521C59.84 53.8126 59.8211 55.3754 59.6015 55.6179C59.3718 55.8715 58.2952 55.8815 31.0256 55.8815C4.85977 55.8815 2.66796 55.8632 2.42455 55.643C2.17148 55.4141 2.16081 54.6178 2.16081 36.0687C2.16081 15.9258 2.14668 16.4125 2.73761 16.2014C2.85657 16.1588 15.5629 16.1189 30.9739 16.1127C51.8267 16.1042 59.0744 16.1437 59.3089 16.2671ZM7.44352 21.3006L7.06355 21.5992V28.5687V35.5381L7.44352 35.8368L7.82348 36.1355H31.0005H54.1775L54.5574 35.8368L54.9374 35.5381V28.5687V21.5992L54.5574 21.3006L54.1775 21.0018H31.0005H7.82348L7.44352 21.3006ZM23.931 28.5687L20.3139 33.9736H14.6981H9.08233V28.5687V23.1638H18.3151H27.5479L23.931 28.5687ZM33.7287 28.5687L30.0969 33.9736H26.5111C24.5389 33.9736 22.9254 33.941 22.9254 33.9012C22.9254 33.8614 24.5257 31.4292 26.4817 28.4963L30.0381 23.1638H33.6993H37.3606L33.7287 28.5687ZM52.9186 28.5687V33.9736H42.8247C37.2731 33.9736 32.7308 33.941 32.7308 33.9012C32.7308 33.8614 34.3312 31.4292 36.2872 28.4963L39.8436 23.1638H46.3811H52.9186V28.5687ZM14.5114 40.7642C12.9473 41.0054 11.3038 42.2647 10.6238 43.7432C10.3732 44.2882 10.3108 44.6949 10.3096 45.7923C10.3082 46.9689 10.3608 47.2731 10.6825 47.9543C12.5272 51.8589 18.0117 51.8765 19.9288 47.984C20.3526 47.1237 20.4016 46.8955 20.3987 45.7953C20.3961 44.7827 20.3307 44.4281 20.0252 43.7745C19.003 41.5866 16.8392 40.4053 14.5114 40.7642ZM29.1585 40.7675C27.5942 41.0204 26.1896 42.053 25.4177 43.5174C25.0524 44.2103 25.0162 44.4153 25.0162 45.7923C25.0162 47.2427 25.0369 47.3436 25.5108 48.2175C27.1558 51.2503 31.1657 51.8372 33.6022 49.4018C36.0141 46.9911 35.4527 42.9361 32.4895 41.3623C31.747 40.968 31.4098 40.8684 30.2074 40.6878C30.0488 40.664 29.5768 40.6999 29.1585 40.7675ZM16.405 42.9894C17.5541 43.4692 18.311 44.5823 18.311 45.7923C18.311 47.9912 15.9927 49.4674 14.0305 48.5178C11.7614 47.42 11.7291 44.2993 13.975 43.1619C14.864 42.7118 15.6128 42.6586 16.405 42.9894ZM30.8962 42.9183C32.5487 43.3771 33.4781 45.4366 32.7458 47.0174C31.8091 49.0399 29.1893 49.4299 27.7266 47.7646C26.669 46.5607 26.7411 44.856 27.8988 43.6971C28.7402 42.8548 29.7357 42.5962 30.8962 42.9183ZM42.1037 46.0085V47.0895H46.4297H50.7556V46.0085V44.9275H46.4297H42.1037V46.0085ZM18.0226 60.1334H20.0414V58.0435H22.9975H25.9535V60.1334V62.2233H27.035H28.1165V60.1334V58.0435H31.0005H33.8844V60.1334V62.2233H34.9659H36.0474V60.1334V58.0435H39.0035H41.9595V60.1334V62.2233H42.9689H43.9783V60.1334V58.0435H47.9438H51.9092V61.0577V64.0719L49.5145 68.4804L47.1198 72.8889H30.9992H14.8785L12.4851 68.4695L10.0917 64.05V61.0467V58.0435H14.0572H18.0226V60.1334Z" fill="#A51B27"/>
<mask id="path-2-outside-1_722_49596" maskUnits="userSpaceOnUse" x="14" y="0.195312" width="70" height="79" fill="black">
<rect fill="white" x="14" y="0.195312" width="70" height="79"/>
<path fill-rule="evenodd" clip-rule="evenodd" d="M66.4124 10.5306C67.384 12.38 68.1788 13.9364 68.1788 13.9893C68.1788 14.0422 59.5486 14.0856 49.0005 14.0856C38.4524 14.0856 29.8221 14.0441 29.8221 13.9932C29.8221 13.9425 30.6169 12.3866 31.5885 10.5358L33.355 7.17077L49.0005 7.16947L64.646 7.16803L66.4124 10.5306ZM77.3089 16.2692C77.4821 16.3603 77.6715 16.5063 77.7298 16.5935C77.7881 16.6807 77.8367 25.4381 77.8379 36.0542C77.84 53.8147 77.8211 55.3775 77.6015 55.62C77.3718 55.8736 76.2952 55.8836 49.0256 55.8836C22.8598 55.8836 20.668 55.8653 20.4246 55.6451C20.1715 55.4162 20.1608 54.6199 20.1608 36.0708C20.1608 15.9279 20.1467 16.4146 20.7376 16.2035C20.8566 16.1609 33.5629 16.121 48.9739 16.1148C69.8267 16.1063 77.0744 16.1458 77.3089 16.2692ZM25.4435 21.3027L25.0636 21.6013V28.5708V35.5402L25.4435 35.8389L25.8235 36.1376H49.0005H72.1775L72.5574 35.8389L72.9374 35.5402V28.5708V21.6013L72.5574 21.3027L72.1775 21.0039H49.0005H25.8235L25.4435 21.3027ZM41.931 28.5708L38.3139 33.9757H32.6981H27.0823V28.5708V23.1659H36.3151H45.5479L41.931 28.5708ZM51.7287 28.5708L48.0969 33.9757H44.5111C42.5389 33.9757 40.9254 33.9431 40.9254 33.9033C40.9254 33.8635 42.5257 31.4313 44.4817 28.4984L48.0381 23.1659H51.6993H55.3606L51.7287 28.5708ZM70.9186 28.5708V33.9757H60.8247C55.2731 33.9757 50.7308 33.9431 50.7308 33.9033C50.7308 33.8635 52.3312 31.4313 54.2872 28.4984L57.8436 23.1659H64.3811H70.9186V28.5708ZM32.5114 40.7663C30.9473 41.0075 29.3038 42.2668 28.6238 43.7453C28.3732 44.2903 28.3108 44.697 28.3096 45.7944C28.3082 46.971 28.3608 47.2752 28.6825 47.9564C30.5272 51.861 36.0117 51.8786 37.9288 47.9861C38.3526 47.1258 38.4016 46.8976 38.3987 45.7974C38.3961 44.7848 38.3307 44.4302 38.0252 43.7766C37.003 41.5887 34.8392 40.4074 32.5114 40.7663ZM47.1585 40.7696C45.5942 41.0225 44.1896 42.0551 43.4177 43.5195C43.0524 44.2124 43.0162 44.4174 43.0162 45.7944C43.0162 47.2448 43.0369 47.3457 43.5108 48.2196C45.1558 51.2524 49.1657 51.8393 51.6022 49.4039C54.0141 46.9932 53.4527 42.9382 50.4895 41.3644C49.747 40.9701 49.4098 40.8705 48.2074 40.6899C48.0488 40.6661 47.5768 40.702 47.1585 40.7696ZM34.405 42.9915C35.5541 43.4713 36.311 44.5844 36.311 45.7944C36.311 47.9933 33.9927 49.4695 32.0305 48.5199C29.7614 47.4221 29.7291 44.3014 31.975 43.164C32.864 42.7139 33.6128 42.6607 34.405 42.9915ZM48.8962 42.9204C50.5487 43.3792 51.4781 45.4387 50.7458 47.0195C49.8091 49.042 47.1893 49.432 45.7266 47.7667C44.669 46.5628 44.7411 44.8582 45.8988 43.6992C46.7402 42.8569 47.7357 42.5983 48.8962 42.9204ZM60.1037 46.0106V47.0916H64.4297H68.7556V46.0106V44.9296H64.4297H60.1037V46.0106ZM36.0226 60.1355V62.2254H37.032H38.0414V60.1355V58.0456H40.9975H43.9535V60.1355V62.2254H45.035H46.1165V60.1355V58.0456H49.0005H51.8844V60.1355V62.2254H52.9659H54.0474V60.1355V58.0456H57.0035H59.9595V60.1355V62.2254H60.9689H61.9783V60.1355V58.0456H65.9438H69.9092V61.0598V64.074L67.5145 68.4825L65.1198 72.891H48.9992H32.8785L30.4851 68.4716L28.0917 64.0521V61.0488V58.0456H32.0572H36.0226V60.1355Z"/>
</mask>
<path fill-rule="evenodd" clip-rule="evenodd" d="M66.4124 10.5306C67.384 12.38 68.1788 13.9364 68.1788 13.9893C68.1788 14.0422 59.5486 14.0856 49.0005 14.0856C38.4524 14.0856 29.8221 14.0441 29.8221 13.9932C29.8221 13.9425 30.6169 12.3866 31.5885 10.5358L33.355 7.17077L49.0005 7.16947L64.646 7.16803L66.4124 10.5306ZM77.3089 16.2692C77.4821 16.3603 77.6715 16.5063 77.7298 16.5935C77.7881 16.6807 77.8367 25.4381 77.8379 36.0542C77.84 53.8147 77.8211 55.3775 77.6015 55.62C77.3718 55.8736 76.2952 55.8836 49.0256 55.8836C22.8598 55.8836 20.668 55.8653 20.4246 55.6451C20.1715 55.4162 20.1608 54.6199 20.1608 36.0708C20.1608 15.9279 20.1467 16.4146 20.7376 16.2035C20.8566 16.1609 33.5629 16.121 48.9739 16.1148C69.8267 16.1063 77.0744 16.1458 77.3089 16.2692ZM25.4435 21.3027L25.0636 21.6013V28.5708V35.5402L25.4435 35.8389L25.8235 36.1376H49.0005H72.1775L72.5574 35.8389L72.9374 35.5402V28.5708V21.6013L72.5574 21.3027L72.1775 21.0039H49.0005H25.8235L25.4435 21.3027ZM41.931 28.5708L38.3139 33.9757H32.6981H27.0823V28.5708V23.1659H36.3151H45.5479L41.931 28.5708ZM51.7287 28.5708L48.0969 33.9757H44.5111C42.5389 33.9757 40.9254 33.9431 40.9254 33.9033C40.9254 33.8635 42.5257 31.4313 44.4817 28.4984L48.0381 23.1659H51.6993H55.3606L51.7287 28.5708ZM70.9186 28.5708V33.9757H60.8247C55.2731 33.9757 50.7308 33.9431 50.7308 33.9033C50.7308 33.8635 52.3312 31.4313 54.2872 28.4984L57.8436 23.1659H64.3811H70.9186V28.5708ZM32.5114 40.7663C30.9473 41.0075 29.3038 42.2668 28.6238 43.7453C28.3732 44.2903 28.3108 44.697 28.3096 45.7944C28.3082 46.971 28.3608 47.2752 28.6825 47.9564C30.5272 51.861 36.0117 51.8786 37.9288 47.9861C38.3526 47.1258 38.4016 46.8976 38.3987 45.7974C38.3961 44.7848 38.3307 44.4302 38.0252 43.7766C37.003 41.5887 34.8392 40.4074 32.5114 40.7663ZM47.1585 40.7696C45.5942 41.0225 44.1896 42.0551 43.4177 43.5195C43.0524 44.2124 43.0162 44.4174 43.0162 45.7944C43.0162 47.2448 43.0369 47.3457 43.5108 48.2196C45.1558 51.2524 49.1657 51.8393 51.6022 49.4039C54.0141 46.9932 53.4527 42.9382 50.4895 41.3644C49.747 40.9701 49.4098 40.8705 48.2074 40.6899C48.0488 40.6661 47.5768 40.702 47.1585 40.7696ZM34.405 42.9915C35.5541 43.4713 36.311 44.5844 36.311 45.7944C36.311 47.9933 33.9927 49.4695 32.0305 48.5199C29.7614 47.4221 29.7291 44.3014 31.975 43.164C32.864 42.7139 33.6128 42.6607 34.405 42.9915ZM48.8962 42.9204C50.5487 43.3792 51.4781 45.4387 50.7458 47.0195C49.8091 49.042 47.1893 49.432 45.7266 47.7667C44.669 46.5628 44.7411 44.8582 45.8988 43.6992C46.7402 42.8569 47.7357 42.5983 48.8962 42.9204ZM60.1037 46.0106V47.0916H64.4297H68.7556V46.0106V44.9296H64.4297H60.1037V46.0106ZM36.0226 60.1355V62.2254H37.032H38.0414V60.1355V58.0456H40.9975H43.9535V60.1355V62.2254H45.035H46.1165V60.1355V58.0456H49.0005H51.8844V60.1355V62.2254H52.9659H54.0474V60.1355V58.0456H57.0035H59.9595V60.1355V62.2254H60.9689H61.9783V60.1355V58.0456H65.9438H69.9092V61.0598V64.074L67.5145 68.4825L65.1198 72.891H48.9992H32.8785L30.4851 68.4716L28.0917 64.0521V61.0488V58.0456H32.0572H36.0226V60.1355Z" fill="white"/>
<path d="M29.6692 9.69278L27.016 8.29264L27.016 8.29266L29.6692 9.69278ZM27.3892 14.0135L27.4484 17.013L29.2169 16.978L30.0424 15.4136L27.3892 14.0135ZM23.7389 14.0856L23.7981 17.085L23.7982 17.085L23.7389 14.0856ZM18.7481 15.1553L21.0018 17.1355L21.0022 17.135L18.7481 15.1553ZM18.1507 16.2076L15.2602 15.4047L15.2601 15.4047L18.1507 16.2076ZM18 36.1376L15 36.1377V36.1378L18 36.1376ZM18.0007 55.5233L15.0007 55.5234L15.0007 56.1929L15.2855 56.799L18.0007 55.5233ZM18.3393 56.2439L15.624 57.5196L15.6242 57.5199L18.3393 56.2439ZM19.875 57.7462L18.6363 60.4785L18.6365 60.4786L19.875 57.7462ZM23.2152 58.0424L23.2188 55.0424H23.2186L23.2152 58.0424ZM25.9093 58.0456L28.909 58.0037L28.8678 55.049L25.9128 55.0456L25.9093 58.0456ZM25.955 61.3245L22.9553 61.3664L22.9553 61.3665L25.955 61.3245ZM26.0008 64.6035L23.0011 64.6455L23.0115 65.3849L23.3643 66.0348L26.0008 64.6035ZM28.7147 69.6028L26.0781 71.0341L26.0781 71.0341L28.7147 69.6028ZM31.6569 74.7916L33.5726 72.4828L33.5725 72.4828L31.6569 74.7916ZM66.3459 74.79L68.2616 77.0987L68.2618 77.0985L66.3459 74.79ZM69.2881 69.6013L71.9249 71.0321L71.925 71.0321L69.2881 69.6013ZM72.0001 64.6035L74.6369 66.0343L74.9895 65.3846L74.9998 64.6455L72.0001 64.6035ZM72.0459 61.3245L75.0456 61.3665L75.0457 61.3664L72.0459 61.3245ZM72.0917 58.0456L72.09 55.0456L69.1332 55.0471L69.0919 58.0037L72.0917 58.0456ZM74.7857 58.0441L74.7842 55.0441H74.7841L74.7857 58.0441ZM78.2006 57.7043L79.4755 60.4199L79.4756 60.4198L78.2006 57.7043ZM79.7036 56.1693L82.4355 57.4089L82.4355 57.4089L79.7036 56.1693ZM79.9999 36.1544L82.9999 36.1549V36.1549L79.9999 36.1544ZM79.8386 16.2363L82.7123 15.3751L82.7122 15.3747L79.8386 16.2363ZM78.3679 14.4069L79.8075 11.7748L79.8071 11.7746L78.3679 14.4069ZM74.2646 14.0856L74.2053 17.085H74.2053L74.2646 14.0856ZM70.6168 14.0135L67.963 15.4126L68.7883 16.978L70.5575 17.0129L70.6168 14.0135ZM31.1865 2.43596C30.4601 2.74585 29.9993 3.23965 29.7431 3.5527C29.4815 3.87231 29.2443 4.24234 29.0272 4.60465C28.5848 5.34305 27.958 6.50754 27.016 8.29264L32.3225 11.0929C33.2843 9.27027 33.8318 8.25982 34.1742 7.68833C34.3495 7.39568 34.4074 7.32703 34.3859 7.35323C34.3698 7.37288 34.0944 7.71857 33.541 7.95467L31.1865 2.43596ZM27.016 8.29266L24.7359 12.6134L30.0424 15.4136L32.3225 11.0929L27.016 8.29266ZM27.33 11.0141L23.6797 11.0862L23.7982 17.085L27.4484 17.013L27.33 11.0141ZM23.6798 11.0862C21.8342 11.1226 20.414 11.1404 19.4186 11.3537C18.7766 11.4913 18.1508 11.7314 17.5561 12.1631C17.0509 12.5299 16.6755 12.969 16.494 13.1757L21.0022 17.135C21.2461 16.8573 21.2022 16.9305 21.0812 17.0184C20.9957 17.0805 20.8987 17.1354 20.8019 17.1763C20.7127 17.2139 20.661 17.2237 20.6761 17.2205C20.7429 17.2061 20.9575 17.1736 21.5179 17.1467C22.0576 17.1208 22.7751 17.1052 23.7981 17.085L23.6798 11.0862ZM16.4944 13.1752C16.0085 13.7282 15.4857 14.5927 15.2602 15.4047L21.0412 17.0106C21.0239 17.0728 21.0083 17.117 20.9995 17.1403C20.9903 17.1648 20.984 17.1793 20.9822 17.1833C20.9793 17.1896 20.9841 17.1786 20.9975 17.155C21.0104 17.1323 21.023 17.1125 21.0315 17.1002C21.0353 17.0948 21.0358 17.0943 21.0325 17.0986C21.0294 17.1026 21.0194 17.1155 21.0018 17.1355L16.4944 13.1752ZM15.2601 15.4047C15.1661 15.7432 15.1448 16.0716 15.1428 16.0964C15.1323 16.2208 15.1245 16.3577 15.1182 16.4928C15.1053 16.7675 15.0944 17.1306 15.0848 17.5706C15.0653 18.4558 15.0495 19.7259 15.037 21.3802C15.012 24.6927 14.9999 29.5926 15 36.1377L21 36.1376C20.9999 29.5958 21.012 24.7145 21.0369 21.4256C21.0493 19.7792 21.0649 18.5435 21.0833 17.7022C21.0926 17.279 21.1022 16.9736 21.1116 16.7727C21.1164 16.67 21.1201 16.6173 21.1216 16.6001C21.1314 16.4833 21.1225 16.718 21.0412 17.0106L15.2601 15.4047ZM15 36.1378L15.0007 55.5234L21.0007 55.5232L21 36.1375L15 36.1378ZM15.2855 56.799L15.624 57.5196L21.0546 54.9682L20.716 54.2476L15.2855 56.799ZM15.6242 57.5199C15.8667 58.0359 16.2156 58.7066 16.8315 59.3091C17.4417 59.906 18.1179 60.2435 18.6363 60.4785L21.1137 55.0139C21.0334 54.9775 20.9766 54.9501 20.9361 54.9294C20.8959 54.909 20.8789 54.8988 20.8777 54.8981C20.8774 54.8979 20.895 54.9085 20.9238 54.9303C20.9535 54.9529 20.9893 54.9829 21.0272 55.02C21.0652 55.0572 21.097 55.0933 21.122 55.1248C21.1462 55.1554 21.1592 55.1757 21.1614 55.1791C21.1629 55.1815 21.1546 55.1686 21.1356 55.1327C21.1165 55.0964 21.0901 55.044 21.0544 54.968L15.6242 57.5199ZM18.6365 60.4786C19.9289 61.0644 21.047 61.0399 23.2118 61.0424L23.2186 55.0424C21.9791 55.041 21.4327 55.0298 21.1272 55.0027C21.0059 54.992 21.0041 54.9847 21.0577 54.9986C21.1224 55.0155 21.1593 55.0345 21.1135 55.0138L18.6365 60.4786ZM23.2117 61.0424L25.9057 61.0456L25.9128 55.0456L23.2188 55.0424L23.2117 61.0424ZM22.9096 58.0874L22.9553 61.3664L28.9547 61.2827L28.909 58.0037L22.9096 58.0874ZM22.9553 61.3665L23.0011 64.6455L29.0005 64.5616L28.9547 61.2826L22.9553 61.3665ZM23.3643 66.0348L26.0781 71.0341L31.3512 68.1716L28.6374 63.1723L23.3643 66.0348ZM26.0781 71.0341C26.8308 72.4208 27.5442 73.7086 28.0887 74.669C28.3598 75.1469 28.5964 75.5568 28.7783 75.8615C28.8675 76.0109 28.9561 76.1562 29.0354 76.279C29.0734 76.3378 29.1266 76.4184 29.1871 76.5022C29.2168 76.5434 29.2654 76.6091 29.3273 76.6843C29.3637 76.7284 29.5135 76.9114 29.7413 77.1003L33.5725 72.4828C33.7924 72.6652 33.932 72.8374 33.9559 72.8664C34.0054 72.9264 34.0392 72.9728 34.052 72.9905C34.0786 73.0273 34.0889 73.0444 34.0758 73.024C34.0528 72.9884 34.0057 72.9127 33.9298 72.7855C33.7815 72.5372 33.5703 72.172 33.308 71.7094C32.786 70.7889 32.0911 69.5345 31.3512 68.1716L26.0781 71.0341ZM29.7412 77.1003C30.2116 77.4906 30.6859 77.6326 30.7517 77.6538C30.9115 77.7052 31.0444 77.7335 31.1133 77.7472C31.2574 77.7758 31.3839 77.791 31.4542 77.7988C31.6082 77.8159 31.7759 77.8275 31.9265 77.8361C32.2401 77.8542 32.659 77.8694 33.1489 77.8828C34.1371 77.9099 35.5144 77.932 37.1401 77.9496C40.3963 77.9849 44.7017 78.0023 49.0015 78.0021C53.3014 78.0019 57.6068 77.9841 60.863 77.9485C62.4886 77.9308 63.866 77.9085 64.8542 77.8814C65.3441 77.8679 65.7629 77.8526 66.0766 77.8346C66.2272 77.8259 66.3948 77.8143 66.5488 77.7972C66.6191 77.7894 66.7456 77.7742 66.8897 77.7456C66.9586 77.7319 67.0915 77.7036 67.2513 77.6522C67.3171 77.631 67.7913 77.4889 68.2616 77.0987L64.4302 72.4813C64.8953 72.0954 65.3601 71.9577 65.4124 71.9409C65.5587 71.8938 65.6741 71.8698 65.7215 71.8604C65.7789 71.849 65.8222 71.8425 65.8433 71.8395C65.8663 71.8362 65.8816 71.8344 65.8862 71.8339C65.8915 71.8333 65.8489 71.8377 65.7317 71.8445C65.5096 71.8573 65.1626 71.8706 64.6894 71.8836C63.7514 71.9094 62.4134 71.9313 60.7975 71.9489C57.5707 71.9841 53.2887 72.0019 49.0013 72.0021C44.7138 72.0023 40.4318 71.9849 37.205 71.95C35.5892 71.9325 34.2511 71.9108 33.3131 71.8851C32.8399 71.8721 32.4929 71.8588 32.2709 71.846C32.1536 71.8393 32.111 71.8349 32.1164 71.8355C32.121 71.836 32.1362 71.8377 32.1593 71.841C32.1803 71.844 32.2237 71.8505 32.2811 71.8619C32.3285 71.8713 32.4439 71.8953 32.5902 71.9424C32.6426 71.9593 33.1075 72.0969 33.5726 72.4828L29.7412 77.1003ZM68.2618 77.0985C68.4883 76.9106 68.6373 76.7289 68.6743 76.6842C68.7363 76.609 68.785 76.5432 68.8149 76.5019C68.8756 76.4178 68.929 76.337 68.9671 76.278C69.0466 76.1549 69.1355 76.0094 69.2248 75.8599C69.407 75.5549 69.6438 75.1448 69.9148 74.6668C70.4595 73.7062 71.1726 72.4184 71.9249 71.0321L66.6514 68.1704C65.9121 69.5328 65.2174 70.7868 64.6955 71.7072C64.4333 72.1696 64.2221 72.5348 64.0738 72.783C63.9979 72.9101 63.9509 72.9857 63.928 73.0211C63.9148 73.0414 63.9253 73.0243 63.952 72.9873C63.9648 72.9695 63.9987 72.9231 64.0483 72.8631C64.0727 72.8336 64.2115 72.6628 64.43 72.4814L68.2618 77.0985ZM71.925 71.0321L74.6369 66.0343L69.3633 63.1727L66.6513 68.1704L71.925 71.0321ZM74.9998 64.6455L75.0456 61.3665L69.0462 61.2826L69.0004 64.5616L74.9998 64.6455ZM75.0457 61.3664L75.0914 58.0874L69.0919 58.0037L69.0462 61.2827L75.0457 61.3664ZM72.0933 61.0456L74.7873 61.0441L74.7841 55.0441L72.09 55.0456L72.0933 61.0456ZM74.7872 61.0441C75.983 61.0435 76.8465 61.0413 77.4836 60.9779C78.3661 60.8901 78.9234 60.6791 79.4755 60.4199L76.9257 54.9886C76.7913 55.0517 76.8104 55.037 76.8706 55.0189C76.9444 54.9966 76.9735 54.999 76.8895 55.0074C76.6193 55.0343 76.1132 55.0434 74.7842 55.0441L74.7872 61.0441ZM79.4756 60.4198C79.9917 60.1775 80.6625 59.8288 81.2652 59.2133C81.8625 58.6034 82.2003 57.9273 82.4355 57.4089L76.9717 54.9296C76.9353 55.0098 76.9079 55.0666 76.8873 55.1071C76.8668 55.1472 76.8567 55.1641 76.856 55.1652C76.8558 55.1655 76.8665 55.1479 76.8884 55.1191C76.9109 55.0893 76.941 55.0535 76.9781 55.0156C77.0153 54.9776 77.0515 54.9458 77.0829 54.9209C77.1135 54.8967 77.1337 54.8838 77.1371 54.8816C77.1395 54.8801 77.1265 54.8884 77.0906 54.9074C77.0542 54.9266 77.0017 54.953 76.9256 54.9887L79.4756 60.4198ZM82.4355 57.4089C82.8951 56.3961 82.9248 55.462 82.959 53.1525C82.9968 50.5955 82.9983 45.7201 82.9999 36.1549L76.9999 36.1539C76.9983 45.751 76.9967 50.5635 76.9596 53.0636C76.9408 54.3393 76.9133 54.903 76.8868 55.1671C76.8752 55.2822 76.8723 55.2453 76.9007 55.1388C76.9374 55.0011 76.9872 54.8955 76.9717 54.9296L82.4355 57.4089ZM82.9999 36.1549C83.0011 29.1028 82.9907 24.2122 82.9649 21.032C82.9521 19.4444 82.9353 18.2668 82.9136 17.4538C82.9028 17.0502 82.8903 16.7132 82.8747 16.4512C82.8671 16.3221 82.8572 16.1849 82.8434 16.0544C82.837 15.9945 82.8087 15.6969 82.7123 15.3751L76.9648 17.0976C76.9132 16.9253 76.8922 16.7937 76.8875 16.7643C76.8799 16.7168 76.8769 16.6877 76.8769 16.6875C76.8768 16.6871 76.8802 16.7211 76.8852 16.8058C76.895 16.9715 76.9056 17.2333 76.9157 17.6138C76.9359 18.3692 76.9523 19.5017 76.9651 21.0806C76.9907 24.2335 77.0011 29.102 76.9999 36.1539L82.9999 36.1549ZM82.7122 15.3747C82.4683 14.5613 82.0226 13.8472 81.5934 13.3133C81.1664 12.7821 80.5609 12.1869 79.8075 11.7748L76.9283 17.0389C76.8783 17.0115 76.8477 16.9902 76.8355 16.9814C76.8228 16.9722 76.8209 16.9698 76.8285 16.9766C76.8358 16.9831 76.8484 16.995 76.8649 17.0125C76.8813 17.0298 76.899 17.0501 76.917 17.0725C76.935 17.0949 76.9514 17.117 76.9654 17.1376C76.9795 17.1584 76.9894 17.1747 76.9953 17.1852C77.0014 17.196 77.001 17.1965 76.9963 17.1858C76.9918 17.1756 76.9794 17.1463 76.965 17.0979L82.7122 15.3747ZM79.8071 11.7746C79.0228 11.3458 78.2261 11.2508 77.5656 11.1991C76.8703 11.1446 75.8476 11.1163 74.3238 11.0862L74.2053 17.085C75.7752 17.116 76.6109 17.1427 77.0972 17.1808C77.6184 17.2216 77.3265 17.2566 76.9287 17.0391L79.8071 11.7746ZM74.3238 11.0862L70.6761 11.0141L70.5575 17.0129L74.2053 17.085L74.3238 11.0862ZM73.2706 12.6145L70.994 8.29615L65.6864 11.0943L67.963 15.4126L73.2706 12.6145ZM66.4124 10.5306L61.1007 13.3209L61.1008 13.3212L66.4124 10.5306ZM31.5885 10.5358L36.901 13.3247L36.901 13.3245L31.5885 10.5358ZM33.355 7.17077L33.3545 1.17077L29.728 1.17107L28.0424 4.38203L33.355 7.17077ZM49.0005 7.16947L49.001 13.1695H49.001L49.0005 7.16947ZM64.646 7.16803L69.9577 4.3777L68.2714 1.1677L64.6454 1.16803L64.646 7.16803ZM77.3089 16.2692L74.5149 21.5789L74.5158 21.5794L77.3089 16.2692ZM77.8379 36.0542L83.8379 36.0535V36.0535L77.8379 36.0542ZM77.6015 55.62L73.1548 51.5917L73.154 51.5926L77.6015 55.62ZM20.4246 55.6451L24.4501 51.1959L24.4492 51.1951L20.4246 55.6451ZM20.7376 16.2035L22.7565 21.8536L22.757 21.8534L20.7376 16.2035ZM48.9739 16.1148L48.9763 22.1148H48.9764L48.9739 16.1148ZM25.4435 21.3027L29.1512 26.02L29.1523 26.0191L25.4435 21.3027ZM25.0636 21.6013L21.3559 16.884L19.0636 18.6857V21.6013H25.0636ZM25.0636 35.5402H19.0636V38.4558L21.3559 40.2575L25.0636 35.5402ZM25.4435 35.8389L29.1523 31.1224L29.1512 31.1215L25.4435 35.8389ZM25.8235 36.1376L22.1147 40.8541L23.747 42.1376H25.8235V36.1376ZM72.1775 36.1376V42.1376H74.254L75.8863 40.8541L72.1775 36.1376ZM72.5574 35.8389L68.8497 31.1215L68.8486 31.1224L72.5574 35.8389ZM72.9374 35.5402L76.645 40.2575L78.9374 38.4558V35.5402H72.9374ZM72.9374 21.6013H78.9374V18.6857L76.6451 16.884L72.9374 21.6013ZM72.5574 21.3027L68.8486 26.0191L68.8497 26.02L72.5574 21.3027ZM72.1775 21.0039L75.8863 16.2875L74.254 15.0039H72.1775V21.0039ZM25.8235 21.0039V15.0039H23.747L22.1147 16.2874L25.8235 21.0039ZM41.931 28.5708L46.9174 31.9078L46.9175 31.9077L41.931 28.5708ZM38.3139 33.9757V39.9757H41.5182L43.3004 37.3127L38.3139 33.9757ZM27.0823 33.9757H21.0823V39.9757H27.0823V33.9757ZM27.0823 23.1659V17.1659H21.0823V23.1659H27.0823ZM45.5479 23.1659L50.5344 26.5028L56.7826 17.1659H45.5479V23.1659ZM51.7287 28.5708L46.7486 25.2243L46.7485 25.2244L51.7287 28.5708ZM48.0969 33.9757V39.9757H51.294L53.0771 37.322L48.0969 33.9757ZM44.4817 28.4984L49.4734 31.8275L49.4735 31.8275L44.4817 28.4984ZM48.0381 23.1659V17.1659H44.8276L43.0464 19.8368L48.0381 23.1659ZM55.3606 23.1659L60.3407 26.5123L66.6212 17.1659H55.3606V23.1659ZM70.9186 33.9757V39.9757H76.9186V33.9757H70.9186ZM54.2872 28.4984L59.2789 31.8275L59.2789 31.8275L54.2872 28.4984ZM57.8436 23.1659V17.1659H54.6331L52.8518 19.8368L57.8436 23.1659ZM70.9186 23.1659H76.9186V17.1659H70.9186V23.1659ZM32.5114 40.7663L31.5971 34.8363L31.5967 34.8364L32.5114 40.7663ZM28.6238 43.7453L23.1728 41.2381L23.1726 41.2384L28.6238 43.7453ZM28.3096 45.7944L34.3096 45.8018L34.3096 45.8007L28.3096 45.7944ZM28.6825 47.9564L23.2571 50.5187L23.2575 50.5194L28.6825 47.9564ZM37.9288 47.9861L32.5464 45.3347L32.5462 45.3351L37.9288 47.9861ZM38.3987 45.7974L32.3987 45.8128L32.3987 45.8132L38.3987 45.7974ZM38.0252 43.7766L32.5893 46.3163L32.5894 46.3165L38.0252 43.7766ZM47.1585 40.7696L46.2013 34.8464L46.2007 34.8465L47.1585 40.7696ZM43.4177 43.5195L38.1099 40.7217L38.1098 40.7218L43.4177 43.5195ZM43.5108 48.2196L38.2367 51.0802L38.2367 51.0803L43.5108 48.2196ZM51.6022 49.4039L47.3606 45.1603L51.6022 49.4039ZM50.4895 41.3644L47.6751 46.6634L47.6752 46.6635L50.4895 41.3644ZM48.2074 40.6899L49.0985 34.7564L49.097 34.7562L48.2074 40.6899ZM34.405 42.9915L36.7169 37.4548L36.7168 37.4548L34.405 42.9915ZM32.0305 48.5199L34.644 43.119L34.6437 43.1189L32.0305 48.5199ZM31.975 43.164L29.2646 37.8111L29.2643 37.8113L31.975 43.164ZM48.8962 42.9204L50.5012 37.1391L50.501 37.139L48.8962 42.9204ZM50.7458 47.0195L45.3015 44.4977L45.3014 44.4979L50.7458 47.0195ZM45.7266 47.7667L50.2345 43.8071L50.2344 43.807L45.7266 47.7667ZM45.8988 43.6992L41.6538 39.4588L41.6537 39.459L45.8988 43.6992ZM60.1037 47.0916H54.1037V53.0916H60.1037V47.0916ZM68.7556 47.0916V53.0916H74.7556V47.0916H68.7556ZM68.7556 44.9296H74.7556V38.9296H68.7556V44.9296ZM60.1037 44.9296V38.9296H54.1037V44.9296H60.1037ZM36.0226 62.2254H30.0226V68.2254H36.0226V62.2254ZM38.0414 62.2254V68.2254H44.0414V62.2254H38.0414ZM38.0414 58.0456V52.0456H32.0414V58.0456H38.0414ZM43.9535 58.0456H49.9535V52.0456H43.9535V58.0456ZM43.9535 62.2254H37.9535V68.2254H43.9535V62.2254ZM46.1165 62.2254V68.2254H52.1165V62.2254H46.1165ZM46.1165 58.0456V52.0456H40.1165V58.0456H46.1165ZM51.8844 58.0456H57.8844V52.0456H51.8844V58.0456ZM51.8844 62.2254H45.8844V68.2254H51.8844V62.2254ZM54.0474 62.2254V68.2254H60.0474V62.2254H54.0474ZM54.0474 58.0456V52.0456H48.0474V58.0456H54.0474ZM59.9595 58.0456H65.9595V52.0456H59.9595V58.0456ZM59.9595 62.2254H53.9595V68.2254H59.9595V62.2254ZM61.9783 62.2254V68.2254H67.9783V62.2254H61.9783ZM61.9783 58.0456V52.0456H55.9783V58.0456H61.9783ZM69.9092 58.0456H75.9092V52.0456H69.9092V58.0456ZM69.9092 64.074L75.1816 66.9379L75.9092 65.5984V64.074H69.9092ZM67.5145 68.4825L72.7869 71.3465L72.7869 71.3464L67.5145 68.4825ZM65.1198 72.891V78.891H68.6887L70.3922 75.755L65.1198 72.891ZM32.8785 72.891L27.6025 75.7483L29.3045 78.891H32.8785V72.891ZM30.4851 68.4716L25.2091 71.3288H25.2091L30.4851 68.4716ZM28.0917 64.0521H22.0917V65.5724L22.8157 66.9093L28.0917 64.0521ZM28.0917 58.0456V52.0456H22.0917V58.0456H28.0917ZM36.0226 58.0456H42.0226V52.0456H36.0226V58.0456ZM61.1008 13.3212C61.5791 14.2314 62.0095 15.0616 62.3165 15.6626C62.4717 15.9666 62.5858 16.1933 62.6561 16.3361C62.6941 16.4133 62.7027 16.4323 62.6944 16.4144C62.694 16.4135 62.6615 16.3437 62.6192 16.2409C62.6012 16.197 62.5485 16.0676 62.4904 15.8953C62.4622 15.8116 62.4079 15.6448 62.3545 15.4294C62.3272 15.3193 62.2893 15.1532 62.2561 14.9487C62.2261 14.7636 62.1788 14.4214 62.1788 13.9893H74.1788C74.1788 13.236 74.0309 12.6587 74.002 12.5421C73.9478 12.3236 73.8924 12.153 73.8626 12.0647C73.8015 11.8832 73.7442 11.7419 73.7201 11.6833C73.6658 11.551 73.6152 11.4405 73.5912 11.3884C73.5356 11.268 73.4745 11.1422 73.4228 11.0372C73.3137 10.8155 73.1684 10.5276 73.0035 10.2047C72.6701 9.5519 72.2174 8.67914 71.724 7.74003L61.1008 13.3212ZM62.1788 13.9893C62.1788 11.2494 63.9204 9.70447 64.4747 9.2695C65.1424 8.74562 65.7624 8.49275 65.9858 8.40507C66.4972 8.20446 66.9202 8.12311 67.0174 8.10404C67.3048 8.04766 67.5309 8.02656 67.568 8.02291C67.6475 8.01511 67.7071 8.01105 67.7312 8.00947C67.76 8.00759 67.7795 8.00662 67.7857 8.00631C67.7962 8.00579 67.7584 8.00757 67.6413 8.01042C67.4235 8.01573 67.0755 8.02142 66.5947 8.0271C65.6412 8.03836 64.2487 8.04867 62.5151 8.05737C59.0518 8.07477 54.2677 8.0856 49.0005 8.0856V20.0856C54.2813 20.0856 59.0864 20.0747 62.5753 20.0572C64.3177 20.0485 65.7421 20.038 66.7364 20.0263C67.2295 20.0204 67.6382 20.0141 67.9335 20.0069C68.073 20.0035 68.2309 19.9989 68.373 19.9919C68.428 19.9892 68.5719 19.982 68.7395 19.9656C68.7933 19.9603 69.0319 19.9376 69.3277 19.8796C69.4291 19.8597 69.8553 19.7775 70.3687 19.5761C70.5932 19.488 71.2139 19.2347 71.8821 18.7104C72.437 18.275 74.1788 16.7297 74.1788 13.9893H62.1788ZM49.0005 8.0856C43.7329 8.0856 38.9484 8.07523 35.4846 8.05856C33.7508 8.05021 32.3577 8.04032 31.4034 8.0295C30.9224 8.02404 30.5732 8.01857 30.3539 8.01343C30.2364 8.01068 30.1963 8.00892 30.2039 8.00928C30.2093 8.00953 30.2275 8.01041 30.2547 8.01212C30.2774 8.01355 30.3344 8.01728 30.4106 8.02447C30.4459 8.0278 30.6637 8.04733 30.9409 8.09962C31.0336 8.11712 31.444 8.19289 31.942 8.38077C32.1563 8.46164 32.7698 8.70124 33.4367 9.20453C33.9554 9.59595 35.8221 11.1501 35.8221 13.9932H23.8221C23.8221 16.8367 25.689 18.3913 26.2082 18.7831C26.8757 19.2868 27.49 19.5268 27.7054 19.608C28.2054 19.7967 28.619 19.8733 28.7159 19.8916C29.0015 19.9454 29.2318 19.9665 29.2837 19.9714C29.4457 19.9867 29.5851 19.9934 29.6393 19.996C29.7785 20.0025 29.9341 20.0069 30.0732 20.0101C30.367 20.017 30.7745 20.0231 31.2673 20.0287C32.2609 20.04 33.6846 20.05 35.4269 20.0584C38.9152 20.0752 43.7199 20.0856 49.0005 20.0856V8.0856ZM35.8221 13.9932C35.8221 14.4413 35.7712 14.7947 35.7404 14.9796C35.7059 15.1862 35.6667 15.3535 35.639 15.4628C35.5848 15.6769 35.53 15.8424 35.5021 15.924C35.4445 16.0928 35.3923 16.2195 35.375 16.2614C35.3513 16.3185 35.3324 16.3613 35.3232 16.382C35.313 16.4051 35.3055 16.4212 35.3024 16.4279C35.2951 16.4436 35.3046 16.4229 35.3429 16.3452C35.4139 16.2012 35.5286 15.9735 35.684 15.6693C35.9915 15.0675 36.4224 14.2362 36.901 13.3247L26.2761 7.74692C25.783 8.68615 25.3307 9.55827 24.9979 10.2098C24.8332 10.5322 24.6884 10.8187 24.58 11.0385C24.5287 11.1427 24.4684 11.2664 24.4139 11.3841C24.3903 11.4349 24.3408 11.5426 24.2876 11.6713C24.2641 11.7279 24.2074 11.8664 24.1467 12.0442C24.1173 12.1302 24.0613 12.2995 24.0063 12.5166C23.9794 12.6229 23.8221 13.2176 23.8221 13.9932H35.8221ZM36.901 13.3245L38.6675 9.95952L28.0424 4.38203L26.276 7.74706L36.901 13.3245ZM33.3554 13.1708L49.001 13.1695L49 1.16947L33.3545 1.17077L33.3554 13.1708ZM49.001 13.1695L64.6465 13.168L64.6454 1.16803L48.9999 1.16947L49.001 13.1695ZM59.3343 9.95837L61.1007 13.3209L71.7241 7.74027L69.9577 4.3777L59.3343 9.95837ZM74.5158 21.5794C74.2677 21.4489 74.0694 21.3158 73.9004 21.1856C73.8104 21.1163 73.6767 21.0078 73.5197 20.8578C73.4043 20.7476 73.0748 20.4265 72.7408 19.9266L82.7188 13.2604C82.1163 12.3585 81.3903 11.8077 81.2245 11.68C80.9029 11.4322 80.5233 11.1805 80.102 10.9589L74.5158 21.5794ZM72.7408 19.9266C72.1398 19.027 71.9417 18.1737 71.9262 18.1147C71.8598 17.8605 71.825 17.6574 71.8103 17.5665C71.7787 17.3726 71.7648 17.223 71.7608 17.1799C71.7549 17.1168 71.7518 17.0699 71.7504 17.0496C71.7489 17.0264 71.7482 17.0114 71.748 17.0077C71.7479 17.006 71.75 17.0524 71.7531 17.1736C71.759 17.4025 71.7653 17.7621 71.7716 18.2548C71.7841 19.2323 71.7956 20.65 71.8053 22.4088C71.8248 25.9223 71.8373 30.7543 71.8379 36.0549L83.8379 36.0535C83.8373 30.738 83.8248 25.8833 83.8051 22.3422C83.7953 20.5737 83.7836 19.1222 83.7706 18.1014C83.7641 17.595 83.7571 17.1732 83.7491 16.865C83.7453 16.7177 83.7404 16.5566 83.7332 16.4118C83.7301 16.3495 83.7234 16.2214 83.7097 16.0738C83.7039 16.0112 83.6881 15.8463 83.6548 15.6412C83.6391 15.5448 83.6034 15.3372 83.5361 15.0796C83.5197 15.0171 83.3207 14.1613 82.7188 13.2604L72.7408 19.9266ZM71.8379 36.0549C71.839 44.955 71.8346 49.739 71.8033 52.3339C71.7872 53.6658 71.7649 54.2734 71.7465 54.5319C71.7356 54.6857 71.7395 54.5007 71.8076 54.1827C71.856 53.9562 72.1087 52.7464 73.1548 51.5917L82.0482 59.6482C83.1491 58.4329 83.4504 57.1213 83.542 56.6935C83.6531 56.1742 83.6945 55.6887 83.7162 55.3843C83.763 54.7266 83.7866 53.788 83.8024 52.4789C83.8349 49.7916 83.839 44.914 83.8379 36.0535L71.8379 36.0549ZM73.154 51.5926C74.232 50.4022 75.4771 49.9984 76.0562 49.8626C76.4642 49.7669 76.7151 49.7658 76.4825 49.781C76.1186 49.8048 75.2775 49.8298 73.3981 49.8472C69.7271 49.881 62.6787 49.8836 49.0256 49.8836V61.8836C62.642 61.8836 69.7667 61.8812 73.5088 61.8467C75.336 61.8298 76.5115 61.8048 77.2662 61.7554C77.5929 61.734 78.1786 61.6904 78.796 61.5457C79.5845 61.3607 80.9136 60.9012 82.049 59.6474L73.154 51.5926ZM49.0256 49.8836C35.9288 49.8836 28.8716 49.879 25.0542 49.8471C23.1187 49.831 22.1238 49.8083 21.6186 49.7828C21.3368 49.7686 21.3985 49.7618 21.6017 49.7945C21.7049 49.8111 22.0249 49.8651 22.4377 50.0061C22.8418 50.1441 23.6458 50.4682 24.4501 51.1959L16.399 60.0942C17.874 61.4287 19.5844 61.6243 19.6986 61.6426C20.1705 61.7184 20.6478 61.7491 21.0146 61.7676C21.8065 61.8075 23.0405 61.8307 24.9541 61.8467C28.8349 61.8791 35.9565 61.8836 49.0256 61.8836V49.8836ZM24.4492 51.1951C26.33 52.8961 26.3079 55.1618 26.2512 54.5474C26.2396 54.4216 26.2148 53.9512 26.1972 52.6472C26.1636 50.1527 26.1608 45.3717 26.1608 36.0708H14.1608C14.1608 45.3189 14.1633 50.2106 14.1983 52.8088C14.2151 54.0511 14.2404 54.982 14.3019 55.6496C14.3184 55.8285 14.3926 58.2795 16.3999 60.095L24.4492 51.1951ZM26.1608 36.0708C26.1608 25.9264 26.1581 21.1456 26.2251 18.8368C26.2657 17.439 26.3299 17.62 26.1854 18.148C26.0722 18.5615 25.6628 19.8485 24.3567 20.9238C23.3606 21.7438 21.9041 22.1582 22.7565 21.8536L18.7187 10.5533C19.4234 10.3015 17.838 10.7469 16.7296 11.6594C15.3112 12.8272 14.8059 14.2681 14.611 14.9804C14.3029 16.106 14.2599 17.4639 14.2301 18.4886C14.1565 21.025 14.1608 26.0723 14.1608 36.0708H26.1608ZM22.757 21.8534C22.3407 22.0022 22.0015 22.0698 21.892 22.0913C21.7384 22.1213 21.6145 22.1392 21.5444 22.1487C21.4038 22.1676 21.2942 22.1771 21.2499 22.1808C21.1525 22.1889 21.081 22.1922 21.0684 22.1928C21.0307 22.1946 21.0192 22.1946 21.0576 22.1936C21.1238 22.1919 21.2448 22.1897 21.4327 22.1872C21.8017 22.1823 22.3523 22.1773 23.0732 22.1724C24.5111 22.1627 26.5836 22.1535 29.1401 22.1455C34.2509 22.1294 41.2746 22.1179 48.9763 22.1148L48.9715 10.1148C41.2622 10.1179 34.2272 10.1295 29.1024 10.1456C26.541 10.1536 24.4515 10.1628 22.9919 10.1727C22.264 10.1776 21.6821 10.1828 21.2731 10.1882C21.0721 10.1909 20.8929 10.1939 20.7524 10.1975C20.6875 10.1991 20.596 10.2017 20.5022 10.2062C20.4617 10.2081 20.3682 10.2127 20.2548 10.2221C20.2026 10.2265 20.0865 10.2367 19.941 10.2563C19.8684 10.2661 19.7424 10.2843 19.5872 10.3147C19.4759 10.3364 19.1355 10.4044 18.7183 10.5535L22.757 21.8534ZM48.9764 22.1148C59.4037 22.1106 66.4125 22.1183 70.8406 22.1425C73.0595 22.1545 74.6024 22.1706 75.5942 22.1906C76.0977 22.2008 76.4118 22.211 76.5842 22.2195C76.6799 22.2242 76.6642 22.2252 76.5875 22.2176C76.5563 22.2145 76.422 22.2011 76.2378 22.1691C76.1463 22.1532 75.9721 22.1207 75.7543 22.0629C75.6028 22.0227 75.102 21.8879 74.5149 21.5789L80.1029 10.9594C79.5085 10.6466 78.9969 10.508 78.8312 10.464C78.5991 10.4025 78.4073 10.3663 78.2946 10.3467C78.0679 10.3072 77.877 10.2866 77.7747 10.2765C77.556 10.2547 77.3401 10.2422 77.1745 10.234C76.8242 10.2168 76.3707 10.2038 75.8359 10.193C74.7512 10.1712 73.1349 10.1548 70.906 10.1426C66.4384 10.1183 59.397 10.1106 48.9715 10.1148L48.9764 22.1148ZM21.7358 16.5854L21.3559 16.884L28.7712 26.3186L29.1512 26.02L21.7358 16.5854ZM19.0636 21.6013V28.5708H31.0636V21.6013H19.0636ZM19.0636 28.5708V35.5402H31.0636V28.5708H19.0636ZM21.3559 40.2575L21.7358 40.5562L29.1512 31.1215L28.7712 30.8229L21.3559 40.2575ZM21.7347 40.5553L22.1147 40.8541L29.5323 31.4212L29.1523 31.1224L21.7347 40.5553ZM25.8235 42.1376H49.0005V30.1376H25.8235V42.1376ZM49.0005 42.1376H72.1775V30.1376H49.0005V42.1376ZM75.8863 40.8541L76.2662 40.5553L68.8486 31.1224L68.4686 31.4212L75.8863 40.8541ZM76.2651 40.5562L76.645 40.2575L69.2297 30.8229L68.8497 31.1215L76.2651 40.5562ZM78.9374 35.5402V28.5708H66.9374V35.5402H78.9374ZM78.9374 28.5708V21.6013H66.9374V28.5708H78.9374ZM76.6451 16.884L76.2651 16.5854L68.8497 26.02L69.2297 26.3186L76.6451 16.884ZM76.2662 16.5862L75.8863 16.2875L68.4687 25.7203L68.8486 26.0191L76.2662 16.5862ZM72.1775 15.0039H49.0005V27.0039H72.1775V15.0039ZM49.0005 15.0039H25.8235V27.0039H49.0005V15.0039ZM22.1147 16.2874L21.7347 16.5862L29.1523 26.0191L29.5323 25.7203L22.1147 16.2874ZM36.9446 25.2338L33.3275 30.6387L43.3004 37.3127L46.9174 31.9078L36.9446 25.2338ZM38.3139 27.9757H32.6981V39.9757H38.3139V27.9757ZM32.6981 27.9757H27.0823V39.9757H32.6981V27.9757ZM33.0823 33.9757V28.5708H21.0823V33.9757H33.0823ZM33.0823 28.5708V23.1659H21.0823V28.5708H33.0823ZM27.0823 29.1659H36.3151V17.1659H27.0823V29.1659ZM36.3151 29.1659H45.5479V17.1659H36.3151V29.1659ZM40.5614 19.8289L36.9445 25.2339L46.9175 31.9077L50.5344 26.5028L40.5614 19.8289ZM46.7485 25.2244L43.1168 30.6293L53.0771 37.322L56.7088 31.9171L46.7485 25.2244ZM48.0969 27.9757H44.5111V39.9757H48.0969V27.9757ZM44.5111 27.9757C43.5524 27.9757 42.6981 27.9677 42.0997 27.9556C41.7924 27.9494 41.5931 27.9429 41.4929 27.9382C41.4267 27.935 41.4772 27.936 41.5833 27.9464C41.6062 27.9487 41.8222 27.9684 42.104 28.0239C42.1983 28.0425 42.6205 28.1239 43.1321 28.3257C43.3561 28.4141 43.9761 28.6686 44.6434 29.1951C45.2018 29.6357 46.9254 31.1786 46.9254 33.9033H34.9254C34.9254 36.6293 36.6497 38.1734 37.2097 38.6153C37.8785 39.1431 38.5009 39.3987 38.728 39.4883C39.2458 39.6926 39.6773 39.7765 39.7839 39.7975C40.0903 39.8579 40.343 39.8824 40.4138 39.8893C40.6158 39.9091 40.8078 39.9192 40.9237 39.9247C41.1877 39.9372 41.515 39.9463 41.8576 39.9532C42.5591 39.9674 43.4977 39.9757 44.5111 39.9757V27.9757ZM46.9254 33.9033C46.9254 34.4783 46.8417 34.9285 46.7931 35.1561C46.7383 35.4126 46.6767 35.618 46.6343 35.749C46.5511 36.006 46.468 36.2024 46.4271 36.2963C46.3415 36.4927 46.2643 36.6401 46.2379 36.6903C46.1749 36.8097 46.1233 36.8969 46.114 36.9128C46.0845 36.9629 46.0685 36.9878 46.0843 36.9625C46.1081 36.9245 46.1592 36.8442 46.2452 36.7112C46.4125 36.4524 46.6631 36.069 46.9823 35.5838C47.6182 34.6173 48.5002 33.2868 49.4734 31.8275L39.49 25.1693C38.5072 26.6429 37.611 27.995 36.9577 28.9878C36.6324 29.4823 36.3607 29.8977 36.1667 30.1978C36.0721 30.3442 35.9829 30.4834 35.9116 30.5974C35.8798 30.6482 35.8275 30.7323 35.7736 30.8237C35.7521 30.8604 35.6913 30.9639 35.6222 31.095C35.5926 31.1511 35.5131 31.3032 35.426 31.5031C35.3843 31.5988 35.3006 31.7967 35.217 32.0549C35.1813 32.1653 34.9254 32.9137 34.9254 33.9033H46.9254ZM49.4735 31.8275L53.0298 26.4949L43.0464 19.8368L39.49 25.1694L49.4735 31.8275ZM48.0381 29.1659H51.6993V17.1659H48.0381V29.1659ZM51.6993 29.1659H55.3606V17.1659H51.6993V29.1659ZM50.3805 19.8194L46.7486 25.2243L56.7088 31.9172L60.3407 26.5123L50.3805 19.8194ZM64.9186 28.5708V33.9757H76.9186V28.5708H64.9186ZM70.9186 27.9757H60.8247V39.9757H70.9186V27.9757ZM60.8247 27.9757C58.0586 27.9757 55.5501 27.9676 53.7389 27.9546C52.8304 27.9481 52.1119 27.9404 51.6285 27.9323C51.381 27.9281 51.2252 27.9243 51.1455 27.9215C51.094 27.9197 51.1281 27.9202 51.2022 27.9253C51.2169 27.9264 51.3725 27.9365 51.5768 27.9651C51.6398 27.9739 51.9581 28.017 52.3537 28.1279C52.505 28.1703 53.044 28.3221 53.6657 28.6705C53.973 28.8428 54.598 29.2253 55.2086 29.9099C55.8509 30.6299 56.7308 31.9912 56.7308 33.9033H44.7308C44.7308 35.8157 45.6109 37.1774 46.2535 37.8977C46.8644 38.5826 47.4898 38.9654 47.7977 39.138C48.4204 39.4871 48.9611 39.6395 49.1146 39.6825C49.5146 39.7946 49.8395 39.8389 49.9113 39.849C50.1331 39.8801 50.3149 39.8926 50.3642 39.896C50.5076 39.9061 50.6447 39.9113 50.7283 39.9142C50.9186 39.9208 51.1611 39.9261 51.4261 39.9306C51.9678 39.9397 52.7319 39.9477 53.6529 39.9543C55.5007 39.9675 58.0392 39.9757 60.8247 39.9757V27.9757ZM56.7308 33.9033C56.7308 34.4783 56.6472 34.9285 56.5985 35.1561C56.5438 35.4126 56.4822 35.618 56.4398 35.749C56.3566 36.006 56.2735 36.2024 56.2326 36.2963C56.147 36.4927 56.0698 36.6401 56.0434 36.6903C55.9804 36.8097 55.9288 36.8969 55.9195 36.9128C55.89 36.9629 55.874 36.9878 55.8898 36.9625C55.9136 36.9245 55.9647 36.8442 56.0507 36.7112C56.218 36.4524 56.4686 36.069 56.7878 35.5838C57.4237 34.6173 58.3056 33.2868 59.2789 31.8275L49.2955 25.1693C48.3127 26.6429 47.4165 27.995 46.7632 28.9878C46.4379 29.4823 46.1661 29.8977 45.9722 30.1978C45.8776 30.3442 45.7884 30.4834 45.717 30.5974C45.6853 30.6482 45.633 30.7322 45.5791 30.8237C45.5576 30.8604 45.4968 30.9639 45.4276 31.095C45.3981 31.1511 45.3186 31.3032 45.2314 31.5031C45.1897 31.5988 45.106 31.7967 45.0225 32.0549C44.9868 32.1653 44.7308 32.9137 44.7308 33.9033H56.7308ZM59.2789 31.8275L62.8353 26.4949L52.8518 19.8368L49.2955 25.1694L59.2789 31.8275ZM57.8436 29.1659H64.3811V17.1659H57.8436V29.1659ZM64.3811 29.1659H70.9186V17.1659H64.3811V29.1659ZM64.9186 23.1659V28.5708H76.9186V23.1659H64.9186ZM31.5967 34.8364C27.9752 35.395 24.666 37.9916 23.1728 41.2381L34.0748 46.2525C34 46.4152 33.9331 46.5004 33.9119 46.5258C33.8989 46.5414 33.8909 46.5494 33.8884 46.5518C33.8869 46.5532 33.886 46.5539 33.8858 46.5541C33.8856 46.5543 33.8856 46.5543 33.8855 46.5544C33.8854 46.5544 33.8849 46.5548 33.8837 46.5556C33.8825 46.5565 33.8801 46.5581 33.8763 46.5604C33.8692 46.5646 33.853 46.574 33.8254 46.5865C33.7782 46.608 33.6468 46.6621 33.4261 46.6961L31.5967 34.8364ZM23.1726 41.2384C22.3749 42.9731 22.311 44.4264 22.3096 45.7881L34.3096 45.8007C34.3098 45.5737 34.3134 45.4493 34.3166 45.3841C34.3197 45.3222 34.3201 45.366 34.3038 45.4723C34.2853 45.5931 34.252 45.7511 34.1974 45.9264C34.1445 46.0959 34.0929 46.2133 34.075 46.2522L23.1726 41.2384ZM22.3096 45.7871C22.3089 46.3571 22.3107 47.203 22.4622 48.0814C22.6462 49.1475 22.988 49.9488 23.2571 50.5187L34.1078 45.3941C34.0684 45.3105 34.1017 45.3729 34.1489 45.5072C34.1744 45.5799 34.2019 45.6669 34.2276 45.7653C34.2533 45.8638 34.273 45.9569 34.2875 46.041C34.3156 46.2038 34.3175 46.2941 34.3152 46.247C34.3125 46.1904 34.3093 46.0667 34.3096 45.8018L22.3096 45.7871ZM23.2575 50.5194C27.2865 59.0475 39.2152 58.9541 43.3114 50.6371L32.5462 45.3351C32.5829 45.2606 32.6863 45.124 32.8609 45.0199C33.0148 44.9281 33.1668 44.8948 33.2977 44.8952C33.4287 44.8956 33.5909 44.9301 33.7593 45.0328C33.9493 45.1486 34.0644 45.3021 34.1075 45.3934L23.2575 50.5194ZM43.3112 50.6375C43.5387 50.1757 43.9566 49.3285 44.19 48.2414C44.4074 47.2293 44.4 46.2944 44.3987 45.7817L32.3987 45.8132C32.399 45.9313 32.3986 46.0126 32.3976 46.0718C32.3966 46.1307 32.3954 46.149 32.3958 46.1408C32.3972 46.1163 32.4077 45.9537 32.4575 45.722C32.4818 45.6088 32.5106 45.5017 32.5412 45.4043C32.5712 45.3092 32.5982 45.2381 32.6144 45.1978C32.6296 45.16 32.6357 45.1483 32.6235 45.1747C32.6109 45.2021 32.5879 45.2504 32.5464 45.3347L43.3112 50.6375ZM44.3987 45.7821C44.3973 45.2183 44.3845 44.4219 44.2257 43.5621C44.0447 42.5829 43.7342 41.8211 43.4611 41.2367L32.5894 46.3165C32.6155 46.3724 32.5872 46.3177 32.5462 46.2C32.499 46.0645 32.4557 45.9064 32.4254 45.7426C32.3976 45.5922 32.3926 45.5 32.3932 45.5097C32.3944 45.5296 32.3982 45.6114 32.3987 45.8128L44.3987 45.7821ZM43.4612 41.2368C41.3503 36.7188 36.6516 34.0571 31.5971 34.8363L33.4256 46.6962C33.3055 46.7147 33.0948 46.6984 32.8828 46.5827C32.6752 46.4693 32.5973 46.3336 32.5893 46.3163L43.4612 41.2368ZM46.2007 34.8465C42.681 35.4157 39.7146 37.6773 38.1099 40.7217L48.7254 46.3173C48.6844 46.3951 48.626 46.4648 48.5447 46.5246C48.4636 46.5842 48.3243 46.659 48.1163 46.6926L46.2007 34.8465ZM38.1098 40.7218C37.8432 41.2276 37.3907 42.1145 37.1713 43.3577C37.0081 44.2826 37.0162 45.2309 37.0162 45.7944H49.0162C49.0162 45.4543 49.0189 45.2902 49.0226 45.1994C49.0261 45.1147 49.026 45.2319 48.9887 45.4432C48.9687 45.5567 48.9401 45.6857 48.9006 45.8245C48.8611 45.9632 48.8183 46.0846 48.7789 46.184C48.7411 46.2793 48.7108 46.3434 48.701 46.3638C48.6928 46.3809 48.6962 46.3727 48.7255 46.3171L38.1098 40.7218ZM37.0162 45.7944C37.0162 46.3033 36.9946 47.3815 37.2068 48.4223C37.474 49.732 38.0361 50.7104 38.2367 51.0802L48.785 45.3589C48.7291 45.256 48.7029 45.2064 48.6883 45.178C48.675 45.1522 48.6916 45.1828 48.7205 45.2482C48.7519 45.3191 48.7983 45.4318 48.846 45.5769C48.8948 45.7253 48.9346 45.8762 48.9648 46.0241C49.0221 46.3054 49.0245 46.4826 49.0218 46.4158C49.0206 46.3868 49.0189 46.3273 49.0177 46.2168C49.0166 46.1067 49.0162 45.9728 49.0162 45.7944H37.0162ZM38.2367 51.0803C41.7876 57.6268 50.5609 58.928 55.8439 53.6475L47.3606 45.1603C47.5324 44.9885 47.8365 44.8828 48.1287 44.9256C48.4202 44.9682 48.6741 45.1545 48.785 45.3589L38.2367 51.0803ZM55.8439 53.6475C61.0045 48.4893 59.9592 39.6 53.3037 36.0654L47.6752 46.6635C47.3303 46.4803 47.1529 46.1438 47.1182 45.893C47.0841 45.6467 47.1644 45.3563 47.3606 45.1603L55.8439 53.6475ZM53.3038 36.0654C52.7681 35.7809 52.0974 35.4519 51.2215 35.193C50.4573 34.9672 49.7073 34.8479 49.0985 34.7564L47.3162 46.6233C47.5891 46.6643 47.7405 46.6901 47.8319 46.7077C47.9145 46.7236 47.8941 46.7228 47.8203 46.7009C47.7825 46.6898 47.7395 46.6757 47.694 46.6591C47.6488 46.6425 47.6122 46.6274 47.5872 46.6165C47.5447 46.5979 47.5549 46.5996 47.6751 46.6634L53.3038 36.0654ZM49.097 34.7562C48.2578 34.6304 47.4601 34.7025 47.3256 34.7127C46.9686 34.7398 46.5784 34.7855 46.2013 34.8464L48.1156 46.6927C48.1569 46.6861 48.2118 46.68 48.235 46.6782C48.2465 46.6773 48.2062 46.6809 48.1237 46.6821C48.0817 46.6828 48.001 46.6832 47.8927 46.6789C47.8017 46.6752 47.5913 46.6646 47.3177 46.6236L49.097 34.7562ZM32.0932 48.5282C31.0939 48.111 30.311 47.0961 30.311 45.7944H42.311C42.311 42.0727 40.0143 38.8316 36.7169 37.4548L32.0932 48.5282ZM30.311 45.7944C30.311 43.6717 32.528 42.0951 34.644 43.119L29.417 53.9208C35.4575 56.8438 42.311 52.3149 42.311 45.7944H30.311ZM34.6437 43.1189C36.824 44.1738 36.891 47.4 34.6857 48.5168L29.2643 37.8113C22.5672 41.2027 22.6988 50.6704 29.4173 53.921L34.6437 43.1189ZM34.6853 48.517C34.6139 48.5531 34.2436 48.7278 33.6512 48.7699C33.0153 48.815 32.4658 48.6838 32.0932 48.5283L36.7168 37.4548C34.0359 36.3354 31.4406 36.7093 29.2646 37.8111L34.6853 48.517ZM47.2912 48.7018C46.1314 48.3798 45.5077 47.5962 45.2463 47.017C44.9837 46.435 44.8332 45.5088 45.3015 44.4977L56.1902 49.5413C58.4304 44.7049 55.8306 38.6186 50.5012 37.1391L47.2912 48.7018ZM45.3014 44.4979C46.161 42.642 48.7937 42.1668 50.2345 43.8071L41.2187 51.7263C45.585 56.6972 53.4572 55.442 56.1902 49.5411L45.3014 44.4979ZM50.2344 43.807C50.7055 44.3433 51.0127 45.1183 50.9766 45.9698C50.9409 46.8139 50.5802 47.5026 50.1438 47.9394L41.6537 39.459C38.3415 42.775 38.0006 48.0629 41.2188 51.7265L50.2344 43.807ZM50.1437 47.9396C49.9278 48.1557 49.475 48.5015 48.7864 48.6804C48.1019 48.8582 47.5546 48.7749 47.2914 48.7019L50.501 37.139C49.0773 36.7438 47.4519 36.6288 45.7692 37.0659C44.0824 37.5041 42.7112 38.4004 41.6538 39.4588L50.1437 47.9396ZM54.1037 46.0106V47.0916H66.1037V46.0106H54.1037ZM60.1037 53.0916H64.4297V41.0916H60.1037V53.0916ZM64.4297 53.0916H68.7556V41.0916H64.4297V53.0916ZM74.7556 47.0916V46.0106H62.7556V47.0916H74.7556ZM74.7556 46.0106V44.9296H62.7556V46.0106H74.7556ZM68.7556 38.9296H64.4297V50.9296H68.7556V38.9296ZM64.4297 38.9296H60.1037V50.9296H64.4297V38.9296ZM54.1037 44.9296V46.0106H66.1037V44.9296H54.1037ZM30.0226 60.1355V62.2254H42.0226V60.1355H30.0226ZM36.0226 68.2254H37.032V56.2254H36.0226V68.2254ZM37.032 68.2254H38.0414V56.2254H37.032V68.2254ZM44.0414 62.2254V60.1355H32.0414V62.2254H44.0414ZM44.0414 60.1355V58.0456H32.0414V60.1355H44.0414ZM38.0414 64.0456H40.9975V52.0456H38.0414V64.0456ZM40.9975 64.0456H43.9535V52.0456H40.9975V64.0456ZM37.9535 58.0456V60.1355H49.9535V58.0456H37.9535ZM37.9535 60.1355V62.2254H49.9535V60.1355H37.9535ZM43.9535 68.2254H45.035V56.2254H43.9535V68.2254ZM45.035 68.2254H46.1165V56.2254H45.035V68.2254ZM52.1165 62.2254V60.1355H40.1165V62.2254H52.1165ZM52.1165 60.1355V58.0456H40.1165V60.1355H52.1165ZM46.1165 64.0456H49.0005V52.0456H46.1165V64.0456ZM49.0005 64.0456H51.8844V52.0456H49.0005V64.0456ZM45.8844 58.0456V60.1355H57.8844V58.0456H45.8844ZM45.8844 60.1355V62.2254H57.8844V60.1355H45.8844ZM51.8844 68.2254H52.9659V56.2254H51.8844V68.2254ZM52.9659 68.2254H54.0474V56.2254H52.9659V68.2254ZM60.0474 62.2254V60.1355H48.0474V62.2254H60.0474ZM60.0474 60.1355V58.0456H48.0474V60.1355H60.0474ZM54.0474 64.0456H57.0035V52.0456H54.0474V64.0456ZM57.0035 64.0456H59.9595V52.0456H57.0035V64.0456ZM53.9595 58.0456V60.1355H65.9595V58.0456H53.9595ZM53.9595 60.1355V62.2254H65.9595V60.1355H53.9595ZM59.9595 68.2254H60.9689V56.2254H59.9595V68.2254ZM60.9689 68.2254H61.9783V56.2254H60.9689V68.2254ZM67.9783 62.2254V60.1355H55.9783V62.2254H67.9783ZM67.9783 60.1355V58.0456H55.9783V60.1355H67.9783ZM61.9783 64.0456H65.9438V52.0456H61.9783V64.0456ZM65.9438 64.0456H69.9092V52.0456H65.9438V64.0456ZM63.9092 58.0456V61.0598H75.9092V58.0456H63.9092ZM63.9092 61.0598V64.074H75.9092V61.0598H63.9092ZM64.6368 61.21L62.2421 65.6186L72.7869 71.3464L75.1816 66.9379L64.6368 61.21ZM62.2421 65.6186L59.8474 70.0271L70.3922 75.755L72.7869 71.3465L62.2421 65.6186ZM65.1198 66.891H48.9992V78.891H65.1198V66.891ZM48.9992 66.891H32.8785V78.891H48.9992V66.891ZM38.1545 70.0338L35.7611 65.6143L25.2091 71.3288L27.6025 75.7483L38.1545 70.0338ZM35.7611 65.6143L33.3677 61.1948L22.8157 66.9093L25.2091 71.3288L35.7611 65.6143ZM34.0917 64.0521V61.0488H22.0917V64.0521H34.0917ZM34.0917 61.0488V58.0456H22.0917V61.0488H34.0917ZM28.0917 64.0456H32.0572V52.0456H28.0917V64.0456ZM32.0572 64.0456H36.0226V52.0456H32.0572V64.0456ZM30.0226 58.0456V60.1355H42.0226V58.0456H30.0226Z" fill="white" mask="url(#path-2-outside-1_722_49596)"/>
<path fill-rule="evenodd" clip-rule="evenodd" d="M32.3637 5.19321C32.0178 5.3408 31.5731 6.08293 29.6692 9.69068L27.3892 14.0114L23.7389 14.0835C19.6984 14.1632 19.5989 14.1845 18.7481 15.1532C18.5027 15.4326 18.2339 15.906 18.1507 16.2055C18.0486 16.5731 17.9997 23.0487 18 36.1355L18.0007 55.5212L18.3393 56.2418C18.7376 57.0893 19.0026 57.3486 19.875 57.7441C20.4499 58.0047 20.8189 58.0375 23.2152 58.0403L25.9093 58.0435L25.955 61.3224L26.0008 64.6014L28.7147 69.6007C30.2072 72.3503 31.5313 74.6853 31.6569 74.7895C31.9965 75.0712 66.0063 75.0696 66.3459 74.7879C66.4725 74.6828 67.7966 72.3479 69.2881 69.5992L72.0001 64.6014L72.0459 61.3224L72.0917 58.0435L74.7857 58.042C77.3105 58.0407 77.5249 58.0194 78.2006 57.7022C79.0485 57.3041 79.3079 57.0392 79.7036 56.1672C79.9936 55.5281 79.9967 55.3146 79.9999 36.1523C80.0022 22.0483 79.9584 16.634 79.8386 16.2342C79.636 15.5585 78.9758 14.7373 78.3679 14.4048C77.9814 14.1935 77.3582 14.1446 74.2646 14.0835L70.6168 14.0114L68.3402 9.69313C66.4236 6.05814 65.9968 5.34657 65.6431 5.19552C65.0355 4.93637 32.9708 4.93406 32.3637 5.19321ZM66.4124 10.5285C67.384 12.3779 68.1788 13.9343 68.1788 13.9872C68.1788 14.0401 59.5486 14.0835 49.0005 14.0835C38.4524 14.0835 29.8221 14.042 29.8221 13.9911C29.8221 13.9404 30.6169 12.3845 31.5885 10.5337L33.355 7.16867L49.0005 7.16737L64.646 7.16593L66.4124 10.5285ZM77.3089 16.2671C77.4821 16.3582 77.6715 16.5042 77.7298 16.5914C77.7881 16.6786 77.8367 25.436 77.8379 36.0521C77.84 53.8126 77.8211 55.3754 77.6015 55.6179C77.3718 55.8715 76.2952 55.8815 49.0256 55.8815C22.8598 55.8815 20.668 55.8632 20.4246 55.643C20.1715 55.4141 20.1608 54.6177 20.1608 36.0687C20.1608 15.9258 20.1467 16.4125 20.7376 16.2014C20.8566 16.1588 33.5629 16.1189 48.9739 16.1127C69.8267 16.1042 77.0744 16.1437 77.3089 16.2671ZM25.4435 21.3006L25.0636 21.5992V28.5687V35.5381L25.4435 35.8368L25.8235 36.1355H49.0005H72.1775L72.5574 35.8368L72.9374 35.5381V28.5687V21.5992L72.5574 21.3006L72.1775 21.0018H49.0005H25.8235L25.4435 21.3006ZM41.931 28.5687L38.3139 33.9736H32.6981H27.0823V28.5687V23.1638H36.3151H45.5479L41.931 28.5687ZM51.7287 28.5687L48.0969 33.9736H44.5111C42.5389 33.9736 40.9254 33.941 40.9254 33.9012C40.9254 33.8614 42.5257 31.4292 44.4817 28.4963L48.0381 23.1638H51.6993H55.3606L51.7287 28.5687ZM70.9186 28.5687V33.9736H60.8247C55.2731 33.9736 50.7308 33.941 50.7308 33.9012C50.7308 33.8614 52.3312 31.4292 54.2872 28.4963L57.8436 23.1638H64.3811H70.9186V28.5687ZM32.5114 40.7642C30.9473 41.0054 29.3038 42.2647 28.6238 43.7432C28.3732 44.2882 28.3108 44.6949 28.3096 45.7923C28.3082 46.9689 28.3608 47.2731 28.6825 47.9543C30.5272 51.8589 36.0117 51.8765 37.9288 47.984C38.3526 47.1237 38.4016 46.8955 38.3987 45.7953C38.3961 44.7827 38.3307 44.4281 38.0252 43.7745C37.003 41.5866 34.8392 40.4053 32.5114 40.7642ZM47.1585 40.7675C45.5942 41.0204 44.1896 42.053 43.4177 43.5174C43.0524 44.2103 43.0162 44.4153 43.0162 45.7923C43.0162 47.2427 43.0369 47.3436 43.5108 48.2175C45.1558 51.2503 49.1657 51.8372 51.6022 49.4018C54.0141 46.9911 53.4527 42.9361 50.4895 41.3623C49.747 40.968 49.4098 40.8684 48.2074 40.6878C48.0488 40.664 47.5768 40.6999 47.1585 40.7675ZM34.405 42.9894C35.5541 43.4692 36.311 44.5823 36.311 45.7923C36.311 47.9912 33.9927 49.4674 32.0305 48.5178C29.7614 47.42 29.7291 44.2993 31.975 43.1619C32.864 42.7118 33.6128 42.6586 34.405 42.9894ZM48.8962 42.9183C50.5487 43.3771 51.4781 45.4366 50.7458 47.0174C49.8091 49.0399 47.1893 49.4299 45.7266 47.7646C44.669 46.5607 44.7411 44.856 45.8988 43.6971C46.7402 42.8548 47.7357 42.5962 48.8962 42.9183ZM60.1037 46.0085V47.0895H64.4297H68.7556V46.0085V44.9275H64.4297H60.1037V46.0085ZM36.0226 60.1334V62.2233H37.032H38.0414V60.1334V58.0435H40.9975H43.9535V60.1334V62.2233H45.035H46.1165V60.1334V58.0435H49.0005H51.8844V60.1334V62.2233H52.9659H54.0474V60.1334V58.0435H57.0035H59.9595V60.1334V62.2233H60.9689H61.9783V60.1334V58.0435H65.9438H69.9092V61.0577V64.0719L67.5145 68.4804L65.1198 72.8889H48.9992H32.8785L30.4851 68.4695L28.0917 64.05V61.0467V58.0435H32.0572H36.0226V60.1334Z" fill="#F45B69"/>
<path d="M58.7124 52.8767L42.1889 69.4337C39.5034 74.4306 45.3593 77.4138 47.933 75.3256L64.643 58.7686C76.3102 61.4237 79.0405 50.1545 76.7652 46.0525L70.499 52.3546L66.135 51.4223L65.1652 46.9102L71.3569 40.6827C61.9948 37.3638 56.3626 46.9102 58.7124 52.8767Z" fill="white" stroke="white" stroke-width="8" stroke-linejoin="round"/>
<path d="M58.7124 52.8767L42.1889 69.4337C39.5034 74.4306 45.3593 77.4138 47.933 75.3256L64.643 58.7686C76.3102 61.4237 79.0405 50.1545 76.7652 46.0525L70.499 52.3546L66.135 51.4223L65.1652 46.9102L71.3569 40.6827C61.9948 37.3638 56.3626 46.9102 58.7124 52.8767Z" fill="white" stroke="#2FC6E7" stroke-width="3" stroke-linejoin="round"/>
</g>
<defs>
<clipPath id="clip0_722_49596">
<rect width="80" height="80" fill="white"/>
</clipPath>
</defs>
</svg>
