<svg width="80" height="80" viewBox="0 0 80 80" fill="none" xmlns="http://www.w3.org/2000/svg">
<path fill-rule="evenodd" clip-rule="evenodd" d="M21.1406 4.69891L20.7289 5.02266V7.98016V10.9375H18.8627C17.1153 10.9375 16.9685 10.9616 16.558 11.3144L16.1196 11.6914L16.0744 16.7508L16.0294 21.8103L14.6424 23.1873C11.5563 26.2513 9.45377 30.05 8.41596 34.438C8.0444 36.0084 8.00518 36.4738 8.00018 39.375C7.99393 42.9406 8.14752 43.9917 9.08815 46.8194C10.1969 50.1522 12.0342 53.1547 14.518 55.6927L16.0414 57.2492V62.4577C16.0414 68.103 16.1111 68.6508 16.8514 68.8231C17.0505 68.8694 17.9867 68.9247 18.9321 68.9458L20.6508 68.9844L20.7289 71.9531C20.7719 73.5859 20.8597 75.0028 20.9239 75.1019C21.1588 75.4633 21.8958 75.6005 22.4196 75.3803C22.6928 75.2653 22.9302 75.1503 22.9469 75.1247C22.9638 75.0991 23.0164 73.707 23.0641 72.0313L23.1508 68.9844L27.1742 68.9427L31.1977 68.9009V71.7855C31.1977 74.5852 31.2085 74.6827 31.5636 75.0955C32.0656 75.6791 32.8297 75.6791 33.3317 75.0955C33.6869 74.6827 33.6977 74.585 33.6977 71.7881V68.9063H35.3991C37.9555 68.9063 37.8269 69.1095 37.8857 64.9706L37.9331 61.6319L38.9794 61.2591C45.4355 58.9586 50.7925 53.4395 52.9947 46.8194C53.9353 43.9917 54.0889 42.9406 54.0827 39.375C54.0777 36.4738 54.0385 36.0084 53.6669 34.438C52.37 28.9552 49.2594 24.1817 44.8285 20.8744C43.3486 19.7698 40.8511 18.4156 39.0492 17.7406L37.9164 17.3164V14.6813C37.9164 13.0827 37.8482 11.8961 37.743 11.6652C37.4808 11.0898 36.9594 10.9375 35.2528 10.9375H33.6977V8.21047C33.6977 5.24234 33.6064 4.81703 32.9077 4.52766C32.3906 4.31344 31.9277 4.43156 31.5049 4.88547C31.2227 5.18844 31.1977 5.4475 31.1977 8.07641V10.9375H27.1352H23.0727V7.98016V5.02266L22.661 4.69891C22.4346 4.52078 22.0925 4.375 21.9008 4.375C21.7091 4.375 21.3671 4.52078 21.1406 4.69891ZM35.4164 15.095V16.7527L35.0447 16.6594C34.8403 16.608 33.8296 16.4928 32.7985 16.4033C28.583 16.0372 24.2438 16.9363 20.2727 18.9983C19.3771 19.4633 18.6213 19.8438 18.593 19.8438C18.5646 19.8438 18.5414 18.4023 18.5414 16.6406V13.4375H26.9789H35.4164V15.095ZM34.7852 19.1488C39.878 20.1148 44.4491 22.9333 47.5416 27.0141C48.9908 28.9263 50.4557 31.9581 51.0605 34.2969C51.6922 36.7391 51.8521 40.2561 51.4475 42.8102C50.1091 51.2608 43.6606 57.9434 35.0506 59.8028C33.2755 60.1863 28.816 60.1886 27.0571 59.807C19.5647 58.1819 13.7761 53.0823 11.4331 46.0423C10.6999 43.8395 10.4175 42.025 10.4169 39.5127C10.4161 35.9311 11.0277 33.3227 12.6006 30.1994C14.2536 26.9173 16.5706 24.3031 19.6352 22.2625C22.4638 20.3791 25.6875 19.2338 29.2446 18.8484C30.3636 18.7272 33.4428 18.8941 34.7852 19.1488ZM28.6196 22.517C26.2036 22.8652 23.6696 23.8425 21.6056 25.2223C17.1783 28.1823 14.5613 32.5419 13.9883 37.9114C13.795 39.7231 13.93 40.2356 14.6971 40.6033C15.0867 40.79 15.2161 40.7856 15.668 40.5702C16.2527 40.2913 16.2564 40.2797 16.4936 38.0189C16.8339 34.7763 18.1528 31.8694 20.3286 29.5673C21.8155 27.9942 23.0542 27.0831 24.8497 26.2417C26.4722 25.4813 28.1455 25.0359 29.8464 24.9117C31.3958 24.7984 31.8844 24.6286 32.1149 24.1227C32.385 23.53 32.3283 23.1477 31.9078 22.7273C31.5764 22.3958 31.391 22.3464 30.5406 22.3628C29.9997 22.3733 29.1352 22.4427 28.6196 22.517ZM23.2153 32.5441C22.6539 32.9752 22.6039 33.3609 22.6039 37.2656C22.6039 41.1703 22.6539 41.5561 23.2153 41.9872C23.4049 42.1328 26.1596 42.1788 34.9156 42.1825L46.3681 42.1875L46.7516 41.8039L47.1352 41.4205V37.2656V33.1108L46.7516 32.7273L46.3681 32.3438L34.9156 32.3488C26.1596 32.3525 23.4049 32.3984 23.2153 32.5441ZM44.6352 37.2656V39.6875H34.8696H25.1039V37.2656V34.8438H34.8696H44.6352V37.2656ZM27.9028 47.3878C27.1981 47.9289 27.1863 48.8342 27.8769 49.3775C28.2556 49.6753 28.5249 49.6875 34.7257 49.6875H41.1802L41.6056 49.3216C42.1521 48.8516 42.1771 48.1217 41.6652 47.5769L41.2994 47.1875L34.7252 47.1925C29.8036 47.1963 28.0885 47.2453 27.9028 47.3878ZM23.501 61.4024C26.1261 62.2795 27.7224 62.5409 30.5727 62.5605C31.9906 62.5702 33.6605 62.5211 34.2836 62.4514L35.4164 62.3248V64.3655V66.4063H26.9789H18.5414V62.7411V59.0761L20.2992 59.998C21.2661 60.505 22.7069 61.1369 23.501 61.4024Z" fill="url(#paint0_linear_2123_15216)"/>
<path fill-rule="evenodd" clip-rule="evenodd" d="M69.2858 41.1475C68.5731 41.5144 68.4513 41.7534 68.0806 43.5128C67.641 45.5994 67.3422 46.2145 66.3201 47.1365C65.5772 47.8067 64.9001 48.0888 63.1684 48.4496C61.2229 48.8552 60.959 48.991 60.6364 49.7529C60.4408 50.2153 60.4528 50.6382 60.6754 51.1223C60.9619 51.7451 61.3742 51.9446 63.0844 52.2878C65.2301 52.7182 66.1152 53.1774 66.9799 54.3084C67.5179 55.0122 67.7463 55.6297 68.0928 57.318C68.4194 58.9091 68.6116 59.2764 69.2865 59.5987C70.0425 59.96 71.0075 59.6913 71.4345 59.0005C71.5377 58.8335 71.7556 58.0693 71.9186 57.3024C72.3733 55.1641 72.6019 54.6622 73.5332 53.7575C74.3063 53.0064 75.1345 52.6427 76.8705 52.2918C78.5491 51.9526 78.882 51.816 79.2051 51.334C79.766 50.4974 79.4978 49.3501 78.6391 48.9117C78.4785 48.8298 77.6711 48.6219 76.8449 48.4496C75.1133 48.0888 74.4361 47.8067 73.6932 47.1365C72.6703 46.2137 72.347 45.5471 71.9252 43.4918C71.641 42.1066 71.5054 41.7298 71.1942 41.46C70.6635 40.9998 69.836 40.8643 69.2858 41.1475ZM70.1709 42.5402C70.2213 42.6054 70.3804 43.2323 70.5246 43.9332C70.6687 44.634 70.9139 45.5308 71.0693 45.9261C71.5905 47.2506 72.7724 48.5118 74.0781 49.1366C74.7846 49.4747 75.3727 49.6447 76.7847 49.9193C78.5116 50.255 78.5141 50.4832 76.7949 50.8279C74.4335 51.3015 73.6059 51.674 72.4982 52.7614C71.3445 53.894 70.9445 54.7352 70.4883 56.9882C70.2518 58.1563 70.2262 58.2223 70.0093 58.2223C69.7925 58.2223 69.7657 58.1539 69.5174 56.9675C69.1905 55.4057 69.0185 54.8757 68.5856 54.0942C67.9305 52.9119 66.4065 51.6718 65.123 51.2765C64.8743 51.1999 64.0927 51.0163 63.3863 50.8685C62.6798 50.7208 62.0543 50.5531 61.9964 50.4959C61.7947 50.2969 62.156 50.1278 63.2286 49.9193C63.8103 49.8061 64.5241 49.6481 64.815 49.568C65.7005 49.3241 66.7925 48.7071 67.4497 48.0791C68.5666 47.0118 69.0535 46.0197 69.4813 43.9399C69.7302 42.73 69.8369 42.4215 70.0067 42.4215C70.0466 42.4215 70.1205 42.475 70.1709 42.5402ZM52.7078 58.7207C52.2474 58.9524 52.0585 59.2509 51.8522 60.0728C51.6376 60.9273 51.4576 61.2888 50.9952 61.794C50.5848 62.2423 49.9254 62.5942 49.218 62.7424C48.0845 62.9797 47.6055 63.434 47.6055 64.2716C47.6055 65.1108 48.0584 65.5554 49.1698 65.8073C50.0013 65.9957 50.4496 66.224 50.9414 66.7095C51.4075 67.1695 51.6527 67.6587 51.8771 68.5765C52.1486 69.6869 52.8416 70.1861 53.7693 69.9396C54.4123 69.7686 54.7203 69.3546 54.9297 68.3801C55.0692 67.7304 55.3963 67.1208 55.8401 66.6828C56.3092 66.2199 56.7582 65.9934 57.5782 65.8061C58.6925 65.5515 59.1586 65.1079 59.1586 64.3021C59.1586 63.4656 58.7205 63.0129 57.686 62.7807C56.8042 62.5828 56.1859 62.2672 55.7529 61.794C55.2914 61.2898 55.134 60.9723 54.9129 60.0989C54.8113 59.6979 54.6477 59.2612 54.5491 59.1282C54.3123 58.809 53.7915 58.5547 53.374 58.5547C53.1889 58.5547 52.8892 58.6294 52.7078 58.7207ZM53.5573 60.6869C53.9364 62.3592 55.2783 63.671 57.0622 64.1133L57.7216 64.2767L57.0323 64.4495C56.1102 64.6807 55.4563 65.0407 54.8028 65.6771C54.1977 66.2664 53.7476 67.0605 53.5548 67.8792C53.4842 68.1788 53.4019 68.424 53.372 68.424C53.3421 68.424 53.2699 68.1998 53.2117 67.9257C53.0348 67.0935 52.6137 66.3363 51.9842 65.7185C51.296 65.0431 50.6564 64.6853 49.7157 64.4495L49.0265 64.2767L49.6858 64.1133C51.4634 63.6726 52.8094 62.3683 53.1946 60.7134C53.2644 60.4133 53.3482 60.1678 53.3806 60.1678C53.413 60.1678 53.4926 60.4014 53.5573 60.6869Z" fill="#2FC6E7" stroke="#2FC6E7"/>
<path fill-rule="evenodd" clip-rule="evenodd" d="M59.8373 7.14666C59.0191 7.49693 58.7949 7.92332 58.3951 9.88992C58.2253 10.725 57.9842 11.7286 57.8593 12.1201C57.3368 13.7578 56.145 15.124 54.5495 15.9141C53.8745 16.2484 53.3243 16.3996 51.4242 16.7731C49.8387 17.0847 49.3662 17.2537 49.0012 17.64C48.2756 18.4078 48.3491 19.8266 49.1487 20.4907C49.5341 20.8109 49.7389 20.8728 51.7598 21.2819C54.2818 21.7924 55.2054 22.2183 56.3755 23.4107C57.4804 24.5366 57.8672 25.4608 58.4474 28.3621C58.7384 29.8175 58.943 30.2594 59.5062 30.6501C60.402 31.2716 61.7591 31.0034 62.2963 30.0986C62.4673 29.8105 62.6469 29.1865 62.8747 28.0891C63.0563 27.2136 63.2939 26.2198 63.4029 25.8805C63.9969 24.029 65.5514 22.4275 67.3655 21.7982C67.6629 21.695 68.7395 21.4388 69.7581 21.229C71.9216 20.7832 72.1822 20.6565 72.5781 19.8576C72.8836 19.2414 72.877 18.6478 72.5581 18.0385C72.219 17.3906 71.796 17.1864 70.0278 16.8169C69.1553 16.6346 68.2467 16.4364 68.0088 16.3764C65.8767 15.8393 64.138 14.2644 63.4451 12.2426C63.322 11.8836 63.0654 10.8231 62.8748 9.88584C62.4833 7.96042 62.3064 7.59677 61.5762 7.21631C61.0779 6.95667 60.3494 6.92744 59.8373 7.14666ZM60.8929 8.51312C61.1102 8.62794 61.2073 8.92194 61.4727 10.2695C61.7847 11.8525 62.0179 12.7007 62.3309 13.3892C63.2665 15.4477 65.1917 17.0949 67.3838 17.7128C67.6937 17.8001 70.9428 18.4783 71.0513 18.4783C71.0675 18.4783 71.1479 18.5793 71.2299 18.7028C71.4426 19.0232 71.2851 19.3803 70.875 19.5072C70.6998 19.5614 69.9884 19.7167 69.294 19.8522C67.7957 20.1446 66.9959 20.3647 66.2782 20.6821C64.2014 21.6003 62.5422 23.509 61.924 25.6907C61.8427 25.9778 61.6333 26.8944 61.4588 27.7276C61.0786 29.5425 60.8669 29.8591 60.3299 29.4155C60.1731 29.286 60.0541 28.8945 59.7891 27.6361C59.6022 26.7488 59.3606 25.749 59.2521 25.4142C58.7103 23.7428 57.5575 22.2388 56.0872 21.2857C54.9444 20.5451 54.0304 20.2357 51.5684 19.7565C50.2243 19.4949 49.934 19.3592 49.934 18.9923C49.934 18.8111 50.1521 18.4783 50.271 18.4783C50.4904 18.4783 53.6939 17.77 54.1621 17.6179C56.1642 16.9678 57.8598 15.5309 58.8048 13.6838C59.1795 12.9513 59.4119 12.1686 59.74 10.5341C60.1003 8.73993 60.0996 8.74239 60.2825 8.56189C60.4506 8.39592 60.6419 8.38064 60.8929 8.51312Z" fill="#2FC6E7" stroke="#2FC6E7"/>
<defs>
<linearGradient id="paint0_linear_2123_15216" x1="54.0829" y1="4.375" x2="5.02227" y2="6.49095" gradientUnits="userSpaceOnUse">
<stop stop-color="#2FC6E7"/>
<stop offset="1" stop-color="#4E97ED"/>
</linearGradient>
</defs>
</svg>
