<svg width="41" height="40" viewBox="0 0 41 40" fill="none" xmlns="http://www.w3.org/2000/svg">
<g clip-path="url(#clip0_690_48082)">
<path fill-rule="evenodd" clip-rule="evenodd" d="M4.39011 3.04688V3.67188H4.97605H5.56199V3.04688V2.42188H4.97605H4.39011V3.04688ZM4.39011 5.54688V6.17188H4.97605H5.56199V5.54688V4.92188H4.97605H4.39011V5.54688ZM37.2954 5.86148C36.9466 6.03781 36.7188 6.22258 36.5171 6.49289L36.2318 6.875H31.206C25.7769 6.875 25.6671 6.88203 24.4393 7.31C22.5408 7.97164 20.7951 9.68297 20.1014 11.5625C19.7246 12.5834 19.681 12.8777 19.6325 14.7266L19.5854 16.5234L18.98 16.5463L18.3745 16.5691V20.1205V23.6719H19.0097H19.6449L19.6039 25.3711C19.5711 26.7323 19.5317 27.1877 19.4055 27.6605C18.8704 29.6659 17.4029 31.2105 15.4182 31.8569C14.63 32.1136 13.0039 32.1487 12.2026 31.9264C10.2469 31.3837 8.69808 29.9035 8.06956 27.9764C7.78519 27.1045 7.74152 26.027 7.76566 20.4751L7.78855 15.2079L8.14011 15.0262C8.33347 14.9263 8.65253 14.6727 8.84909 14.4629C9.91324 13.327 9.5198 11.5013 8.06597 10.8286C7.7341 10.675 7.55449 10.6623 5.36667 10.6382C3.82027 10.6212 2.86347 10.643 2.55417 10.7021C1.63573 10.878 0.907063 11.5854 0.713235 12.4895C0.493079 13.5159 1.06113 14.6138 2.03456 15.0433L2.35886 15.1863V21.1484C2.35886 27.6012 2.37456 27.8999 2.79003 29.3335C3.84597 32.9773 6.65074 35.862 10.2625 37.0189C11.6376 37.4595 13.2595 37.641 14.6324 37.5082C16.2637 37.3503 17.3264 37.0528 18.726 36.362C21.9962 34.748 24.3062 31.6116 24.9023 27.976C24.9742 27.5376 25.0128 26.6746 25.0138 25.4883L25.0151 23.6719H25.6792H26.3432V20.1203V16.5688L25.6987 16.5461L25.0542 16.5234L25.0313 15.913C25.0004 15.0911 25.1192 14.3016 25.3404 13.8573C25.7453 13.0441 26.5449 12.4824 27.4928 12.3454C27.785 12.3031 29.8677 12.268 32.1336 12.2672L36.2443 12.2656L36.447 12.5718C36.8595 13.1952 37.5128 13.5359 38.2982 13.5376C39.4032 13.5398 40.3327 12.8003 40.5573 11.7401C40.6226 11.4318 40.6446 10.671 40.6269 9.33594C40.6025 7.49281 40.5909 7.36078 40.4214 6.99219C40.0248 6.12969 39.3749 5.69336 38.4136 5.64414C37.8335 5.61445 37.7531 5.63008 37.2954 5.86148ZM38.9497 7.05445C39.3541 7.33695 39.3901 7.54812 39.3901 9.63438C39.3901 11.483 39.3849 11.5473 39.2133 11.8048C38.8022 12.422 38.1063 12.4846 37.5739 11.9522L37.2735 11.6518L37.2967 9.5418L37.3198 7.43187L37.5512 7.19047C37.9411 6.78383 38.4864 6.73078 38.9497 7.05445ZM4.39011 8.125V8.75H4.97605H5.56199V8.125V7.5H4.97605H4.39011V8.125ZM36.0307 9.60938V11.0938H31.6331C27.9342 11.0938 27.1624 11.1128 26.7757 11.2135C25.57 11.5276 24.5474 12.4584 24.056 13.689C23.9228 14.0223 23.8828 14.3342 23.8477 15.3125L23.8042 16.5234L22.3393 16.5447L20.8745 16.5659V14.9976C20.8745 13.0983 20.9604 12.6311 21.5207 11.4844C21.8682 10.773 22.0153 10.5696 22.6285 9.95289C23.3439 9.23313 23.9603 8.82117 24.8046 8.49844C25.7205 8.14828 25.9014 8.13773 31.0893 8.13117L36.0307 8.125V9.60938ZM7.57761 11.9848C8.35308 12.3883 8.43448 13.3994 7.72613 13.8312C7.4923 13.9739 7.3187 13.9838 5.05417 13.9838C2.33808 13.9838 2.28566 13.974 2.02058 13.4154C1.84238 13.0398 1.85691 12.7291 2.06745 12.4139C2.41456 11.8944 2.5212 11.8752 5.07761 11.8752C6.89152 11.875 7.41042 11.8978 7.57761 11.9848ZM6.58027 21.4062C6.62136 27.4464 6.62456 27.5476 6.79417 28.1012C7.56691 30.6232 9.43917 32.4591 11.9292 33.1363C12.8237 33.3795 14.5487 33.3797 15.4448 33.1366C17.854 32.4832 19.7616 30.6736 20.4882 28.3523C20.7611 27.48 20.868 26.4972 20.8718 24.8242L20.8745 23.6719H22.3589H23.8432L23.842 24.8242C23.839 27.5899 23.509 29.2799 22.6659 30.8474C21.1297 33.7034 18.581 35.5767 15.4057 36.1836C14.6193 36.3339 12.6073 36.3123 11.812 36.145C8.02324 35.348 5.0748 32.6732 3.99745 29.0556C3.62269 27.7974 3.60949 27.5291 3.60917 21.1897L3.60886 15.2309L5.0737 15.2522L6.53855 15.2734L6.58027 21.4062ZM25.0932 20.1172V22.4219H22.3198H19.5464V20.1172V17.8125H22.3198H25.0932V20.1172ZM32.965 20.4522C30.6353 23.3812 28.9888 26.2133 28.5728 28.0072C28.216 29.5452 28.6827 31.237 29.7609 32.3152C30.6873 33.2416 32.0784 33.75 33.687 33.75C36.8375 33.75 38.9214 31.8668 38.9214 29.0197C38.9214 27.6342 38.1079 25.7482 36.396 23.1641C35.5493 21.8862 33.819 19.6094 33.6944 19.6094C33.6619 19.6094 33.3337 19.9887 32.965 20.4522ZM34.4596 22.565C35.8932 24.5141 37.0833 26.5923 37.4779 27.8361C38.1093 29.8259 37.2627 31.5962 35.355 32.275C34.7129 32.5035 33.225 32.5637 32.4906 32.3909C30.7255 31.9755 29.7066 30.7545 29.7035 29.0512C29.701 27.6788 30.7602 25.565 33.0146 22.4432C33.3629 21.9608 33.6711 21.5741 33.6995 21.5838C33.7278 21.5936 34.0699 22.0351 34.4596 22.565Z" fill="#175CAB"/>
</g>
<defs>
<clipPath id="clip0_690_48082">
<rect width="40" height="40" fill="white" transform="translate(0.666016)"/>
</clipPath>
</defs>
</svg>
