<svg width="41" height="40" viewBox="0 0 41 40" fill="none" xmlns="http://www.w3.org/2000/svg">
<g clip-path="url(#clip0_690_48036)">
<path fill-rule="evenodd" clip-rule="evenodd" d="M9.34213 0.15026C8.87298 0.312291 8.45713 0.673072 8.20767 1.13448C8.04666 1.43237 8.03697 1.5694 7.9997 4.06417L7.96064 6.68135L6.66095 6.70276L5.36135 6.72409L5.33056 5.89323C5.30119 5.09909 5.29017 5.05401 5.08291 4.87573C4.8676 4.69057 4.85236 4.68917 3.03806 4.68917C0.986892 4.68917 0.856267 4.71534 0.729002 5.15128C0.675799 5.33331 0.655564 6.62995 0.671111 8.85612L0.695017 12.281L0.914236 12.4694C1.13267 12.6573 1.13963 12.6579 2.9997 12.6579C4.85447 12.6579 4.86736 12.6567 5.08291 12.4714C5.2901 12.2931 5.30119 12.2478 5.33049 11.4557L5.36119 10.6267H6.68041H7.9997V20.0017V29.3767H5.22111C3.55806 29.3767 2.38517 29.4074 2.29963 29.4532C2.01299 29.6065 1.98408 29.9338 1.98408 33.0211V36.0173H1.55877C1.22174 36.0173 1.08791 36.0564 0.914236 36.2058L0.695017 36.3944V38.0006C0.695017 39.5676 0.699314 39.611 0.872908 39.7846C1.05041 39.9623 1.05572 39.9627 3.84166 39.9853C5.37666 39.9979 6.71064 39.9887 6.80611 39.9649C6.90166 39.9411 7.05103 39.8451 7.13814 39.7516C7.28658 39.5923 7.29642 39.4826 7.29408 38.0142C7.29236 36.9056 7.26377 36.4107 7.19642 36.323C7.03439 36.1119 6.77619 36.0173 6.36236 36.0173H5.96478L5.98611 34.6696L6.00752 33.322H6.98408H7.96064L7.9997 35.9392C8.03697 38.4385 8.04642 38.5707 8.20892 38.8742C8.45564 39.3352 8.93978 39.7388 9.41549 39.8801C9.96291 40.0427 11.349 40.0427 11.8964 39.8801C12.3721 39.7388 12.8563 39.3352 13.103 38.8742C13.2655 38.5707 13.2749 38.4385 13.3122 35.9392L13.3513 33.322L13.9902 33.2994L14.6291 33.2767L14.6542 35.8775C14.6793 38.4667 14.6803 38.4799 14.8727 38.8566C14.9789 39.0646 15.1873 39.3415 15.3357 39.4718C15.8335 39.9089 16.0492 39.9617 17.3356 39.9622C18.4841 39.9626 18.5157 39.9581 18.918 39.7352C19.3092 39.5184 19.5619 39.2602 19.8039 38.8298C19.8899 38.6768 19.9222 38.0589 19.9528 35.9782L19.9919 33.322H20.656H21.32L21.3591 35.9782C21.3897 38.0589 21.422 38.6768 21.508 38.8298C21.75 39.2602 22.0027 39.5184 22.3939 39.7352C22.7962 39.9581 22.8278 39.9626 23.9763 39.9622C25.2627 39.9617 25.4784 39.9089 25.9762 39.4718C26.1246 39.3415 26.333 39.0646 26.4392 38.8566C26.6317 38.4799 26.6326 38.4667 26.6577 35.8775L26.6828 33.2767L27.3217 33.2994L27.9606 33.322L27.9997 35.9392C28.037 38.4385 28.0464 38.5707 28.2089 38.8742C28.4556 39.3352 28.9398 39.7388 29.4155 39.8801C29.9629 40.0427 31.349 40.0427 31.8964 39.8801C32.3721 39.7388 32.8563 39.3352 33.103 38.8742C33.2655 38.5707 33.2749 38.4385 33.3122 35.9392L33.3513 33.322H34.3278H35.3044L35.3258 34.6696L35.3471 36.0173H34.9495C34.5357 36.0173 34.2775 36.1119 34.1155 36.323C34.0481 36.4107 34.0195 36.9056 34.0178 38.0142C34.0155 39.4826 34.0253 39.5923 34.1738 39.7516C34.2609 39.8451 34.4102 39.9411 34.5058 39.9649C34.6013 39.9887 35.9352 39.9979 37.4702 39.9853C40.2562 39.9627 40.2615 39.9623 40.439 39.7846C40.6126 39.611 40.6169 39.5676 40.6169 38.0006V36.3944L40.3977 36.2058C40.224 36.0564 40.0902 36.0173 39.7531 36.0173H39.3278V33.0211C39.3278 29.9338 39.2989 29.6065 39.0123 29.4532C38.9267 29.4074 37.7538 29.3767 36.0908 29.3767H33.3122V20.0017V10.6267H35.1126H36.9131L37.1048 10.4349C37.2577 10.282 37.2966 10.1633 37.2966 9.84893C37.2966 9.63213 37.3264 9.45479 37.363 9.45479C37.4849 9.45479 38.0634 9.88182 38.23 10.0948C38.4539 10.381 38.5948 10.7465 38.6608 11.2126C38.7321 11.7157 38.9469 11.9548 39.3278 11.9548C39.5299 11.9548 39.6658 11.8987 39.7937 11.7626C40.2177 11.3111 39.7695 9.76042 38.9963 9.00448L38.6556 8.67128L39.0271 8.28588C39.6113 7.67971 39.9503 6.88893 39.952 6.12854C39.9531 5.63901 39.7402 5.39229 39.3169 5.39229C38.9277 5.39229 38.7302 5.63378 38.6349 6.22557C38.5923 6.49049 38.5051 6.8069 38.4413 6.9287C38.2569 7.28003 37.5577 7.89229 37.3408 7.89229C37.3165 7.89229 37.2966 7.72128 37.2966 7.51221C37.2966 7.24682 37.2481 7.07042 37.1358 6.92768L36.975 6.72331L35.1631 6.70229L33.3513 6.68135L33.3122 4.06417C33.2749 1.56479 33.2655 1.43268 33.103 1.12917C32.8563 0.668151 32.3721 0.264557 31.8964 0.123229C31.349 -0.0393494 29.9629 -0.0393494 29.4155 0.123229C28.9398 0.264557 28.4556 0.668151 28.2089 1.12917C28.0464 1.43268 28.037 1.56479 27.9997 4.06417L27.9606 6.68135L27.3217 6.70393L26.6828 6.72659L26.6577 4.12581C26.6326 1.53659 26.6317 1.52346 26.4392 1.14674C26.333 0.938697 26.1246 0.661822 25.9762 0.53151C25.4784 0.0944006 25.2627 0.0415881 23.9763 0.0411193C22.8278 0.0407287 22.7962 0.04526 22.3939 0.268151C22.0027 0.484947 21.75 0.743151 21.508 1.17354C21.422 1.32651 21.3897 1.94448 21.3591 4.0251L21.32 6.68135H20.656H19.9919L19.9528 4.0251C19.9222 1.94448 19.8899 1.32651 19.8039 1.17354C19.5619 0.743151 19.3092 0.484947 18.918 0.268151C18.5157 0.04526 18.4841 0.0407287 17.3356 0.0411193C16.0492 0.0415881 15.8335 0.0944006 15.3357 0.53151C15.1873 0.661822 14.9789 0.938697 14.8727 1.14674C14.6803 1.52346 14.6793 1.53659 14.6542 4.12581L14.6291 6.72659L13.9902 6.70393L13.3513 6.68135L13.3122 4.06417C13.2749 1.56479 13.2655 1.43268 13.103 1.12917C12.8563 0.668151 12.3721 0.264557 11.8964 0.123229C11.3046 -0.0524744 9.88572 -0.0374744 9.34213 0.15026ZM11.6181 1.42065C11.712 1.47065 11.8316 1.56737 11.8839 1.63549C12.0229 1.81651 12.0229 38.1868 11.8839 38.3678C11.6975 38.6106 11.4447 38.6735 10.656 38.6735C9.8672 38.6735 9.61439 38.6106 9.42799 38.3678C9.289 38.1868 9.289 1.81604 9.42799 1.63659C9.48033 1.56901 9.59345 1.47346 9.67939 1.42417C9.88705 1.30503 11.396 1.30237 11.6181 1.42065ZM18.3239 1.41417C18.706 1.61862 18.6897 0.793933 18.6897 20.0017C18.6897 39.2094 18.706 38.3847 18.3239 38.5892C18.2372 38.6356 17.7792 38.6735 17.3061 38.6735C16.5095 38.6735 16.4297 38.6596 16.2267 38.485L16.0075 38.2964V20.0017V1.7069L16.2267 1.51831C16.4297 1.3437 16.5095 1.32979 17.3061 1.32979C17.7792 1.32979 18.2372 1.36776 18.3239 1.41417ZM25.0852 1.51831L25.3044 1.7069V20.0017V38.2964L25.0852 38.485C24.8822 38.6596 24.8024 38.6735 24.0058 38.6735C23.5327 38.6735 23.0747 38.6356 22.988 38.5892C22.606 38.3847 22.6223 39.2058 22.6192 20.0393C22.6174 7.92417 22.6426 1.98932 22.6968 1.81831C22.8309 1.39557 23.005 1.32979 23.9893 1.32979C24.8035 1.32979 24.8817 1.34323 25.0852 1.51831ZM31.6181 1.42065C31.712 1.47065 31.8316 1.56737 31.8839 1.63549C32.0229 1.81651 32.0229 38.1868 31.8839 38.3678C31.6975 38.6106 31.4447 38.6735 30.656 38.6735C29.8672 38.6735 29.6144 38.6106 29.428 38.3678C29.289 38.1868 29.289 1.81604 29.428 1.63659C29.4803 1.56901 29.5935 1.47346 29.6794 1.42417C29.887 1.30503 31.396 1.30237 31.6181 1.42065ZM4.01533 8.67354V11.3298H2.9997H1.98408V8.67354V6.01729H2.9997H4.01533V8.67354ZM7.9997 8.67354V9.37667H6.67158H5.34345V8.67354V7.97042H6.67158H7.9997V8.67354ZM14.6403 8.67354V9.37667H13.9763H13.3122V8.67354V7.97042H13.9763H14.6403V8.67354ZM21.281 8.67354V9.37667H20.656H20.031V8.67354V7.97042H20.656H21.281V8.67354ZM27.9997 8.67354V9.37667H27.3356H26.6716V8.67354V7.97042H27.3356H27.9997V8.67354ZM35.9685 8.67354V9.37667H34.6403H33.3122V8.67354V7.97042H34.6403H35.9685V8.67354ZM14.6403 20.0017V29.3767H13.9763H13.3122V20.0017V10.6267H13.9763H14.6403V20.0017ZM21.32 20.0017V29.3376H20.656H19.9919L19.9718 20.0798C19.9607 14.988 19.969 10.7766 19.9901 10.7211C20.0182 10.6474 20.2017 10.6264 20.6742 10.643L21.32 10.6657V20.0017ZM27.9997 20.0017V29.3767H27.3356H26.6716V20.0017V10.6267H27.3356H27.9997V20.0017ZM7.9997 31.3298V32.0329H6.52892H5.05822L4.86877 32.2343C4.68134 32.4338 4.67916 32.4539 4.6558 34.2265L4.63213 36.0173H3.9722H3.3122V33.322V30.6267H5.65595H7.9997V31.3298ZM14.6403 31.3298V32.0329H13.9763H13.3122V31.3298V30.6267H13.9763H14.6403V31.3298ZM21.281 31.3298V32.0329H20.656H20.031V31.3298V30.6267H20.656H21.281V31.3298ZM27.9997 31.3298V32.0329H27.3356H26.6716V31.3298V30.6267H27.3356H27.9997V31.3298ZM37.9997 33.322V36.0173H37.3397H36.6798L36.6561 34.2265C36.6327 32.4539 36.6306 32.4338 36.4431 32.2343L36.2537 32.0329H34.783H33.3122V31.3298V30.6267H35.656H37.9997V33.322ZM5.96845 38.0095V38.6735H3.97627H1.98408V38.0095V37.3454H3.97627H5.96845V38.0095ZM39.3278 38.0095V38.6735H37.3356H35.3435V38.0095V37.3454H37.3356H39.3278V38.0095Z" fill="#175CAB"/>
</g>
<defs>
<clipPath id="clip0_690_48036">
<rect width="40" height="40" fill="white" transform="translate(0.666016)"/>
</clipPath>
</defs>
</svg>
