<svg width="60" height="60" viewBox="0 0 60 60" fill="none" xmlns="http://www.w3.org/2000/svg">
<path fill-rule="evenodd" clip-rule="evenodd" d="M9.60903 0.263672C8.8016 0.814922 8.78883 0.892734 8.78907 5.27156C8.78918 8.77699 8.81121 9.24305 8.99414 9.60703C9.23004 10.0766 9.86895 10.5469 10.271 10.5469H10.5466L10.547 13.6816C10.5475 18.0466 10.7852 19.6158 11.7693 21.7453C12.699 23.7579 14.398 25.7377 16.3645 27.1002C16.8895 27.4639 17.4312 27.919 17.5682 28.1114C18.3468 29.2048 18.3483 30.7931 17.5718 31.8836C17.4369 32.073 16.8162 32.5901 16.1924 33.0326C13.1472 35.193 11.2617 38.2144 10.7211 41.8004C10.6003 42.602 10.5478 43.9321 10.5473 46.2012L10.5466 49.4531H10.271C9.86895 49.4531 9.23004 49.9234 8.99414 50.393C8.81121 50.757 8.78918 51.223 8.78907 54.7284C8.78883 59.1073 8.8016 59.1851 9.60903 59.7363L9.99539 60H25.2537H40.512L40.9102 59.734C41.7023 59.2048 41.7182 59.1071 41.7182 54.7266C41.7182 51.2227 41.6961 50.757 41.5132 50.393C41.2799 49.9284 40.6396 49.4531 40.2471 49.4531H39.9824L39.9266 45.6152C39.8682 41.5945 39.8204 41.1618 39.2476 39.4773C38.887 38.4168 38.067 36.8675 37.3913 35.9706C36.6416 34.9755 35.1994 33.6109 34.1154 32.8711C33.6431 32.5488 33.1039 32.074 32.9172 31.8158C32.2023 30.8279 32.1916 29.2223 32.893 28.2102C33.0686 27.957 33.7154 27.3927 34.3306 26.9563C36.6601 25.3037 38.3801 23.0525 39.246 20.5227C39.8196 18.8468 39.8682 18.4085 39.9266 14.3848L39.9824 10.5469H40.2471C40.6396 10.5469 41.2799 10.0716 41.5132 9.60703C41.6961 9.24305 41.7182 8.77734 41.7182 5.27344C41.7182 0.892851 41.7023 0.795234 40.9102 0.266016L40.512 0H25.2537H9.99539L9.60903 0.263672ZM38.0857 5.27344V7.03125H25.2537H12.4216V5.27344V3.51562H25.2537H38.0857V5.27344ZM36.2994 14.3262C36.2513 18.3734 36.215 18.6244 35.4421 20.263C34.6409 21.9618 33.6306 23.1108 31.9262 24.262C30.3095 25.3541 29.2683 26.8598 28.8878 28.6557C28.6696 29.6859 28.6696 30.3141 28.8878 31.3443C29.2679 33.1386 30.306 34.6406 31.9262 35.7409C32.3814 36.0499 32.9646 36.4909 33.2224 36.7207L33.6912 37.1387L25.2537 37.1388L16.8162 37.1389L17.2263 36.7808C17.4519 36.5839 18.0405 36.1366 18.5345 35.787C21.1436 33.9394 22.227 31.4053 21.624 28.5601C21.2413 26.754 20.1995 25.3835 18.0111 23.8075C16.3304 22.5971 15.1273 20.8944 14.5179 18.864C14.2754 18.0561 14.2514 17.7043 14.2084 14.3262L14.1618 10.6641H25.2524H36.343L36.2994 14.3262ZM48.6326 14.5539C48.2474 14.7513 48.0335 14.9664 47.8392 15.3516L47.5733 15.8789L47.6049 26.5637C47.6364 37.1971 47.6377 37.2502 47.8816 37.5793C48.0165 37.7613 48.3012 38.0288 48.5142 38.1738C49.2895 38.7015 50.4704 38.375 50.9644 37.4964L51.2143 37.0515L51.1832 26.2686C51.1524 15.5852 51.1499 15.4829 50.9105 15.1623C50.2973 14.3411 49.4759 14.1217 48.6326 14.5539ZM36.0837 41.4258C36.2051 41.8546 36.2624 42.9941 36.2975 45.6738L36.3456 49.3359H25.2525H14.1594L14.2097 45.6738C14.256 42.3057 14.2947 41.8256 14.5925 40.9271C14.6313 40.8102 16.8278 40.7862 25.2796 40.81L35.9177 40.8398L36.0837 41.4258ZM48.4345 42.3137C47.9019 42.6548 47.5349 43.4614 47.6372 44.0664C47.9159 45.7162 50.1195 46.135 50.9452 44.6948C51.4219 43.8632 51.1918 42.8638 50.4023 42.3363C49.8773 41.9856 48.9633 41.975 48.4345 42.3137ZM38.0857 54.7266V56.4844H25.2537H12.4216V54.7266V52.9688H25.2537H38.0857V54.7266Z" fill="url(#paint0_linear_2109_13520)"/>
<defs>
<linearGradient id="paint0_linear_2109_13520" x1="51.2143" y1="0" x2="2.84384" y2="5.25275" gradientUnits="userSpaceOnUse">
<stop stop-color="#FF808B"/>
<stop offset="1" stop-color="#F45B69"/>
</linearGradient>
</defs>
</svg>
