<svg width="60" height="60" viewBox="0 0 60 60" fill="none" xmlns="http://www.w3.org/2000/svg">
<path fill-rule="evenodd" clip-rule="evenodd" d="M3.56212 5.05003C2.16712 5.51163 1.03274 6.50151 0.422548 7.78976L0.0464935 8.58359L0.0147357 18.8935C-0.0208893 30.425 -0.063194 29.7796 0.818525 31.1439C1.97247 32.9292 4.33743 33.779 6.40474 33.151C7.3413 32.8666 8.50954 32.0726 8.9211 31.4409L9.18712 31.0325L15.2809 30.9994L21.3746 30.9664L21.7503 30.6984C22.0141 30.5102 22.6034 29.5935 23.7304 27.6182C24.6129 26.0715 25.3797 24.821 25.4346 24.8394C25.4894 24.8576 26.2595 26.1346 27.1459 27.6769C28.1246 29.3801 28.8874 30.5765 29.0882 30.7238C29.5196 31.04 30.6158 31.0609 31.0727 30.7614C31.2447 30.6488 32.0001 29.6558 32.7515 28.5548C33.5028 27.4539 34.1557 26.5968 34.2021 26.6504C34.2486 26.7038 34.9013 27.6249 35.6526 28.6971C36.6712 30.1509 37.1199 30.6945 37.4174 30.8357C37.7696 31.0028 38.5761 31.0251 44.3025 31.0264L50.7887 31.0279L51.0547 31.4385C51.4646 32.0714 52.6322 32.8659 53.5711 33.151C55.6384 33.779 58.0033 32.9292 59.1573 31.1439C60.039 29.7796 59.9967 30.425 59.9611 18.8935L59.9293 8.58359L59.5532 7.78976C59.0593 6.74691 58.1332 5.82077 57.0903 5.32683C56.3458 4.97409 56.2161 4.95077 55.0013 4.95077C53.7395 4.95077 53.6832 4.96214 52.8113 5.39304C52.1574 5.71624 51.746 6.02374 51.2829 6.53562L50.649 7.23593H29.9879H9.32681L8.69294 6.53562C8.23134 6.02538 7.81813 5.71612 7.17149 5.39655C6.35727 4.99413 6.1904 4.95511 5.15727 4.92628C4.4538 4.90671 3.85485 4.95312 3.56212 5.05003ZM5.77016 8.70499C6.40403 9.14585 6.37169 8.64218 6.40977 18.6617C6.42899 23.7535 6.41106 28.1537 6.36993 28.4398C6.25966 29.2058 5.69763 29.7359 4.99591 29.7359C4.63661 29.7359 4.37142 29.6564 4.1497 29.4819C3.48571 28.9596 3.50352 29.2432 3.50352 19.2075C3.50352 14.1216 3.53716 9.79261 3.57817 9.5873C3.66477 9.15441 4.20782 8.56425 4.58845 8.48937C4.94399 8.41941 5.5072 8.52218 5.77016 8.70499ZM55.8092 8.70499C56.4431 9.14585 56.4107 8.64218 56.4488 18.6617C56.4681 23.7535 56.4501 28.1537 56.409 28.4398C56.2987 29.2058 55.7367 29.7359 55.035 29.7359C54.6757 29.7359 54.4105 29.6564 54.1888 29.4819C53.5248 28.9596 53.5426 29.2432 53.5426 19.2075C53.5426 14.1216 53.5762 9.79261 53.6172 9.5873C53.7038 9.15441 54.2469 8.56425 54.6275 8.48937C54.9831 8.41941 55.5463 8.52218 55.8092 8.70499ZM50.027 19.073V27.3945L44.5593 27.3641L39.0916 27.3336L37.3542 24.8768C36.3985 23.5256 35.4645 22.2679 35.2786 22.0819C34.7128 21.516 33.7258 21.468 33.0491 21.9733C32.8857 22.0952 32.2119 22.9811 31.5516 23.9419C30.8914 24.9029 30.309 25.7014 30.2574 25.7165C30.2059 25.7315 29.4254 24.451 28.5231 22.8707C27.6207 21.2906 26.734 19.8553 26.5524 19.6812C26.2595 19.4002 26.1325 19.3648 25.4176 19.3648C24.7026 19.3648 24.5758 19.4002 24.2827 19.6814C24.1012 19.8555 23.0035 21.6602 21.8434 23.6919L19.734 27.3857L14.8414 27.389L9.94884 27.3922V19.0719V10.7516H29.9879H50.027V19.073ZM29.1676 33.4805C28.5324 33.819 26.6511 36.4869 25.411 38.8078C24.244 40.9921 23.9441 42.3717 24.2942 43.9456C24.7476 45.9837 26.3945 47.7021 28.437 48.2685C32.654 49.4378 36.7162 45.5855 35.6661 41.413C35.1502 39.3638 31.8228 33.9445 30.7752 33.4473C30.2429 33.1947 29.682 33.2063 29.1676 33.4805ZM30.884 39.5862C31.7706 41.0539 32.2145 42.1098 32.2145 42.7508C32.2145 43.9311 31.2379 44.8531 29.9879 44.8531C28.7207 44.8531 27.7613 43.9314 27.7613 42.7141C27.7613 42.3569 27.9049 41.9073 28.2399 41.2141C28.9064 39.8358 29.869 38.2705 30.0192 38.3206C30.0882 38.3436 30.4774 38.9131 30.884 39.5862ZM13.5074 40.0541C12.3924 40.6059 9.15782 45.8378 8.60997 47.9755C8.12306 49.8751 8.69974 51.8988 10.1374 53.3364C12.4658 55.665 16.1979 55.6239 18.4825 53.2447C20.0249 51.6385 20.5051 49.5364 19.797 47.4898C19.2085 45.7885 16.9956 42.0731 15.6985 40.6087C14.9927 39.8118 14.3338 39.645 13.5074 40.0541ZM45.039 39.9796C44.5445 40.195 43.9799 40.8783 42.6782 42.8369C39.7508 47.2421 39.2222 49.5212 40.5502 52.0128C40.9868 52.8318 42.1391 53.9698 42.9456 54.3785C44.4068 55.119 46.2524 55.2535 47.7085 54.7258C49.9201 53.9244 51.5504 51.6337 51.5504 49.3278C51.5504 47.5947 50.3191 44.9987 47.877 41.583C46.6721 39.8978 46.0429 39.5424 45.039 39.9796ZM14.8052 45.5718C15.0591 45.966 15.547 46.837 15.8892 47.5073C16.3687 48.4469 16.5113 48.8473 16.5113 49.2553C16.5113 49.9081 16.1707 50.6036 15.6628 50.9879C14.0338 52.2203 11.8203 50.9673 12.0889 48.9646C12.1769 48.3084 14.006 44.8509 14.2633 44.8542C14.3074 44.8548 14.5511 45.1777 14.8052 45.5718ZM46.5627 46.1385C48.1093 48.7442 48.2847 49.768 47.3534 50.7522C45.9548 52.2305 43.4645 51.2726 43.4645 49.2564C43.4645 48.8471 43.6065 48.4481 44.0866 47.5073C44.7538 46.2007 45.5796 44.8558 45.716 44.8542C45.7619 44.8536 46.1429 45.4316 46.5627 46.1385Z" fill="url(#paint0_linear_2109_13509)"/>
<defs>
<linearGradient id="paint0_linear_2109_13509" x1="59.9758" y1="4.92188" x2="-6.95186" y2="17.2183" gradientUnits="userSpaceOnUse">
<stop stop-color="#FF808B"/>
<stop offset="1" stop-color="#F45B69"/>
</linearGradient>
</defs>
</svg>
