<svg width="41" height="40" viewBox="0 0 41 40" fill="none" xmlns="http://www.w3.org/2000/svg">
<g clip-path="url(#clip0_690_48030)">
<path fill-rule="evenodd" clip-rule="evenodd" d="M2.35297 4.0405C1.9393 4.20777 1.98344 3.78878 1.15008 15.4558C0.566562 23.6254 0.379452 26.6022 0.41664 27.126C0.508984 28.4271 0.795624 29.491 1.35914 30.6234C1.82844 31.5667 2.21922 32.1199 2.98391 32.9234C4.47797 34.4934 6.28851 35.4403 8.57891 35.8494C9.44101 36.0034 31.3105 36.0034 32.1727 35.8494C34.463 35.4403 36.2736 34.4934 37.7677 32.9234C39.0358 31.5908 39.8162 30.1147 40.1719 28.376C40.4177 27.1746 40.4045 26.8289 39.6783 15.4498L38.973 4.39863L38.7741 4.1998L38.5754 4.00097L20.5498 3.98613C10.2179 3.97761 2.45117 4.00082 2.35297 4.0405ZM37.7527 5.8955C37.7798 6.22855 38.0852 10.9482 38.4315 16.3838C38.8723 23.3037 39.0479 26.5008 39.0172 27.0478C38.887 29.365 37.7002 31.5132 35.7289 33C34.7095 33.7687 33.0992 34.3989 31.6788 34.585C30.843 34.6945 9.90859 34.6945 9.07281 34.585C7.65234 34.3989 6.04203 33.7687 5.02266 33C3.47656 31.8339 2.39476 30.2343 1.93117 28.4287C1.62953 27.2536 1.64531 26.8422 2.39867 16.2666C2.78734 10.8096 3.12758 6.10746 3.15476 5.81738L3.20414 5.29003H20.4537H37.7033L37.7527 5.8955ZM8.8468 6.8823C8.62891 6.98371 8.33984 7.20113 8.20445 7.36543C7.96156 7.66011 7.71953 8.22988 7.71953 8.50707C7.71953 8.63441 7.64344 8.64957 6.99687 8.65058C6.17758 8.65183 5.9382 8.73777 5.79867 9.08042C5.72125 9.27058 5.72328 9.36503 5.80914 9.56925C5.94867 9.90121 6.17547 9.97753 7.02148 9.97753C7.64469 9.97753 7.71953 9.99277 7.71953 10.1199C7.71953 10.3971 7.96156 10.9668 8.20445 11.2615C8.33984 11.4258 8.62891 11.6432 8.8468 11.7446C9.20578 11.9118 9.34976 11.9292 10.3813 11.9299C11.4691 11.9307 11.5384 11.9211 11.9433 11.7158C12.4723 11.4475 12.8311 10.9865 12.9603 10.409L13.0569 9.97753H13.7425C14.576 9.97753 14.8033 9.90019 14.9424 9.56925C15.0283 9.36503 15.0303 9.27058 14.9529 9.08042C14.8134 8.73777 14.574 8.65183 13.7547 8.65058C13.1081 8.64957 13.032 8.63441 13.032 8.50707C13.032 8.22988 12.79 7.66011 12.5471 7.36543C12.4117 7.20113 12.1227 6.98371 11.9048 6.8823C11.5457 6.71511 11.4024 6.69785 10.3758 6.69785C9.34914 6.69785 9.20586 6.71511 8.8468 6.8823ZM28.8468 6.8823C28.6289 6.98371 28.3398 7.20113 28.2045 7.36543C27.9616 7.66011 27.7195 8.22988 27.7195 8.50707C27.7195 8.63441 27.6434 8.64957 26.9969 8.65058C26.1776 8.65183 25.9382 8.73777 25.7987 9.08042C25.7213 9.27058 25.7233 9.36503 25.8091 9.56925C25.9487 9.90121 26.1755 9.97753 27.0215 9.97753C27.6447 9.97753 27.7195 9.99277 27.7195 10.1199C27.7195 10.3971 27.9616 10.9668 28.2045 11.2615C28.3398 11.4258 28.6289 11.6432 28.8468 11.7446C29.2058 11.9118 29.3498 11.9292 30.3813 11.9299C31.4691 11.9307 31.5384 11.9211 31.9433 11.7158C32.4723 11.4475 32.8311 10.9865 32.9603 10.409L33.0569 9.97753H33.7425C34.576 9.97753 34.8033 9.90019 34.9424 9.56925C35.0283 9.36503 35.0303 9.27058 34.9529 9.08042C34.8134 8.73777 34.574 8.65183 33.7547 8.65058C33.1081 8.64957 33.032 8.63441 33.032 8.50707C33.032 8.22988 32.79 7.66011 32.5471 7.36543C32.4117 7.20113 32.1227 6.98371 31.9048 6.8823C31.5457 6.71511 31.4024 6.69785 30.3758 6.69785C29.3491 6.69785 29.2059 6.71511 28.8468 6.8823ZM17.7994 7.47183C17.2079 7.67918 16.6828 8.23386 16.5076 8.83652C16.3878 9.24871 16.3873 9.43808 16.502 11.4186C16.5701 12.5941 16.6258 13.6472 16.6258 13.7589V13.9619L15.3172 13.9621C13.629 13.9625 12.398 14.0805 11.5651 14.3219C8.77867 15.1294 6.59273 17.3113 5.81234 20.0638C5.57766 20.8917 5.30187 22.9541 5.24398 24.3135C5.14547 26.6292 5.94305 28.6903 7.55852 30.2947C8.58422 31.3135 9.75062 31.9796 11.2191 32.3853L11.9773 32.5947H20.2977H28.618L29.3762 32.3853C31.7108 31.7403 33.4958 30.2987 34.5339 28.2197C35.1757 26.9344 35.4143 25.7942 35.3513 24.3135C35.2934 22.9541 35.0177 20.8917 34.783 20.0638C34.1328 17.7705 32.4316 15.7787 30.2698 14.78C28.9523 14.1712 27.6794 13.9627 25.2781 13.9621C24.0842 13.9619 23.9695 13.95 23.9691 13.8252C23.9689 13.75 24.0248 12.6689 24.0935 11.4228C24.2182 9.15902 24.2181 9.15691 24.0537 8.71988C23.8605 8.20668 23.4463 7.75691 22.9539 7.5255C22.6258 7.37136 22.4564 7.3591 20.4148 7.34105C18.4282 7.32355 18.188 7.33558 17.7994 7.47183ZM11.5155 8.20457C11.6908 8.40847 11.7039 8.48582 11.7039 9.31347C11.7039 10.1414 11.6908 10.2184 11.5154 10.4224C11.328 10.6403 11.3209 10.6416 10.3758 10.6416C9.43062 10.6416 9.42359 10.6403 9.23617 10.4224C9.06109 10.2189 9.04766 10.1407 9.04766 9.32652C9.04766 8.02808 9.14156 7.93894 10.4804 7.96738C11.3015 7.9848 11.3328 7.99199 11.5155 8.20457ZM31.5155 8.20457C31.6908 8.40847 31.7039 8.48582 31.7039 9.31347C31.7039 10.1414 31.6908 10.2184 31.5154 10.4224C31.328 10.6403 31.3209 10.6416 30.3758 10.6416C29.4306 10.6416 29.4236 10.6403 29.2362 10.4224C29.0611 10.2189 29.0477 10.1407 29.0477 9.32652C29.0477 8.02808 29.1416 7.93894 30.4804 7.96738C31.3015 7.9848 31.3328 7.99199 31.5155 8.20457ZM22.478 8.76293C22.8968 8.97949 22.9112 9.1241 22.7672 11.6805C22.4591 17.1529 22.4209 17.619 22.2485 18.0093C21.5002 19.7036 19.0952 19.7036 18.3468 18.0093C18.1745 17.619 18.1362 17.1529 17.8281 11.6805C17.6851 9.14074 17.6997 8.98488 18.1014 8.7666C18.4031 8.60261 22.162 8.59941 22.478 8.76293ZM16.7046 15.5049C16.705 15.623 16.7396 16.1962 16.7816 16.7786C16.8927 18.3188 17.1407 18.9391 17.9454 19.6896C19.2741 20.929 21.3212 20.929 22.6499 19.6896C23.4546 18.9391 23.7026 18.3188 23.8137 16.7786C23.8557 16.1962 23.8903 15.6196 23.8907 15.4971L23.8914 15.2744L25.8641 15.3114C27.9691 15.3508 28.3223 15.4015 29.3501 15.8119C30.2709 16.1796 30.9258 16.6213 31.7039 17.3994C32.9874 18.6829 33.5406 19.8844 33.8234 22.0027C34.0572 23.7533 34.0977 25.1909 33.9359 25.9896C33.6674 27.3146 33.0944 28.3647 32.0998 29.3544C31.0985 30.3505 30.0809 30.9 28.7141 31.1823C28.193 31.2899 27.118 31.3057 20.2977 31.3057C13.4773 31.3057 12.4023 31.2899 11.8812 31.1823C10.5145 30.9 9.4968 30.3505 8.49555 29.3544C7.18648 28.0518 6.54766 26.5243 6.54766 24.6967C6.54766 23.7214 6.82242 21.3526 7.02086 20.6169C7.57047 18.5791 8.88094 16.9643 10.7273 16.0495C11.9623 15.4376 12.7022 15.3063 14.9656 15.2971L16.7039 15.29L16.7046 15.5049ZM19.4268 23.5182C18.4541 23.9269 17.8702 24.6841 17.752 25.6896C17.6205 26.8095 18.2541 27.8988 19.3205 28.3861C20.6138 28.9771 22.1664 28.3788 22.7692 27.057C22.9495 26.6618 22.9873 26.4708 22.9879 25.9541C22.9888 25.2 22.771 24.658 22.2553 24.13C21.5359 23.3934 20.3393 23.1346 19.4268 23.5182ZM20.9738 24.7932C21.9172 25.2408 21.9352 26.6489 21.0039 27.1414C20.0553 27.643 18.983 26.9347 19.067 25.8621C19.1397 24.9335 20.1161 24.3862 20.9738 24.7932Z" fill="#175CAB"/>
</g>
<defs>
<clipPath id="clip0_690_48030">
<rect width="40" height="40" fill="white" transform="translate(0.333984)"/>
</clipPath>
</defs>
</svg>
