<svg width="100" height="100" viewBox="0 0 100 100" fill="none" xmlns="http://www.w3.org/2000/svg">
<g clip-path="url(#clip0_2109_34575)">
<ellipse opacity="0.6" cx="45.9426" cy="41.7947" rx="42.5" ry="43" transform="rotate(101.48 45.9426 41.7947)" fill="url(#paint0_radial_2109_34575)"/>
<circle opacity="0.6" cx="28.3236" cy="65.7662" r="25.5" transform="rotate(101.48 28.3236 65.7662)" fill="url(#paint1_radial_2109_34575)"/>
<circle opacity="0.6" cx="51.6244" cy="76.6256" r="25.5" transform="rotate(101.48 51.6244 76.6256)" fill="url(#paint2_radial_2109_34575)"/>
<path fill-rule="evenodd" clip-rule="evenodd" d="M53.7748 12.2094C46.4164 13.2838 39.5821 17.0262 35.0098 22.4848C28.9413 29.7299 26.581 38.8743 28.4191 48.0193C29.3438 52.6193 31.544 57.2718 34.5685 61.0222L35.5074 62.1862L32.8236 64.8708L30.1398 67.5554L29.2443 66.7259C28.2333 65.7898 27.7116 65.604 26.9801 65.9204C26.6806 66.0499 23.7251 68.9072 19.5621 73.092C13.0795 79.6083 12.6218 80.1026 12.3269 80.9076C11.627 82.8172 12.0574 84.6495 13.5572 86.1453C14.7502 87.3349 15.8446 87.8662 17.2936 87.9592C19.2997 88.088 18.9294 88.3772 26.8321 80.5115C31.0633 76.3003 33.9462 73.3179 34.0758 73.0182C34.3921 72.2864 34.2064 71.7646 33.2705 70.7533L32.4413 69.8575L35.1251 67.173L37.8089 64.4884L38.9726 65.4272C43.2408 68.8704 48.4286 71.1181 53.8539 71.8751C56.0013 72.1747 59.8961 72.1739 62.0495 71.8736C72.1074 70.4702 80.7617 64.1126 85.1444 54.9075C87.0778 50.8469 88 46.6921 88 42.043C88 37.2485 87.0408 33.0681 84.9689 28.8324C80.4646 19.6239 71.6995 13.4045 61.4377 12.1356C59.7375 11.9254 55.4362 11.9668 53.7748 12.2094ZM63.2993 15.75C74.0229 18.0152 82.1032 26.1937 84.2978 37.004C84.6862 38.9171 84.8407 42.9838 84.6021 45.0084C83.9832 50.2576 81.9483 55.0781 78.6432 59.124C77.4242 60.6161 75.0764 62.8061 73.4423 63.9749C71.6782 65.2369 68.3672 66.9048 66.2946 67.5754C52.2196 72.1301 37.1355 64.5755 32.5077 50.6536C30.2608 43.8946 30.6695 36.9123 33.6829 30.5793C35.1695 27.455 36.7965 25.1994 39.3414 22.7344C43.5148 18.6919 48.3762 16.3447 54.5326 15.3999C55.0224 15.3248 56.7922 15.2877 58.4656 15.3175C61.018 15.363 61.7966 15.4326 63.2993 15.75ZM54.9964 26.4629C49.035 27.6477 44.3459 31.9311 42.6673 37.7246C40.517 45.1477 44.1635 53.119 51.2311 56.4452C59.7278 60.4439 69.9018 56.0885 72.9406 47.1514C73.4446 45.6691 73.7522 43.9277 73.7522 42.5575C73.7522 41.4604 73.7276 41.3731 73.2956 40.941C72.4458 40.0909 71.0032 40.4313 70.6597 41.5629C70.5794 41.827 70.4764 42.5774 70.4306 43.2307C70.0922 48.0554 66.6548 52.4112 61.9465 53.9814C58.7658 55.0421 55.4161 54.8392 52.4548 53.4061C49.6783 52.0626 47.5729 49.8614 46.3434 47.0168C45.0414 44.0043 45.0216 40.3086 46.291 37.2292C48.0525 32.9563 52.2616 29.8705 56.7588 29.5548C57.4118 29.509 58.1621 29.4059 58.4261 29.3256C59.5573 28.9821 59.8976 27.5391 59.0478 26.689C58.6052 26.2463 58.5515 26.2326 57.3039 26.2461C56.596 26.2539 55.5576 26.3514 54.9964 26.4629ZM71.7486 27.8243C71.5854 27.8643 71.3567 27.9735 71.2403 28.0668C71.124 28.1601 68.4938 31.4097 65.3955 35.2881C62.2972 39.1666 59.67 42.4386 59.5572 42.5592C59.3794 42.7495 59.0046 42.4311 56.7182 40.1466C55.0141 38.4439 53.9274 37.4709 53.6403 37.3908C52.415 37.0484 51.3275 38.1347 51.658 39.3707C51.8196 39.9751 58.516 46.656 59.1063 46.8018C60.1444 47.0582 60.0823 47.1229 66.6647 38.9233C70.0723 34.6786 73.0611 30.9101 73.3063 30.5492C74.058 29.4426 73.8401 28.3698 72.7729 27.9237C72.2564 27.7079 72.2314 27.7055 71.7486 27.8243ZM24.1466 78.599C18.9279 83.8205 17.9613 84.7247 17.5984 84.7247C16.9476 84.7247 16.0319 84.1312 15.6336 83.4514C14.9258 82.2432 14.6485 82.6085 21.3974 75.8561L27.5178 69.7325L28.8935 71.1029L30.2691 72.4734L24.1466 78.599Z" fill="#062549"/>
<path fill-rule="evenodd" clip-rule="evenodd" d="M63.2993 15.75C74.0229 18.0152 82.1032 26.1937 84.2978 37.004C84.6862 38.9171 84.8407 42.9838 84.6021 45.0084C83.9832 50.2576 81.9483 55.0781 78.6432 59.124C77.4242 60.6161 75.0764 62.8061 73.4423 63.9749C71.6782 65.2369 68.3672 66.9048 66.2946 67.5754C52.2196 72.1301 37.1355 64.5755 32.5077 50.6536C30.2608 43.8946 30.6695 36.9123 33.6829 30.5793C35.1695 27.455 36.7965 25.1994 39.3414 22.7344C43.5148 18.6919 48.3762 16.3447 54.5326 15.3999C55.0224 15.3248 56.7922 15.2877 58.4656 15.3175C61.018 15.363 61.7966 15.4326 63.2993 15.75ZM54.9964 26.4629C49.035 27.6477 44.3459 31.9311 42.6673 37.7246C40.517 45.1477 44.1635 53.119 51.2311 56.4452C59.7278 60.4439 69.9018 56.0885 72.9406 47.1514C73.4446 45.6691 73.7522 43.9277 73.7522 42.5575C73.7522 41.4604 73.7276 41.3731 73.2956 40.941C72.4458 40.0909 71.0032 40.4313 70.6597 41.5629C70.5794 41.827 70.4764 42.5774 70.4306 43.2307C70.0922 48.0554 66.6548 52.4112 61.9465 53.9814C58.7658 55.0421 55.4161 54.8392 52.4548 53.4061C49.6783 52.0626 47.5729 49.8614 46.3434 47.0168C45.0414 44.0043 45.0216 40.3086 46.291 37.2292C48.0525 32.9563 52.2616 29.8705 56.7588 29.5548C57.4118 29.509 58.1621 29.4059 58.4261 29.3256C59.5573 28.9821 59.8976 27.5391 59.0478 26.689C58.6052 26.2463 58.5515 26.2326 57.3039 26.2461C56.596 26.2539 55.5576 26.3514 54.9964 26.4629ZM71.7486 27.8243C71.5854 27.8643 71.3567 27.9735 71.2403 28.0668C71.124 28.1601 68.4938 31.4097 65.3955 35.2881C62.2972 39.1666 59.67 42.4386 59.5572 42.5592C59.3794 42.7495 59.0046 42.4311 56.7182 40.1466C55.0141 38.4439 53.9274 37.4709 53.6403 37.3908C52.415 37.0484 51.3275 38.1347 51.658 39.3707C51.8196 39.9751 58.516 46.656 59.1063 46.8018C60.1444 47.0582 60.0823 47.1229 66.6647 38.9233C70.0723 34.6786 73.0611 30.9101 73.3063 30.5492C74.058 29.4426 73.8401 28.3698 72.7729 27.9237C72.2564 27.7079 72.2314 27.7055 71.7486 27.8243ZM24.1466 78.599C18.9279 83.8205 17.9613 84.7247 17.5984 84.7247C16.9476 84.7247 16.0319 84.1312 15.6336 83.4514C14.9258 82.2432 14.6485 82.6085 21.3974 75.8561L27.5178 69.7325L28.8935 71.1029L30.2691 72.4734L24.1466 78.599Z" fill="white"/>
</g>
<defs>
<radialGradient id="paint0_radial_2109_34575" cx="0" cy="0" r="1" gradientUnits="userSpaceOnUse" gradientTransform="translate(45.9426 41.7947) scale(42.5 43)">
<stop stop-color="#4E97ED"/>
<stop offset="1" stop-color="#2FC6E7" stop-opacity="0"/>
</radialGradient>
<radialGradient id="paint1_radial_2109_34575" cx="0" cy="0" r="1" gradientUnits="userSpaceOnUse" gradientTransform="translate(28.3236 65.7662) rotate(90) scale(25.5)">
<stop stop-color="#175CAB"/>
<stop offset="1" stop-color="#175CAB" stop-opacity="0"/>
</radialGradient>
<radialGradient id="paint2_radial_2109_34575" cx="0" cy="0" r="1" gradientUnits="userSpaceOnUse" gradientTransform="translate(51.6244 76.6256) rotate(90) scale(25.5)">
<stop stop-color="#74E6FF"/>
<stop offset="1" stop-color="#74E6FF" stop-opacity="0"/>
</radialGradient>
<clipPath id="clip0_2109_34575">
<rect width="100" height="100" fill="white"/>
</clipPath>
</defs>
</svg>
