<svg width="76" height="60" viewBox="0 0 76 60" fill="none" xmlns="http://www.w3.org/2000/svg">
<g clip-path="url(#clip0_628_46913)">
<path fill-rule="evenodd" clip-rule="evenodd" d="M26.2206 59.7669C22.6205 58.3123 18.9442 56.6105 15.9346 54.1196V54.1482C12.6678 51.4386 10.3915 47.8924 8.79144 44.0039C6.81042 39.1647 5.37228 34.1069 5.57228 28.8304C5.75324 24.2384 6.92471 19.7415 8.87716 15.5773C10.4486 12.2117 12.4868 8.85566 14.944 5.93694C14.8393 5.4901 14.8202 5.06227 14.8964 4.66297C14.9821 4.1781 15.1821 3.71225 15.4679 3.29393C16.0298 2.43828 16.9346 1.74425 17.868 1.23086C18.8108 0.717466 19.7823 0.39422 20.5061 0.22309C20.8681 0.137524 21.1728 0.0804809 21.3824 0.0519592C21.4308 0.047567 21.4731 0.0411456 21.5102 0.0355074C21.5535 0.0289414 21.5897 0.0234375 21.6205 0.0234375H21.6967C21.6967 0.0234375 21.6871 0.042452 21.6681 0.0899882C21.6541 0.131745 21.63 0.178597 21.5994 0.238002L21.5993 0.238125C21.5881 0.259837 21.5761 0.283226 21.5633 0.308655C21.4886 0.466155 21.3704 0.688706 21.2277 0.9574L21.1633 1.07874C20.8204 1.71573 20.3442 2.56187 19.7918 3.37949C19.5156 3.7883 19.2013 4.18761 18.8775 4.55839C18.7156 4.74854 18.5442 4.91967 18.3632 5.08129C18.1918 5.25242 18.0013 5.40454 17.8108 5.53764C17.4203 5.80384 17.0013 6.02251 16.5441 6.13659C16.2012 6.22216 15.8488 6.26019 15.4679 6.24117C14.4107 7.50564 13.4488 8.85566 12.5535 10.2057C9.06765 15.4822 6.56279 21.5668 6.19135 27.9177C5.86753 33.3653 7.17234 38.5563 9.22956 43.5761C10.3153 46.2191 11.6582 48.8051 13.5345 50.9918C15.4107 53.1784 17.6775 54.9087 20.1823 56.3158C24.973 59.0159 31.878 62.0011 38.4973 64.2068C41.5831 63.1895 44.6308 62.0582 47.1928 60.9458C50.612 59.4627 54.0597 57.9415 57.2027 55.9165C60.7171 53.6538 63.4601 50.6115 65.3458 46.8846C67.765 42.093 69.5746 36.6168 69.6984 31.2262C69.8127 26.2729 68.7269 21.3672 66.6887 16.8608C65.0887 13.3241 62.9838 9.79688 60.4123 6.76407C60.0123 6.78308 59.6504 6.74506 59.298 6.65949C58.8313 6.5454 58.4218 6.32674 58.0313 6.06053C57.8408 5.92743 57.6503 5.76581 57.4789 5.60419C57.2979 5.44256 57.1265 5.26193 56.9646 5.08129C56.6408 4.71051 56.3265 4.32071 56.0503 3.90239C55.4979 3.08477 55.0217 2.23862 54.6788 1.60164C54.5444 1.36158 54.4363 1.15298 54.3505 0.987531C54.3208 0.930195 54.2938 0.878041 54.2692 0.831553C54.2479 0.788935 54.2304 0.750138 54.215 0.716019L54.2149 0.715882C54.196 0.673948 54.1802 0.639085 54.1645 0.612886C54.1454 0.555843 54.1359 0.536828 54.1359 0.536828H54.2121C54.2597 0.546336 54.3454 0.555843 54.4502 0.56535C54.6597 0.593872 54.9645 0.650915 55.3264 0.73648C56.0503 0.917118 57.0313 1.23086 57.9646 1.74425C58.898 2.25764 59.8028 2.95167 60.3647 3.80732C60.6504 4.22564 60.8504 4.69149 60.9361 5.17636C61.0123 5.58517 60.9933 6.02251 60.879 6.46935C62.2219 8.08558 63.4315 9.8254 64.5077 11.5652C68.1936 17.5263 70.5651 24.457 70.2508 31.5209C70.0222 36.6263 68.4602 41.7032 66.2506 46.2952C63.8696 51.258 60.2409 54.9848 55.4026 57.6183C50.9453 60.0331 45.8023 62.5716 40.4497 64.8153C43.6974 65.8326 46.8118 66.6312 49.4977 67.078C49.8596 67.135 48.7452 69.027 48.3928 68.9699C45.5547 68.4946 42.1164 67.135 38.6306 65.5568C35.44 66.8403 32.2018 68.0002 29.0112 68.9604C28.6683 69.065 26.8111 67.1826 27.173 67.1255C29.9255 66.6692 33.3352 65.785 36.802 64.7107C35.6157 64.1509 34.4357 63.5793 33.2845 63.0216L33.284 63.0213C30.7012 61.7702 28.2627 60.5889 26.2206 59.7669ZM11.105 10.5408C10.8288 10.9306 10.4573 11.2538 9.9716 11.501L9.96207 11.5105C9.04775 10.8165 8.61917 9.85629 8.5525 8.78197C8.52392 8.24956 8.5906 7.68863 8.70488 7.12771C8.8287 6.56678 9.02871 6.01536 9.24776 5.48296C9.46682 4.95055 9.74302 4.46568 10.0097 4.00933C10.2764 3.55299 10.5621 3.16319 10.8097 2.83044C11.0573 2.48818 11.2764 2.23148 11.4383 2.05084C11.5907 1.8702 11.6859 1.76562 11.6859 1.76562C11.6859 1.76562 11.7717 2.29803 11.8574 3.09664C11.905 3.49594 11.9526 3.9713 11.9907 4.47519C12.0098 4.73188 12.0288 4.98858 12.0383 5.25478C12.0574 5.52098 12.0764 5.79669 12.0764 6.0724C12.086 7.16574 12.0383 8.2971 11.7431 9.24782C11.6002 9.73269 11.4002 10.17 11.105 10.5408ZM7.23867 17.8672C7.14343 18.0859 7.01962 18.2951 6.86723 18.4947V18.4852C6.73389 18.6944 6.56246 18.8845 6.36245 19.0651C5.83862 18.837 5.41004 18.5232 5.06717 18.1239C4.71477 17.7246 4.50524 17.2683 4.34333 16.7454C4.25761 16.4887 4.20047 16.213 4.16237 15.9373C4.12428 15.6616 4.0957 15.3668 4.0957 15.0816C4.0957 14.5112 4.15285 13.9122 4.24809 13.3323C4.48619 12.1914 4.84811 11.1076 5.21003 10.347C5.38146 9.96672 5.53385 9.65298 5.64814 9.43432C5.76243 9.21565 5.83862 9.10156 5.83862 9.10156C5.83862 9.10156 6.02911 9.59594 6.29578 10.3755C6.56246 11.1551 6.86723 12.1724 7.14343 13.2562C7.27677 13.8076 7.37201 14.3401 7.45773 14.882C7.54344 15.4239 7.58154 15.9563 7.54344 16.4507C7.53649 16.5109 7.53009 16.5711 7.52371 16.6311C7.5039 16.8177 7.48423 17.0029 7.4482 17.1827C7.40058 17.4204 7.33391 17.6486 7.23867 17.8672ZM3.24763 20.0966C3.51431 20.5339 3.79051 21.0093 4.04766 21.5037L4.03814 21.4942L4.09686 21.609C4.32735 22.0597 4.56892 22.532 4.76197 22.9963C4.98103 23.5002 5.13342 24.0041 5.22866 24.4984C5.34295 24.9928 5.38104 25.4872 5.30485 25.9626C5.28124 26.159 5.21859 26.3489 5.15455 26.5431C5.1411 26.5839 5.12759 26.6248 5.11437 26.6661C5.02865 26.8943 4.92388 27.132 4.7715 27.3601C3.63812 27.1985 2.7619 26.552 2.21903 25.6203C1.94283 25.164 1.72377 24.622 1.55234 24.0611C1.39995 23.5002 1.32376 22.9012 1.27614 22.3118C1.24756 22.0171 1.22852 21.7223 1.22852 21.4371C1.23804 21.1519 1.25709 20.8762 1.27613 20.6005L1.27614 20.6005C1.31423 20.0586 1.37138 19.5642 1.43805 19.1364C1.60948 18.2997 1.77139 17.7578 1.77139 17.7578C1.77139 17.7578 2.08569 18.2142 2.51428 18.8987C2.58063 19.0071 2.65079 19.1221 2.72448 19.2429C2.8835 19.5037 3.0589 19.7912 3.24763 20.0966ZM8.01012 35.2663C9.1054 34.8955 9.82924 34.173 10.3054 33.3363C10.4293 33.1272 10.5245 32.918 10.6197 32.6898C10.7245 32.4712 10.8197 32.243 10.8959 32.0148C11.0578 31.5585 11.1721 31.1021 11.2483 30.6553C11.2643 30.5719 11.2807 30.4889 11.2969 30.4064C11.3676 30.0466 11.4364 29.6966 11.4674 29.3718C11.496 29.1626 11.515 28.9725 11.5245 28.7919C11.5341 28.6112 11.5436 28.4401 11.5626 28.2785C11.6293 27.651 11.6198 27.2422 11.6198 27.2422C11.6198 27.2422 11.2007 27.4704 10.5912 27.9077C10.4388 28.0123 10.2769 28.1359 10.1054 28.269C9.93403 28.4021 9.76262 28.5541 9.59121 28.7062L9.59113 28.7063C9.25779 29.02 8.90539 29.3908 8.58157 29.7901C8.41966 29.9898 8.25775 30.1989 8.10537 30.4271C8.02917 30.5317 7.95298 30.6458 7.88631 30.7599C7.81965 30.8739 7.76251 30.988 7.70537 31.1021L7.70535 31.1021C7.47677 31.568 7.30534 32.0529 7.2101 32.5472C7.16247 32.7944 7.1339 33.0321 7.14343 33.2793C7.15295 33.517 7.19105 33.7546 7.25772 33.9828C7.39105 34.4487 7.61963 34.8765 7.99108 35.2568L8.01012 35.2663ZM1.8478 34.1645C1.67637 33.9458 1.53351 33.6986 1.39064 33.4419L1.40969 33.4324C1.12397 32.919 0.885864 32.3771 0.685857 31.8162C0.576593 31.5526 0.510854 31.2803 0.447028 31.016L0.438229 30.9796C0.37156 30.7039 0.304891 30.4281 0.25727 30.1619C0.152504 29.6295 0.0667871 29.1352 0.0382146 28.7073C-0.0189303 27.8517 0.00011804 27.2812 0.00011804 27.2812C0.00011804 27.2812 0.419181 27.633 1.0192 28.2035C1.14778 28.3276 1.28848 28.461 1.4377 28.6026L1.43771 28.6026L1.43778 28.6026C1.9628 29.1006 2.59321 29.6985 3.17166 30.3426L3.18885 30.3615L3.18891 30.3616L3.18898 30.3617L3.18905 30.3618L3.18911 30.3618L3.18917 30.3619L3.18923 30.362L3.18931 30.3621L3.18937 30.3621L3.18943 30.3622L3.1895 30.3623L3.18954 30.3623C3.36512 30.556 3.54874 30.7586 3.71454 30.9701C3.80277 31.084 3.89667 31.2009 3.99159 31.3189L3.99168 31.3191C4.07091 31.4176 4.15086 31.5171 4.22884 31.6165C4.56218 32.0539 4.85743 32.5007 5.06696 32.9666C5.17173 33.1948 5.24792 33.4229 5.32412 33.6606C5.40031 33.8983 5.45745 34.136 5.48603 34.3736C5.54317 34.8585 5.48603 35.3529 5.28602 35.8758C4.14312 35.9804 3.20023 35.543 2.40973 34.7825C2.20972 34.6018 2.01924 34.3927 1.8478 34.1645ZM9.27717 42.0691C9.49623 42.4969 9.81052 42.8867 10.2486 43.1909C11.2487 42.6205 11.8201 41.7649 12.1249 40.8331C12.2011 40.605 12.2582 40.3673 12.3058 40.1201C12.3154 40.0583 12.3249 39.9989 12.3344 39.9395C12.3439 39.8801 12.3535 39.8206 12.363 39.7588L12.4201 39.388C12.4868 38.8937 12.4963 38.4088 12.4868 37.9334C12.4297 36.9922 12.363 36.108 12.2487 35.4616C12.1958 35.1624 12.1429 34.9122 12.1052 34.7334L12.1051 34.7333L12.1051 34.7332L12.0963 34.6915C12.0677 34.5108 12.0487 34.4062 12.0487 34.4062C12.0487 34.4062 11.9535 34.4918 11.8011 34.6439C11.6392 34.796 11.4392 35.0242 11.2106 35.3094C10.7439 35.8799 10.1629 36.6975 9.68671 37.6482C9.23907 38.5894 8.94382 39.6542 8.95335 40.662C8.95335 40.9187 8.99145 41.1564 9.04859 41.3941C9.10574 41.6318 9.19145 41.8599 9.29622 42.0691H9.27717ZM3.92426 43.105C3.70521 42.9243 3.49567 42.7247 3.31472 42.506C2.94327 42.0782 2.6004 41.5933 2.29563 41.0989C1.66704 40.1197 1.28607 39.0454 1.00987 38.2468C0.86701 37.8475 0.771768 37.5147 0.705099 37.277C0.647955 37.0394 0.628906 36.9062 0.628906 36.9062C0.628906 36.9062 1.09559 37.1534 1.82895 37.5432C2.55278 37.9425 3.49567 38.494 4.39094 39.1309C5.31479 39.7679 6.2291 40.481 6.8196 41.2986C6.84376 41.334 6.86793 41.3691 6.892 41.404L6.89203 41.4041C7.01027 41.5759 7.12628 41.7444 7.22914 41.9261C7.35295 42.1352 7.4482 42.3634 7.52439 42.5916C7.66725 43.0574 7.71487 43.5613 7.61963 44.1127C6.51483 44.4265 5.50527 44.1888 4.59095 43.5993C4.36237 43.4567 4.13379 43.2856 3.92426 43.105ZM12.1913 48.3344C12.4865 49.2851 13.1723 50.0647 14.2199 50.3119C14.9438 49.4182 15.1819 48.4485 15.239 47.5263C15.2866 46.6041 15.1723 45.7389 15.0676 45.0069C15.0295 44.6931 14.9057 44.1702 14.7914 43.7614C14.6771 43.3431 14.5437 42.9628 14.4295 42.6395C14.3341 42.3697 14.2386 42.1463 14.1654 41.9747L14.1247 41.879C14.058 41.6983 14.0104 41.5938 14.0104 41.5938C14.0104 41.5938 13.9342 41.6983 13.8199 41.879C13.6961 42.0691 13.5437 42.3353 13.3723 42.6681C13.0294 43.3241 12.6103 44.2558 12.3246 45.2826C12.2484 45.5393 12.1818 45.7959 12.1341 46.0717C12.0865 46.3188 12.0484 46.566 12.0294 46.8322C12.0103 47.0889 12.0294 47.3456 12.0484 47.6023C12.077 47.859 12.1341 48.0967 12.2008 48.3439L12.1913 48.3344ZM3.21875 45.9844C3.21875 45.9844 3.73305 46.127 4.51403 46.3742L4.50451 46.3837C5.28549 46.6309 6.30457 46.9921 7.30461 47.458C7.55224 47.5721 7.79986 47.6957 8.04749 47.8288C8.30464 47.9714 8.5618 48.1235 8.80942 48.2756L8.80946 48.2756C9.05708 48.4277 9.30469 48.5799 9.53326 48.732C9.60421 48.7821 9.67609 48.8314 9.74745 48.8803C9.90599 48.9889 10.062 49.0959 10.1999 49.2073C11.0381 49.8633 11.6571 50.6144 11.9143 51.7172C10.9905 52.4018 9.91422 52.5159 8.7999 52.1641C7.68557 51.8123 6.5522 50.9852 5.63788 49.8918C5.60243 49.8476 5.56698 49.8043 5.53181 49.7613L5.53175 49.7612L5.53173 49.7612C5.45355 49.6657 5.37678 49.5719 5.30454 49.4735L5.14263 49.2644L5.01881 49.0932C4.8569 48.8746 4.70452 48.6464 4.56165 48.4277C4.27593 47.9904 4.0283 47.5721 3.8283 47.2108C3.62829 46.859 3.46638 46.5548 3.36161 46.3361C3.26637 46.1175 3.21875 45.9844 3.21875 45.9844ZM18.0484 54.2837C18.677 55.0728 19.5532 55.5957 20.6389 55.5482C21.0866 54.4834 21.0104 53.4756 20.7056 52.5439C20.4008 51.6217 19.877 50.7661 19.3341 50.0245C18.7912 49.2829 18.2484 48.6555 17.8388 48.1991C17.6797 48.0175 17.5386 47.8661 17.43 47.7495L17.4298 47.7493L17.4298 47.7492L17.3531 47.6667C17.2388 47.5431 17.1721 47.4766 17.1721 47.4766C17.1721 47.4766 17.134 47.5907 17.0769 47.7903C17.0198 47.9995 16.9626 48.2847 16.9055 48.646C16.7912 49.3685 16.734 50.3573 16.8864 51.3935C17.0388 52.4203 17.4102 53.4851 18.0388 54.2837H18.0484ZM23.8867 56.0654C24.3153 57.0257 24.9439 57.9669 25.763 58.5848C26.1725 58.8891 26.6297 59.1172 27.1154 59.2123C27.6011 59.3074 28.125 59.2789 28.6393 59.0697C28.6679 57.9193 28.3536 57.0066 27.8583 56.208C27.363 55.4189 26.6583 54.7344 25.9344 54.1355C25.2106 53.546 24.4677 53.0516 23.9058 52.6999C23.3439 52.3481 22.9629 52.1484 22.9629 52.1484C22.9629 52.1484 22.9629 52.272 22.9915 52.4907C23.0105 52.6999 23.0486 53.0136 23.1058 53.3844C23.2296 54.1164 23.4677 55.1147 23.8963 56.0749L23.8867 56.0654ZM27.2588 60.9536C26.754 60.5828 26.2969 60.3071 25.8111 60.136C25.3254 59.9649 24.8206 59.8698 24.2873 59.8508C23.2301 59.8032 22.0777 60.0029 20.9729 60.2691C19.8681 60.5448 18.8204 60.868 18.0299 61.1343C17.2489 61.3909 16.7441 61.6001 16.7441 61.6001C16.7441 61.6001 17.2394 61.8853 18.049 62.2276C18.849 62.5698 19.9633 62.9596 21.1729 63.1688C22.3729 63.378 23.6872 63.4065 24.8397 63.0737C25.973 62.7505 26.9445 62.0565 27.2683 60.9536H27.2588ZM18.7143 57.2486C18.0285 58.1708 17.0476 58.5891 15.9428 58.6461C14.838 58.6937 13.6189 58.3799 12.495 57.8665C11.3712 57.3627 10.3521 56.6686 9.63777 56.0792C9.33303 55.831 9.0823 55.6031 8.89129 55.4294L8.89117 55.4293L8.79012 55.3376C8.59012 55.1475 8.48535 55.0334 8.48535 55.0334C8.48535 55.0334 9.03775 55.0144 9.90445 55.0049C10.1675 55.0049 10.4581 55.0021 10.768 54.9992H10.7681H10.7682H10.7683H10.7684H10.7684H10.7685H10.7686H10.7687H10.7688H10.7689H10.7689H10.769H10.7691H10.7692H10.7693H10.7694H10.7695H10.7695H10.7696H10.7697H10.7698H10.7699H10.7699H10.77H10.7701H10.7702H10.7703H10.7704H10.7704H10.7705C11.4584 54.9926 12.2411 54.9852 13.0284 55.0049C14.1713 55.0429 15.3332 55.1285 16.3332 55.4327C17.3333 55.7369 18.1619 56.2693 18.7143 57.2486ZM10.2101 25.8522C10.553 25.5195 10.8387 25.1392 11.0863 24.7494C11.353 24.3596 11.5911 23.9603 11.7816 23.5515C11.8292 23.4517 11.872 23.3519 11.9149 23.2521L11.9149 23.252L11.915 23.2519C11.9578 23.1521 12.0007 23.0523 12.0483 22.9525C12.1435 22.7624 12.2292 22.5722 12.3054 22.3821C12.4578 22.0113 12.5721 21.669 12.6673 21.3838C12.8959 20.8039 12.9912 20.4141 12.9912 20.4141C12.9912 20.4141 12.5245 20.5282 11.8292 20.7848C11.1149 21.0415 10.2577 21.4694 9.41007 22.0778C9.20054 22.2299 8.98148 22.3916 8.791 22.5627C8.60052 22.7338 8.41956 22.924 8.24813 23.1141C7.90526 23.5039 7.60048 23.9222 7.39095 24.3691C7.20047 24.8159 7.0957 25.2913 7.0957 25.7571C7.0957 25.9948 7.11475 26.223 7.19095 26.4607C7.26714 26.6983 7.3719 26.9265 7.51477 27.1547C8.66719 27.0501 9.48626 26.5177 10.1911 25.8522H10.2101ZM15.8967 14.3705C15.992 14.2184 16.0491 14.1328 16.0491 14.1328H15.7062C15.4872 14.1328 15.1919 14.1613 14.83 14.2089C14.4681 14.2564 14.0395 14.323 13.5824 14.4275L13.445 14.4616C13.2591 14.5076 13.0683 14.5549 12.8776 14.6082L12.809 14.6309C12.6015 14.6997 12.3872 14.7707 12.1728 14.8649C11.6966 15.055 11.2108 15.2832 10.7823 15.5684C10.3632 15.8536 9.9727 16.1864 9.65841 16.5667C9.4965 16.7473 9.37268 16.9565 9.26791 17.1656C9.16315 17.3748 9.07743 17.5934 9.02029 17.8216C8.96314 18.0498 8.93457 18.2875 8.93457 18.5252C8.94409 18.7723 8.99171 19.0195 9.07743 19.2762C9.63936 19.3713 10.1632 19.3428 10.6489 19.2382C11.1251 19.1336 11.5918 18.953 12.0013 18.7153C12.2109 18.6012 12.4014 18.4681 12.5918 18.3255C12.6574 18.2797 12.7185 18.2294 12.7812 18.1776L12.7812 18.1776C12.8096 18.1542 12.8384 18.1305 12.868 18.1068C12.9157 18.0688 12.9609 18.0308 13.0062 17.9927C13.0514 17.9547 13.0966 17.9167 13.1442 17.8787C13.5062 17.5744 13.8205 17.2322 14.1062 16.8899C14.411 16.5572 14.6872 16.2149 14.9157 15.8917C14.9443 15.8536 14.9729 15.8132 15.0015 15.7728C15.03 15.7324 15.0586 15.692 15.0872 15.654L15.2586 15.4258C15.2875 15.3838 15.3157 15.3433 15.3431 15.3038L15.3432 15.3038L15.3436 15.3032L15.344 15.3026L15.3443 15.3022L15.3443 15.3021L15.3443 15.3021L15.3445 15.3019C15.416 15.1991 15.4826 15.1033 15.5443 15.0075C15.6666 14.8245 15.7694 14.6559 15.8529 14.5192L15.8529 14.5191L15.853 14.5191C15.8866 14.464 15.917 14.4141 15.9443 14.3705H15.8967ZM17.9718 10.9142C18.3432 10.648 18.6861 10.3722 18.9908 10.106L19.0431 10.0604C19.3282 9.81155 19.5939 9.57957 19.8004 9.36448C19.9148 9.24536 20.0239 9.13919 20.1198 9.04598C20.2075 8.96065 20.2841 8.88618 20.3433 8.82257C20.4671 8.68947 20.5338 8.61341 20.5338 8.61341C20.5338 8.61341 20.0575 8.50883 19.3147 8.43277C18.9432 8.39474 18.5146 8.37573 18.0479 8.38523C17.5813 8.38523 17.067 8.42326 16.5622 8.49932C15.5336 8.65144 14.505 8.9937 13.724 9.58315C13.343 9.87787 13.0192 10.2391 12.7906 10.648C12.5811 11.0663 12.4763 11.5416 12.4954 12.0645C13.5526 12.5304 14.5526 12.4829 15.4669 12.2167C15.9336 12.0836 16.3717 11.8934 16.7812 11.6652C17.2003 11.4466 17.6003 11.1899 17.9622 10.9142H17.9718ZM54.6501 63.7079C55.8597 63.4987 56.974 63.1184 57.7741 62.7666C58.5741 62.4244 59.0789 62.1392 59.0789 62.1392C59.0789 62.1392 58.5646 61.9395 57.7836 61.6733C57.0026 61.4071 55.955 61.0744 54.8406 60.8082C53.7358 60.542 52.5834 60.3423 51.5262 60.3898C50.9929 60.4089 50.4881 60.5039 50.0024 60.6751C49.5166 60.8557 49.0595 61.1219 48.5547 61.4927C48.8785 62.5955 49.85 63.2896 50.9833 63.6128C52.1262 63.9455 53.4406 63.917 54.6406 63.7079H54.6501ZM50.0588 59.1178C49.6492 59.422 49.1921 59.6502 48.7063 59.7453L48.6968 59.7358C48.2111 59.8308 47.6872 59.8118 47.1825 59.5931C47.1539 58.4428 47.4682 57.5301 47.9634 56.7315C48.4587 55.9329 49.1635 55.2483 49.8873 54.6589C50.6112 54.0694 51.354 53.5751 51.916 53.2233C52.4779 52.881 52.8589 52.6719 52.8589 52.6719C52.8589 52.6719 52.8589 52.7955 52.8398 53.0141C52.8208 53.2328 52.7827 53.537 52.7255 53.9078C52.6017 54.6494 52.3636 55.6381 51.935 56.5984C51.5064 57.5586 50.8778 58.4998 50.0588 59.1178ZM62.7924 55.5378C61.6495 55.5758 60.4875 55.6519 59.4875 55.9561C58.4874 56.2604 57.6588 56.7928 57.1064 57.772C57.7922 58.6942 58.7732 59.122 59.878 59.1696C60.9828 59.2266 62.2019 58.9034 63.3257 58.39C64.4496 57.8861 65.4686 57.1921 66.183 56.6026C66.4686 56.3775 66.7067 56.1584 66.8927 55.9872L66.8928 55.9871C66.9425 55.9414 66.9885 55.8991 67.0306 55.8611C67.2306 55.6709 67.3354 55.5568 67.3354 55.5568C67.3354 55.5568 66.783 55.5473 65.9163 55.5283C65.6525 55.5283 65.3611 55.5255 65.0503 55.5226H65.0502C64.3623 55.5161 63.5796 55.5087 62.7924 55.5283V55.5378ZM57.7729 54.815C57.1444 55.6136 56.2681 56.1365 55.1824 56.0795C54.7443 55.0146 54.8205 54.0069 55.1157 53.0752C55.4205 52.1435 55.9538 51.2973 56.4872 50.5558C57.0186 49.8299 57.5591 49.2133 57.9569 48.7595L57.957 48.7595L57.9825 48.7304C58.1825 48.5022 58.3444 48.3216 58.4682 48.198C58.5825 48.0744 58.6492 48.0078 58.6492 48.0078C58.6492 48.0078 58.6777 48.1219 58.7349 48.3216C58.792 48.5307 58.8492 48.8159 58.9063 49.1772C59.0301 49.8998 59.0778 50.8885 58.9254 51.9248C58.773 52.9611 58.4015 54.0164 57.7729 54.815ZM70.1739 50.4231C70.2882 50.29 70.4025 50.1474 70.5072 50.0048L70.6691 49.7956L70.7929 49.6245C70.9549 49.3963 71.1072 49.1777 71.2501 48.959C71.5358 48.5217 71.7835 48.1033 71.9835 47.7421C72.1835 47.3808 72.3454 47.0765 72.4501 46.8674C72.5549 46.6487 72.6025 46.5156 72.6025 46.5156C72.6025 46.5156 72.0978 46.6677 71.3073 46.9054C70.5263 47.1526 69.5072 47.5139 68.5071 47.9797C68.2595 48.0938 68.0119 48.2174 67.7643 48.3505C67.4976 48.5026 67.25 48.6452 67.0023 48.7974L66.9479 48.8307L66.8867 48.8679L66.8262 48.9045C66.6382 49.0183 66.4528 49.1305 66.2785 49.2537C66.0499 49.4058 65.8213 49.5579 65.6118 49.7291C64.7737 50.3851 64.1546 51.1361 63.8975 52.239C64.8213 52.9235 65.8975 53.0471 67.0119 52.6858C68.1262 52.3341 69.25 51.5069 70.1739 50.4136V50.4231ZM62.4498 43.2054C62.8022 43.8614 63.2212 44.7836 63.507 45.8104H63.5165C63.5926 46.067 63.6497 46.3331 63.7068 46.5991L63.7068 46.5992L63.7069 46.5992L63.7069 46.5992L63.7069 46.5993L63.7069 46.5993L63.7069 46.5993L63.7069 46.5994L63.7069 46.5994L63.7069 46.5994L63.707 46.5995L63.707 46.5995C63.7546 46.8467 63.7927 47.1034 63.8117 47.3601C63.8213 47.6168 63.8117 47.8735 63.7927 48.1302C63.7736 48.3869 63.707 48.6341 63.6403 48.8717C63.345 49.8225 62.6593 50.6021 61.6117 50.8493C60.8878 49.9651 60.6497 48.9953 60.5926 48.0731C60.5475 47.1997 60.6561 46.3689 60.7487 45.6615L60.764 45.5442C60.8021 45.24 60.9259 44.7171 61.0402 44.3083C61.1484 43.9034 61.2736 43.5496 61.3836 43.2389L61.4021 43.1864C61.4975 42.9166 61.5929 42.6931 61.6662 42.5215L61.7069 42.4258L61.7798 42.2276L61.8117 42.1406C61.8117 42.1406 61.8783 42.2452 62.0021 42.4258C62.126 42.6065 62.2783 42.8727 62.4498 43.2054ZM75.1167 37.81C75.1738 37.5723 75.2024 37.4297 75.2024 37.4297C75.2024 37.4297 74.7357 37.6769 74.0023 38.0667C73.2785 38.466 72.3356 39.0174 71.4499 39.6544C70.526 40.2819 69.6117 40.9949 69.0212 41.822C68.9814 41.8803 68.9409 41.9379 68.9004 41.9953L68.9003 41.9954L68.9003 41.9954C68.7956 42.144 68.6914 42.2918 68.6021 42.4495C68.4783 42.6682 68.3831 42.8868 68.3069 43.1245C68.164 43.5904 68.1164 44.0943 68.2117 44.6457C69.3165 44.9594 70.326 44.7217 71.2403 44.1323C71.4689 43.9897 71.688 43.8186 71.907 43.6379C72.1166 43.4573 72.3356 43.2576 72.5166 43.039C72.888 42.6016 73.2309 42.1168 73.5357 41.6224C74.1738 40.6431 74.5547 39.5688 74.8214 38.7702C74.9548 38.3709 75.0595 38.0382 75.1262 37.8005L75.1167 37.81ZM66.5539 42.616C66.3349 43.0438 66.0206 43.4336 65.5825 43.7378C64.5824 43.1674 64.011 42.3117 63.7062 41.38C63.63 41.1518 63.5729 40.9047 63.5253 40.667C63.5057 40.5826 63.4951 40.5026 63.4843 40.4211L63.478 40.3743C63.4749 40.3517 63.4717 40.3288 63.4681 40.3057L63.411 39.9349C63.3538 39.4405 63.3348 38.9462 63.3538 38.4803C63.411 37.5391 63.4681 36.6549 63.5919 36.0084C63.6448 35.7093 63.6977 35.4591 63.7355 35.2802L63.7355 35.2801L63.7443 35.2383C63.7824 35.0577 63.8015 34.9531 63.8015 34.9531C63.8015 34.9531 63.8967 35.0387 64.0491 35.1908C64.211 35.3429 64.4015 35.5711 64.6396 35.8563C65.1063 36.4267 65.6872 37.2444 66.1635 38.1951C66.6111 39.1363 66.8968 40.2011 66.8968 41.2089C66.9063 41.4656 66.8587 41.7033 66.8016 41.9409C66.7444 42.1691 66.6587 42.4068 66.5539 42.616ZM72.6603 30.8643C72.4698 31.0735 72.2889 31.2826 72.1174 31.4918C71.946 31.7105 71.7746 31.9196 71.5936 32.1383C71.2603 32.5756 70.965 33.032 70.7555 33.4883C70.6507 33.7165 70.565 33.9542 70.4983 34.1919C70.4221 34.4295 70.365 34.6672 70.3364 34.9049C70.2793 35.3898 70.3364 35.8841 70.5364 36.407C71.6793 36.5116 72.6318 36.0743 73.4127 35.3137C73.6127 35.1236 73.7937 34.9144 73.9747 34.6957C74.1461 34.4676 74.289 34.2299 74.4318 33.9732C74.708 33.4598 74.9461 32.9084 75.1557 32.357C75.2604 32.0812 75.3366 31.796 75.4033 31.5203C75.4699 31.2446 75.5271 30.9689 75.5747 30.7027C75.67 30.1703 75.7557 29.6759 75.7938 29.2386C75.8414 28.3829 75.8319 27.8125 75.8319 27.8125C75.8319 27.8125 75.4128 28.1643 74.8223 28.7252C74.6735 28.8713 74.5072 29.0303 74.3295 29.2002L74.329 29.2007C73.8246 29.6829 73.2286 30.2528 72.6794 30.8643H72.6603ZM68.6597 33.8167C68.6502 34.0543 68.6121 34.292 68.5454 34.5202L68.5264 34.5392C68.4025 34.9956 68.1645 35.4329 67.793 35.8132C66.6977 35.4329 65.9739 34.7103 65.4977 33.8832C65.3739 33.674 65.2786 33.4554 65.1834 33.2367C65.0786 33.0085 64.9834 32.7899 64.9072 32.5617C64.7453 32.1149 64.631 31.649 64.5548 31.2022L64.543 31.1411L64.5236 31.0416L64.5063 30.9533C64.4355 30.5935 64.3667 30.2435 64.3357 29.9187C64.3072 29.7095 64.2881 29.5194 64.2786 29.3387C64.2691 29.1486 64.2595 28.9775 64.2405 28.8254C64.1738 28.1979 64.1738 27.7891 64.1738 27.7891C64.1738 27.7891 64.6024 28.0172 65.2024 28.4546C65.3548 28.5591 65.5167 28.6827 65.6882 28.8158C65.8691 28.9489 66.0406 29.0916 66.2025 29.2532C66.5358 29.5669 66.8787 29.9377 67.212 30.337C67.3739 30.5462 67.5359 30.7553 67.6882 30.974C67.7644 31.0786 67.8406 31.1927 67.9073 31.3067C67.9739 31.4206 68.0309 31.5345 68.088 31.6485L68.0883 31.649C68.3168 32.1149 68.4883 32.5997 68.5835 33.0846C68.6311 33.3318 68.6597 33.579 68.6597 33.8167ZM70.5826 25.0487C70.4683 25.5431 70.4302 26.028 70.5064 26.5128C70.5445 26.7505 70.6207 26.9882 70.6969 27.2164C70.7826 27.454 70.8874 27.6822 71.0398 27.9104C72.1732 27.7488 73.0494 27.1023 73.5923 26.1706C73.8685 25.7047 74.0875 25.1723 74.2589 24.6114C74.4113 24.0504 74.4875 23.4515 74.5352 22.862L74.5352 22.8613C74.5542 22.5668 74.5733 22.2724 74.5828 21.9779C74.5828 21.6927 74.5637 21.4169 74.5352 21.1412C74.4971 20.5993 74.4304 20.0954 74.3732 19.6676C74.2018 18.831 74.0399 18.2891 74.0399 18.2891C74.0399 18.2891 73.7256 18.7359 73.297 19.4299C73.1357 19.6933 72.9519 19.9905 72.7499 20.3172L72.746 20.3235L72.5637 20.6183C72.297 21.0652 72.0208 21.5405 71.7636 22.0349L71.7049 22.1499L71.7048 22.15L71.7048 22.15L71.7047 22.1501L71.7047 22.1502L71.7046 22.1504C71.4742 22.6009 71.2327 23.073 71.0398 23.5371C70.8207 24.0409 70.6684 24.5448 70.5731 25.0392L70.5826 25.0487ZM67.5548 23.6532C67.8977 24.043 68.2024 24.4613 68.412 24.9081L68.3929 24.9271C68.5834 25.374 68.6882 25.8494 68.6882 26.3152C68.6882 26.5529 68.6691 26.7811 68.5929 27.0187C68.5167 27.2469 68.412 27.4751 68.2691 27.7033C67.1262 27.5892 66.2976 27.0663 65.5928 26.4008C65.2499 26.068 64.9642 25.6877 64.7166 25.2979C64.4499 24.9081 64.2118 24.4993 64.0213 24.1C63.9775 24.0082 63.9378 23.9144 63.8983 23.8213L63.8983 23.8213L63.8983 23.8213L63.8983 23.8212L63.8983 23.8212C63.852 23.7119 63.8061 23.6037 63.7547 23.5011L63.7237 23.4294L63.6891 23.3499L63.6429 23.2444C63.5957 23.1368 63.5499 23.0322 63.507 22.9306C63.3546 22.5598 63.2404 22.2176 63.1451 21.9229C62.9165 21.3429 62.8213 20.9531 62.8213 20.9531C62.8213 20.9531 63.288 21.0672 63.9832 21.3239C64.6975 21.5806 65.5547 22.0084 66.4024 22.6169L66.4851 22.6796C66.6616 22.8132 66.8474 22.954 67.0119 23.1018C67.2024 23.2729 67.3834 23.463 67.5548 23.6532ZM69.9735 9.63281C69.9735 9.63281 69.783 10.1272 69.5163 10.9068C69.2497 11.6864 68.9449 12.7037 68.6687 13.7875C68.5353 14.3294 68.4401 14.8713 68.3544 15.4037C68.2687 15.9456 68.2306 16.478 68.2687 16.9724C68.2756 17.0326 68.282 17.0928 68.2884 17.1529C68.3082 17.3395 68.3279 17.5247 68.3639 17.7045C68.4115 17.9421 68.4782 18.1703 68.5734 18.389C68.6687 18.6076 68.7925 18.8168 68.9449 19.0165C69.0878 19.2161 69.2497 19.4158 69.4497 19.5964C69.983 19.3682 70.4116 19.0545 70.7449 18.6552C71.0878 18.2559 71.3069 17.79 71.4688 17.2766C71.545 17.0199 71.6021 16.7442 71.6497 16.4685C71.6878 16.1928 71.7259 15.8981 71.7164 15.6129C71.7164 15.0329 71.6593 14.4435 71.564 13.8635C71.3354 12.7227 70.964 11.6388 70.6021 10.8783C70.483 10.614 70.3684 10.3819 70.2745 10.1914C70.2332 10.1078 70.1959 10.0323 70.164 9.96557C70.0497 9.75641 69.9735 9.63281 69.9735 9.63281ZM66.1641 17.1083C66.3356 17.2889 66.4594 17.4981 66.5642 17.7072L66.6023 17.7262C66.707 17.9354 66.7927 18.1541 66.8499 18.3822C66.907 18.6104 66.9356 18.8481 66.9356 19.0858C66.9165 19.3234 66.8689 19.5801 66.7927 19.8273C66.2213 19.9224 65.6975 19.8939 65.2213 19.7893C64.745 19.6847 64.2784 19.5041 63.8688 19.2664C63.6593 19.1523 63.4593 19.0192 63.2783 18.8766C63.2439 18.8491 63.2094 18.8228 63.1754 18.7969C63.1154 18.7511 63.0568 18.7065 63.0021 18.6579C62.9069 18.5819 62.8116 18.5058 62.7259 18.4298C62.364 18.1255 62.0497 17.7928 61.764 17.4505C61.4592 17.1178 61.183 16.7755 60.9544 16.4523C60.9398 16.4304 60.9259 16.4092 60.9122 16.3884C60.8723 16.3278 60.8351 16.2712 60.7925 16.2146C60.7572 16.1743 60.7272 16.1313 60.6983 16.0899L60.6983 16.0899C60.6727 16.0532 60.6479 16.0177 60.6211 15.9864C60.5068 15.8343 60.4116 15.7012 60.3258 15.5681C60.1978 15.3865 60.0984 15.2191 60.0174 15.0829C59.984 15.0266 59.9537 14.9756 59.9258 14.9311C59.8211 14.7695 59.7734 14.6839 59.7734 14.6839C59.7734 14.6839 59.8973 14.6744 60.1163 14.6839C60.3354 14.6934 60.6306 14.7124 60.9925 14.76C61.3545 14.8075 61.783 14.8741 62.2402 14.9786C62.4688 15.0262 62.7069 15.0832 62.945 15.1593C63.1736 15.2258 63.4117 15.3114 63.6498 15.4065C64.126 15.5966 64.6117 15.8248 65.0403 16.11C65.4594 16.4047 65.8403 16.7375 66.1641 17.1083ZM65.8501 12.0323C66.7644 11.3478 67.193 10.3875 67.2597 9.30371C67.2882 8.77131 67.2215 8.21038 67.1073 7.64945C66.9834 7.08852 66.7834 6.54661 66.5644 6.0047C66.3446 5.49282 66.0808 5.02488 65.8323 4.58398L65.8322 4.58389L65.8025 4.53108C65.5358 4.07473 65.2501 3.68493 65.0024 3.35218C64.7643 3.00992 64.5357 2.75322 64.3738 2.57258C64.2119 2.39195 64.1262 2.29688 64.1262 2.29688C64.1262 2.29688 64.0405 2.82928 63.9548 3.61838C63.9072 4.01769 63.8595 4.49305 63.8214 4.99693C63.8024 5.24412 63.7833 5.51032 63.7738 5.77652C63.7707 5.86244 63.7667 5.94935 63.7626 6.03692C63.754 6.2207 63.7452 6.40742 63.7452 6.59415C63.7357 7.68748 63.7833 8.81884 64.0786 9.76957C64.2119 10.2544 64.4214 10.6918 64.7167 11.0625C64.9929 11.4523 65.3643 11.7756 65.8501 12.0228V12.0323ZM59.2499 9.03596C60.269 9.18808 61.3071 9.53984 62.0881 10.1198V10.1293C62.4786 10.424 62.8024 10.7758 63.0215 11.1846C63.231 11.6029 63.3453 12.0783 63.3167 12.6012C62.2595 13.0575 61.2595 13.0195 60.3452 12.7533C59.8785 12.6202 59.4404 12.43 59.0308 12.2019C58.6118 11.9737 58.2118 11.7265 57.8498 11.4508C57.4784 11.1846 57.1355 10.9089 56.8308 10.6427C56.526 10.3765 56.2498 10.1293 56.0212 9.90112C55.9388 9.81889 55.8614 9.74284 55.7903 9.67296C55.664 9.54893 55.5575 9.44434 55.4783 9.35921C55.345 9.22611 55.2783 9.15005 55.2783 9.15005C55.2783 9.15005 55.7545 9.04547 56.4974 8.96941C56.8689 8.94089 57.2974 8.92188 57.7641 8.92188C58.2403 8.92188 58.7451 8.9504 59.2499 9.03596Z" fill="url(#paint0_linear_628_46913)"/>
<path d="M33.203 33.3166V36.2019H30.8182V40.7359H27.138V36.2019H18.7178V33.6111L24.4883 20.5391L27.6974 21.7462L22.6335 33.3166H27.1675L27.5502 28.341H30.8182V33.3166H33.203Z" fill="#062549"/>
<path d="M37.4368 36.408C38.1237 36.408 38.6929 36.6337 39.1444 37.0851C39.6154 37.5366 39.851 38.1058 39.851 38.7927C39.851 39.1657 39.7921 39.5484 39.6743 39.941C39.5565 40.3335 39.3603 40.834 39.0855 41.4425L37.1718 45.7998H34.8754L36.0825 40.7359C35.4151 40.2844 35.0815 39.6269 35.0815 38.7633C35.0815 38.096 35.3072 37.5366 35.7586 37.0851C36.21 36.6337 36.7694 36.408 37.4368 36.408Z" fill="#062549"/>
<path d="M48.2358 20.5685C50.4733 20.5685 52.1907 21.2653 53.388 22.6588C54.5853 24.0328 55.184 25.8974 55.184 28.2527C55.184 30.9417 54.7816 33.1498 53.9769 34.877C53.1721 36.5846 51.9356 37.9488 50.2672 38.9694C48.5989 39.99 46.3908 40.8242 43.6429 41.4719L42.848 38.7927C45.4388 38.1058 47.4016 37.2225 48.7363 36.143C50.0906 35.0439 50.8953 33.5522 51.1505 31.6679C50.071 33.0419 48.6578 33.7288 46.9109 33.7288C45.8903 33.7288 44.9482 33.4737 44.0845 32.9633C43.2406 32.4334 42.5732 31.6777 42.0825 30.6964C41.5918 29.715 41.3465 28.5766 41.3465 27.2811C41.3465 25.9268 41.6507 24.7492 42.2592 23.7482C42.8676 22.7275 43.692 21.9424 44.7323 21.3929C45.7921 20.8433 46.96 20.5685 48.2358 20.5685ZM47.9414 30.9908C49.276 30.9908 50.4046 30.3136 51.3271 28.9593C51.3468 26.9377 51.1112 25.5048 50.6205 24.6609C50.1495 23.7972 49.3546 23.3654 48.2358 23.3654C47.2544 23.3654 46.4889 23.6991 45.9394 24.3664C45.3898 25.0338 45.115 25.9857 45.115 27.2223C45.115 28.5177 45.3702 29.4696 45.8805 30.0781C46.4104 30.6865 47.0974 30.9908 47.9414 30.9908Z" fill="#062549"/>
</g>
<defs>
<linearGradient id="paint0_linear_628_46913" x1="37.9149" y1="0.0234375" x2="37.9112" y2="66.1375" gradientUnits="userSpaceOnUse">
<stop stop-color="#2FC6E7"/>
<stop offset="1" stop-color="#2FC6E7" stop-opacity="0"/>
</linearGradient>
<clipPath id="clip0_628_46913">
<rect width="76" height="60" fill="white"/>
</clipPath>
</defs>
</svg>
