<svg width="80" height="80" viewBox="0 0 80 80" fill="none" xmlns="http://www.w3.org/2000/svg">
<g clip-path="url(#clip0_722_48284)">
<path fill-rule="evenodd" clip-rule="evenodd" d="M14.3637 5.19321C14.0178 5.3408 13.5731 6.08293 11.6692 9.69068L9.38918 14.0114L5.73895 14.0835C1.69837 14.1632 1.59887 14.1845 0.748102 15.1532C0.502676 15.4326 0.233891 15.906 0.150689 16.2055C0.0485964 16.5731 -0.000287128 23.0487 1.2685e-06 36.1355L0.000722414 55.5212L0.3393 56.2418C0.737575 57.0893 1.00261 57.3486 1.87501 57.7441C2.44993 58.0047 2.81893 58.0375 5.21522 58.0403L7.90928 58.0435L7.95499 61.3224L8.00084 64.6014L10.7147 69.6007C12.2072 72.3503 13.5313 74.6853 13.6569 74.7895C13.9965 75.0712 48.0063 75.0696 48.3459 74.7879C48.4725 74.6828 49.7966 72.3479 51.2881 69.5992L54.0001 64.6014L54.0459 61.3224L54.0917 58.0435L56.7857 58.042C59.3105 58.0407 59.5249 58.0194 60.2006 57.7022C61.0485 57.3041 61.3079 57.0392 61.7036 56.1672C61.9936 55.5281 61.9967 55.3146 61.9999 36.1523C62.0022 22.0483 61.9584 16.634 61.8386 16.2342C61.636 15.5585 60.9758 14.7373 60.3679 14.4048C59.9814 14.1935 59.3582 14.1446 56.2646 14.0835L52.6168 14.0114L50.3402 9.69313C48.4236 6.05814 47.9968 5.34657 47.6431 5.19552C47.0355 4.93637 14.9708 4.93406 14.3637 5.19321ZM48.4124 10.5285C49.384 12.3779 50.1788 13.9343 50.1788 13.9872C50.1788 14.0401 41.5486 14.0835 31.0005 14.0835C20.4524 14.0835 11.8221 14.042 11.8221 13.9911C11.8221 13.9404 12.6169 12.3845 13.5885 10.5337L15.355 7.16867L31.0005 7.16737L46.646 7.16593L48.4124 10.5285ZM59.3089 16.2671C59.4821 16.3582 59.6715 16.5042 59.7298 16.5914C59.7881 16.6786 59.8367 25.436 59.8379 36.0521C59.84 53.8126 59.8211 55.3754 59.6015 55.6179C59.3718 55.8715 58.2952 55.8815 31.0256 55.8815C4.85977 55.8815 2.66796 55.8632 2.42455 55.643C2.17148 55.4141 2.16081 54.6177 2.16081 36.0687C2.16081 15.9258 2.14668 16.4125 2.73761 16.2014C2.85657 16.1588 15.5629 16.1189 30.9739 16.1127C51.8267 16.1042 59.0744 16.1437 59.3089 16.2671ZM7.44352 21.3006L7.06355 21.5992V28.5687V35.5381L7.44352 35.8368L7.82348 36.1355H31.0005H54.1775L54.5574 35.8368L54.9374 35.5381V28.5687V21.5992L54.5574 21.3006L54.1775 21.0018H31.0005H7.82348L7.44352 21.3006ZM23.931 28.5687L20.3139 33.9736H14.6981H9.08233V28.5687V23.1638H18.3151H27.5479L23.931 28.5687ZM33.7287 28.5687L30.0969 33.9736H26.5111C24.5389 33.9736 22.9254 33.941 22.9254 33.9012C22.9254 33.8614 24.5257 31.4292 26.4817 28.4963L30.0381 23.1638H33.6993H37.3606L33.7287 28.5687ZM52.9186 28.5687V33.9736H42.8247C37.2731 33.9736 32.7308 33.941 32.7308 33.9012C32.7308 33.8614 34.3312 31.4292 36.2872 28.4963L39.8436 23.1638H46.3811H52.9186V28.5687ZM14.5114 40.7642C12.9473 41.0054 11.3038 42.2647 10.6238 43.7432C10.3732 44.2882 10.3108 44.6949 10.3096 45.7923C10.3082 46.9689 10.3608 47.2731 10.6825 47.9543C12.5272 51.8589 18.0117 51.8765 19.9288 47.984C20.3526 47.1237 20.4016 46.8955 20.3987 45.7953C20.3961 44.7827 20.3307 44.4281 20.0252 43.7745C19.003 41.5866 16.8392 40.4053 14.5114 40.7642ZM29.1585 40.7675C27.5942 41.0204 26.1896 42.053 25.4177 43.5174C25.0524 44.2103 25.0162 44.4153 25.0162 45.7923C25.0162 47.2427 25.0369 47.3436 25.5108 48.2175C27.1558 51.2503 31.1657 51.8372 33.6022 49.4018C36.0141 46.9911 35.4527 42.9361 32.4895 41.3623C31.747 40.968 31.4098 40.8684 30.2074 40.6878C30.0488 40.664 29.5768 40.6999 29.1585 40.7675ZM16.405 42.9894C17.5541 43.4692 18.311 44.5823 18.311 45.7923C18.311 47.9912 15.9927 49.4674 14.0305 48.5178C11.7614 47.42 11.7291 44.2993 13.975 43.1619C14.864 42.7118 15.6128 42.6586 16.405 42.9894ZM30.8962 42.9183C32.5487 43.3771 33.4781 45.4366 32.7458 47.0174C31.8091 49.0399 29.1893 49.4299 27.7266 47.7646C26.669 46.5607 26.7411 44.856 27.8988 43.6971C28.7402 42.8548 29.7357 42.5962 30.8962 42.9183ZM42.1037 46.0085V47.0895H46.4297H50.7556V46.0085V44.9275H46.4297H42.1037V46.0085ZM18.0226 60.1334V62.2233H19.032H20.0414V60.1334V58.0435H22.9975H25.9535V60.1334V62.2233H27.035H28.1165V60.1334V58.0435H31.0005H33.8844V60.1334V62.2233H34.9659H36.0474V60.1334V58.0435H39.0035H41.9595V60.1334V62.2233H42.9689H43.9783V60.1334V58.0435H47.9438H51.9092V61.0577V64.0719L49.5145 68.4804L47.1198 72.8889H30.9992H14.8785L12.4851 68.4695L10.0917 64.05V61.0467V58.0435H14.0572H18.0226V60.1334Z" fill="#F45B69"/>
<path d="M58.7124 52.8767L42.1889 69.4337C39.5034 74.4306 45.3593 77.4138 47.933 75.3256L64.643 58.7686C76.3102 61.4237 79.0405 50.1545 76.7652 46.0525L70.499 52.3546L66.135 51.4223L65.1652 46.9102L71.3569 40.6827C61.9948 37.3638 56.3626 46.9102 58.7124 52.8767Z" fill="white" stroke="white" stroke-width="8" stroke-linejoin="round"/>
<path d="M58.7124 52.8767L42.1889 69.4337C39.5034 74.4306 45.3593 77.4138 47.933 75.3256L64.643 58.7686C76.3102 61.4237 79.0405 50.1545 76.7652 46.0525L70.499 52.3546L66.135 51.4223L65.1652 46.9102L71.3569 40.6827C61.9948 37.3638 56.3626 46.9102 58.7124 52.8767Z" fill="white" stroke="#2FC6E7" stroke-width="3" stroke-linejoin="round"/>
</g>
<defs>
<clipPath id="clip0_722_48284">
<rect width="80" height="80" fill="white"/>
</clipPath>
</defs>
</svg>
