<svg width="80" height="80" viewBox="0 0 80 80" fill="none" xmlns="http://www.w3.org/2000/svg">
<g clip-path="url(#clip0_1157_53366)">
<rect width="80" height="80" fill="white"/>
<path fill-rule="evenodd" clip-rule="evenodd" d="M21.1406 4.69891L20.7289 5.02266V7.98016V10.9375H18.8627C17.1153 10.9375 16.9685 10.9616 16.558 11.3144L16.1196 11.6914L16.0744 16.7508L16.0294 21.8103L14.6424 23.1873C11.5563 26.2513 9.45377 30.05 8.41596 34.438C8.0444 36.0084 8.00518 36.4738 8.00018 39.375C7.99393 42.9406 8.14752 43.9917 9.08815 46.8194C10.1969 50.1522 12.0342 53.1547 14.518 55.6927L16.0414 57.2492V62.4577C16.0414 68.103 16.1111 68.6508 16.8514 68.8231C17.0505 68.8694 17.9867 68.9247 18.9321 68.9458L20.6508 68.9844L20.7289 71.9531C20.7719 73.5859 20.8597 75.0028 20.9239 75.1019C21.1588 75.4633 21.8958 75.6005 22.4196 75.3803C22.6928 75.2653 22.9302 75.1503 22.9469 75.1247C22.9638 75.0991 23.0164 73.707 23.0641 72.0313L23.1508 68.9844L27.1742 68.9427L31.1977 68.9009V71.7855C31.1977 74.5852 31.2085 74.6827 31.5636 75.0955C32.0656 75.6791 32.8297 75.6791 33.3317 75.0955C33.6869 74.6827 33.6977 74.585 33.6977 71.7881V68.9063H35.3991C37.9555 68.9063 37.8269 69.1095 37.8856 64.9706L37.9331 61.6319L38.9794 61.2591C45.4355 58.9586 50.7925 53.4395 52.9947 46.8194C53.9353 43.9917 54.0889 42.9406 54.0827 39.375C54.0777 36.4738 54.0385 36.0084 53.6669 34.438C52.37 28.9552 49.2594 24.1817 44.8285 20.8744C43.3486 19.7698 40.8511 18.4156 39.0492 17.7406L37.9164 17.3164V14.6813C37.9164 13.0827 37.8482 11.8961 37.743 11.6652C37.4808 11.0898 36.9594 10.9375 35.2528 10.9375H33.6977V8.21047C33.6977 5.24234 33.6064 4.81703 32.9077 4.52766C32.3906 4.31344 31.9277 4.43156 31.5049 4.88547C31.2227 5.18844 31.1977 5.4475 31.1977 8.07641V10.9375H27.1352H23.0727V7.98016V5.02266L22.661 4.69891C22.4346 4.52078 22.0925 4.375 21.9008 4.375C21.7091 4.375 21.3671 4.52078 21.1406 4.69891ZM35.4164 15.095V16.7527L35.0447 16.6594C34.8403 16.608 33.8296 16.4928 32.7985 16.4033C28.583 16.0372 24.2438 16.9363 20.2727 18.9983C19.3771 19.4633 18.6213 19.8438 18.593 19.8438C18.5646 19.8438 18.5414 18.4023 18.5414 16.6406V13.4375H26.9789H35.4164V15.095ZM34.7852 19.1488C39.878 20.1148 44.4491 22.9333 47.5416 27.0141C48.9908 28.9263 50.4556 31.9581 51.0605 34.2969C51.6922 36.7391 51.8521 40.2561 51.4475 42.8102C50.1091 51.2608 43.6606 57.9434 35.0506 59.8028C33.2755 60.1863 28.816 60.1886 27.0571 59.807C19.5647 58.1819 13.7761 53.0823 11.4331 46.0423C10.6999 43.8395 10.4175 42.025 10.4169 39.5127C10.4161 35.9311 11.0277 33.3227 12.6006 30.1994C14.2536 26.9173 16.5706 24.3031 19.6352 22.2625C22.4638 20.3791 25.6875 19.2338 29.2446 18.8484C30.3636 18.7272 33.4428 18.8941 34.7852 19.1488ZM28.6196 22.517C26.2036 22.8652 23.6696 23.8425 21.6056 25.2223C17.1783 28.1823 14.5613 32.5419 13.9883 37.9114C13.795 39.7231 13.93 40.2356 14.6971 40.6033C15.0867 40.79 15.2161 40.7856 15.668 40.5702C16.2527 40.2913 16.2564 40.2797 16.4936 38.0189C16.8339 34.7763 18.1528 31.8694 20.3286 29.5673C21.8155 27.9942 23.0542 27.0831 24.8497 26.2417C26.4722 25.4813 28.1455 25.0359 29.8464 24.9117C31.3958 24.7984 31.8844 24.6286 32.1149 24.1227C32.385 23.53 32.3283 23.1477 31.9078 22.7273C31.5764 22.3958 31.391 22.3464 30.5406 22.3628C29.9997 22.3733 29.1352 22.4427 28.6196 22.517ZM23.2153 32.5441C22.6539 32.9752 22.6039 33.3609 22.6039 37.2656C22.6039 41.1703 22.6539 41.5561 23.2153 41.9872C23.4049 42.1328 26.1596 42.1788 34.9157 42.1825L46.3681 42.1875L46.7516 41.8039L47.1352 41.4205V37.2656V33.1108L46.7516 32.7273L46.3681 32.3438L34.9157 32.3488C26.1596 32.3525 23.4049 32.3984 23.2153 32.5441ZM44.6352 37.2656V39.6875H34.8696H25.1039V37.2656V34.8438H34.8696H44.6352V37.2656ZM27.9028 47.3878C27.1981 47.9289 27.1863 48.8342 27.8769 49.3775C28.2556 49.6753 28.5249 49.6875 34.7256 49.6875H41.1802L41.6056 49.3216C42.1521 48.8516 42.1771 48.1217 41.6652 47.5769L41.2994 47.1875L34.7252 47.1925C29.8036 47.1963 28.0885 47.2453 27.9028 47.3878ZM23.501 61.4024C26.1261 62.2795 27.7224 62.5409 30.5727 62.5605C31.9906 62.5702 33.6605 62.5211 34.2836 62.4514L35.4164 62.3248V64.3655V66.4063H26.9789H18.5414V62.7411V59.0761L20.2992 59.998C21.2661 60.505 22.7069 61.1369 23.501 61.4024Z" fill="#4E97ED"/>
<path d="M56.7124 54.8767L40.1889 71.4337C37.5034 76.4306 43.3593 79.4138 45.933 77.3256L62.643 60.7686C74.3102 63.4237 77.0405 52.1545 74.7652 48.0525L68.499 54.3546L64.135 53.4223L63.1652 48.9102L69.3569 42.6827C59.9948 39.3638 54.3626 48.9102 56.7124 54.8767Z" stroke="white" stroke-width="8" stroke-linejoin="round"/>
<mask id="path-3-outside-1_1157_53366" maskUnits="userSpaceOnUse" x="41" y="1" width="39" height="39" fill="black">
<rect fill="white" x="41" y="1" width="39" height="39"/>
<path fill-rule="evenodd" clip-rule="evenodd" d="M45.5386 4.11139C45.4182 4.16874 45.2532 4.30581 45.1718 4.41601C45.0263 4.61302 45.0235 4.65613 45.006 6.96862C44.9861 9.59702 44.9893 9.61783 45.4506 9.91563C45.6514 10.0453 45.7595 10.0619 46.4009 10.0619H47.1246L47.1247 11.238C47.1248 12.2286 47.1432 12.4497 47.2414 12.6397C47.3332 12.8172 47.6738 13.0699 48.8418 13.8269L50.3256 14.7886V15.6152V16.4418H48.0014C45.696 16.4418 45.6753 16.443 45.4506 16.5881C45.3259 16.6685 45.1713 16.8353 45.107 16.9587C44.9968 17.1699 44.991 17.7416 45.0069 26.785L45.0239 36.3871L45.1726 36.5886C45.502 37.0348 44.135 36.9993 61.007 36.9993C75.7088 36.9993 76.2443 36.9952 76.4687 36.8799C76.5965 36.8141 76.7681 36.6474 76.85 36.5093L76.9989 36.2582L76.9999 26.7206C77.0009 17.7677 76.9938 17.1692 76.8843 16.9587C76.8202 16.8353 76.6658 16.6685 76.5411 16.5881C76.3164 16.443 76.2956 16.4418 73.9903 16.4418H71.666L71.6669 15.6202L71.6678 14.7985L73.1123 13.8641C73.9068 13.3501 74.6191 12.8479 74.6953 12.7479C74.8223 12.5812 74.8355 12.4626 74.8544 11.3141L74.875 10.0619H75.5948C76.232 10.0619 76.3405 10.0452 76.5411 9.91563C77.0024 9.61783 77.0055 9.59702 76.9857 6.96862C76.9681 4.65226 76.9655 4.61334 76.8191 4.41492C76.5219 4.0124 76.463 4.00422 73.8567 4.00435C71.2243 4.00441 71.1871 4.01002 70.8815 4.45197L70.7279 4.67417L70.7468 7.10518L70.7657 9.53612L70.9325 9.70825C71.2053 9.99 71.3313 10.0281 72.0995 10.0619L72.8331 10.0941V10.8997V11.7052L71.3707 12.6536C70.4141 13.2741 69.8606 13.6749 69.7702 13.8129C69.6456 14.0028 69.6298 14.1425 69.6091 15.2327L69.5862 16.4418H66.8582H64.1302V15.587V14.7321L64.9685 13.9276C65.4295 13.485 65.9021 13.0083 66.0188 12.868L66.2309 12.6131L66.2642 11.3536L66.2976 10.0941L67.086 10.0619L67.8746 10.0297L68.1301 9.76483C68.4631 9.41973 68.4818 9.24355 68.4536 6.71085C68.4332 4.88278 68.4223 4.73005 68.2982 4.52653C68.2249 4.40615 68.0802 4.24665 67.9767 4.17209C67.7946 4.04089 67.7093 4.03586 65.3575 4.01801C62.5946 3.99713 62.5897 3.99784 62.294 4.48548L62.1295 4.75666V7.0397C62.1295 9.5851 62.1339 9.61191 62.5963 9.91692C62.791 10.0454 62.8989 10.0619 63.5399 10.0619H64.2636V10.9489V11.8358L63.2897 12.7694C62.7541 13.2829 62.274 13.7963 62.2227 13.9104C62.1543 14.0626 62.1295 14.4267 62.1295 15.2798V16.4418H60.9958H59.8621V15.2798C59.8621 14.4267 59.8373 14.0626 59.769 13.9104C59.7177 13.7963 59.2375 13.2829 58.7019 12.7694L57.7281 11.8358V10.9489V10.0619H58.4518C59.0927 10.0619 59.2006 10.0454 59.3954 9.91692C59.8576 9.61203 59.8621 9.58419 59.8621 7.04763C59.8621 4.89451 59.8549 4.75879 59.7279 4.51809C59.6407 4.35286 59.4997 4.21746 59.3257 4.13169C59.0681 4.00467 58.9657 4.00035 56.6305 4.01801C54.2824 4.03586 54.197 4.04089 54.015 4.17209C53.9115 4.24665 53.7668 4.40615 53.6934 4.52653C53.5666 4.73443 53.56 4.86119 53.56 7.07669C53.56 9.33087 53.5646 9.414 53.6975 9.586C53.9942 9.96995 54.1446 10.0272 54.9483 10.0619L55.6941 10.0941L55.7274 11.3508C55.7582 12.5123 55.7718 12.6221 55.9062 12.8008C55.9862 12.9071 56.4589 13.3852 56.9566 13.8632L57.8615 14.7323V15.587V16.4418H55.1344H52.4074L52.3835 15.2329C52.3617 14.1279 52.3473 14.005 52.2159 13.8043C52.1178 13.6548 51.608 13.2855 50.6153 12.6451L49.1586 11.7052V10.8997V10.0941L49.937 10.0619C50.6515 10.0323 50.7299 10.0165 50.8936 9.86858C51.2605 9.53709 51.2593 9.54643 51.2593 7.0136C51.2593 3.74045 51.5337 4.00383 48.1249 4.00576C46.0806 4.00699 45.7276 4.02136 45.5386 4.11139ZM49.2586 7.03307V8.12861H48.1249H46.9912V7.03307V5.93753H48.1249H49.2586V7.03307ZM57.8615 7.03307V8.12861H56.7278H55.594V7.03307V5.93753H56.7278H57.8615V7.03307ZM66.3976 7.03307V8.12861H65.2639H64.1302V7.03307V5.93753H65.2639H66.3976V7.03307ZM75.0005 7.03307V8.12861H73.8668H72.7331V7.03307V5.93753H73.8668H75.0005V7.03307ZM75.0005 26.7206V35.066H60.9958H46.9912V26.7206V18.3751H60.9958H75.0005V26.7206ZM52.0262 20.6572C51.757 20.7728 51.5368 21.0144 51.4577 21.2804C51.4219 21.4011 51.3927 21.9831 51.3927 22.574V23.6481L50.6637 23.6699C49.8761 23.6935 49.7276 23.7495 49.4295 24.1355C49.2964 24.3077 49.292 24.39 49.292 26.7092V29.105L49.4521 29.322C49.6994 29.657 50.0505 29.7786 50.7758 29.7802L51.3927 29.7817V30.8164C51.3927 32.036 51.4574 32.3522 51.7596 32.6087C52.3295 33.0922 53.184 32.834 53.3904 32.1157C53.4283 31.9839 53.4594 31.4049 53.4596 30.8289L53.46 29.7817H54.0794C54.8752 29.7817 55.2181 29.6362 55.4463 29.2017C55.5976 28.9135 55.5984 28.8966 55.5796 26.6188L55.5607 24.3259L55.3685 24.0825C55.1007 23.7434 54.8483 23.6595 54.0957 23.6595H53.46L53.4596 22.6123C53.4594 22.0364 53.4265 21.4491 53.3866 21.3073C53.2199 20.7165 52.5895 20.4152 52.0262 20.6572ZM60.5435 20.6734C60.2731 20.8022 60.0658 21.0747 60.0169 21.3658L59.9798 21.5866L59.2374 21.6081C58.5976 21.6266 58.4662 21.6494 58.2865 21.7732C57.8691 22.0609 57.8615 22.1134 57.8615 24.6747C57.8615 26.9717 57.8627 26.9934 58.0117 27.207C58.2674 27.5736 58.5248 27.6731 59.3042 27.7066L59.9955 27.7363V29.9361C59.9955 32.4436 59.998 32.4566 60.5299 32.7283C60.8831 32.9088 61.0755 32.9124 61.4249 32.7451C61.9753 32.4816 61.9604 32.5554 61.9819 29.9911L62.001 27.7195L62.5154 27.7179C63.4146 27.7151 63.8004 27.5652 64.0365 27.1266C64.1119 26.9866 64.1302 26.5027 64.1302 24.6552C64.1302 22.1154 64.1221 22.0607 63.7052 21.7732C63.5255 21.6494 63.3941 21.6266 62.7542 21.6081L62.0118 21.5866L61.9757 21.3716C61.9243 21.0658 61.7485 20.836 61.4551 20.6914C61.1477 20.5399 60.8368 20.5337 60.5435 20.6734ZM69.1652 20.6537C68.8846 20.7791 68.69 21.0061 68.6051 21.3073C68.5597 21.4684 68.5323 22.3449 68.5321 23.6434L68.5317 25.7217H67.9123C67.1165 25.7217 66.7736 25.8672 66.5454 26.3017C66.3941 26.5898 66.3932 26.6069 66.412 28.8794C66.433 31.4141 66.4213 31.3456 66.8896 31.6678C67.066 31.7892 67.2048 31.8142 67.8138 31.8344L68.5305 31.8581L68.5995 32.1058C68.8738 33.0902 70.2538 33.101 70.5269 32.121L70.6002 31.8581L71.3295 31.8339C72.1169 31.8079 72.2658 31.7516 72.5622 31.3679C72.6953 31.1957 72.6997 31.1134 72.6997 28.7942C72.6997 26.421 72.6983 26.3964 72.5514 26.1974C72.2774 25.8262 72.1024 25.7603 71.3191 25.7327L70.6054 25.7077L70.5855 23.4638C70.5665 21.3138 70.5599 21.2125 70.4282 21.042C70.1086 20.6287 69.5828 20.467 69.1652 20.6537ZM62.1295 24.6262V25.7217H60.9958H59.8621V24.6262V23.5306H60.9958H62.1295V24.6262ZM53.5267 26.6884V27.7839H52.393H51.2593V26.7313C51.2593 26.1524 51.2793 25.6594 51.3038 25.6358C51.3282 25.6122 51.8383 25.5928 52.4375 25.5928H53.5267V26.6884ZM70.7173 28.7989L70.699 29.8783L69.582 29.896L68.465 29.9136V28.8165V27.7195H69.6003H70.7356L70.7173 28.7989Z"/>
</mask>
<path fill-rule="evenodd" clip-rule="evenodd" d="M45.5386 4.11139C45.4182 4.16874 45.2532 4.30581 45.1718 4.41601C45.0263 4.61302 45.0235 4.65613 45.006 6.96862C44.9861 9.59702 44.9893 9.61783 45.4506 9.91563C45.6514 10.0453 45.7595 10.0619 46.4009 10.0619H47.1246L47.1247 11.238C47.1248 12.2286 47.1432 12.4497 47.2414 12.6397C47.3332 12.8172 47.6738 13.0699 48.8418 13.8269L50.3256 14.7886V15.6152V16.4418H48.0014C45.696 16.4418 45.6753 16.443 45.4506 16.5881C45.3259 16.6685 45.1713 16.8353 45.107 16.9587C44.9968 17.1699 44.991 17.7416 45.0069 26.785L45.0239 36.3871L45.1726 36.5886C45.502 37.0348 44.135 36.9993 61.007 36.9993C75.7088 36.9993 76.2443 36.9952 76.4687 36.8799C76.5965 36.8141 76.7681 36.6474 76.85 36.5093L76.9989 36.2582L76.9999 26.7206C77.0009 17.7677 76.9938 17.1692 76.8843 16.9587C76.8202 16.8353 76.6658 16.6685 76.5411 16.5881C76.3164 16.443 76.2956 16.4418 73.9903 16.4418H71.666L71.6669 15.6202L71.6678 14.7985L73.1123 13.8641C73.9068 13.3501 74.6191 12.8479 74.6953 12.7479C74.8223 12.5812 74.8355 12.4626 74.8544 11.3141L74.875 10.0619H75.5948C76.232 10.0619 76.3405 10.0452 76.5411 9.91563C77.0024 9.61783 77.0055 9.59702 76.9857 6.96862C76.9681 4.65226 76.9655 4.61334 76.8191 4.41492C76.5219 4.0124 76.463 4.00422 73.8567 4.00435C71.2243 4.00441 71.1871 4.01002 70.8815 4.45197L70.7279 4.67417L70.7468 7.10518L70.7657 9.53612L70.9325 9.70825C71.2053 9.99 71.3313 10.0281 72.0995 10.0619L72.8331 10.0941V10.8997V11.7052L71.3707 12.6536C70.4141 13.2741 69.8606 13.6749 69.7702 13.8129C69.6456 14.0028 69.6298 14.1425 69.6091 15.2327L69.5862 16.4418H66.8582H64.1302V15.587V14.7321L64.9685 13.9276C65.4295 13.485 65.9021 13.0083 66.0188 12.868L66.2309 12.6131L66.2642 11.3536L66.2976 10.0941L67.086 10.0619L67.8746 10.0297L68.1301 9.76483C68.4631 9.41973 68.4818 9.24355 68.4536 6.71085C68.4332 4.88278 68.4223 4.73005 68.2982 4.52653C68.2249 4.40615 68.0802 4.24665 67.9767 4.17209C67.7946 4.04089 67.7093 4.03586 65.3575 4.01801C62.5946 3.99713 62.5897 3.99784 62.294 4.48548L62.1295 4.75666V7.0397C62.1295 9.5851 62.1339 9.61191 62.5963 9.91692C62.791 10.0454 62.8989 10.0619 63.5399 10.0619H64.2636V10.9489V11.8358L63.2897 12.7694C62.7541 13.2829 62.274 13.7963 62.2227 13.9104C62.1543 14.0626 62.1295 14.4267 62.1295 15.2798V16.4418H60.9958H59.8621V15.2798C59.8621 14.4267 59.8373 14.0626 59.769 13.9104C59.7177 13.7963 59.2375 13.2829 58.7019 12.7694L57.7281 11.8358V10.9489V10.0619H58.4518C59.0927 10.0619 59.2006 10.0454 59.3954 9.91692C59.8576 9.61203 59.8621 9.58419 59.8621 7.04763C59.8621 4.89451 59.8549 4.75879 59.7279 4.51809C59.6407 4.35286 59.4997 4.21746 59.3257 4.13169C59.0681 4.00467 58.9657 4.00035 56.6305 4.01801C54.2824 4.03586 54.197 4.04089 54.015 4.17209C53.9115 4.24665 53.7668 4.40615 53.6934 4.52653C53.5666 4.73443 53.56 4.86119 53.56 7.07669C53.56 9.33087 53.5646 9.414 53.6975 9.586C53.9942 9.96995 54.1446 10.0272 54.9483 10.0619L55.6941 10.0941L55.7274 11.3508C55.7582 12.5123 55.7718 12.6221 55.9062 12.8008C55.9862 12.9071 56.4589 13.3852 56.9566 13.8632L57.8615 14.7323V15.587V16.4418H55.1344H52.4074L52.3835 15.2329C52.3617 14.1279 52.3473 14.005 52.2159 13.8043C52.1178 13.6548 51.608 13.2855 50.6153 12.6451L49.1586 11.7052V10.8997V10.0941L49.937 10.0619C50.6515 10.0323 50.7299 10.0165 50.8936 9.86858C51.2605 9.53709 51.2593 9.54643 51.2593 7.0136C51.2593 3.74045 51.5337 4.00383 48.1249 4.00576C46.0806 4.00699 45.7276 4.02136 45.5386 4.11139ZM49.2586 7.03307V8.12861H48.1249H46.9912V7.03307V5.93753H48.1249H49.2586V7.03307ZM57.8615 7.03307V8.12861H56.7278H55.594V7.03307V5.93753H56.7278H57.8615V7.03307ZM66.3976 7.03307V8.12861H65.2639H64.1302V7.03307V5.93753H65.2639H66.3976V7.03307ZM75.0005 7.03307V8.12861H73.8668H72.7331V7.03307V5.93753H73.8668H75.0005V7.03307ZM75.0005 26.7206V35.066H60.9958H46.9912V26.7206V18.3751H60.9958H75.0005V26.7206ZM52.0262 20.6572C51.757 20.7728 51.5368 21.0144 51.4577 21.2804C51.4219 21.4011 51.3927 21.9831 51.3927 22.574V23.6481L50.6637 23.6699C49.8761 23.6935 49.7276 23.7495 49.4295 24.1355C49.2964 24.3077 49.292 24.39 49.292 26.7092V29.105L49.4521 29.322C49.6994 29.657 50.0505 29.7786 50.7758 29.7802L51.3927 29.7817V30.8164C51.3927 32.036 51.4574 32.3522 51.7596 32.6087C52.3295 33.0922 53.184 32.834 53.3904 32.1157C53.4283 31.9839 53.4594 31.4049 53.4596 30.8289L53.46 29.7817H54.0794C54.8752 29.7817 55.2181 29.6362 55.4463 29.2017C55.5976 28.9135 55.5984 28.8966 55.5796 26.6188L55.5607 24.3259L55.3685 24.0825C55.1007 23.7434 54.8483 23.6595 54.0957 23.6595H53.46L53.4596 22.6123C53.4594 22.0364 53.4265 21.4491 53.3866 21.3073C53.2199 20.7165 52.5895 20.4152 52.0262 20.6572ZM60.5435 20.6734C60.2731 20.8022 60.0658 21.0747 60.0169 21.3658L59.9798 21.5866L59.2374 21.6081C58.5976 21.6266 58.4662 21.6494 58.2865 21.7732C57.8691 22.0609 57.8615 22.1134 57.8615 24.6747C57.8615 26.9717 57.8627 26.9934 58.0117 27.207C58.2674 27.5736 58.5248 27.6731 59.3042 27.7066L59.9955 27.7363V29.9361C59.9955 32.4436 59.998 32.4566 60.5299 32.7283C60.8831 32.9088 61.0755 32.9124 61.4249 32.7451C61.9753 32.4816 61.9604 32.5554 61.9819 29.9911L62.001 27.7195L62.5154 27.7179C63.4146 27.7151 63.8004 27.5652 64.0365 27.1266C64.1119 26.9866 64.1302 26.5027 64.1302 24.6552C64.1302 22.1154 64.1221 22.0607 63.7052 21.7732C63.5255 21.6494 63.3941 21.6266 62.7542 21.6081L62.0118 21.5866L61.9757 21.3716C61.9243 21.0658 61.7485 20.836 61.4551 20.6914C61.1477 20.5399 60.8368 20.5337 60.5435 20.6734ZM69.1652 20.6537C68.8846 20.7791 68.69 21.0061 68.6051 21.3073C68.5597 21.4684 68.5323 22.3449 68.5321 23.6434L68.5317 25.7217H67.9123C67.1165 25.7217 66.7736 25.8672 66.5454 26.3017C66.3941 26.5898 66.3932 26.6069 66.412 28.8794C66.433 31.4141 66.4213 31.3456 66.8896 31.6678C67.066 31.7892 67.2048 31.8142 67.8138 31.8344L68.5305 31.8581L68.5995 32.1058C68.8738 33.0902 70.2538 33.101 70.5269 32.121L70.6002 31.8581L71.3295 31.8339C72.1169 31.8079 72.2658 31.7516 72.5622 31.3679C72.6953 31.1957 72.6997 31.1134 72.6997 28.7942C72.6997 26.421 72.6983 26.3964 72.5514 26.1974C72.2774 25.8262 72.1024 25.7603 71.3191 25.7327L70.6054 25.7077L70.5855 23.4638C70.5665 21.3138 70.5599 21.2125 70.4282 21.042C70.1086 20.6287 69.5828 20.467 69.1652 20.6537ZM62.1295 24.6262V25.7217H60.9958H59.8621V24.6262V23.5306H60.9958H62.1295V24.6262ZM53.5267 26.6884V27.7839H52.393H51.2593V26.7313C51.2593 26.1524 51.2793 25.6594 51.3038 25.6358C51.3282 25.6122 51.8383 25.5928 52.4375 25.5928H53.5267V26.6884ZM70.7173 28.7989L70.699 29.8783L69.582 29.896L68.465 29.9136V28.8165V27.7195H69.6003H70.7356L70.7173 28.7989Z" fill="url(#paint0_linear_1157_53366)"/>
<path fill-rule="evenodd" clip-rule="evenodd" d="M45.5386 4.11139C45.4182 4.16874 45.2532 4.30581 45.1718 4.41601C45.0263 4.61302 45.0235 4.65613 45.006 6.96862C44.9861 9.59702 44.9893 9.61783 45.4506 9.91563C45.6514 10.0453 45.7595 10.0619 46.4009 10.0619H47.1246L47.1247 11.238C47.1248 12.2286 47.1432 12.4497 47.2414 12.6397C47.3332 12.8172 47.6738 13.0699 48.8418 13.8269L50.3256 14.7886V15.6152V16.4418H48.0014C45.696 16.4418 45.6753 16.443 45.4506 16.5881C45.3259 16.6685 45.1713 16.8353 45.107 16.9587C44.9968 17.1699 44.991 17.7416 45.0069 26.785L45.0239 36.3871L45.1726 36.5886C45.502 37.0348 44.135 36.9993 61.007 36.9993C75.7088 36.9993 76.2443 36.9952 76.4687 36.8799C76.5965 36.8141 76.7681 36.6474 76.85 36.5093L76.9989 36.2582L76.9999 26.7206C77.0009 17.7677 76.9938 17.1692 76.8843 16.9587C76.8202 16.8353 76.6658 16.6685 76.5411 16.5881C76.3164 16.443 76.2956 16.4418 73.9903 16.4418H71.666L71.6669 15.6202L71.6678 14.7985L73.1123 13.8641C73.9068 13.3501 74.6191 12.8479 74.6953 12.7479C74.8223 12.5812 74.8355 12.4626 74.8544 11.3141L74.875 10.0619H75.5948C76.232 10.0619 76.3405 10.0452 76.5411 9.91563C77.0024 9.61783 77.0055 9.59702 76.9857 6.96862C76.9681 4.65226 76.9655 4.61334 76.8191 4.41492C76.5219 4.0124 76.463 4.00422 73.8567 4.00435C71.2243 4.00441 71.1871 4.01002 70.8815 4.45197L70.7279 4.67417L70.7468 7.10518L70.7657 9.53612L70.9325 9.70825C71.2053 9.99 71.3313 10.0281 72.0995 10.0619L72.8331 10.0941V10.8997V11.7052L71.3707 12.6536C70.4141 13.2741 69.8606 13.6749 69.7702 13.8129C69.6456 14.0028 69.6298 14.1425 69.6091 15.2327L69.5862 16.4418H66.8582H64.1302V15.587V14.7321L64.9685 13.9276C65.4295 13.485 65.9021 13.0083 66.0188 12.868L66.2309 12.6131L66.2642 11.3536L66.2976 10.0941L67.086 10.0619L67.8746 10.0297L68.1301 9.76483C68.4631 9.41973 68.4818 9.24355 68.4536 6.71085C68.4332 4.88278 68.4223 4.73005 68.2982 4.52653C68.2249 4.40615 68.0802 4.24665 67.9767 4.17209C67.7946 4.04089 67.7093 4.03586 65.3575 4.01801C62.5946 3.99713 62.5897 3.99784 62.294 4.48548L62.1295 4.75666V7.0397C62.1295 9.5851 62.1339 9.61191 62.5963 9.91692C62.791 10.0454 62.8989 10.0619 63.5399 10.0619H64.2636V10.9489V11.8358L63.2897 12.7694C62.7541 13.2829 62.274 13.7963 62.2227 13.9104C62.1543 14.0626 62.1295 14.4267 62.1295 15.2798V16.4418H60.9958H59.8621V15.2798C59.8621 14.4267 59.8373 14.0626 59.769 13.9104C59.7177 13.7963 59.2375 13.2829 58.7019 12.7694L57.7281 11.8358V10.9489V10.0619H58.4518C59.0927 10.0619 59.2006 10.0454 59.3954 9.91692C59.8576 9.61203 59.8621 9.58419 59.8621 7.04763C59.8621 4.89451 59.8549 4.75879 59.7279 4.51809C59.6407 4.35286 59.4997 4.21746 59.3257 4.13169C59.0681 4.00467 58.9657 4.00035 56.6305 4.01801C54.2824 4.03586 54.197 4.04089 54.015 4.17209C53.9115 4.24665 53.7668 4.40615 53.6934 4.52653C53.5666 4.73443 53.56 4.86119 53.56 7.07669C53.56 9.33087 53.5646 9.414 53.6975 9.586C53.9942 9.96995 54.1446 10.0272 54.9483 10.0619L55.6941 10.0941L55.7274 11.3508C55.7582 12.5123 55.7718 12.6221 55.9062 12.8008C55.9862 12.9071 56.4589 13.3852 56.9566 13.8632L57.8615 14.7323V15.587V16.4418H55.1344H52.4074L52.3835 15.2329C52.3617 14.1279 52.3473 14.005 52.2159 13.8043C52.1178 13.6548 51.608 13.2855 50.6153 12.6451L49.1586 11.7052V10.8997V10.0941L49.937 10.0619C50.6515 10.0323 50.7299 10.0165 50.8936 9.86858C51.2605 9.53709 51.2593 9.54643 51.2593 7.0136C51.2593 3.74045 51.5337 4.00383 48.1249 4.00576C46.0806 4.00699 45.7276 4.02136 45.5386 4.11139ZM49.2586 7.03307V8.12861H48.1249H46.9912V7.03307V5.93753H48.1249H49.2586V7.03307ZM57.8615 7.03307V8.12861H56.7278H55.594V7.03307V5.93753H56.7278H57.8615V7.03307ZM66.3976 7.03307V8.12861H65.2639H64.1302V7.03307V5.93753H65.2639H66.3976V7.03307ZM75.0005 7.03307V8.12861H73.8668H72.7331V7.03307V5.93753H73.8668H75.0005V7.03307ZM75.0005 26.7206V35.066H60.9958H46.9912V26.7206V18.3751H60.9958H75.0005V26.7206ZM52.0262 20.6572C51.757 20.7728 51.5368 21.0144 51.4577 21.2804C51.4219 21.4011 51.3927 21.9831 51.3927 22.574V23.6481L50.6637 23.6699C49.8761 23.6935 49.7276 23.7495 49.4295 24.1355C49.2964 24.3077 49.292 24.39 49.292 26.7092V29.105L49.4521 29.322C49.6994 29.657 50.0505 29.7786 50.7758 29.7802L51.3927 29.7817V30.8164C51.3927 32.036 51.4574 32.3522 51.7596 32.6087C52.3295 33.0922 53.184 32.834 53.3904 32.1157C53.4283 31.9839 53.4594 31.4049 53.4596 30.8289L53.46 29.7817H54.0794C54.8752 29.7817 55.2181 29.6362 55.4463 29.2017C55.5976 28.9135 55.5984 28.8966 55.5796 26.6188L55.5607 24.3259L55.3685 24.0825C55.1007 23.7434 54.8483 23.6595 54.0957 23.6595H53.46L53.4596 22.6123C53.4594 22.0364 53.4265 21.4491 53.3866 21.3073C53.2199 20.7165 52.5895 20.4152 52.0262 20.6572ZM60.5435 20.6734C60.2731 20.8022 60.0658 21.0747 60.0169 21.3658L59.9798 21.5866L59.2374 21.6081C58.5976 21.6266 58.4662 21.6494 58.2865 21.7732C57.8691 22.0609 57.8615 22.1134 57.8615 24.6747C57.8615 26.9717 57.8627 26.9934 58.0117 27.207C58.2674 27.5736 58.5248 27.6731 59.3042 27.7066L59.9955 27.7363V29.9361C59.9955 32.4436 59.998 32.4566 60.5299 32.7283C60.8831 32.9088 61.0755 32.9124 61.4249 32.7451C61.9753 32.4816 61.9604 32.5554 61.9819 29.9911L62.001 27.7195L62.5154 27.7179C63.4146 27.7151 63.8004 27.5652 64.0365 27.1266C64.1119 26.9866 64.1302 26.5027 64.1302 24.6552C64.1302 22.1154 64.1221 22.0607 63.7052 21.7732C63.5255 21.6494 63.3941 21.6266 62.7542 21.6081L62.0118 21.5866L61.9757 21.3716C61.9243 21.0658 61.7485 20.836 61.4551 20.6914C61.1477 20.5399 60.8368 20.5337 60.5435 20.6734ZM69.1652 20.6537C68.8846 20.7791 68.69 21.0061 68.6051 21.3073C68.5597 21.4684 68.5323 22.3449 68.5321 23.6434L68.5317 25.7217H67.9123C67.1165 25.7217 66.7736 25.8672 66.5454 26.3017C66.3941 26.5898 66.3932 26.6069 66.412 28.8794C66.433 31.4141 66.4213 31.3456 66.8896 31.6678C67.066 31.7892 67.2048 31.8142 67.8138 31.8344L68.5305 31.8581L68.5995 32.1058C68.8738 33.0902 70.2538 33.101 70.5269 32.121L70.6002 31.8581L71.3295 31.8339C72.1169 31.8079 72.2658 31.7516 72.5622 31.3679C72.6953 31.1957 72.6997 31.1134 72.6997 28.7942C72.6997 26.421 72.6983 26.3964 72.5514 26.1974C72.2774 25.8262 72.1024 25.7603 71.3191 25.7327L70.6054 25.7077L70.5855 23.4638C70.5665 21.3138 70.5599 21.2125 70.4282 21.042C70.1086 20.6287 69.5828 20.467 69.1652 20.6537ZM62.1295 24.6262V25.7217H60.9958H59.8621V24.6262V23.5306H60.9958H62.1295V24.6262ZM53.5267 26.6884V27.7839H52.393H51.2593V26.7313C51.2593 26.1524 51.2793 25.6594 51.3038 25.6358C51.3282 25.6122 51.8383 25.5928 52.4375 25.5928H53.5267V26.6884ZM70.7173 28.7989L70.699 29.8783L69.582 29.896L68.465 29.9136V28.8165V27.7195H69.6003H70.7356L70.7173 28.7989Z" stroke="white" stroke-width="6" mask="url(#path-3-outside-1_1157_53366)"/>
<path d="M56.7124 54.8767L40.1889 71.4337C37.5034 76.4306 43.3593 79.4138 45.933 77.3256L62.643 60.7686C74.3102 63.4237 77.0405 52.1545 74.7652 48.0525L68.499 54.3546L64.135 53.4223L63.1652 48.9102L69.3569 42.6827C59.9948 39.3638 54.3626 48.9102 56.7124 54.8767Z" stroke="#2FC6E7" stroke-width="3" stroke-linejoin="round"/>
</g>
<defs>
<linearGradient id="paint0_linear_1157_53366" x1="77" y1="4" x2="40.8864" y2="9.37823" gradientUnits="userSpaceOnUse">
<stop stop-color="#18EB58"/>
<stop offset="1" stop-color="#368BEF"/>
</linearGradient>
<clipPath id="clip0_1157_53366">
<rect width="80" height="80" fill="white"/>
</clipPath>
</defs>
</svg>
