<svg width="40" height="34" viewBox="0 0 40 34" fill="none" xmlns="http://www.w3.org/2000/svg">
<path fill-rule="evenodd" clip-rule="evenodd" d="M11.0532 0.802309C10.3488 0.94895 9.62119 1.55981 9.299 2.2752C9.0515 2.82473 9.0658 3.67778 9.33182 4.23786C9.59142 4.78442 10.0264 5.21934 10.573 5.47903L11.0027 5.68317L13.7956 5.70637L16.5886 5.72958V6.69879C16.5886 7.2427 16.6267 7.75153 16.6753 7.8584C16.7868 8.10301 17.0539 8.22223 17.4907 8.22223H17.8386V9.47223V10.7222H17.4907C17.0539 10.7222 16.7868 10.8414 16.6753 11.0861C16.6209 11.2057 16.5886 11.8671 16.5886 12.8647V14.4529L15.6706 14.4863C14.609 14.5248 14.096 14.7044 13.5834 15.217C12.8934 15.907 12.6738 17.0746 13.0665 17.9655C13.2785 18.4465 13.866 19.0265 14.3646 19.2471L14.7136 19.4014V20.3743V21.3472H13.4303H12.147L11.9567 20.9371C11.7127 20.4114 11.2724 19.9733 10.7292 19.7159C10.1492 19.4411 9.31088 19.4311 8.73705 19.6923C8.22869 19.9237 7.65494 20.4929 7.4501 20.9689L7.28736 21.3472H4.4026C2.45479 21.3472 1.45604 21.3754 1.32744 21.4339C1.22275 21.4817 1.09807 21.6064 1.05033 21.7111C0.928535 21.9785 0.928535 30.716 1.05033 30.9834C1.09807 31.0881 1.22275 31.2128 1.32744 31.2605C1.45604 31.319 2.45439 31.3472 4.40111 31.3472H7.28439L7.44799 31.7183C7.66439 32.2093 8.23682 32.781 8.72986 32.9984C9.28291 33.2423 10.1443 33.2423 10.6974 32.9984C11.1904 32.781 11.7628 32.2093 11.9792 31.7183L12.1428 31.3472H13.6858H15.2288L16.1626 31.6655C17.4213 32.0946 18.7402 32.4239 19.6199 32.5289C20.8267 32.6728 22.3493 32.4046 24.5204 31.6656L25.4556 31.3472H26.995H28.5344L28.698 31.7183C28.9144 32.2093 29.4868 32.781 29.9799 32.9984C30.5329 33.2423 31.3943 33.2423 31.9474 32.9984C32.4404 32.781 33.0128 32.2093 33.2292 31.7183L33.3928 31.3472H36.2761C38.2228 31.3472 39.2212 31.319 39.3498 31.2605C39.4545 31.2128 39.5792 31.0881 39.6269 30.9834C39.7487 30.716 39.7487 21.9785 39.6269 21.7111C39.5792 21.6064 39.4545 21.4817 39.3498 21.4339C39.2213 21.3754 38.2234 21.3472 36.2781 21.3472H33.397L33.2067 20.9371C32.9627 20.4114 32.5224 19.9733 31.9792 19.7159C31.3992 19.4411 30.5609 19.4311 29.987 19.6923C29.4787 19.9237 28.9049 20.4929 28.7001 20.9689L28.5374 21.3472H27.2505H25.9636V20.3729V19.3985L26.3419 19.2357C26.8194 19.0303 27.3885 18.4556 27.6163 17.9488C28.0054 17.0829 27.7798 15.9029 27.0938 15.217C26.5812 14.7044 26.0682 14.5248 25.0066 14.4863L24.0886 14.4529V12.8647C24.0886 11.8671 24.0563 11.2057 24.0019 11.0861C23.8904 10.8414 23.6233 10.7222 23.1865 10.7222H22.8386V9.47223V8.22223H23.1865C23.6233 8.22223 23.8904 8.10301 24.0019 7.8584C24.0506 7.75153 24.0886 7.2427 24.0886 6.69879V5.72958L26.8816 5.70637L29.6745 5.68317L30.1042 5.48082C30.7071 5.19684 30.9753 4.94575 31.2812 4.37856C31.5236 3.92903 31.5467 3.82872 31.5467 3.22223C31.5467 2.61575 31.5236 2.51543 31.2812 2.0659C30.8122 1.19622 30.0772 0.760044 29.0863 0.763325C28.34 0.765747 27.7696 1.02309 27.264 1.58551L26.9163 1.97223H24.7155H22.5146L22.1313 1.55286C21.6141 0.986919 21.1144 0.766918 20.3386 0.763715C19.5964 0.760668 19.0237 1.01864 18.514 1.58551L18.1663 1.97223H15.9774H13.7886L13.3324 1.51598C12.7038 0.887465 11.8814 0.629966 11.0532 0.802309ZM12.0831 2.07879C12.8857 2.41418 13.0814 3.46653 12.4572 4.09082C11.9504 4.59754 11.2268 4.59754 10.72 4.09082C9.75393 3.12465 10.8199 1.55106 12.0831 2.07879ZM20.9644 2.14801C21.408 2.44997 21.5495 2.70973 21.5495 3.22223C21.5495 3.98278 21.0992 4.43317 20.3386 4.43317C19.8261 4.43317 19.5663 4.29161 19.2644 3.84801C18.5699 2.82762 19.944 1.45356 20.9644 2.14801ZM29.7144 2.14801C30.158 2.44997 30.2995 2.70973 30.2995 3.22223C30.2995 3.98278 29.8492 4.43317 29.0886 4.43317C28.5761 4.43317 28.3163 4.29161 28.0144 3.84801C27.3199 2.82762 28.694 1.45356 29.7144 2.14801ZM17.9273 3.71051C17.9933 3.97911 18.0745 4.26028 18.1076 4.33551C18.1642 4.46395 18.0338 4.47223 15.9636 4.47223C13.8935 4.47223 13.7631 4.46395 13.8196 4.33551C13.8528 4.26028 13.9339 3.97911 13.9999 3.71051L14.1199 3.22223H15.9636H17.8073L17.9273 3.71051ZM26.6773 3.71051C26.7433 3.97911 26.8245 4.26028 26.8576 4.33551C26.9142 4.46395 26.7838 4.47223 24.7136 4.47223C22.6435 4.47223 22.5131 4.46395 22.5696 4.33551C22.6028 4.26028 22.6839 3.97911 22.7499 3.71051L22.8699 3.22223H24.7136H26.5573L26.6773 3.71051ZM22.8386 6.34723V6.97223H20.3386H17.8386V6.34723V5.72223H20.3386H22.8386V6.34723ZM21.5886 9.47223V10.7222H20.3386H19.0886V9.47223V8.22223H20.3386H21.5886V9.47223ZM22.8386 13.2222V14.4722H20.3386H17.8386V13.2222V11.9722H20.3386H22.8386V13.2222ZM25.9697 15.8999C26.4222 16.2048 26.6078 16.5557 26.5693 17.034C26.5324 17.4936 26.3649 17.7738 25.9644 18.0464L25.7061 18.2222H20.3386H14.9711L14.7075 18.0446C14.3026 17.7718 14.0886 17.401 14.0886 16.9722C14.0886 16.5435 14.3026 16.1727 14.7075 15.8999L14.9711 15.7222H20.3386H25.7061L25.9697 15.8999ZM24.7136 24.8914V30.3107L24.2644 30.4732C22.7463 31.0226 20.8576 31.3943 19.9883 31.3146C19.1486 31.2377 17.9749 30.9775 16.9206 30.6346L15.9636 30.3233V24.8978V19.4722H20.3386H24.7136V24.8914ZM10.3447 20.8999C10.4897 20.9975 10.6891 21.1973 10.7877 21.3437L10.9671 21.6099L10.9458 26.3947C10.9249 31.1106 10.9222 31.1828 10.7611 31.4001C10.1784 32.1865 9.18791 32.1646 8.64127 31.3533L8.46361 31.0897V26.3472V21.6047L8.64127 21.3411C8.91408 20.9362 9.28486 20.7222 9.71361 20.7222C9.9665 20.7222 10.1634 20.7776 10.3447 20.8999ZM31.5947 20.8999C31.7397 20.9975 31.9391 21.1973 32.0377 21.3437L32.217 21.6099L32.1958 26.3947C32.1749 31.1106 32.1722 31.1828 32.0111 31.4001C31.4284 32.1865 30.4379 32.1646 29.8913 31.3533L29.7136 31.0897V26.3472V21.6047L29.8913 21.3411C30.1641 20.9362 30.5349 20.7222 30.9636 20.7222C31.2165 20.7222 31.4134 20.7776 31.5947 20.8999ZM7.21361 26.3472V30.0972H4.71361H2.21361V26.3472V22.5972H4.71361H7.21361V26.3472ZM14.7136 26.3472V30.0972H13.4636H12.2136V26.3472V22.5972H13.4636H14.7136V26.3472ZM28.4636 26.3472V30.0972H27.2136H25.9636V26.3472V22.5972H27.2136H28.4636V26.3472ZM38.4636 26.3472V30.0972H35.9636H33.4636V26.3472V22.5972H35.9636H38.4636V26.3472ZM3.46361 24.4722V25.0972H4.08861H4.71361V24.4722V23.8472H4.08861H3.46361V24.4722ZM34.7136 24.4722V25.0972H35.9636H37.2136V24.4722V23.8472H35.9636H34.7136V24.4722ZM17.2295 28.8114C17.0901 29.0942 16.9946 29.3558 17.0174 29.3928C17.0702 29.478 18.122 29.8213 18.737 29.954C19.4123 30.0997 21.4056 30.0775 22.1132 29.9164C22.7488 29.7717 23.5374 29.5078 23.6395 29.4057C23.6778 29.3674 23.5958 29.1117 23.4507 28.8175C23.2582 28.4272 23.1643 28.3101 23.0749 28.3492C21.5894 28.9983 19.1572 28.9974 17.6023 28.347C17.5137 28.3099 17.4181 28.429 17.2295 28.8114Z" fill="#175CAB"/>
</svg>
