<svg width="41" height="40" viewBox="0 0 41 40" fill="none" xmlns="http://www.w3.org/2000/svg">
<path fill-rule="evenodd" clip-rule="evenodd" d="M5.27769 0.0410126C3.89308 0.255544 2.81738 1.1814 2.47488 2.45351C2.41722 2.66765 2.38902 5.40593 2.38566 11.1241C2.38043 20.0599 2.38519 20.1909 2.78105 22.0923C3.51871 25.6357 5.41269 28.0306 7.85761 28.5116L8.32457 28.6035V32.3043V36.0051H6.8541C5.21433 36.0051 4.89707 36.0673 4.38433 36.49C3.72199 37.0359 3.51972 38.0822 3.92089 38.8871C4.17293 39.393 4.68988 39.7941 5.23863 39.9098C5.50566 39.966 9.83058 39.9855 18.9105 39.9712L32.1918 39.9504L32.5194 39.7752C32.6996 39.679 32.9705 39.473 33.1214 39.3177C33.8766 38.54 33.766 37.1045 32.9 36.444C32.3281 36.0077 32.2992 36.0051 28.1975 36.0051H24.4183L24.4178 35.7121C24.4172 35.3505 24.8775 29.184 24.9301 28.8477C24.9681 28.6055 24.971 28.6042 25.5722 28.5502C28.148 28.3186 31.4272 26.8462 33.5475 24.9692C35.3709 23.3549 36.5968 21.2627 36.8644 19.3081L36.9523 18.6658L37.2853 18.6159C37.7964 18.5392 38.3971 18.1387 38.6733 17.6905C38.8892 17.3403 38.9105 17.2454 38.9104 16.6359C38.9103 16.1072 38.8785 15.9166 38.7594 15.7316C38.5076 15.3404 38.2234 15.062 37.8949 14.8846L37.5824 14.716L26.6253 14.6954L15.6683 14.6748L15.667 8.91414C15.6655 2.64312 15.6536 2.44836 15.229 1.72383C14.9296 1.21304 14.4972 0.7707 14.0094 0.476559C13.2591 0.0239813 12.9114 -0.00890932 8.98863 0.0014813C7.05503 0.00655943 5.38511 0.0243719 5.27769 0.0410126ZM13.1293 1.50242C13.6241 1.73468 13.9231 2.03367 14.1553 2.52851L14.3386 2.91914L14.3394 10.1262L14.3402 17.3332H8.98863H3.63707V10.3058C3.63707 5.52078 3.66425 3.15148 3.72238 2.88054C3.81058 2.46929 4.14902 1.95258 4.50097 1.69187C4.98261 1.33508 5.11121 1.32461 9.02769 1.32179L12.7386 1.31914L13.1293 1.50242ZM8.58277 2.72476C7.76816 2.84336 7.01925 3.3957 6.62457 4.16914C6.24074 4.92109 6.3148 6.08086 6.78902 6.7457C6.94183 6.95984 6.96128 7.1114 6.99964 8.38789C7.04816 10.0002 7.13042 10.2887 7.68378 10.7871C8.68589 11.6897 10.2093 11.3566 10.796 10.1066C10.9652 9.74609 10.9793 9.61601 10.98 8.41687L10.9808 7.11773L11.2462 6.67711C11.7086 5.90914 11.7536 4.95859 11.3655 4.15679C10.865 3.12297 9.75863 2.55359 8.58277 2.72476ZM9.54168 4.12195C9.91566 4.29187 10.1651 4.58281 10.2878 4.9925C10.4118 5.40617 10.3207 5.77031 9.98285 6.21117L9.69175 6.59101L9.65269 8.13867C9.61386 9.67687 9.61246 9.68718 9.41832 9.83617C9.11566 10.0684 8.76683 10.0343 8.52683 9.74906C8.32535 9.50968 8.32457 9.50297 8.32457 8.08093C8.32457 6.68867 8.3198 6.64656 8.13261 6.38773C7.73699 5.84078 7.68121 5.68632 7.71425 5.22961C7.75253 4.70015 7.97699 4.35875 8.43589 4.13156C8.8291 3.93695 9.12847 3.93429 9.54168 4.12195ZM37.4672 16.2025C37.7335 16.486 37.7203 16.9047 37.4374 17.148L37.2221 17.3332H26.4452H15.6683V16.6691V16.0051H26.475H37.2817L37.4672 16.2025ZM35.545 19.2277C34.9077 22.8066 31.1782 26.0159 26.3775 27.1164C25.6355 27.2865 25.5582 27.2881 17.0948 27.3129C9.44253 27.3352 8.50972 27.3248 8.07136 27.2117C5.52652 26.5555 3.98238 23.6993 3.69175 19.1105L3.66324 18.6613H19.6545H35.6458L35.545 19.2277ZM23.5987 29.1105C23.5316 29.7649 23.0902 35.5794 23.0902 35.8097V36.0051H16.3714H9.65269V32.3332V28.6613H16.6488H23.6448L23.5987 29.1105ZM32.1171 37.525C32.3859 37.7937 32.3793 38.213 32.1022 38.4698L31.8955 38.6613H18.6691H5.44269L5.23574 38.4834C4.93675 38.2262 4.93277 37.7718 5.22722 37.5185L5.44269 37.3332H18.684H31.9254L32.1171 37.525Z" fill="#175CAB"/>
</svg>
