<svg width="254" height="60" viewBox="0 0 254 60" fill="none" xmlns="http://www.w3.org/2000/svg">
<g clip-path="url(#clip0_2123_17213)">
<path d="M77.7422 16.3832H83.3381V21.244C83.6674 20.5239 84.1063 19.8398 84.655 19.1917C85.2036 18.5076 85.8255 17.9134 86.5203 17.4094C87.2519 16.9053 88.0381 16.5092 88.8794 16.2211C89.7207 15.9331 90.6166 15.7891 91.5677 15.7891C93.9816 15.7891 95.8654 16.2931 97.2186 17.3013C98.5719 18.3095 99.5046 19.6237 100.017 21.244C100.858 19.6237 102.028 18.3095 103.528 17.3013C105.064 16.2931 106.838 15.7891 108.85 15.7891C111.885 15.7891 114.226 16.6712 115.872 18.4355C117.518 20.1999 118.341 22.9363 118.341 26.6449V45.0084H112.306V27.9954C112.306 25.4387 111.812 23.6385 110.825 22.5943C109.874 21.5141 108.575 20.974 106.929 20.974C104.954 20.974 103.473 21.6401 102.485 22.9723C101.535 24.2685 101.059 25.9429 101.059 27.9954V45.0084H95.0241V27.9954C95.0241 25.4387 94.5304 23.6385 93.5428 22.5943C92.5918 21.5141 91.2934 20.974 89.6476 20.974C87.6724 20.974 86.1911 21.6401 85.2036 22.9723C84.2526 24.2685 83.7772 25.9429 83.7772 27.9954V45.0084H77.7422V16.3832Z" fill="#CC0029"/>
<path d="M138.366 45.6024C136.354 45.6024 134.471 45.2964 132.715 44.6844C130.996 44.0361 129.497 43.0999 128.216 41.8757C126.936 40.6515 125.93 39.1393 125.199 37.3389C124.467 35.5026 124.102 33.3782 124.102 30.9658V29.8856C124.102 27.6171 124.467 25.6189 125.199 23.8905C125.93 22.1263 126.936 20.6499 128.216 19.4617C129.497 18.2375 130.996 17.3193 132.715 16.7072C134.471 16.0951 136.354 15.7891 138.366 15.7891C140.378 15.7891 142.243 16.0951 143.962 16.7072C145.718 17.3193 147.236 18.2375 148.516 19.4617C149.796 20.6499 150.802 22.1263 151.533 23.8905C152.265 25.6189 152.631 27.6171 152.631 29.8856V30.9658C152.631 33.3782 152.265 35.5026 151.533 37.3389C150.802 39.1393 149.796 40.6515 148.516 41.8757C147.236 43.0999 145.718 44.0361 143.962 44.6844C142.243 45.2964 140.378 45.6024 138.366 45.6024ZM138.366 40.4175C139.427 40.4175 140.433 40.2375 141.384 39.8775C142.371 39.5173 143.231 38.9593 143.962 38.2031C144.73 37.4471 145.334 36.4749 145.773 35.2866C146.248 34.0984 146.486 32.658 146.486 30.9658V29.8856C146.486 28.3374 146.248 27.0051 145.773 25.8889C145.334 24.7727 144.73 23.8545 143.962 23.1343C143.231 22.4143 142.371 21.8741 141.384 21.5141C140.433 21.154 139.427 20.974 138.366 20.974C137.305 20.974 136.281 21.154 135.294 21.5141C134.343 21.8741 133.483 22.4143 132.715 23.1343C131.984 23.8545 131.38 24.7727 130.905 25.8889C130.466 27.0051 130.246 28.3374 130.246 29.8856V30.9658C130.246 32.658 130.466 34.0984 130.905 35.2866C131.38 36.4749 131.984 37.4471 132.715 38.2031C133.483 38.9593 134.343 39.5173 135.294 39.8775C136.281 40.2375 137.305 40.4175 138.366 40.4175Z" fill="#CC0029"/>
<path d="M169.617 45.6024C167.459 45.6024 165.612 45.3684 164.075 44.9004C162.576 44.4321 161.314 43.8021 160.29 43.0099C159.302 42.2179 158.534 41.2997 157.986 40.2555C157.473 39.1753 157.144 38.0591 156.998 36.9069H163.033C163.289 37.9151 163.911 38.7613 164.898 39.4453C165.886 40.0935 167.459 40.4175 169.617 40.4175C172.031 40.4175 173.731 40.0935 174.719 39.4453C175.707 38.7973 176.2 37.9511 176.2 36.9069C176.2 36.4389 176.072 36.0066 175.816 35.6106C175.56 35.1786 175.14 34.8004 174.554 34.4764C174.006 34.1164 173.256 33.7922 172.305 33.5042C171.354 33.2162 170.165 32.9822 168.739 32.8022C167.093 32.586 165.593 32.28 164.24 31.884C162.887 31.4518 161.735 30.8938 160.784 30.2096C159.833 29.5256 159.101 28.6974 158.589 27.7251C158.077 26.7531 157.821 25.5829 157.821 24.2145C157.821 23.0623 158.059 21.9823 158.534 20.974C159.01 19.9298 159.741 19.0296 160.729 18.2735C161.716 17.5174 162.942 16.9233 164.405 16.4912C165.904 16.0231 167.642 15.7891 169.617 15.7891C171.519 15.7891 173.164 16.0231 174.554 16.4912C175.944 16.9593 177.096 17.5894 178.011 18.3815C178.962 19.1737 179.675 20.1098 180.15 21.19C180.663 22.2343 180.992 23.3325 181.138 24.4847H175.103C174.81 23.3685 174.207 22.5043 173.293 21.8921C172.415 21.28 171.189 20.974 169.617 20.974C167.459 20.974 165.959 21.298 165.118 21.9461C164.277 22.5943 163.856 23.3505 163.856 24.2145C163.856 24.7187 163.966 25.1687 164.185 25.5649C164.405 25.9609 164.77 26.3209 165.282 26.6449C165.794 26.9331 166.489 27.2031 167.367 27.4551C168.282 27.7071 169.434 27.9054 170.824 28.0494C172.506 28.2654 174.042 28.5894 175.432 29.0214C176.858 29.4536 178.065 30.0296 179.053 30.7498C180.077 31.4338 180.864 32.298 181.412 33.3422C181.961 34.3504 182.235 35.5386 182.235 36.9069C182.235 38.1311 181.961 39.2833 181.412 40.3635C180.9 41.4077 180.114 42.3259 179.053 43.1179C178.029 43.8741 176.712 44.4861 175.103 44.9544C173.53 45.3864 171.701 45.6024 169.617 45.6024Z" fill="#CC0029"/>
<path d="M192.936 45.6024C191.692 45.6024 190.65 45.1884 189.809 44.3602C188.967 43.5322 188.547 42.506 188.547 41.2818C188.547 40.0216 188.967 38.9954 189.809 38.2031C190.65 37.3749 191.692 36.9609 192.936 36.9609C194.18 36.9609 195.222 37.3749 196.063 38.2031C196.904 38.9954 197.325 40.0216 197.325 41.2818C197.325 42.506 196.904 43.5322 196.063 44.3602C195.222 45.1884 194.18 45.6024 192.936 45.6024Z" fill="#CC0029"/>
<path d="M205.256 16.3832H210.852V21.244C211.437 19.7678 212.388 18.4896 213.705 17.4094C215.058 16.3292 216.722 15.7891 218.696 15.7891C219.611 15.7891 220.288 15.8251 220.727 15.8971C221.202 15.9691 221.533 16.0411 221.716 16.1131V21.5141C221.093 21.3341 220.527 21.208 220.013 21.136C219.502 21.028 218.879 20.974 218.149 20.974C216.942 20.974 215.899 21.19 215.022 21.6221C214.18 22.0183 213.485 22.5583 212.937 23.2425C212.388 23.8905 211.967 24.6647 211.675 25.5649C211.419 26.4289 211.291 27.3291 211.291 28.2654V45.0084H205.256V16.3832Z" fill="#CC0029"/>
<path d="M236.784 45.602C233.347 45.602 230.75 44.63 228.993 42.6856C227.237 40.7051 226.359 37.6987 226.359 33.6659V16.3828H232.395V33.1259C232.395 35.5383 232.887 37.3565 233.876 38.5807C234.901 39.8051 236.509 40.4171 238.704 40.4171C239.912 40.4171 240.935 40.2191 241.777 39.8231C242.654 39.4269 243.368 38.8869 243.917 38.2027C244.465 37.5187 244.866 36.7445 245.123 35.8803C245.417 34.9801 245.562 34.0621 245.562 33.1259V16.3828H251.596V45.008H246V40.1471C245.306 41.6234 244.172 42.9016 242.6 43.9818C241.063 45.062 239.124 45.602 236.784 45.602Z" fill="#CC0029"/>
<path fill-rule="evenodd" clip-rule="evenodd" d="M8.36991 51.0092H19.0378V57.7209C19.0379 58.3736 19.1452 58.9764 19.64 59.4107C20.5985 60.2524 22.1452 60.1884 23 59.2446C23 59.2446 25.1482 56.6477 26.3528 55.5101C30.0256 51.8379 32.8817 51.0092 37.3255 51.0092H41.8975C46.0507 51.0092 49.5173 48.4682 49.5173 44.4079V1.20022C49.5173 0.526871 48.9823 0 48.2981 0H1.96919C1.28516 0 0.75 0.526871 0.75 1.20022V44.4079C0.75 48.4682 4.21672 51.0092 8.36991 51.0092ZM6.84594 43.2077V6.00109H43.4214V43.2077C43.4214 44.2978 42.7775 45.0081 41.5927 45.0081H37.3255C32.1079 45.0081 28.2035 46.6275 24.2192 50.109V45.0081H8.67471C7.48992 45.0081 6.84594 44.2978 6.84594 43.2077Z" fill="#CC0029"/>
</g>
<defs>
<clipPath id="clip0_2123_17213">
<rect width="252.5" height="60" fill="white" transform="translate(0.75)"/>
</clipPath>
</defs>
</svg>
