<svg width="41" height="40" viewBox="0 0 41 40" fill="none" xmlns="http://www.w3.org/2000/svg">
<g clip-path="url(#clip0_690_48080)">
<path fill-rule="evenodd" clip-rule="evenodd" d="M1.88289 10.0545C1.27961 10.1747 0.863906 10.4924 0.557734 11.0672C0.418203 11.3292 0.412109 11.7001 0.412109 19.9734V28.6062L0.583281 28.9261C0.797422 29.3264 1.20641 29.6904 1.5968 29.8284C2.04328 29.9862 38.7028 29.9862 39.1493 29.8284C39.5397 29.6904 39.9487 29.3264 40.1628 28.9261L40.334 28.6062V19.9734V11.3406L40.1654 11.0281C39.9499 10.6288 39.6355 10.3315 39.2402 10.1533C38.9422 10.019 38.0777 10.0119 20.5684 10.001C10.4707 9.99474 2.06227 10.0188 1.88289 10.0545ZM39.0127 11.4036L39.2012 11.6228V19.9734V28.324L39.0127 28.5433L38.8241 28.7625H20.373H1.92203L1.73344 28.5433L1.54492 28.324V19.9865C1.54492 10.9101 1.52148 11.4015 1.96344 11.2225C2.0568 11.1847 10.2454 11.1612 20.4775 11.1695L38.8241 11.1843L39.0127 11.4036ZM3.83203 12.5493C3.43898 12.6426 3.18539 12.8476 3.02445 13.2022C2.88313 13.5135 2.87641 13.8169 2.87477 19.9764L2.87305 26.4247L3.04883 26.7715C3.15289 26.9769 3.33609 27.1827 3.49805 27.2763C3.76891 27.4329 3.88758 27.4346 16.2324 27.457C28.8001 27.4798 29.9985 27.459 30.9991 27.1997C33.6015 26.5254 35.6692 24.4453 36.3576 21.8093C36.6498 20.69 36.6498 19.2568 36.3576 18.1375C35.7641 15.865 34.1328 13.9722 32.0149 13.099C31.2145 12.7688 30.7073 12.6492 29.709 12.5548C28.7034 12.4597 4.23086 12.4545 3.83203 12.5493ZM23.9308 13.7652C26.6984 14.2478 28.789 16.4576 29.1448 19.2764C29.4895 22.0072 27.8191 24.7801 25.1968 25.8301C24.0002 26.3093 24.1891 26.3015 13.6441 26.3015H4.04492V19.9734V13.6453H13.6441C21.9227 13.6453 23.3378 13.6618 23.9308 13.7652ZM30.7246 13.8693C33.4886 14.6055 35.45 17.1391 35.45 19.9734C35.45 22.8077 33.4886 25.3413 30.7246 26.0775C30.2103 26.2144 29.8159 26.2494 28.498 26.2748L26.8965 26.3057L27.1673 26.0888C28.2473 25.2237 28.9487 24.4158 29.4413 23.4688C30.0615 22.2768 30.3023 21.299 30.3023 19.9734C30.3023 17.5149 29.3056 15.5707 27.1673 13.858L26.8965 13.6411L28.498 13.672C29.8159 13.6974 30.2103 13.7324 30.7246 13.8693ZM6.74023 18.8752C6.24305 19.078 5.92867 19.7381 6.07336 20.2754C6.35203 21.3104 7.7718 21.469 8.27523 20.5215C8.68805 19.7447 8.12336 18.7945 7.25602 18.8065C7.05828 18.8092 6.82617 18.8401 6.74023 18.8752Z" fill="#175CAB"/>
</g>
<defs>
<clipPath id="clip0_690_48080">
<rect width="40" height="40" fill="white" transform="translate(0.333984)"/>
</clipPath>
</defs>
</svg>
