<svg width="41" height="40" viewBox="0 0 41 40" fill="none" xmlns="http://www.w3.org/2000/svg">
<g clip-path="url(#clip0_690_48183)">
<path fill-rule="evenodd" clip-rule="evenodd" d="M3.25532 6.7666C2.40009 6.95222 1.62618 7.51832 1.15134 8.30566C0.651961 9.13363 0.667039 8.77175 0.666023 19.928C0.665476 26.1787 0.694461 30.2243 0.741804 30.5139C0.951179 31.7941 1.91251 32.8357 3.20329 33.1811C3.52376 33.2668 6.65844 33.2855 20.6642 33.2855C34.67 33.2855 37.8047 33.2668 38.1252 33.1811C39.4159 32.8357 40.3773 31.7941 40.5866 30.5139C40.634 30.2243 40.663 26.1787 40.6624 19.928C40.6614 8.91316 40.6701 9.14066 40.2249 8.38113C39.7287 7.53425 38.9479 6.95621 38.0413 6.7641C37.2566 6.59785 4.02157 6.60027 3.25532 6.7666ZM38.1252 8.15972C38.62 8.39199 38.919 8.69097 39.1513 9.18582L39.3345 9.57644L39.3353 19.9377C39.3362 31.3096 39.3644 30.6286 38.8666 31.2571C38.7363 31.4217 38.4477 31.647 38.2253 31.7578L37.821 31.9593H20.6642H3.50743L3.10313 31.7578C2.88079 31.647 2.5922 31.4217 2.4618 31.2571C1.96407 30.6286 1.99227 31.3096 1.99313 19.9377L1.99391 9.57644L2.17719 9.18582C2.40946 8.69097 2.70845 8.39199 3.20329 8.15972L3.59391 7.97644H20.6642H37.7345L38.1252 8.15972ZM3.73548 9.41496C3.36266 9.58082 3.30446 9.8859 3.33415 11.517L3.35954 12.9107L3.57876 13.099C3.79462 13.2845 3.82188 13.2874 5.35962 13.2874C7.45602 13.2874 7.30485 13.4386 7.30485 11.3421C7.30485 9.80433 7.30196 9.77715 7.11649 9.56129L6.92805 9.34207L5.45634 9.32316C4.32235 9.30855 3.92735 9.32965 3.73548 9.41496ZM9.9611 9.45136C9.43462 9.63746 9.00985 10.083 8.86477 10.6014C8.77876 10.9086 8.78337 11.2207 8.89391 12.5761C8.9661 13.4614 9.02485 14.3001 9.02438 14.4397L9.0236 14.6936H6.95079C4.71751 14.6936 4.6122 14.7094 4.06462 15.1271C3.91524 15.2411 3.69555 15.5328 3.57634 15.7757L3.35954 16.2171V22.6233C3.35954 27.8496 3.37923 29.0854 3.46665 29.3328C3.60298 29.7189 4.03946 30.2032 4.44798 30.4219L4.76579 30.5921H11.3283H17.8908L18.2033 30.4232C18.6075 30.2046 18.9795 29.8132 19.1563 29.4202C19.2873 29.1293 19.2987 28.6833 19.321 22.9749C19.3341 19.6018 19.3233 16.6613 19.2969 16.4403C19.2287 15.87 18.8466 15.2666 18.3659 14.9699L17.9816 14.7327L15.8073 14.7096L13.633 14.6867L13.6319 14.4753C13.6313 14.359 13.689 13.5587 13.7602 12.6968C13.8314 11.8339 13.8649 10.9649 13.8345 10.7629C13.7652 10.3003 13.3931 9.79894 12.9262 9.53894C12.6097 9.36269 12.4797 9.34316 11.4845 9.32238C10.5612 9.30308 10.3238 9.32316 9.9611 9.45136ZM15.7702 9.37746C15.3849 9.53996 15.3517 9.69636 15.3517 11.3552C15.3517 13.439 15.1967 13.2874 17.3267 13.2874H18.9182L19.1077 13.0857C19.2953 12.886 19.297 12.8696 19.297 11.2911C19.297 9.18597 19.4501 9.34801 17.4395 9.32441C16.6135 9.31472 15.8624 9.33855 15.7702 9.37746ZM5.97673 11.2952V11.9593H5.31266H4.6486V11.2952V10.6311H5.31266H5.97673V11.2952ZM12.3656 10.7528C12.5858 10.907 12.587 11.0728 12.3843 13.4127C12.0823 16.9 12.0956 16.8073 11.8609 17.0521C11.5551 17.3715 11.0688 17.3646 10.7931 17.037C10.6773 16.8993 10.5789 16.6651 10.5554 16.4706C10.4329 15.4603 10.1174 11.6986 10.1174 11.2492C10.1174 10.6995 10.2513 10.6311 11.3283 10.6311C11.9835 10.6311 12.2338 10.6605 12.3656 10.7528ZM18.008 11.2952V11.9593H17.3439H16.6799V11.2952V10.6311H17.3439H18.008V11.2952ZM9.19649 16.4905C9.27251 17.1828 9.44376 17.5935 9.81688 17.9779C10.2397 18.4136 10.7245 18.6194 11.3283 18.6194C12.507 18.6194 13.3143 17.8264 13.456 16.5296L13.5158 15.9827L15.3127 15.9599C17.3408 15.9342 17.5595 15.9568 17.8214 16.2187L18.008 16.4053V22.5858C18.008 28.9474 18.007 28.9689 17.7023 29.2028C17.5224 29.341 5.13423 29.341 4.9543 29.2028C4.88618 29.1505 4.78946 29.0309 4.73946 28.9371C4.60524 28.685 4.60993 16.6609 4.74438 16.3658C4.9193 15.9818 5.13704 15.9468 7.22673 15.9655L9.14079 15.9827L9.19649 16.4905ZM21.5293 16.2276C21.4402 16.3408 21.3674 16.5294 21.3674 16.6468C21.3674 16.7641 21.4402 16.9527 21.5293 17.0659L21.6912 17.2718H29.3063H36.9213L37.1131 17.08C37.234 16.9591 37.3049 16.7989 37.3049 16.6468C37.3049 16.4946 37.234 16.3344 37.1131 16.2136L36.9213 16.0218H29.3063H21.6912L21.5293 16.2276ZM10.5391 20.1181C9.44524 20.4792 8.71055 21.4796 8.71157 22.6068C8.71212 23.237 8.82469 23.6257 9.14743 24.1124C9.63805 24.8519 10.4078 25.2566 11.3283 25.2589C12.3645 25.2614 13.2527 24.7154 13.7098 23.7952C13.9869 23.2372 14.0227 22.3245 13.7918 21.7091C13.5762 21.1347 13.0624 20.5675 12.4999 20.2829C11.973 20.0163 11.076 19.9409 10.5391 20.1181ZM21.5591 20.1979C21.2959 20.4611 21.3002 20.8533 21.569 21.1058L21.7706 21.2952H29.3491H36.9277L37.1163 21.076C37.3627 20.7896 37.3614 20.4462 37.1131 20.1979L36.9213 20.0061H29.3361H21.7509L21.5591 20.1979ZM11.9065 21.4475C12.0269 21.5097 12.2314 21.6814 12.3609 21.8289C13.282 22.878 11.998 24.4748 10.7466 23.8364C9.77509 23.3407 9.74774 22.0604 10.6963 21.482C10.9881 21.3041 11.5958 21.2868 11.9065 21.4475ZM21.7189 24.0807C21.475 24.2142 21.3674 24.3899 21.3674 24.6548C21.3674 24.9607 21.6019 25.2194 21.9334 25.279C22.0733 25.3042 25.4983 25.3146 29.5447 25.3021L36.9016 25.2796L37.1033 25.0902C37.4331 24.7803 37.3554 24.3032 36.9389 24.0814C36.7032 23.9559 21.9484 23.9552 21.7189 24.0807ZM21.7651 28.0594C21.4225 28.1975 21.2734 28.5768 21.4159 28.9479C21.554 29.3079 21.4443 29.303 29.3374 29.303C34.837 29.303 36.8126 29.2794 36.9389 29.2121C37.3554 28.9903 37.4331 28.5132 37.1033 28.2033L36.9016 28.0139L29.4275 27.9988C24.7372 27.9893 21.8832 28.0118 21.7651 28.0594Z" fill="#175CAB"/>
</g>
<defs>
<clipPath id="clip0_690_48183">
<rect width="40" height="40" fill="white" transform="translate(0.666016)"/>
</clipPath>
</defs>
</svg>
