<svg width="40" height="40" viewBox="0 0 40 40" fill="none" xmlns="http://www.w3.org/2000/svg">
<path fill-rule="evenodd" clip-rule="evenodd" d="M5.28752 6.04896C4.21823 6.18091 2.96596 7.02458 2.42596 7.97701C1.96838 8.78396 1.90198 9.09669 1.86307 10.6291L1.8269 12.0549L1.34713 12.0561C1.0833 12.0568 0.825725 12.0838 0.77471 12.1163C0.582132 12.2387 0.515882 12.6452 0.515882 13.7047C0.515882 14.7382 0.505413 14.813 0.322835 15.0816C-0.305603 16.0065 0.0172098 17.3004 0.998382 17.7893C1.22252 17.901 1.49963 17.9924 1.61416 17.9924H1.82229L1.86557 19.6916C1.91127 21.4868 1.96744 21.9286 2.28393 22.9834C2.78143 24.6415 3.8633 26.29 5.14479 27.3426C5.43487 27.5808 5.67213 27.7908 5.67213 27.8093C5.67213 27.8277 5.47666 29.1098 5.23768 30.6584C4.83744 33.2529 4.81276 33.4886 4.92369 33.6579C5.07698 33.8918 5.46354 33.9534 6.55276 33.9178C7.24135 33.8952 7.40299 33.8654 7.54799 33.7346C7.64323 33.6486 8.33416 32.6731 9.08338 31.5666L10.4456 29.5549H19.969H29.4924L30.8546 31.5666C31.6038 32.6731 32.2948 33.6486 32.39 33.7346C32.535 33.8654 32.6967 33.8952 33.3853 33.9178C34.4745 33.9534 34.861 33.8918 35.0143 33.6579C35.1253 33.4886 35.1003 33.2514 34.6963 30.6356L34.2578 27.7971L34.633 27.489C35.8199 26.514 36.8417 25.1288 37.391 23.7501C37.9107 22.4452 38.094 21.2576 38.094 19.1951V17.9924H38.3131C38.4335 17.9924 38.7155 17.901 38.9396 17.7893C40.0498 17.2361 40.2821 15.7233 39.3934 14.8346C38.7475 14.1887 40.3473 14.2424 21.752 14.2424H5.20338V12.099C5.20338 10.8702 5.23643 9.86872 5.28088 9.75177C5.3701 9.51716 5.75369 9.32794 6.03205 9.38115C6.13682 9.40115 6.29205 9.50591 6.37705 9.61396C6.51448 9.78872 6.53151 9.93287 6.53151 10.924C6.53151 12.4895 6.43737 12.4065 8.21119 12.4065C9.99705 12.4065 9.89135 12.5067 9.88971 10.8158C9.88838 9.38708 9.77994 8.81412 9.37338 8.08701C8.55565 6.6249 6.98205 5.83997 5.28752 6.04896ZM6.69307 7.18091C7.25143 7.34669 7.85174 7.75255 8.20026 8.1999C8.64705 8.77333 8.80174 9.29247 8.85369 10.3933L8.89901 11.3518H8.22307H7.54713L7.54541 10.4729C7.54346 9.45099 7.42768 9.10037 6.9669 8.7206C6.14377 8.04208 4.97432 8.23537 4.41002 9.1431C4.24244 9.41255 4.22346 9.54779 4.18776 10.7268L4.14869 12.0158L3.54323 12.0386L2.93776 12.0615V10.7309C2.93776 9.61474 2.96158 9.33763 3.08557 9.0113C3.64244 7.54583 5.22237 6.74419 6.69307 7.18091ZM4.18776 13.6565V14.2424H2.89869H1.60963V13.6565V13.0705H2.89869H4.18776V13.6565ZM38.2664 15.3393C38.9906 15.5404 39.0978 16.5486 38.4312 16.8895C38.3069 16.953 33.2871 16.9768 19.969 16.9768C6.65088 16.9768 1.63112 16.953 1.50682 16.8895C1.21768 16.7416 1.06635 16.4877 1.06448 16.1475C1.06237 15.756 1.28221 15.4459 1.63408 15.3441C1.99463 15.2398 37.8912 15.2351 38.2664 15.3393ZM37.0003 19.6135C37.0003 21.6346 36.8591 22.4139 36.2502 23.7551C35.3052 25.8368 33.149 27.6559 30.9563 28.2215C29.7466 28.5335 29.0718 28.5509 19.3831 28.5195C9.46596 28.4873 9.84737 28.5015 8.62987 28.119C6.57682 27.4738 4.72666 25.8657 3.76541 23.8908C3.10049 22.5248 2.93776 21.684 2.93776 19.6135V18.0705H19.969H37.0003V19.6135ZM7.33049 28.7322C7.65307 28.8812 8.19479 29.0834 8.53432 29.1814C8.87377 29.2794 9.16323 29.3947 9.1776 29.4377C9.1919 29.4807 8.69908 30.2626 8.08237 31.1754L6.96119 32.8351L6.47291 32.8356C6.18807 32.8359 5.98463 32.8025 5.98463 32.7553C5.98463 32.7108 6.12526 31.7628 6.29713 30.6486C6.46901 29.5345 6.60963 28.5865 6.60963 28.542C6.60963 28.417 6.69963 28.4407 7.33049 28.7322ZM33.3284 28.542C33.3284 28.5865 33.469 29.5345 33.6409 30.6486C33.8128 31.7628 33.9534 32.7108 33.9534 32.7553C33.9534 32.8025 33.7499 32.8359 33.4651 32.8356L32.9768 32.8351L31.8556 31.1754C31.2389 30.2626 30.7461 29.4807 30.7604 29.4377C30.7748 29.3947 31.0631 29.2797 31.4011 29.1822C31.7392 29.0845 32.2672 28.8854 32.5744 28.7397C33.1743 28.4552 33.3284 28.4148 33.3284 28.542Z" fill="#175CAB"/>
</svg>
