<svg width="41" height="40" viewBox="0 0 41 40" fill="none" xmlns="http://www.w3.org/2000/svg">
<path fill-rule="evenodd" clip-rule="evenodd" d="M3.37849 0.0515361C2.96334 0.220521 2.9906 -1.18112 2.9906 19.9873V39.5825L3.16857 39.7604L3.34654 39.9384H20.2953H37.244L37.422 39.7604L37.6 39.5825V19.9775V0.372474L37.422 0.194505L37.2441 0.0165361L20.3908 0.00169239C11.1215 -0.00651073 3.46591 0.0159111 3.37849 0.0515361ZM36.3109 2.32122V3.33685H20.2953H4.27966V2.32122V1.3056H20.2953H36.3109V2.32122ZM7.63904 5.32904V5.9931H7.25209C6.77787 5.9931 6.51177 6.10638 6.39763 6.35693C6.26638 6.64497 6.29193 6.82169 6.49951 7.06294L6.68818 7.28216H8.29427C9.85099 7.28216 9.90576 7.27677 10.0744 7.1081C10.3308 6.85169 10.3115 6.41779 10.0331 6.17826C9.86365 6.03247 9.72732 5.9931 9.39248 5.9931H8.96716V5.32904V4.66497H20.2953H31.6234V5.32904V5.9931H31.1981C30.8633 5.9931 30.7269 6.03247 30.5575 6.17826C30.279 6.41779 30.2598 6.85169 30.5161 7.1081C30.6848 7.27677 30.7396 7.28216 32.2963 7.28216H33.9024L34.0911 7.06294C34.2986 6.82169 34.3242 6.64497 34.1929 6.35693C34.0788 6.10638 33.8127 5.9931 33.3385 5.9931H32.9515V5.32904V4.66497H34.6312H36.3109V7.32122V9.97747H34.6312H32.9515V9.54177C32.9515 9.16052 32.9219 9.07638 32.714 8.86857C32.5144 8.66896 32.4366 8.63904 32.226 8.68115C31.8259 8.76122 31.6776 8.9695 31.6387 9.50568L31.6047 9.97747H28.9686H26.3326L26.2896 9.50294C26.2276 8.81966 25.8731 8.52052 25.3715 8.72826C25.101 8.84029 24.9828 9.10247 24.9828 9.59052V9.97747H20.2953H15.6078V9.59052C15.6078 9.10247 15.4896 8.84029 15.219 8.72826C14.7175 8.52052 14.3629 8.81966 14.301 9.50294L14.2579 9.97747H11.6219H8.98591L8.95185 9.50568C8.91302 8.9695 8.76466 8.76122 8.36459 8.68115C8.15396 8.63904 8.07623 8.66896 7.87654 8.86857C7.66873 9.07638 7.63904 9.16052 7.63904 9.54177V9.97747H5.95935H4.27966V7.32122V4.66497H5.95935H7.63904V5.32904ZM7.63904 11.7413C7.63904 12.1187 7.66959 12.2076 7.8674 12.4054C8.14513 12.6831 8.41545 12.6976 8.7031 12.4502C8.88209 12.2961 8.92201 12.1894 8.95115 11.7861L8.98591 11.3056H11.6219H14.2579L14.3022 11.793C14.3383 12.1915 14.3838 12.3126 14.5518 12.4571C14.7801 12.6535 14.9861 12.679 15.2419 12.5429C15.5258 12.3915 15.6027 12.225 15.6053 11.7548L15.6078 11.3056H20.2953H24.9828L24.9853 11.7548C24.9879 12.225 25.0647 12.3915 25.3487 12.5429C25.6045 12.679 25.8105 12.6535 26.0388 12.4571C26.2068 12.3126 26.2522 12.1915 26.2884 11.793L26.3326 11.3056H28.9686H31.6047L31.6394 11.7861C31.6686 12.1894 31.7085 12.2961 31.8875 12.4502C32.1751 12.6976 32.4454 12.6831 32.7232 12.4054C32.921 12.2076 32.9515 12.1187 32.9515 11.7413V11.3056H34.6312H36.3109V15.329V19.3525H20.2953H4.27966V15.329V11.3056H5.95935H7.63904V11.7413ZM8.12888 14.0226C8.03302 14.0379 7.88365 14.1407 7.79685 14.2511C7.65115 14.4363 7.63904 14.5651 7.63904 15.9307C7.63904 17.4239 7.67318 17.6376 7.94474 17.8461C8.10763 17.9711 8.50271 17.9676 8.67115 17.8397C8.91568 17.654 8.96716 17.3243 8.96716 15.9451C8.96716 14.8962 8.94052 14.5276 8.85232 14.3571C8.73052 14.1215 8.41701 13.9765 8.12888 14.0226ZM32.0383 14.08C31.6736 14.2333 31.6234 14.4601 31.6234 15.9526C31.6234 17.3243 31.6751 17.6541 31.9194 17.8397C32.0879 17.9676 32.4829 17.9711 32.6458 17.8461C32.9174 17.6376 32.9515 17.4239 32.9515 15.9307C32.9515 14.5756 32.9386 14.4352 32.7971 14.2553C32.6096 14.0169 32.3376 13.9541 32.0383 14.08ZM10.7048 15.4036C10.2664 15.5995 10.2012 16.2156 10.5879 16.5091C10.7755 16.6515 13.7897 16.6594 13.974 16.5179C14.3133 16.2574 14.3611 15.8622 14.0912 15.5483L13.9029 15.329L12.4311 15.3094C11.2781 15.294 10.9043 15.3144 10.7048 15.4036ZM16.1157 15.3702C15.8079 15.466 15.6859 15.6454 15.6859 16.0024C15.6859 16.2247 15.735 16.3329 15.8918 16.4561C16.0844 16.6077 16.1977 16.6181 17.6531 16.6181C19.2005 16.6181 19.2097 16.6171 19.4004 16.4263C19.6635 16.1633 19.6593 15.771 19.3908 15.5184C19.1943 15.3337 19.1542 15.3286 17.7697 15.3132C16.9888 15.3044 16.2446 15.3301 16.1157 15.3702ZM21.5062 15.3459C21.01 15.466 20.8334 16.0695 21.1902 16.4263C21.3809 16.6171 21.3901 16.6181 22.9375 16.6181C24.3929 16.6181 24.5062 16.6077 24.6988 16.4561C24.851 16.3365 24.9047 16.2231 24.9047 16.0214C24.9047 15.6323 24.7885 15.4647 24.4545 15.3719C24.168 15.2924 21.8134 15.2716 21.5062 15.3459ZM26.8008 15.3449C26.5915 15.3853 26.3109 15.7208 26.3109 15.9307C26.3109 16.1189 26.4534 16.3926 26.6166 16.5179C26.7044 16.5853 27.1992 16.6139 28.3079 16.6156C29.7762 16.6179 29.8859 16.6081 30.0452 16.4597C30.4116 16.1183 30.3239 15.5936 29.8686 15.4034C29.6639 15.3179 29.275 15.2926 28.2861 15.3006C27.565 15.3065 26.8965 15.3264 26.8008 15.3449ZM36.3109 24.6259V28.6493H34.6312H32.9515V28.2136C32.9515 27.8362 32.921 27.7474 32.7232 27.5496C32.4454 27.2718 32.1751 27.2574 31.8875 27.5047C31.7085 27.6588 31.6686 27.7655 31.6394 28.1688L31.6047 28.6493H28.9686H26.3326L26.2884 28.1619C26.2522 27.7634 26.2068 27.6424 26.0388 27.4979C25.8105 27.3015 25.6045 27.2759 25.3487 27.4121C25.0647 27.5634 24.9879 27.73 24.9853 28.2001L24.9828 28.6493H20.2953H15.6078L15.6053 28.2001C15.6027 27.73 15.5258 27.5634 15.2419 27.4121C14.9861 27.2759 14.7801 27.3015 14.5518 27.4979C14.3838 27.6424 14.3383 27.7634 14.3022 28.1619L14.2579 28.6493H11.6219H8.98591L8.95115 28.1688C8.92201 27.7655 8.88209 27.6588 8.7031 27.5047C8.41545 27.2574 8.14513 27.2718 7.8674 27.5496C7.66959 27.7474 7.63904 27.8362 7.63904 28.2136V28.6493H5.95935H4.27966V24.6259V20.6025H20.2953H36.3109V24.6259ZM7.94474 22.1089C7.67302 22.3176 7.63904 22.5309 7.63904 24.0304C7.63904 25.4607 7.64552 25.5229 7.81482 25.711C8.00935 25.9272 8.19568 25.9749 8.51654 25.8906C8.90388 25.7889 8.96716 25.5247 8.96716 24.0099C8.96716 22.6306 8.91568 22.301 8.67115 22.1152C8.50271 21.9873 8.10763 21.9838 7.94474 22.1089ZM31.9194 22.1152C31.6749 22.301 31.6234 22.6306 31.6234 24.0099C31.6234 25.5247 31.6867 25.7889 32.074 25.8906C32.3949 25.9749 32.5812 25.9272 32.7758 25.711C32.9451 25.5229 32.9515 25.4607 32.9515 24.0304C32.9515 22.5309 32.9176 22.3176 32.6458 22.1089C32.4829 21.9838 32.0879 21.9873 31.9194 22.1152ZM10.5879 23.4458C10.3778 23.6053 10.2745 23.9751 10.3698 24.2259C10.5172 24.6134 10.8456 24.6802 12.4626 24.6515L13.9029 24.6259L14.0912 24.4067C14.3611 24.0928 14.3133 23.6976 13.974 23.437C13.7897 23.2955 10.7755 23.3034 10.5879 23.4458ZM15.8918 23.4988C15.7318 23.6246 15.6859 23.7291 15.6859 23.9676C15.6859 24.5976 16.0004 24.6935 17.9334 24.6526C19.1372 24.627 19.1976 24.618 19.3907 24.4365C19.6593 24.184 19.6635 23.7917 19.4004 23.5286C19.2097 23.3379 19.2005 23.3368 17.6531 23.3368C16.1977 23.3368 16.0844 23.3472 15.8918 23.4988ZM21.1902 23.5286C20.9271 23.7917 20.9313 24.184 21.1999 24.4365C21.3929 24.618 21.4534 24.627 22.6572 24.6526C24.5902 24.6935 24.9047 24.5976 24.9047 23.9676C24.9047 23.7291 24.8588 23.6246 24.6988 23.4988C24.5062 23.3472 24.3929 23.3368 22.9375 23.3368C21.3901 23.3368 21.3809 23.3379 21.1902 23.5286ZM26.6166 23.437C26.2772 23.6976 26.2294 24.0928 26.4994 24.4067L26.6877 24.6259L28.128 24.6515C29.2871 24.6721 29.6241 24.6537 29.8541 24.5576C30.324 24.3613 30.4174 23.8419 30.0452 23.4953C29.8859 23.3469 29.7762 23.337 28.3079 23.3393C27.1992 23.3411 26.7044 23.3697 26.6166 23.437ZM7.63904 30.4132C7.63904 30.7944 7.66873 30.8786 7.87654 31.0864C8.07623 31.286 8.15396 31.3159 8.36459 31.2738C8.76466 31.1937 8.91302 30.9854 8.95185 30.4493L8.98591 29.9775H11.6219H14.2579L14.301 30.452C14.3629 31.1353 14.7175 31.4344 15.219 31.2267C15.4896 31.1147 15.6078 30.8525 15.6078 30.3644V29.9775H20.2953H24.9828V30.3644C24.9828 30.8525 25.101 31.1147 25.3715 31.2267C25.8731 31.4344 26.2276 31.1353 26.2896 30.452L26.3326 29.9775H28.9686H31.6047L31.6387 30.4493C31.6776 30.9854 31.8259 31.1937 32.226 31.2738C32.4366 31.3159 32.5144 31.286 32.714 31.0864C32.9219 30.8786 32.9515 30.7944 32.9515 30.4132V29.9775H34.6312H36.3109V32.6337V35.29H34.6312H32.9515V34.6259V33.9618H33.3385C33.8127 33.9618 34.0788 33.8486 34.1929 33.598C34.3242 33.31 34.2986 33.1333 34.0911 32.892L33.9024 32.6728H32.2963C30.7396 32.6728 30.6848 32.6782 30.5161 32.8468C30.2598 33.1033 30.279 33.5372 30.5575 33.7767C30.7269 33.9225 30.8633 33.9618 31.1981 33.9618H31.6234V34.6259V35.29H20.2953H8.96716V34.6259V33.9618H9.39248C9.72732 33.9618 9.86365 33.9225 10.0331 33.7767C10.3115 33.5372 10.3308 33.1033 10.0744 32.8468C9.90576 32.6782 9.85099 32.6728 8.29427 32.6728H6.68818L6.49951 32.892C6.29193 33.1333 6.26638 33.31 6.39763 33.598C6.51177 33.8486 6.77787 33.9618 7.25209 33.9618H7.63904V34.6259V35.29H5.95935H4.27966V32.6337V29.9775H5.95935H7.63904V30.4132ZM36.3109 37.6337V38.6493H20.2953H4.27966V37.6337V36.6181H20.2953H36.3109V37.6337Z" fill="#4E97ED"/>
</svg>
