<svg width="80" height="80" viewBox="0 0 80 80" fill="none" xmlns="http://www.w3.org/2000/svg">
<path fill-rule="evenodd" clip-rule="evenodd" d="M21.1406 4.69891L20.7289 5.02266V7.98016V10.9375H18.8627C17.1153 10.9375 16.9685 10.9616 16.558 11.3144L16.1196 11.6914L16.0744 16.7508L16.0294 21.8103L14.6424 23.1873C11.5563 26.2513 9.45377 30.05 8.41596 34.438C8.0444 36.0084 8.00518 36.4738 8.00018 39.375C7.99393 42.9406 8.14752 43.9917 9.08815 46.8194C10.1969 50.1522 12.0342 53.1547 14.518 55.6927L16.0414 57.2492V62.4577C16.0414 68.103 16.1111 68.6508 16.8514 68.8231C17.0505 68.8694 17.9867 68.9247 18.9321 68.9458L20.6508 68.9844L20.7289 71.9531C20.7719 73.5859 20.8597 75.0028 20.9239 75.1019C21.1588 75.4633 21.8958 75.6005 22.4196 75.3803C22.6928 75.2653 22.9302 75.1503 22.9469 75.1247C22.9638 75.0991 23.0164 73.707 23.0641 72.0313L23.1508 68.9844L27.1742 68.9427L31.1977 68.9009V71.7855C31.1977 74.5852 31.2085 74.6827 31.5636 75.0955C32.0656 75.6791 32.8297 75.6791 33.3317 75.0955C33.6869 74.6827 33.6977 74.585 33.6977 71.7881V68.9063H35.3991C37.9555 68.9063 37.8269 69.1095 37.8857 64.9706L37.9331 61.6319L38.9794 61.2591C45.4355 58.9586 50.7925 53.4395 52.9947 46.8194C53.9353 43.9917 54.0889 42.9406 54.0827 39.375C54.0777 36.4738 54.0385 36.0084 53.6669 34.438C52.37 28.9552 49.2594 24.1817 44.8285 20.8744C43.3486 19.7698 40.8511 18.4156 39.0492 17.7406L37.9164 17.3164V14.6813C37.9164 13.0827 37.8482 11.8961 37.743 11.6652C37.4808 11.0898 36.9594 10.9375 35.2528 10.9375H33.6977V8.21047C33.6977 5.24234 33.6064 4.81703 32.9077 4.52766C32.3906 4.31344 31.9277 4.43156 31.5049 4.88547C31.2227 5.18844 31.1977 5.4475 31.1977 8.07641V10.9375H27.1352H23.0727V7.98016V5.02266L22.661 4.69891C22.4346 4.52078 22.0925 4.375 21.9008 4.375C21.7091 4.375 21.3671 4.52078 21.1406 4.69891ZM35.4164 15.095V16.7527L35.0447 16.6594C34.8403 16.608 33.8296 16.4928 32.7985 16.4033C28.583 16.0372 24.2438 16.9363 20.2727 18.9983C19.3771 19.4633 18.6213 19.8438 18.593 19.8438C18.5646 19.8438 18.5414 18.4023 18.5414 16.6406V13.4375H26.9789H35.4164V15.095ZM34.7852 19.1488C39.878 20.1148 44.4491 22.9333 47.5416 27.0141C48.9908 28.9263 50.4557 31.9581 51.0605 34.2969C51.6922 36.7391 51.8521 40.2561 51.4475 42.8102C50.1091 51.2608 43.6606 57.9434 35.0506 59.8028C33.2755 60.1863 28.816 60.1886 27.0571 59.807C19.5647 58.1819 13.7761 53.0823 11.4331 46.0423C10.6999 43.8395 10.4175 42.025 10.4169 39.5127C10.4161 35.9311 11.0277 33.3227 12.6006 30.1994C14.2536 26.9173 16.5706 24.3031 19.6352 22.2625C22.4638 20.3791 25.6875 19.2338 29.2446 18.8484C30.3636 18.7272 33.4428 18.8941 34.7852 19.1488ZM28.6196 22.517C26.2036 22.8652 23.6696 23.8425 21.6056 25.2223C17.1783 28.1823 14.5613 32.5419 13.9883 37.9114C13.795 39.7231 13.93 40.2356 14.6971 40.6033C15.0867 40.79 15.2161 40.7856 15.668 40.5702C16.2527 40.2913 16.2564 40.2797 16.4936 38.0189C16.8339 34.7763 18.1528 31.8694 20.3286 29.5673C21.8155 27.9942 23.0542 27.0831 24.8497 26.2417C26.4722 25.4813 28.1455 25.0359 29.8464 24.9117C31.3958 24.7984 31.8844 24.6286 32.1149 24.1227C32.385 23.53 32.3283 23.1477 31.9078 22.7273C31.5764 22.3958 31.391 22.3464 30.5406 22.3628C29.9997 22.3733 29.1352 22.4427 28.6196 22.517ZM23.2153 32.5441C22.6539 32.9752 22.6039 33.3609 22.6039 37.2656C22.6039 41.1703 22.6539 41.5561 23.2153 41.9872C23.4049 42.1328 26.1596 42.1788 34.9156 42.1825L46.3681 42.1875L46.7516 41.8039L47.1352 41.4205V37.2656V33.1108L46.7516 32.7273L46.3681 32.3438L34.9156 32.3488C26.1596 32.3525 23.4049 32.3984 23.2153 32.5441ZM44.6352 37.2656V39.6875H34.8696H25.1039V37.2656V34.8438H34.8696H44.6352V37.2656ZM27.9028 47.3878C27.1981 47.9289 27.1863 48.8342 27.8769 49.3775C28.2556 49.6753 28.5249 49.6875 34.7257 49.6875H41.1802L41.6056 49.3216C42.1521 48.8516 42.1771 48.1217 41.6652 47.5769L41.2994 47.1875L34.7252 47.1925C29.8036 47.1963 28.0885 47.2453 27.9028 47.3878ZM23.501 61.4024C26.1261 62.2795 27.7224 62.5409 30.5727 62.5605C31.9906 62.5702 33.6605 62.5211 34.2836 62.4514L35.4164 62.3248V64.3655V66.4063H26.9789H18.5414V62.7411V59.0761L20.2992 59.998C21.2661 60.505 22.7069 61.1369 23.501 61.4024Z" fill="#4E97ED"/>
<path d="M48 55.5L54.0866 64.3864C55.2781 66.126 57.8452 66.126 59.0367 64.3864L73 44" stroke="white" stroke-width="8" stroke-linecap="round" stroke-linejoin="round"/>
<path d="M48 55.5L54.0866 64.3864C55.2781 66.126 57.8452 66.126 59.0367 64.3864L73 44" stroke="#2FC6E7" stroke-width="3" stroke-linecap="round" stroke-linejoin="round"/>
</svg>
