<svg width="40" height="40" viewBox="0 0 40 40" fill="none" xmlns="http://www.w3.org/2000/svg">
<path fill-rule="evenodd" clip-rule="evenodd" d="M4.42461 0.161953L4.21875 0.323828V20V39.6762L4.42461 39.838L4.63047 40H20H35.3695L35.5754 39.838L35.7812 39.6762V20V0.323828L35.5754 0.161953L35.3695 0H20H4.63047L4.42461 0.161953ZM19.4531 18.8281V36.4844H12.3828H5.3125V20V3.51562H7.85406C10.6565 3.51562 10.7329 3.52672 11.24 4.00789C11.6449 4.39203 11.7932 4.78648 11.7952 5.48477L11.7969 6.08664L11.5039 6.13727C11.3428 6.16508 10.9295 6.32172 10.5855 6.48531C9.76711 6.87469 9.08937 7.56039 8.71687 8.37609C8.57391 8.68914 8.43469 9.07047 8.40742 9.22344C8.36273 9.47437 8.32547 9.50875 8.02656 9.575C7.62977 9.66297 7.44422 9.94914 7.55914 10.2957C7.69406 10.7023 7.67656 10.7009 12.3828 10.7009C17.0891 10.7009 17.0716 10.7023 17.2065 10.2957C17.3214 9.94914 17.1359 9.66297 16.7391 9.575C16.4402 9.50875 16.4029 9.47437 16.3582 9.22344C16.3309 9.07047 16.1917 8.68914 16.0487 8.37609C15.6762 7.56039 14.9985 6.87469 14.1801 6.48531C13.8361 6.32172 13.4229 6.16508 13.2617 6.13727L12.9688 6.08664V5.63211C12.9688 3.92484 12.0523 2.70734 10.553 2.42305C10.323 2.37945 9.04984 2.34375 7.72375 2.34375H5.3125V1.75781V1.17188H12.3828H19.4531V18.8281ZM34.6875 18.8281V36.4844H27.6172H20.5469V18.8281V1.17188H27.6172H34.6875V18.8281ZM13.5998 7.4768C13.8757 7.60797 14.2548 7.86523 14.4422 8.04852C14.7522 8.35172 15.2341 9.19445 15.2343 9.43359C15.2344 9.50992 14.612 9.53125 12.3828 9.53125C10.1536 9.53125 9.53125 9.50992 9.53133 9.43359C9.53133 9.37992 9.63297 9.12125 9.75711 8.85883C10.4391 7.41719 12.1671 6.7957 13.5998 7.4768ZM9.78398 11.9543C9.52016 12.0628 9.43781 12.3809 9.46641 13.1809C9.49602 14.0088 9.59031 14.1719 10.0391 14.1719C10.5136 14.1719 10.5859 14.023 10.5859 13.0469C10.5859 12.1265 10.5386 12.0026 10.1562 11.9225C10.0488 11.8999 9.88133 11.9143 9.78398 11.9543ZM12.1277 11.9543C11.8639 12.0628 11.7816 12.3809 11.8102 13.1809C11.8398 14.0088 11.9341 14.1719 12.3828 14.1719C12.8573 14.1719 12.9297 14.023 12.9297 13.0469C12.9297 12.1265 12.8823 12.0026 12.5 11.9225C12.3926 11.8999 12.2251 11.9143 12.1277 11.9543ZM14.4715 11.9543C14.2077 12.0628 14.1253 12.3809 14.1539 13.1809C14.1835 14.0088 14.2778 14.1719 14.7266 14.1719C15.2011 14.1719 15.2734 14.023 15.2734 13.0469C15.2734 12.1265 15.2261 12.0026 14.8438 11.9225C14.7363 11.8999 14.5688 11.9143 14.4715 11.9543ZM17.2656 14.9219C17.1138 15.0737 17.1094 15.1823 17.1094 18.8281C17.1094 22.474 17.1138 22.5825 17.2656 22.7344C17.3524 22.8212 17.526 22.8906 17.6562 22.8906C17.7865 22.8906 17.9601 22.8212 18.0469 22.7344C18.1987 22.5825 18.2031 22.474 18.2031 18.8281C18.2031 15.1823 18.1987 15.0737 18.0469 14.9219C17.9601 14.8351 17.7865 14.7656 17.6562 14.7656C17.526 14.7656 17.3524 14.8351 17.2656 14.9219ZM21.9531 14.9219C21.8013 15.0737 21.7969 15.1823 21.7969 18.8281C21.7969 22.474 21.8013 22.5825 21.9531 22.7344C22.0399 22.8212 22.2135 22.8906 22.3438 22.8906C22.474 22.8906 22.6476 22.8212 22.7344 22.7344C22.8862 22.5825 22.8906 22.474 22.8906 18.8281C22.8906 15.1823 22.8862 15.0737 22.7344 14.9219C22.6476 14.8351 22.474 14.7656 22.3438 14.7656C22.2135 14.7656 22.0399 14.8351 21.9531 14.9219ZM9.78398 15.4699C9.52016 15.5784 9.43781 15.8966 9.46641 16.6966C9.49602 17.5245 9.59031 17.6875 10.0391 17.6875C10.5136 17.6875 10.5859 17.5387 10.5859 16.5625C10.5859 15.6421 10.5386 15.5182 10.1562 15.4381C10.0488 15.4155 9.88133 15.4299 9.78398 15.4699ZM12.1277 15.4699C11.8639 15.5784 11.7816 15.8966 11.8102 16.6966C11.8398 17.5245 11.9341 17.6875 12.3828 17.6875C12.8573 17.6875 12.9297 17.5387 12.9297 16.5625C12.9297 15.6421 12.8823 15.5182 12.5 15.4381C12.3926 15.4155 12.2251 15.4299 12.1277 15.4699ZM14.4715 15.4699C14.2077 15.5784 14.1253 15.8966 14.1539 16.6966C14.1835 17.5245 14.2778 17.6875 14.7266 17.6875C15.2011 17.6875 15.2734 17.5387 15.2734 16.5625C15.2734 15.6421 15.2261 15.5182 14.8438 15.4381C14.7363 15.4155 14.5688 15.4299 14.4715 15.4699ZM9.78398 18.9855C9.52016 19.0941 9.43781 19.4122 9.46641 20.2122C9.49602 21.0401 9.59031 21.2031 10.0391 21.2031C10.5136 21.2031 10.5859 21.0543 10.5859 20.0781C10.5859 19.1577 10.5386 19.0338 10.1562 18.9538C10.0488 18.9312 9.88133 18.9455 9.78398 18.9855ZM12.1277 18.9855C11.8639 19.0941 11.7816 19.4122 11.8102 20.2122C11.8398 21.0401 11.9341 21.2031 12.3828 21.2031C12.8573 21.2031 12.9297 21.0543 12.9297 20.0781C12.9297 19.1577 12.8823 19.0338 12.5 18.9538C12.3926 18.9312 12.2251 18.9455 12.1277 18.9855ZM14.4715 18.9855C14.2077 19.0941 14.1253 19.4122 14.1539 20.2122C14.1835 21.0401 14.2778 21.2031 14.7266 21.2031C15.2011 21.2031 15.2734 21.0543 15.2734 20.0781C15.2734 19.1577 15.2261 19.0338 14.8438 18.9538C14.7363 18.9312 14.5688 18.9455 14.4715 18.9855ZM9.78398 22.5012C9.52016 22.6097 9.43781 22.9278 9.46641 23.7278C9.49602 24.5557 9.59031 24.7188 10.0391 24.7188C10.5136 24.7188 10.5859 24.5699 10.5859 23.5938C10.5859 22.6734 10.5386 22.5495 10.1562 22.4694C10.0488 22.4468 9.88133 22.4612 9.78398 22.5012ZM12.1277 22.5012C11.8639 22.6097 11.7816 22.9278 11.8102 23.7278C11.8398 24.5557 11.9341 24.7188 12.3828 24.7188C12.8573 24.7188 12.9297 24.5699 12.9297 23.5938C12.9297 22.6734 12.8823 22.5495 12.5 22.4694C12.3926 22.4468 12.2251 22.4612 12.1277 22.5012ZM14.4715 22.5012C14.2077 22.6097 14.1253 22.9278 14.1539 23.7278C14.1835 24.5557 14.2778 24.7188 14.7266 24.7188C15.2011 24.7188 15.2734 24.5699 15.2734 23.5938C15.2734 22.6734 15.2261 22.5495 14.8438 22.4694C14.7363 22.4468 14.5688 22.4612 14.4715 22.5012ZM9.78398 26.0168C9.52016 26.1253 9.43781 26.4434 9.46641 27.2434C9.49602 28.0713 9.59031 28.2344 10.0391 28.2344C10.5136 28.2344 10.5859 28.0855 10.5859 27.1094C10.5859 26.189 10.5386 26.0651 10.1562 25.985C10.0488 25.9624 9.88133 25.9768 9.78398 26.0168ZM12.1277 26.0168C11.8639 26.1253 11.7816 26.4434 11.8102 27.2434C11.8398 28.0713 11.9341 28.2344 12.3828 28.2344C12.8573 28.2344 12.9297 28.0855 12.9297 27.1094C12.9297 26.189 12.8823 26.0651 12.5 25.985C12.3926 25.9624 12.2251 25.9768 12.1277 26.0168ZM14.4715 26.0168C14.2077 26.1253 14.1253 26.4434 14.1539 27.2434C14.1835 28.0713 14.2778 28.2344 14.7266 28.2344C15.2011 28.2344 15.2734 28.0855 15.2734 27.1094C15.2734 26.189 15.2261 26.0651 14.8438 25.985C14.7363 25.9624 14.5688 25.9768 14.4715 26.0168ZM9.78398 29.5324C9.52016 29.6409 9.43781 29.9591 9.46641 30.7591C9.49602 31.587 9.59031 31.75 10.0391 31.75C10.5136 31.75 10.5859 31.6012 10.5859 30.625C10.5859 29.7046 10.5386 29.5807 10.1562 29.5006C10.0488 29.478 9.88133 29.4924 9.78398 29.5324ZM12.1277 29.5324C11.8639 29.6409 11.7816 29.9591 11.8102 30.7591C11.8398 31.587 11.9341 31.75 12.3828 31.75C12.8573 31.75 12.9297 31.6012 12.9297 30.625C12.9297 29.7046 12.8823 29.5807 12.5 29.5006C12.3926 29.478 12.2251 29.4924 12.1277 29.5324ZM14.4715 29.5324C14.2077 29.6409 14.1253 29.9591 14.1539 30.7591C14.1835 31.587 14.2778 31.75 14.7266 31.75C15.2011 31.75 15.2734 31.6012 15.2734 30.625C15.2734 29.7046 15.2261 29.5807 14.8438 29.5006C14.7363 29.478 14.5688 29.4924 14.4715 29.5324ZM9.78398 33.048C9.52016 33.1566 9.43781 33.4747 9.46641 34.2747C9.49602 35.1026 9.59031 35.2656 10.0391 35.2656C10.5136 35.2656 10.5859 35.1168 10.5859 34.1406C10.5859 33.2202 10.5386 33.0963 10.1562 33.0163C10.0488 32.9937 9.88133 33.008 9.78398 33.048ZM12.1277 33.048C11.8639 33.1566 11.7816 33.4747 11.8102 34.2747C11.8398 35.1026 11.9341 35.2656 12.3828 35.2656C12.8573 35.2656 12.9297 35.1168 12.9297 34.1406C12.9297 33.2202 12.8823 33.0963 12.5 33.0163C12.3926 32.9937 12.2251 33.008 12.1277 33.048ZM14.4715 33.048C14.2077 33.1566 14.1253 33.4747 14.1539 34.2747C14.1835 35.1026 14.2778 35.2656 14.7266 35.2656C15.2011 35.2656 15.2734 35.1168 15.2734 34.1406C15.2734 33.2202 15.2261 33.0963 14.8438 33.0163C14.7363 32.9937 14.5688 33.008 14.4715 33.048ZM34.6875 38.2422V38.8281H20H5.3125V38.2422V37.6562H20H34.6875V38.2422Z" fill="#175CAB"/>
</svg>
