<svg width="60" height="60" viewBox="0 0 60 60" fill="none" xmlns="http://www.w3.org/2000/svg">
<g clip-path="url(#clip0_2109_13525)">
<path fill-rule="evenodd" clip-rule="evenodd" d="M7.99617 0.232969C7.78605 0.361055 7.50949 0.637617 7.38141 0.847734C7.16496 1.2027 7.14844 1.44281 7.14809 4.24723L7.14762 7.2648L4.24723 7.26527C1.55977 7.26562 1.31883 7.28273 0.964922 7.49859C0.754805 7.62668 0.478242 7.90324 0.350156 8.11336C0.119648 8.49129 0.117188 8.75578 0.117188 33.632C0.117188 58.5082 0.119648 58.7727 0.350156 59.1506C0.478242 59.3607 0.754805 59.6373 0.964922 59.7654C1.3432 59.9961 1.61496 59.9984 29.9992 59.9984C58.3834 59.9984 58.6552 59.9961 59.0334 59.7654C59.2436 59.6373 59.5201 59.3607 59.6482 59.1506C59.8787 58.7727 59.8812 58.5082 59.8812 33.632C59.8812 8.75578 59.8787 8.49129 59.6482 8.11336C59.5201 7.90324 59.2436 7.62668 59.0334 7.49859C58.6564 7.26867 58.4032 7.26562 39.3449 7.26527L20.0382 7.2648L20.0378 4.24723C20.0374 1.44281 20.0209 1.2027 19.8045 0.847734C19.6764 0.637617 19.3998 0.361055 19.1897 0.232969C18.8237 0.00972657 18.5903 0 13.5929 0C8.59559 0 8.36215 0.00972657 7.99617 0.232969ZM16.5226 5.3898V7.2648H13.5929H10.6632V5.3898V3.5148H13.5929H16.5226V5.3898ZM56.3664 12.5382V14.2961H29.9992H3.63199V12.5382V10.7804H29.9992H56.3664V12.5382ZM18.8664 33.632V49.4523H11.2492H3.63199V33.632V17.8117H11.2492H18.8664V33.632ZM37.6164 33.632V49.4523H29.9992H22.382V33.632V17.8117H29.9992H37.6164V33.632ZM43.3586 18.8504C43.3586 20.2021 43.5118 20.9832 43.9547 21.8885C44.4695 22.9409 45.3671 23.813 46.4849 24.3466C47.379 24.7736 47.4346 24.7843 48.7492 24.7843C50.0638 24.7843 50.1193 24.7736 51.0135 24.3466C52.1312 23.813 53.0289 22.9409 53.5437 21.8885C53.9865 20.9832 54.1398 20.2021 54.1398 18.8504V17.8117H55.2531H56.3664V33.632V49.4523H48.7492H41.132V33.632V17.8117H42.2453H43.3586V18.8504ZM50.507 18.9076C50.507 19.8512 50.4703 20.0575 50.2433 20.391C49.8142 21.0214 49.4101 21.2552 48.7492 21.2552C48.0882 21.2552 47.6842 21.0214 47.255 20.391C47.028 20.0575 46.9914 19.8512 46.9914 18.9076V17.8117H48.7492H50.507V18.9076ZM9.78434 25.5871C7.7925 26.2466 6.33246 27.8434 5.97633 29.7514C5.82328 30.5716 5.82328 36.6923 5.97633 37.5125C6.27879 39.1328 7.42934 40.5961 8.98488 41.3388C9.87902 41.7657 9.93457 41.7765 11.2492 41.7765C12.5638 41.7765 12.6193 41.7657 13.5135 41.3388C15.069 40.5961 16.2196 39.1328 16.522 37.5125C16.6751 36.6923 16.6751 30.5716 16.522 29.7514C16.2193 28.1296 15.0677 26.6658 13.5135 25.9273C12.67 25.5264 12.5034 25.4892 11.425 25.4618C10.6877 25.4429 10.0793 25.4895 9.78434 25.5871ZM28.5343 25.5871C26.5425 26.2466 25.0825 27.8434 24.7263 29.7514C24.6615 30.0987 24.6086 31.8449 24.6086 33.632C24.6086 35.4191 24.6615 37.1653 24.7263 37.5125C25.0288 39.1328 26.1793 40.5961 27.7349 41.3388C28.629 41.7657 28.6846 41.7765 29.9992 41.7765C31.3138 41.7765 31.3693 41.7657 32.2635 41.3388C33.819 40.5961 34.9696 39.1328 35.272 37.5125C35.3368 37.1653 35.3898 35.4191 35.3898 33.632C35.3898 31.8449 35.3368 30.0987 35.272 29.7514C34.9693 28.1296 33.8177 26.6658 32.2635 25.9273C31.42 25.5264 31.2534 25.4892 30.175 25.4618C29.4377 25.4429 28.8293 25.4895 28.5343 25.5871ZM12.1867 29.2836C12.3478 29.3989 12.5984 29.6678 12.7433 29.8808C13.0016 30.2604 13.007 30.3366 13.007 33.632C13.007 36.9274 13.0016 37.0036 12.7433 37.3832C12.3142 38.0136 11.9101 38.2474 11.2492 38.2474C10.5882 38.2474 10.1842 38.0136 9.75504 37.3832C9.49687 37.0038 9.49137 36.9261 9.49137 33.6674C9.49137 30.1004 9.50602 30 10.1094 29.4364C10.6648 28.9178 11.5815 28.8504 12.1867 29.2836ZM30.9367 29.2836C31.0978 29.3989 31.3482 29.6678 31.4933 29.8808C31.7516 30.2604 31.757 30.3366 31.757 33.632C31.757 36.9274 31.7516 37.0036 31.4933 37.3832C31.0642 38.0136 30.6601 38.2474 29.9992 38.2474C29.3382 38.2474 28.9342 38.0136 28.505 37.3832C28.2469 37.0038 28.2414 36.9261 28.2414 33.6674C28.2414 30.1004 28.256 30 28.8594 29.4364C29.4148 28.9178 30.3315 28.8504 30.9367 29.2836ZM46.3935 29.7964C46.1745 29.9427 45.903 30.246 45.7904 30.4703C45.3809 31.2854 45.6395 32.2764 46.3935 32.78C46.7025 32.9865 46.9574 33.0461 47.5318 33.0461H48.2721L48.3056 38.897C48.3383 44.6234 48.3443 44.755 48.5842 45.0786C49.4598 46.2599 51.0949 46.2171 51.7079 44.9968C51.896 44.6224 51.9129 44.0266 51.9129 37.7336C51.9129 30.0914 51.9396 30.354 51.1049 29.7964C50.7306 29.5464 50.5893 29.5304 48.7492 29.5304C46.9091 29.5304 46.7678 29.5464 46.3935 29.7964ZM56.3664 54.7257V56.4836H29.9992H3.63199V54.7257V52.9679H29.9992H56.3664V54.7257Z" fill="url(#paint0_linear_2109_13525)"/>
</g>
<defs>
<linearGradient id="paint0_linear_2109_13525" x1="59.8812" y1="0" x2="-7.48478" y2="10.3056" gradientUnits="userSpaceOnUse">
<stop stop-color="#FF808B"/>
<stop offset="1" stop-color="#F45B69"/>
</linearGradient>
<clipPath id="clip0_2109_13525">
<rect width="60" height="60" fill="white"/>
</clipPath>
</defs>
</svg>
