<svg width="80" height="80" viewBox="0 0 80 80" fill="none" xmlns="http://www.w3.org/2000/svg">
<g clip-path="url(#clip0_1157_53358)">
<rect width="80" height="80" fill="white"/>
<mask id="path-1-outside-1_1157_53358" maskUnits="userSpaceOnUse" x="3" y="4" width="63" height="63" fill="black">
<rect fill="white" x="3" y="4" width="63" height="63"/>
<path fill-rule="evenodd" clip-rule="evenodd" d="M7.94252 7.1924C7.73186 7.29146 7.44302 7.52822 7.30064 7.71857C7.0461 8.05885 7.0412 8.13331 7.01051 12.1276C6.97573 16.6676 6.98122 16.7035 7.78847 17.2179C8.13987 17.4419 8.32905 17.4706 9.45152 17.4706H10.718L10.7182 19.502C10.7184 21.213 10.7506 21.5949 10.9225 21.923C11.0831 22.2297 11.6791 22.6662 13.7232 23.9737L16.3199 25.6348V27.0626V28.4904H12.2524C8.21806 28.4904 8.18176 28.4924 7.78847 28.7431C7.57034 28.882 7.29982 29.1701 7.1872 29.3832C6.9944 29.748 6.98425 30.7355 7.01214 46.356L7.04179 62.9414L7.30204 63.2895C7.87845 64.0601 5.48622 63.9988 35.0122 63.9988C60.7405 63.9988 61.6776 63.9917 62.0702 63.7925C62.2938 63.6789 62.5941 63.391 62.7375 63.1524L62.9981 62.7188L62.9999 46.2446C63.0015 30.7806 62.9891 29.7468 62.7975 29.3832C62.6854 29.1701 62.4151 28.882 62.1969 28.7431C61.8037 28.4924 61.7674 28.4904 57.733 28.4904H53.6656L53.6671 27.0712L53.6686 25.652L56.1965 24.038C57.5869 23.1503 58.8335 22.2827 58.9668 22.11C59.189 21.8221 59.2121 21.6172 59.2451 19.6334L59.2813 17.4706H60.5409C61.656 17.4706 61.8459 17.4416 62.1969 17.2179C63.0042 16.7035 63.0097 16.6676 62.9749 12.1276C62.9441 8.12664 62.9397 8.0594 62.6834 7.71668C62.1633 7.02142 62.0602 7.00729 57.4992 7.00751C52.8925 7.00762 52.8274 7.0173 52.2926 7.78068L52.0237 8.16448L52.0569 12.3635L52.09 16.5624L52.3818 16.8597C52.8592 17.3464 53.0797 17.4123 54.4241 17.4706L55.7079 17.5262V18.9176V20.309L53.1488 21.9472C51.4746 23.0189 50.5061 23.7113 50.3479 23.9495C50.1299 24.2776 50.1021 24.5189 50.0659 26.4019L50.0259 28.4904H45.2518H40.4779V27.0139V25.5373L41.9448 24.1476C42.7516 23.3832 43.5787 22.5598 43.783 22.3175L44.1541 21.8772L44.2124 19.7017L44.2708 17.5262L45.6506 17.4706L47.0305 17.4149L47.4777 16.9574C48.0604 16.3614 48.0931 16.057 48.0437 11.6824C48.008 8.5248 47.989 8.26099 47.7719 7.90947C47.6436 7.70154 47.3903 7.42604 47.2092 7.29725C46.8906 7.07062 46.7413 7.06194 42.6257 7.03111C37.7905 6.99504 37.782 6.99627 37.2645 7.83856L36.9767 8.30696V12.2504C36.9767 16.647 36.9843 16.6933 37.7935 17.2201C38.1343 17.442 38.3231 17.4706 39.4448 17.4706H40.7113V19.0026V20.5345L39.007 22.1471C38.0698 23.034 37.2295 23.9209 37.1397 24.1179C37.0201 24.3808 36.9767 25.0098 36.9767 26.4833V28.4904H34.9927H33.0087V26.4833C33.0087 25.0098 32.9653 24.3808 32.8457 24.1179C32.7559 23.9209 31.9157 23.034 30.9784 22.1471L29.2741 20.5345V19.0026V17.4706H30.5406C31.6623 17.4706 31.8511 17.442 32.1919 17.2201C33.0008 16.6935 33.0087 16.6454 33.0087 12.2641C33.0087 8.54506 32.9961 8.31063 32.7738 7.89488C32.6211 7.60948 32.3745 7.37562 32.0701 7.22746C31.6191 7.00807 31.44 7.00061 27.3534 7.03111C23.2442 7.06194 23.0948 7.07062 22.7762 7.29725C22.5951 7.42604 22.3419 7.70154 22.2135 7.90947C21.9916 8.26856 21.9801 8.48751 21.9801 12.3143C21.9801 16.2079 21.988 16.3515 22.2207 16.6485C22.7399 17.3117 23.0031 17.4106 24.4095 17.4706L25.7146 17.5262L25.773 19.6968C25.8269 21.703 25.8506 21.8927 26.0859 22.2013C26.2259 22.385 27.053 23.2108 27.924 24.0364L29.5076 25.5376V27.014V28.4904H24.7352H19.9629L19.9212 26.4022C19.883 24.4936 19.8578 24.2813 19.6278 23.9348C19.4562 23.6765 18.564 23.0386 16.8268 21.9324L14.2775 20.309V18.9176V17.5262L15.6397 17.4706C16.8901 17.4195 17.0273 17.3921 17.3138 17.1366C17.9558 16.5641 17.9537 16.5802 17.9537 12.2053C17.9537 6.55169 18.434 7.00662 12.4686 7.00996C8.8911 7.01207 8.27326 7.03689 7.94252 7.1924ZM14.4526 12.2389V14.1312H12.4686H10.4846V12.2389V10.3466H12.4686H14.4526V12.2389ZM29.5076 12.2389V14.1312H27.5236H25.5396V12.2389V10.3466H27.5236H29.5076V12.2389ZM44.4458 12.2389V14.1312H42.4618H40.4779V12.2389V10.3466H42.4618H44.4458V12.2389ZM59.5008 12.2389V14.1312H57.5168H55.5328V12.2389V10.3466H57.5168H59.5008V12.2389ZM59.5008 46.2446V60.6595H34.9927H10.4846V46.2446V31.8298H34.9927H59.5008V46.2446ZM19.2958 35.7715C18.8248 35.9712 18.4393 36.3884 18.301 36.848C18.2384 37.0564 18.1871 38.0618 18.1871 39.0823V40.9376L16.9116 40.9754C15.5331 41.016 15.2734 41.1127 14.7516 41.7795C14.5186 42.077 14.5109 42.2192 14.5109 46.2251V50.3632L14.7911 50.738C15.2239 51.3167 15.8384 51.5266 17.1076 51.5295L18.1871 51.5319V53.3193C18.1871 55.4258 18.3005 55.9721 18.8293 56.415C19.8266 57.2501 21.322 56.8041 21.6832 55.5635C21.7495 55.3359 21.804 54.3357 21.8043 53.3408L21.805 51.5319H22.889C24.2816 51.5319 24.8816 51.2807 25.281 50.5301C25.5458 50.0325 25.5473 50.0033 25.5144 46.0688L25.4812 42.1084L25.1449 41.688C24.6762 41.1023 24.2346 40.9573 22.9174 40.9573H21.805L21.8043 39.1485C21.804 38.1537 21.7464 37.1393 21.6765 36.8945C21.3849 35.874 20.2817 35.3536 19.2958 35.7715ZM34.2012 35.7995C33.7279 36.022 33.3651 36.4926 33.2796 36.9954L33.2147 37.3769L31.9155 37.414C30.7958 37.4459 30.5658 37.4853 30.2513 37.6992C29.521 38.1961 29.5076 38.2869 29.5076 42.7108C29.5076 46.6783 29.5098 46.7158 29.7705 47.0848C30.2179 47.7181 30.6684 47.8899 32.0324 47.9478L33.2421 47.9991V51.7988C33.2421 56.1299 33.2464 56.1523 34.1773 56.6217C34.7954 56.9335 35.1321 56.9397 35.7436 56.6506C36.7068 56.1955 36.6806 56.3229 36.7183 51.8937L36.7518 47.97L37.652 47.9673C39.2256 47.9625 39.9006 47.7035 40.3139 46.9459C40.4458 46.7041 40.4779 45.8683 40.4779 42.6772C40.4779 38.2903 40.4637 38.1957 39.7341 37.6992C39.4196 37.4853 39.1897 37.4459 38.0699 37.414L36.7707 37.3769L36.7075 37.0056C36.6176 36.4773 36.3098 36.0804 35.7965 35.8305C35.2584 35.5689 34.7145 35.5582 34.2012 35.7995ZM49.2891 35.7654C48.798 35.9822 48.4576 36.3742 48.3089 36.8945C48.2294 37.1726 48.1815 38.6866 48.1811 40.9295L48.1804 44.5193H47.0964C45.7038 44.5193 45.1038 44.7705 44.7045 45.5211C44.4397 46.0187 44.4381 46.0483 44.471 49.9736C44.5078 54.3516 44.4873 54.2333 45.3068 54.7898C45.6156 54.9995 45.8583 55.0427 46.9242 55.0776L48.1783 55.1185L48.2991 55.5464C48.7792 57.2467 51.1942 57.2654 51.6721 55.5726L51.8004 55.1185L53.0767 55.0768C54.4546 55.0318 54.7151 54.9346 55.2338 54.2719C55.4668 53.9743 55.4745 53.8322 55.4745 49.8263C55.4745 45.7273 55.472 45.6847 55.2149 45.341C54.7354 44.6999 54.4293 44.586 53.0585 44.5383L51.8095 44.495L51.7747 40.6193C51.7413 36.9056 51.7299 36.7306 51.4993 36.4362C50.94 35.7222 50.0199 35.443 49.2891 35.7654ZM36.9767 42.627V44.5193H34.9927H33.0087V42.627V40.7347H34.9927H36.9767V42.627ZM21.9217 46.189V48.0813H19.9377H17.9537V46.2632C17.9537 45.2632 17.9887 44.4117 18.0316 44.3709C18.0743 44.3301 18.9671 44.2967 20.0156 44.2967H21.9217V46.189ZM52.0053 49.8344L51.9733 51.6989L50.0185 51.7294L48.0637 51.7599V49.8649V47.97H50.0505H52.0373L52.0053 49.8344Z"/>
</mask>
<path fill-rule="evenodd" clip-rule="evenodd" d="M7.94252 7.1924C7.73186 7.29146 7.44302 7.52822 7.30064 7.71857C7.0461 8.05885 7.0412 8.13331 7.01051 12.1276C6.97573 16.6676 6.98122 16.7035 7.78847 17.2179C8.13987 17.4419 8.32905 17.4706 9.45152 17.4706H10.718L10.7182 19.502C10.7184 21.213 10.7506 21.5949 10.9225 21.923C11.0831 22.2297 11.6791 22.6662 13.7232 23.9737L16.3199 25.6348V27.0626V28.4904H12.2524C8.21806 28.4904 8.18176 28.4924 7.78847 28.7431C7.57034 28.882 7.29982 29.1701 7.1872 29.3832C6.9944 29.748 6.98425 30.7355 7.01214 46.356L7.04179 62.9414L7.30204 63.2895C7.87845 64.0601 5.48622 63.9988 35.0122 63.9988C60.7405 63.9988 61.6776 63.9917 62.0702 63.7925C62.2938 63.6789 62.5941 63.391 62.7375 63.1524L62.9981 62.7188L62.9999 46.2446C63.0015 30.7806 62.9891 29.7468 62.7975 29.3832C62.6854 29.1701 62.4151 28.882 62.1969 28.7431C61.8037 28.4924 61.7674 28.4904 57.733 28.4904H53.6656L53.6671 27.0712L53.6686 25.652L56.1965 24.038C57.5869 23.1503 58.8335 22.2827 58.9668 22.11C59.189 21.8221 59.2121 21.6172 59.2451 19.6334L59.2813 17.4706H60.5409C61.656 17.4706 61.8459 17.4416 62.1969 17.2179C63.0042 16.7035 63.0097 16.6676 62.9749 12.1276C62.9441 8.12664 62.9397 8.0594 62.6834 7.71668C62.1633 7.02142 62.0602 7.00729 57.4992 7.00751C52.8925 7.00762 52.8274 7.0173 52.2926 7.78068L52.0237 8.16448L52.0569 12.3635L52.09 16.5624L52.3818 16.8597C52.8592 17.3464 53.0797 17.4123 54.4241 17.4706L55.7079 17.5262V18.9176V20.309L53.1488 21.9472C51.4746 23.0189 50.5061 23.7113 50.3479 23.9495C50.1299 24.2776 50.1021 24.5189 50.0659 26.4019L50.0259 28.4904H45.2518H40.4779V27.0139V25.5373L41.9448 24.1476C42.7516 23.3832 43.5787 22.5598 43.783 22.3175L44.1541 21.8772L44.2124 19.7017L44.2708 17.5262L45.6506 17.4706L47.0305 17.4149L47.4777 16.9574C48.0604 16.3614 48.0931 16.057 48.0437 11.6824C48.008 8.5248 47.989 8.26099 47.7719 7.90947C47.6436 7.70154 47.3903 7.42604 47.2092 7.29725C46.8906 7.07062 46.7413 7.06194 42.6257 7.03111C37.7905 6.99504 37.782 6.99627 37.2645 7.83856L36.9767 8.30696V12.2504C36.9767 16.647 36.9843 16.6933 37.7935 17.2201C38.1343 17.442 38.3231 17.4706 39.4448 17.4706H40.7113V19.0026V20.5345L39.007 22.1471C38.0698 23.034 37.2295 23.9209 37.1397 24.1179C37.0201 24.3808 36.9767 25.0098 36.9767 26.4833V28.4904H34.9927H33.0087V26.4833C33.0087 25.0098 32.9653 24.3808 32.8457 24.1179C32.7559 23.9209 31.9157 23.034 30.9784 22.1471L29.2741 20.5345V19.0026V17.4706H30.5406C31.6623 17.4706 31.8511 17.442 32.1919 17.2201C33.0008 16.6935 33.0087 16.6454 33.0087 12.2641C33.0087 8.54506 32.9961 8.31063 32.7738 7.89488C32.6211 7.60948 32.3745 7.37562 32.0701 7.22746C31.6191 7.00807 31.44 7.00061 27.3534 7.03111C23.2442 7.06194 23.0948 7.07062 22.7762 7.29725C22.5951 7.42604 22.3419 7.70154 22.2135 7.90947C21.9916 8.26856 21.9801 8.48751 21.9801 12.3143C21.9801 16.2079 21.988 16.3515 22.2207 16.6485C22.7399 17.3117 23.0031 17.4106 24.4095 17.4706L25.7146 17.5262L25.773 19.6968C25.8269 21.703 25.8506 21.8927 26.0859 22.2013C26.2259 22.385 27.053 23.2108 27.924 24.0364L29.5076 25.5376V27.014V28.4904H24.7352H19.9629L19.9212 26.4022C19.883 24.4936 19.8578 24.2813 19.6278 23.9348C19.4562 23.6765 18.564 23.0386 16.8268 21.9324L14.2775 20.309V18.9176V17.5262L15.6397 17.4706C16.8901 17.4195 17.0273 17.3921 17.3138 17.1366C17.9558 16.5641 17.9537 16.5802 17.9537 12.2053C17.9537 6.55169 18.434 7.00662 12.4686 7.00996C8.8911 7.01207 8.27326 7.03689 7.94252 7.1924ZM14.4526 12.2389V14.1312H12.4686H10.4846V12.2389V10.3466H12.4686H14.4526V12.2389ZM29.5076 12.2389V14.1312H27.5236H25.5396V12.2389V10.3466H27.5236H29.5076V12.2389ZM44.4458 12.2389V14.1312H42.4618H40.4779V12.2389V10.3466H42.4618H44.4458V12.2389ZM59.5008 12.2389V14.1312H57.5168H55.5328V12.2389V10.3466H57.5168H59.5008V12.2389ZM59.5008 46.2446V60.6595H34.9927H10.4846V46.2446V31.8298H34.9927H59.5008V46.2446ZM19.2958 35.7715C18.8248 35.9712 18.4393 36.3884 18.301 36.848C18.2384 37.0564 18.1871 38.0618 18.1871 39.0823V40.9376L16.9116 40.9754C15.5331 41.016 15.2734 41.1127 14.7516 41.7795C14.5186 42.077 14.5109 42.2192 14.5109 46.2251V50.3632L14.7911 50.738C15.2239 51.3167 15.8384 51.5266 17.1076 51.5295L18.1871 51.5319V53.3193C18.1871 55.4258 18.3005 55.9721 18.8293 56.415C19.8266 57.2501 21.322 56.8041 21.6832 55.5635C21.7495 55.3359 21.804 54.3357 21.8043 53.3408L21.805 51.5319H22.889C24.2816 51.5319 24.8816 51.2807 25.281 50.5301C25.5458 50.0325 25.5473 50.0033 25.5144 46.0688L25.4812 42.1084L25.1449 41.688C24.6762 41.1023 24.2346 40.9573 22.9174 40.9573H21.805L21.8043 39.1485C21.804 38.1537 21.7464 37.1393 21.6765 36.8945C21.3849 35.874 20.2817 35.3536 19.2958 35.7715ZM34.2012 35.7995C33.7279 36.022 33.3651 36.4926 33.2796 36.9954L33.2147 37.3769L31.9155 37.414C30.7958 37.4459 30.5658 37.4853 30.2513 37.6992C29.521 38.1961 29.5076 38.2869 29.5076 42.7108C29.5076 46.6783 29.5098 46.7158 29.7705 47.0848C30.2179 47.7181 30.6684 47.8899 32.0324 47.9478L33.2421 47.9991V51.7988C33.2421 56.1299 33.2464 56.1523 34.1773 56.6217C34.7954 56.9335 35.1321 56.9397 35.7436 56.6506C36.7068 56.1955 36.6806 56.3229 36.7183 51.8937L36.7518 47.97L37.652 47.9673C39.2256 47.9625 39.9006 47.7035 40.3139 46.9459C40.4458 46.7041 40.4779 45.8683 40.4779 42.6772C40.4779 38.2903 40.4637 38.1957 39.7341 37.6992C39.4196 37.4853 39.1897 37.4459 38.0699 37.414L36.7707 37.3769L36.7075 37.0056C36.6176 36.4773 36.3098 36.0804 35.7965 35.8305C35.2584 35.5689 34.7145 35.5582 34.2012 35.7995ZM49.2891 35.7654C48.798 35.9822 48.4576 36.3742 48.3089 36.8945C48.2294 37.1726 48.1815 38.6866 48.1811 40.9295L48.1804 44.5193H47.0964C45.7038 44.5193 45.1038 44.7705 44.7045 45.5211C44.4397 46.0187 44.4381 46.0483 44.471 49.9736C44.5078 54.3516 44.4873 54.2333 45.3068 54.7898C45.6156 54.9995 45.8583 55.0427 46.9242 55.0776L48.1783 55.1185L48.2991 55.5464C48.7792 57.2467 51.1942 57.2654 51.6721 55.5726L51.8004 55.1185L53.0767 55.0768C54.4546 55.0318 54.7151 54.9346 55.2338 54.2719C55.4668 53.9743 55.4745 53.8322 55.4745 49.8263C55.4745 45.7273 55.472 45.6847 55.2149 45.341C54.7354 44.6999 54.4293 44.586 53.0585 44.5383L51.8095 44.495L51.7747 40.6193C51.7413 36.9056 51.7299 36.7306 51.4993 36.4362C50.94 35.7222 50.0199 35.443 49.2891 35.7654ZM36.9767 42.627V44.5193H34.9927H33.0087V42.627V40.7347H34.9927H36.9767V42.627ZM21.9217 46.189V48.0813H19.9377H17.9537V46.2632C17.9537 45.2632 17.9887 44.4117 18.0316 44.3709C18.0743 44.3301 18.9671 44.2967 20.0156 44.2967H21.9217V46.189ZM52.0053 49.8344L51.9733 51.6989L50.0185 51.7294L48.0637 51.7599V49.8649V47.97H50.0505H52.0373L52.0053 49.8344Z" fill="url(#paint0_linear_1157_53358)"/>
<path fill-rule="evenodd" clip-rule="evenodd" d="M7.94252 7.1924C7.73186 7.29146 7.44302 7.52822 7.30064 7.71857C7.0461 8.05885 7.0412 8.13331 7.01051 12.1276C6.97573 16.6676 6.98122 16.7035 7.78847 17.2179C8.13987 17.4419 8.32905 17.4706 9.45152 17.4706H10.718L10.7182 19.502C10.7184 21.213 10.7506 21.5949 10.9225 21.923C11.0831 22.2297 11.6791 22.6662 13.7232 23.9737L16.3199 25.6348V27.0626V28.4904H12.2524C8.21806 28.4904 8.18176 28.4924 7.78847 28.7431C7.57034 28.882 7.29982 29.1701 7.1872 29.3832C6.9944 29.748 6.98425 30.7355 7.01214 46.356L7.04179 62.9414L7.30204 63.2895C7.87845 64.0601 5.48622 63.9988 35.0122 63.9988C60.7405 63.9988 61.6776 63.9917 62.0702 63.7925C62.2938 63.6789 62.5941 63.391 62.7375 63.1524L62.9981 62.7188L62.9999 46.2446C63.0015 30.7806 62.9891 29.7468 62.7975 29.3832C62.6854 29.1701 62.4151 28.882 62.1969 28.7431C61.8037 28.4924 61.7674 28.4904 57.733 28.4904H53.6656L53.6671 27.0712L53.6686 25.652L56.1965 24.038C57.5869 23.1503 58.8335 22.2827 58.9668 22.11C59.189 21.8221 59.2121 21.6172 59.2451 19.6334L59.2813 17.4706H60.5409C61.656 17.4706 61.8459 17.4416 62.1969 17.2179C63.0042 16.7035 63.0097 16.6676 62.9749 12.1276C62.9441 8.12664 62.9397 8.0594 62.6834 7.71668C62.1633 7.02142 62.0602 7.00729 57.4992 7.00751C52.8925 7.00762 52.8274 7.0173 52.2926 7.78068L52.0237 8.16448L52.0569 12.3635L52.09 16.5624L52.3818 16.8597C52.8592 17.3464 53.0797 17.4123 54.4241 17.4706L55.7079 17.5262V18.9176V20.309L53.1488 21.9472C51.4746 23.0189 50.5061 23.7113 50.3479 23.9495C50.1299 24.2776 50.1021 24.5189 50.0659 26.4019L50.0259 28.4904H45.2518H40.4779V27.0139V25.5373L41.9448 24.1476C42.7516 23.3832 43.5787 22.5598 43.783 22.3175L44.1541 21.8772L44.2124 19.7017L44.2708 17.5262L45.6506 17.4706L47.0305 17.4149L47.4777 16.9574C48.0604 16.3614 48.0931 16.057 48.0437 11.6824C48.008 8.5248 47.989 8.26099 47.7719 7.90947C47.6436 7.70154 47.3903 7.42604 47.2092 7.29725C46.8906 7.07062 46.7413 7.06194 42.6257 7.03111C37.7905 6.99504 37.782 6.99627 37.2645 7.83856L36.9767 8.30696V12.2504C36.9767 16.647 36.9843 16.6933 37.7935 17.2201C38.1343 17.442 38.3231 17.4706 39.4448 17.4706H40.7113V19.0026V20.5345L39.007 22.1471C38.0698 23.034 37.2295 23.9209 37.1397 24.1179C37.0201 24.3808 36.9767 25.0098 36.9767 26.4833V28.4904H34.9927H33.0087V26.4833C33.0087 25.0098 32.9653 24.3808 32.8457 24.1179C32.7559 23.9209 31.9157 23.034 30.9784 22.1471L29.2741 20.5345V19.0026V17.4706H30.5406C31.6623 17.4706 31.8511 17.442 32.1919 17.2201C33.0008 16.6935 33.0087 16.6454 33.0087 12.2641C33.0087 8.54506 32.9961 8.31063 32.7738 7.89488C32.6211 7.60948 32.3745 7.37562 32.0701 7.22746C31.6191 7.00807 31.44 7.00061 27.3534 7.03111C23.2442 7.06194 23.0948 7.07062 22.7762 7.29725C22.5951 7.42604 22.3419 7.70154 22.2135 7.90947C21.9916 8.26856 21.9801 8.48751 21.9801 12.3143C21.9801 16.2079 21.988 16.3515 22.2207 16.6485C22.7399 17.3117 23.0031 17.4106 24.4095 17.4706L25.7146 17.5262L25.773 19.6968C25.8269 21.703 25.8506 21.8927 26.0859 22.2013C26.2259 22.385 27.053 23.2108 27.924 24.0364L29.5076 25.5376V27.014V28.4904H24.7352H19.9629L19.9212 26.4022C19.883 24.4936 19.8578 24.2813 19.6278 23.9348C19.4562 23.6765 18.564 23.0386 16.8268 21.9324L14.2775 20.309V18.9176V17.5262L15.6397 17.4706C16.8901 17.4195 17.0273 17.3921 17.3138 17.1366C17.9558 16.5641 17.9537 16.5802 17.9537 12.2053C17.9537 6.55169 18.434 7.00662 12.4686 7.00996C8.8911 7.01207 8.27326 7.03689 7.94252 7.1924ZM14.4526 12.2389V14.1312H12.4686H10.4846V12.2389V10.3466H12.4686H14.4526V12.2389ZM29.5076 12.2389V14.1312H27.5236H25.5396V12.2389V10.3466H27.5236H29.5076V12.2389ZM44.4458 12.2389V14.1312H42.4618H40.4779V12.2389V10.3466H42.4618H44.4458V12.2389ZM59.5008 12.2389V14.1312H57.5168H55.5328V12.2389V10.3466H57.5168H59.5008V12.2389ZM59.5008 46.2446V60.6595H34.9927H10.4846V46.2446V31.8298H34.9927H59.5008V46.2446ZM19.2958 35.7715C18.8248 35.9712 18.4393 36.3884 18.301 36.848C18.2384 37.0564 18.1871 38.0618 18.1871 39.0823V40.9376L16.9116 40.9754C15.5331 41.016 15.2734 41.1127 14.7516 41.7795C14.5186 42.077 14.5109 42.2192 14.5109 46.2251V50.3632L14.7911 50.738C15.2239 51.3167 15.8384 51.5266 17.1076 51.5295L18.1871 51.5319V53.3193C18.1871 55.4258 18.3005 55.9721 18.8293 56.415C19.8266 57.2501 21.322 56.8041 21.6832 55.5635C21.7495 55.3359 21.804 54.3357 21.8043 53.3408L21.805 51.5319H22.889C24.2816 51.5319 24.8816 51.2807 25.281 50.5301C25.5458 50.0325 25.5473 50.0033 25.5144 46.0688L25.4812 42.1084L25.1449 41.688C24.6762 41.1023 24.2346 40.9573 22.9174 40.9573H21.805L21.8043 39.1485C21.804 38.1537 21.7464 37.1393 21.6765 36.8945C21.3849 35.874 20.2817 35.3536 19.2958 35.7715ZM34.2012 35.7995C33.7279 36.022 33.3651 36.4926 33.2796 36.9954L33.2147 37.3769L31.9155 37.414C30.7958 37.4459 30.5658 37.4853 30.2513 37.6992C29.521 38.1961 29.5076 38.2869 29.5076 42.7108C29.5076 46.6783 29.5098 46.7158 29.7705 47.0848C30.2179 47.7181 30.6684 47.8899 32.0324 47.9478L33.2421 47.9991V51.7988C33.2421 56.1299 33.2464 56.1523 34.1773 56.6217C34.7954 56.9335 35.1321 56.9397 35.7436 56.6506C36.7068 56.1955 36.6806 56.3229 36.7183 51.8937L36.7518 47.97L37.652 47.9673C39.2256 47.9625 39.9006 47.7035 40.3139 46.9459C40.4458 46.7041 40.4779 45.8683 40.4779 42.6772C40.4779 38.2903 40.4637 38.1957 39.7341 37.6992C39.4196 37.4853 39.1897 37.4459 38.0699 37.414L36.7707 37.3769L36.7075 37.0056C36.6176 36.4773 36.3098 36.0804 35.7965 35.8305C35.2584 35.5689 34.7145 35.5582 34.2012 35.7995ZM49.2891 35.7654C48.798 35.9822 48.4576 36.3742 48.3089 36.8945C48.2294 37.1726 48.1815 38.6866 48.1811 40.9295L48.1804 44.5193H47.0964C45.7038 44.5193 45.1038 44.7705 44.7045 45.5211C44.4397 46.0187 44.4381 46.0483 44.471 49.9736C44.5078 54.3516 44.4873 54.2333 45.3068 54.7898C45.6156 54.9995 45.8583 55.0427 46.9242 55.0776L48.1783 55.1185L48.2991 55.5464C48.7792 57.2467 51.1942 57.2654 51.6721 55.5726L51.8004 55.1185L53.0767 55.0768C54.4546 55.0318 54.7151 54.9346 55.2338 54.2719C55.4668 53.9743 55.4745 53.8322 55.4745 49.8263C55.4745 45.7273 55.472 45.6847 55.2149 45.341C54.7354 44.6999 54.4293 44.586 53.0585 44.5383L51.8095 44.495L51.7747 40.6193C51.7413 36.9056 51.7299 36.7306 51.4993 36.4362C50.94 35.7222 50.0199 35.443 49.2891 35.7654ZM36.9767 42.627V44.5193H34.9927H33.0087V42.627V40.7347H34.9927H36.9767V42.627ZM21.9217 46.189V48.0813H19.9377H17.9537V46.2632C17.9537 45.2632 17.9887 44.4117 18.0316 44.3709C18.0743 44.3301 18.9671 44.2967 20.0156 44.2967H21.9217V46.189ZM52.0053 49.8344L51.9733 51.6989L50.0185 51.7294L48.0637 51.7599V49.8649V47.97H50.0505H52.0373L52.0053 49.8344Z" stroke="white" stroke-width="6" mask="url(#path-1-outside-1_1157_53358)"/>
<rect x="42.9746" y="68.6797" width="28.7423" height="10.2035" transform="rotate(-42.9279 42.9746 68.6797)" fill="white"/>
<path d="M58.7124 52.8767L42.1889 69.4337C39.5034 74.4306 45.3593 77.4138 47.933 75.3256L64.643 58.7686C76.3102 61.4237 79.0405 50.1545 76.7652 46.0525L70.499 52.3546L66.135 51.4223L65.1652 46.9102L71.3569 40.6827C61.9948 37.3638 56.3626 46.9102 58.7124 52.8767Z" stroke="white" stroke-width="8" stroke-linejoin="round"/>
<path d="M58.7124 52.8767L42.1889 69.4337C39.5034 74.4306 45.3593 77.4138 47.933 75.3256L64.643 58.7686C76.3102 61.4237 79.0405 50.1545 76.7652 46.0525L70.499 52.3546L66.135 51.4223L65.1652 46.9102L71.3569 40.6827C61.9948 37.3638 56.3626 46.9102 58.7124 52.8767Z" stroke="#2FC6E7" stroke-width="3" stroke-linejoin="round"/>
</g>
<defs>
<linearGradient id="paint0_linear_1157_53358" x1="63" y1="7" x2="-0.162466" y2="16.5303" gradientUnits="userSpaceOnUse">
<stop stop-color="#18EB58"/>
<stop offset="1" stop-color="#368BEF"/>
</linearGradient>
<clipPath id="clip0_1157_53358">
<rect width="80" height="80" fill="white"/>
</clipPath>
</defs>
</svg>
