<svg width="32" height="41" fill="none" xmlns="http://www.w3.org/2000/svg"><path d="M30.614 9.532C27.69 2.93 20.68-.92 13.534.19 10.938.6 8.601 1.573 6.552 3.094 2.999 5.75.84 9.34.157 13.738a12.597 12.597 0 00.52 6.055c.75 2.165 1.79 4.316 3.333 6.754h.055c2.76 4.425 6.122 8.795 10.562 13.727.438.466.916.726 1.38.726.492 0 .97-.247 1.408-.726 3.279-3.603 6.067-7.055 8.499-10.562 1.762-2.548 3.757-5.59 5.083-9.07.724-1.876 1.052-3.342.997-4.753-.027-2.301-.464-4.315-1.38-6.33v-.027zM20.68 21.3c-1.27 1.247-2.91 1.932-4.645 1.932h.013-.027.014a6.519 6.519 0 01-4.619-1.932 6.55 6.55 0 01-1.926-4.644c0-3.63 2.951-6.59 6.572-6.59 3.62 0 6.572 2.96 6.572 6.59 0 1.74-.655 3.398-1.926 4.644h-.028z" fill="#2F67F8"/></svg>