<svg width="80" height="80" viewBox="0 0 80 80" fill="none" xmlns="http://www.w3.org/2000/svg">
<path fill-rule="evenodd" clip-rule="evenodd" d="M13.6687 7.18217C13.3395 7.32133 12.9163 8.02105 11.1046 11.4226L8.93487 15.4965L5.46126 15.5644C1.61619 15.6396 1.52151 15.6597 0.711903 16.5731C0.478353 16.8364 0.222574 17.2828 0.143397 17.5652C0.0462449 17.9118 -0.000273235 24.0174 1.20712e-06 36.3564L0.000687458 54.6342L0.322882 55.3137C0.701886 56.1128 0.954099 56.3573 1.78429 56.7301C2.33138 56.9758 2.68253 57.0068 4.96287 57.0094L7.52657 57.0124L7.57007 60.104L7.6137 63.1956L10.1962 67.9093C11.6166 70.5017 12.8765 72.7032 12.9961 72.8015C13.3192 73.0672 45.6835 73.0657 46.0066 72.8C46.1271 72.7009 47.3871 70.4994 48.8065 67.9078L51.3872 63.1956L51.4308 60.104L51.4743 57.0124L54.038 57.011C56.4406 57.0098 56.6447 56.9897 57.2877 56.6906C58.0945 56.3153 58.3414 56.0655 58.7179 55.2433C58.9939 54.6408 58.9969 54.4395 58.9999 36.3721C59.0021 23.0741 58.9604 17.9692 58.8464 17.5923C58.6536 16.9552 58.0254 16.1809 57.4469 15.8674C57.0791 15.6681 56.486 15.6221 53.5421 15.5644L50.0708 15.4965L47.9044 11.4249C46.0806 7.99768 45.6744 7.32676 45.3378 7.18435C44.7595 6.94001 14.2464 6.93783 13.6687 7.18217ZM46.0699 12.2126C46.9945 13.9563 47.7508 15.4238 47.7508 15.4737C47.7508 15.5235 39.5382 15.5644 29.5004 15.5644C19.4627 15.5644 11.2501 15.5253 11.2501 15.4773C11.2501 15.4295 12.0064 13.9625 12.931 12.2175L14.612 9.04475L29.5004 9.04352L44.3889 9.04216L46.0699 12.2126ZM56.4391 17.6233C56.6039 17.7091 56.7842 17.8468 56.8396 17.929C56.8951 18.0112 56.9413 26.2682 56.9426 36.2777C56.9445 53.0233 56.9265 54.4968 56.7175 54.7254C56.4989 54.9646 55.4744 54.974 29.5243 54.974C4.62462 54.974 2.53886 54.9567 2.30723 54.7491C2.06641 54.5333 2.05626 53.7824 2.05626 36.2933C2.05626 17.3015 2.04281 17.7604 2.60514 17.5613C2.71835 17.5212 14.8098 17.4836 29.4752 17.4777C49.319 17.4697 56.216 17.5069 56.4391 17.6233ZM7.08335 22.3691L6.72177 22.6507V29.2219V35.7931L7.08335 36.0747L7.44492 36.3564H29.5004H51.556L51.9175 36.0747L52.2791 35.7931V29.2219V22.6507L51.9175 22.3691L51.556 22.0874H29.5004H7.44492L7.08335 22.3691ZM22.773 29.2219L19.331 34.3179H13.9869H8.64286V29.2219V24.1258H17.4288H26.215L22.773 29.2219ZM32.0967 29.2219L28.6406 34.3179H25.2283C23.3516 34.3179 21.8161 34.2872 21.8161 34.2497C21.8161 34.2122 23.3389 31.919 25.2003 29.1537L28.5846 24.1258H32.0687H35.5528L32.0967 29.2219ZM50.358 29.2219V34.3179H40.7526C35.4696 34.3179 31.1471 34.2872 31.1471 34.2497C31.1471 34.2122 32.67 31.919 34.5314 29.1537L37.9156 24.1258H44.1368H50.358V29.2219ZM13.8092 40.7205C12.3208 40.948 10.7569 42.1353 10.1098 43.5293C9.87126 44.0431 9.81185 44.4266 9.81075 45.4613C9.80938 46.5706 9.85946 46.8575 10.1656 47.4998C11.9211 51.1813 17.1401 51.1979 18.9645 47.5277C19.3678 46.7166 19.4144 46.5015 19.4117 45.4642C19.4092 44.5094 19.3469 44.1751 19.0563 43.5588C18.0835 41.4959 16.0244 40.3821 13.8092 40.7205ZM27.7476 40.7236C26.259 40.9621 24.9223 41.9357 24.1878 43.3164C23.8402 43.9697 23.8058 44.163 23.8058 45.4613C23.8058 46.8288 23.8254 46.924 24.2764 47.7479C25.8419 50.6074 29.6577 51.1608 31.9763 48.8645C34.2715 46.5916 33.7373 42.7683 30.9174 41.2845C30.2108 40.9127 29.89 40.8188 28.7457 40.6485C28.5948 40.6261 28.1457 40.6599 27.7476 40.7236ZM15.6112 42.8186C16.7047 43.271 17.425 44.3205 17.425 45.4613C17.425 47.5345 15.2189 48.9264 13.3516 48.0311C11.1923 46.996 11.1615 44.0536 13.2988 42.9812C14.1447 42.5568 14.8573 42.5067 15.6112 42.8186ZM29.4012 42.7516C30.9738 43.1841 31.8582 45.1259 31.1614 46.6164C30.27 48.5233 27.7769 48.891 26.385 47.3209C25.3786 46.1858 25.4472 44.5786 26.5488 43.4858C27.3495 42.6917 28.2969 42.4479 29.4012 42.7516ZM40.0665 45.6652V46.6844H44.1831H48.2997V45.6652V44.646H44.1831H40.0665V45.6652ZM17.1506 58.9829V60.9534H18.1111H19.0717V58.9829V57.0124H21.8847H24.6977V58.9829V60.9534H25.7269H26.756V58.9829V57.0124H29.5004H32.2449V58.9829V60.9534H33.274H34.3032V58.9829V57.0124H37.1162H39.9292V58.9829V60.9534H40.8898H41.8503V58.9829V57.0124H45.6239H49.3975V59.8544V62.6963L47.1186 66.853L44.8398 71.0096H29.4992H14.1586L11.881 66.8426L9.60341 62.6757V59.844V57.0124H13.377H17.1506V58.9829Z" fill="#F45B69"/>
<path d="M47.5 56L56.0616 68.5M56.0616 68.5V40M56.0616 68.5L64.5 56" stroke="white" stroke-width="8" stroke-linecap="round" stroke-linejoin="round"/>
<path d="M47.5 56L56.0616 68.5M56.0616 68.5V40M56.0616 68.5L64.5 56" stroke="#2FC6E7" stroke-width="3" stroke-linecap="round" stroke-linejoin="round"/>
<path d="M78.5 52.5L69.9384 40M69.9384 40L69.9384 68.5M69.9384 40L61.5 52.5" stroke="#2FC6E7" stroke-width="3" stroke-linecap="round" stroke-linejoin="round"/>
</svg>
